<?xml version="1.0" encoding="UTF-8" standalone="no"?>
<svg
   xmlns:dc="http://purl.org/dc/elements/1.1/"
   xmlns:cc="http://creativecommons.org/ns#"
   xmlns:rdf="http://www.w3.org/1999/02/22-rdf-syntax-ns#"
   xmlns:svg="http://www.w3.org/2000/svg"
   xmlns="http://www.w3.org/2000/svg"
   xmlns:sodipodi="http://sodipodi.sourceforge.net/DTD/sodipodi-0.dtd"
   xmlns:inkscape="http://www.inkscape.org/namespaces/inkscape"
   inkscape:version="1.0 (4035a4fb49, 2020-05-01)"
   sodipodi:docname="BB-des-process.svg"
   id="svg45"
   version="1.1"
   viewBox="0 0 1400 271"
   height="271"
   width="1400">
  <metadata
     id="metadata49">
    <rdf:RDF>
      <cc:Work
         rdf:about="">
        <dc:format>image/svg+xml</dc:format>
        <dc:type
           rdf:resource="http://purl.org/dc/dcmitype/StillImage" />
      </cc:Work>
    </rdf:RDF>
  </metadata>
  <sodipodi:namedview
     inkscape:current-layer="svg45"
     inkscape:window-maximized="1"
     inkscape:window-y="-8"
     inkscape:window-x="-8"
     inkscape:cy="135.5"
     inkscape:cx="700"
     inkscape:zoom="0.81214286"
     showgrid="false"
     id="namedview47"
     inkscape:window-height="1002"
     inkscape:window-width="1920"
     inkscape:pageshadow="2"
     inkscape:pageopacity="0"
     guidetolerance="10"
     gridtolerance="10"
     objecttolerance="10"
     borderopacity="1"
     bordercolor="#666666"
     pagecolor="#ffffff" />
  <defs
     id="defs9">
    <linearGradient
       x1="0"
       gradientTransform="matrix(1.9560386,0,0,0.51123736,960,0)"
       gradientUnits="userSpaceOnUse"
       y2="112.47222"
       x2="224.94444"
       y1="112.47222"
       id="linear-gradient">
      <stop
         id="stop2"
         stop-color="#809bc5"
         offset="0" />
      <stop
         id="stop4"
         stop-color="#6a6869"
         offset="0.495" />
      <stop
         id="stop6"
         stop-color="#563811"
         offset="1" />
    </linearGradient>
  </defs>
  <path
     id="Path_52"
     data-name="Path 52"
     d="m 240.497,57.5 h 60"
     fill="none"
     stroke="#707070"
     stroke-width="2" />
  <rect
     id="Rectangle_250"
     data-name="Rectangle 250"
     width="220"
     height="115"
     rx="2"
     fill="#fad57d"
     x="0"
     y="0" />
  <g
     style="font-weight:500;font-size:30px;font-family:HKGrotesk-Medium, 'HK Grotesk';letter-spacing:0.084em;fill:#565656"
     id="Research"
     aria-label="Research">
    <path
       id="path900"
       d="m 52.078,58.505 c 2.685,-0.75 4.14,-2.61 4.14,-5.565 0,-3.63 -2.19,-5.85 -6.96,-5.85 h -6.15 V 68 h 2.505 v -9.15 h 2.535 c 0.36,0 0.795,0 1.26,-0.015 L 54.763,68 h 2.925 z M 45.613,49.34 h 3.405 c 2.775,0 4.695,0.99 4.695,3.63 0,2.64 -1.89,3.66 -4.695,3.66 h -3.405 z" />
    <path
       id="path902"
       d="m 74.685813,60.005 c 0,-3.555 -1.965,-7.035 -6.51,-7.035 -4.44,0 -6.675,3.615 -6.675,7.725 0,4.155 2.28,7.545 6.915,7.545 2.445,0 4.17,-0.78 5.82,-2.505 l -1.695,-1.5 c -1.23,1.335 -2.445,1.815 -4.11,1.815 -2.79,0 -4.425,-1.8 -4.515,-4.725 h 10.695 c 0.045,-0.435 0.075,-0.915 0.075,-1.32 z m -10.785,-0.57 c 0.225,-2.475 1.74,-4.44 4.32,-4.44 2.85,0 4.17,2.13 4.17,4.155 v 0.285 z" />
    <path
       id="path904"
       d="m 85.74972,68.24 c 3.36,0 5.55,-1.815 5.55,-4.575 0,-3.3 -2.97,-4.005 -5.415,-4.59 -2.04,-0.495 -3.21,-0.93 -3.21,-2.205 0,-1.125 1.14,-1.95 2.76,-1.95 1.56,0 2.805,0.66 3.735,2.085 l 1.695,-1.29 c -1.155,-1.815 -3.075,-2.745 -5.34,-2.745 -3.045,0 -5.115,1.8 -5.115,4.05 0,2.835 2.475,3.6 4.8,4.2 2.175,0.57 3.72,1.02 3.72,2.685 0,1.47 -1.125,2.325 -3.015,2.325 -1.995,0 -3.705,-1.005 -4.605,-2.67 l -1.665,1.41 c 1.32,2.07 3.495,3.27 6.105,3.27 z" />
    <path
       id="path906"
       d="m 109.60863,60.005 c 0,-3.555 -1.965,-7.035 -6.51,-7.035 -4.440003,0 -6.675003,3.615 -6.675003,7.725 0,4.155 2.28,7.545 6.915003,7.545 2.445,0 4.17,-0.78 5.82,-2.505 l -1.695,-1.5 c -1.23,1.335 -2.445,1.815 -4.11,1.815 -2.79,0 -4.425003,-1.8 -4.515003,-4.725 h 10.695003 c 0.045,-0.435 0.075,-0.915 0.075,-1.32 z m -10.785003,-0.57 c 0.225,-2.475 1.740003,-4.44 4.320003,-4.44 2.85,0 4.17,2.13 4.17,4.155 v 0.285 z" />
    <path
       id="path908"
       d="m 121.27535,52.97 c -2.445,0 -4.605,0.84 -6.255,2.82 l 1.755,1.455 c 1.335,-1.59 2.67,-2.16 4.335,-2.16 2.52,0 3.81,1.305 3.81,3.675 v 0.465 h -4.575 c -1.62,0 -3.06,0.3 -4.08,1.035 -1.005,0.705 -1.605,1.815 -1.605,3.345 0,2.79 2.085,4.635 5.49,4.635 1.95,0 3.675,-0.69 4.8,-2.67 l 0.15,2.43 h 2.22 v -9.24 c 0,-3.69 -2.175,-5.79 -6.045,-5.79 z m -0.915,13.32 c -2.055,0 -3.285,-1.05 -3.285,-2.655 0,-0.855 0.33,-1.455 0.9,-1.875 0.645,-0.45 1.605,-0.63 2.7,-0.63 h 4.245 v 0.615 c 0,2.61 -2.07,4.545 -4.56,4.545 z" />
    <path
       id="path910"
       d="m 140.67362,52.97 c -1.755,0 -3.405,0.99 -4.26,2.685 V 53.21 h -2.43 V 68 h 2.415 v -6.96 c 0,-1.635 0.09,-2.295 0.255,-2.85 0.57,-2.04 2.145,-2.895 3.645,-2.895 0.66,0 1.35,0.195 1.83,0.435 l 1.17,-2.1 c -0.765,-0.42 -1.71,-0.66 -2.625,-0.66 z" />
    <path
       id="path912"
       d="m 153.1705,68.24 c 2.82,0 4.98,-1.41 5.97,-4.125 l -2.13,-0.84 c -0.6,1.755 -1.89,2.85 -3.84,2.85 -3,0 -4.38,-2.64 -4.38,-5.535 0,-2.865 1.38,-5.505 4.38,-5.505 1.95,0 3.24,1.095 3.84,2.85 l 2.13,-0.84 c -0.99,-2.715 -3.15,-4.125 -5.97,-4.125 -4.35,0 -6.795,3.465 -6.795,7.62 0,4.185 2.445,7.65 6.795,7.65 z" />
    <path
       id="path914"
       d="m 172.01284,52.97 c -1.95,0 -3.525,0.705 -4.5,2.445 V 47.09 h -2.415 V 68 h 2.415 v -7.395 c 0,-3.69 1.305,-5.52 3.9,-5.52 2.31,0 3.405,1.44 3.405,4.44 V 68 h 2.415 v -9.345 c 0,-3.63 -1.845,-5.685 -5.22,-5.685 z" />
  </g>
  <rect
     id="Rectangle_251"
     data-name="Rectangle 251"
     width="220"
     height="115"
     rx="2"
     fill="#fad57d"
     x="320"
     y="0" />
  <g
     style="font-weight:500;font-size:30px;font-family:HKGrotesk-Medium, 'HK Grotesk';letter-spacing:0.084em;fill:#565656"
     id="User_Testing"
     aria-label="User Testing">
    <path
       id="path917"
       d="m 344.72499,68.345 c 4.98,0 7.65,-2.76 7.65,-8.055 v -13.2 h -2.505 v 13.035 c 0,3.84 -1.485,5.91 -5.145,5.91 -3.66,0 -5.1,-2.025 -5.1,-5.865 V 47.09 h -2.505 v 13.35 c 0,5.205 2.64,7.905 7.605,7.905 z" />
    <path
       id="path919"
       d="m 363.88796,68.24 c 3.36,0 5.55,-1.815 5.55,-4.575 0,-3.3 -2.97,-4.005 -5.415,-4.59 -2.04,-0.495 -3.21,-0.93 -3.21,-2.205 0,-1.125 1.14,-1.95 2.76,-1.95 1.56,0 2.805,0.66 3.735,2.085 l 1.695,-1.29 c -1.155,-1.815 -3.075,-2.745 -5.34,-2.745 -3.045,0 -5.115,1.8 -5.115,4.05 0,2.835 2.475,3.6 4.8,4.2 2.175,0.57 3.72,1.02 3.72,2.685 0,1.47 -1.125,2.325 -3.015,2.325 -1.995,0 -3.705,-1.005 -4.605,-2.67 l -1.665,1.41 c 1.32,2.07 3.495,3.27 6.105,3.27 z" />
    <path
       id="path921"
       d="m 387.74687,60.005 c 0,-3.555 -1.965,-7.035 -6.51,-7.035 -4.44,0 -6.675,3.615 -6.675,7.725 0,4.155 2.28,7.545 6.915,7.545 2.445,0 4.17,-0.78 5.82,-2.505 l -1.695,-1.5 c -1.23,1.335 -2.445,1.815 -4.11,1.815 -2.79,0 -4.425,-1.8 -4.515,-4.725 h 10.695 c 0.045,-0.435 0.075,-0.915 0.075,-1.32 z m -10.785,-0.57 c 0.225,-2.475 1.74,-4.44 4.32,-4.44 2.85,0 4.17,2.13 4.17,4.155 v 0.285 z" />
    <path
       id="path923"
       d="m 400.58874,52.97 c -1.755,0 -3.405,0.99 -4.26,2.685 V 53.21 h -2.43 V 68 h 2.415 v -6.96 c 0,-1.635 0.09,-2.295 0.255,-2.85 0.57,-2.04 2.145,-2.895 3.645,-2.895 0.66,0 1.35,0.195 1.83,0.435 l 1.17,-2.1 c -0.765,-0.42 -1.71,-0.66 -2.625,-0.66 z" />
    <path
       id="path925"
       d="M 426.63343,68 V 49.34 h 7.065 v -2.25 h -16.68 v 2.25 h 7.08 V 68 Z" />
    <path
       id="path927"
       d="m 448.51046,60.005 c 0,-3.555 -1.965,-7.035 -6.51,-7.035 -4.44,0 -6.675,3.615 -6.675,7.725 0,4.155 2.28,7.545 6.915,7.545 2.445,0 4.17,-0.78 5.82,-2.505 l -1.695,-1.5 c -1.23,1.335 -2.445,1.815 -4.11,1.815 -2.79,0 -4.425,-1.8 -4.515,-4.725 h 10.695 c 0.045,-0.435 0.075,-0.915 0.075,-1.32 z m -10.785,-0.57 c 0.225,-2.475 1.74,-4.44 4.32,-4.44 2.85,0 4.17,2.13 4.17,4.155 v 0.285 z" />
    <path
       id="path929"
       d="m 459.57437,68.24 c 3.36,0 5.55,-1.815 5.55,-4.575 0,-3.3 -2.97,-4.005 -5.415,-4.59 -2.04,-0.495 -3.21,-0.93 -3.21,-2.205 0,-1.125 1.14,-1.95 2.76,-1.95 1.56,0 2.805,0.66 3.735,2.085 l 1.695,-1.29 c -1.155,-1.815 -3.075,-2.745 -5.34,-2.745 -3.045,0 -5.115,1.8 -5.115,4.05 0,2.835 2.475,3.6 4.8,4.2 2.175,0.57 3.72,1.02 3.72,2.685 0,1.47 -1.125,2.325 -3.015,2.325 -1.995,0 -3.705,-1.005 -4.605,-2.67 l -1.665,1.41 c 1.32,2.07 3.495,3.27 6.105,3.27 z" />
    <path
       id="path931"
       d="m 478.2325,53.21 h -3.45 v -5.37 l -2.43,1.365 v 4.005 h -3.105 v 1.905 h 3.105 v 9.18 c 0,2.775 1.515,3.945 3.615,3.945 0.735,0 1.485,-0.135 2.265,-0.39 v -1.89 c -0.63,0.195 -1.185,0.285 -1.635,0.285 -1.335,0 -1.815,-0.9 -1.815,-2.595 v -8.535 h 3.45 z" />
    <path
       id="path933"
       d="M 486.18717,50.495 V 47.09 h -2.55 v 3.405 z M 486.11217,68 V 53.21 h -2.415 V 68 Z" />
    <path
       id="path935"
       d="m 499.89905,52.97 c -1.89,0 -3.51,0.705 -4.5,2.46 v -2.22 h -2.415 V 68 h 2.415 v -7.395 c 0,-3.825 1.395,-5.52 3.9,-5.52 2.265,0 3.405,1.38 3.405,4.44 V 68 h 2.415 v -9.345 c 0,-3.765 -1.935,-5.685 -5.22,-5.685 z" />
    <path
       id="path937"
       d="m 516.73374,66.11 c -2.145,-0.3 -3.495,-0.615 -3.495,-1.98 0,-0.57 0.285,-1.02 0.825,-1.425 0.84,0.405 1.83,0.63 2.94,0.63 3.315,0 5.595,-2.01 5.595,-5.04 0,-0.99 -0.24,-1.86 -0.66,-2.61 l 2.295,-1.98 -1.26,-1.545 -2.355,1.995 c -0.99,-0.765 -2.28,-1.185 -3.675,-1.185 -3.165,0 -5.685,2.115 -5.685,5.235 0,1.32 0.45,2.475 1.245,3.345 -0.96,0.72 -1.485,1.605 -1.485,2.835 0,1.425 0.72,2.34 2.04,2.94 l -2.46,1.8 c -0.06,0.27 -0.075,0.585 -0.075,0.84 0,2.775 2.595,4.41 6.885,4.41 3.885,0 6.255,-1.47 6.255,-4.215 0,-3.105 -3.195,-3.525 -6.93,-4.05 z m 0.24,-11.115 c 1.95,0 3.225,1.305 3.225,3.225 0,1.83 -1.2,3.195 -3.24,3.195 -2.07,0 -3.285,-1.38 -3.285,-3.21 0,-1.875 1.32,-3.21 3.3,-3.21 z m 0.45,17.55 c -2.535,0 -4.5,-0.84 -4.5,-2.505 0,-0.12 0,-0.24 0.03,-0.39 l 1.83,-1.77 c 0.48,0.105 1.005,0.195 1.56,0.27 2.97,0.42 4.92,0.675 4.92,2.28 0,1.5 -1.77,2.115 -3.84,2.115 z" />
  </g>
  <rect
     id="Rectangle_252"
     data-name="Rectangle 252"
     width="220"
     height="115"
     rx="2"
     fill="#809bc5"
     x="640"
     y="0" />
  <g
     style="font-weight:500;font-size:30px;font-family:HKGrotesk-Medium, 'HK Grotesk';letter-spacing:0.084em;fill:#ffffff"
     id="Discussion"
     aria-label="Discussion">
    <path
       id="path940"
       d="m 676.20001,68 c 6.96,0 10.77,-3.645 10.77,-10.29 0,-6.765 -3.915,-10.62 -10.74,-10.62 h -5.76 V 68 Z m -3.225,-18.6 h 3.21 c 5.205,0 8.25,2.49 8.25,8.22 0,5.76 -3.045,8.07 -8.475,8.07 h -2.985 z" />
    <path
       id="path942"
       d="M 695.36766,50.495 V 47.09 h -2.55 v 3.405 z M 695.29266,68 V 53.21 h -2.415 V 68 Z" />
    <path
       id="path944"
       d="m 707.36954,68.24 c 3.36,0 5.55,-1.815 5.55,-4.575 0,-3.3 -2.97,-4.005 -5.415,-4.59 -2.04,-0.495 -3.21,-0.93 -3.21,-2.205 0,-1.125 1.14,-1.95 2.76,-1.95 1.56,0 2.805,0.66 3.735,2.085 l 1.695,-1.29 c -1.155,-1.815 -3.075,-2.745 -5.34,-2.745 -3.045,0 -5.115,1.8 -5.115,4.05 0,2.835 2.475,3.6 4.8,4.2 2.175,0.57 3.72,1.02 3.72,2.685 0,1.47 -1.125,2.325 -3.015,2.325 -1.995,0 -3.705,-1.005 -4.605,-2.67 l -1.665,1.41 c 1.32,2.07 3.495,3.27 6.105,3.27 z" />
    <path
       id="path946"
       d="m 724.80845,68.24 c 2.82,0 4.98,-1.41 5.97,-4.125 l -2.13,-0.84 c -0.6,1.755 -1.89,2.85 -3.84,2.85 -3,0 -4.38,-2.64 -4.38,-5.535 0,-2.865 1.38,-5.505 4.38,-5.505 1.95,0 3.24,1.095 3.84,2.85 l 2.13,-0.84 c -0.99,-2.715 -3.15,-4.125 -5.97,-4.125 -4.35,0 -6.795,3.465 -6.795,7.62 0,4.185 2.445,7.65 6.795,7.65 z" />
    <path
       id="path948"
       d="m 745.96782,60.605 c 0,3.825 -1.395,5.52 -3.9,5.52 -2.265,0 -3.405,-1.38 -3.405,-4.44 V 53.21 h -2.415 v 9.345 c 0,3.765 1.935,5.685 5.22,5.685 1.89,0 3.51,-0.675 4.5,-2.445 V 68 h 2.415 V 53.21 h -2.415 z" />
    <path
       id="path950"
       d="m 760.10532,68.24 c 3.36,0 5.55,-1.815 5.55,-4.575 0,-3.3 -2.97,-4.005 -5.415,-4.59 -2.04,-0.495 -3.21,-0.93 -3.21,-2.205 0,-1.125 1.14,-1.95 2.76,-1.95 1.56,0 2.805,0.66 3.735,2.085 l 1.695,-1.29 c -1.155,-1.815 -3.075,-2.745 -5.34,-2.745 -3.045,0 -5.115,1.8 -5.115,4.05 0,2.835 2.475,3.6 4.8,4.2 2.175,0.57 3.72,1.02 3.72,2.685 0,1.47 -1.125,2.325 -3.015,2.325 -1.995,0 -3.705,-1.005 -4.605,-2.67 l -1.665,1.41 c 1.32,2.07 3.495,3.27 6.105,3.27 z" />
    <path
       id="path952"
       d="m 776.9222,68.24 c 3.36,0 5.55,-1.815 5.55,-4.575 0,-3.3 -2.97,-4.005 -5.415,-4.59 -2.04,-0.495 -3.21,-0.93 -3.21,-2.205 0,-1.125 1.14,-1.95 2.76,-1.95 1.56,0 2.805,0.66 3.735,2.085 l 1.695,-1.29 c -1.155,-1.815 -3.075,-2.745 -5.34,-2.745 -3.045,0 -5.115,1.8 -5.115,4.05 0,2.835 2.475,3.6 4.8,4.2 2.175,0.57 3.72,1.02 3.72,2.685 0,1.47 -1.125,2.325 -3.015,2.325 -1.995,0 -3.705,-1.005 -4.605,-2.67 l -1.665,1.41 c 1.32,2.07 3.495,3.27 6.105,3.27 z" />
    <path
       id="path954"
       d="M 791.05407,50.495 V 47.09 h -2.55 v 3.405 z M 790.97907,68 V 53.21 h -2.415 V 68 Z" />
    <path
       id="path956"
       d="m 804.31595,68.24 c 4.17,0 7.155,-3.195 7.155,-7.65 0,-4.455 -2.97,-7.62 -7.155,-7.62 -4.2,0 -7.17,3.165 -7.17,7.62 0,4.47 2.985,7.65 7.17,7.65 z m 0,-2.13 c -2.895,0 -4.755,-2.16 -4.755,-5.52 0,-3.345 1.845,-5.49 4.755,-5.49 2.895,0 4.74,2.145 4.74,5.49 0,3.36 -1.845,5.52 -4.74,5.52 z" />
    <path
       id="path958"
       d="m 824.5125,52.97 c -1.89,0 -3.51,0.705 -4.5,2.46 v -2.22 h -2.415 V 68 h 2.415 v -7.395 c 0,-3.825 1.395,-5.52 3.9,-5.52 2.265,0 3.405,1.38 3.405,4.44 V 68 h 2.415 v -9.345 c 0,-3.765 -1.935,-5.685 -5.22,-5.685 z" />
  </g>
  <path
     id="Path_53"
     data-name="Path 53"
     d="m 560.497,57.5 h 60"
     fill="none"
     stroke="#707070"
     stroke-width="2" />
  <rect
     id="Rectangle_252-2"
     data-name="Rectangle 252"
     width="440"
     height="115"
     rx="2"
     fill="url(#linear-gradient)"
     style="fill:url(#linear-gradient)"
     x="960"
     y="0" />
  <g
     style="font-weight:500;font-size:30px;font-family:HKGrotesk-Medium, 'HK Grotesk';letter-spacing:0.084em;fill:#ffffff"
     id="Sprint"
     aria-label="Sprint">
    <path
       id="path961"
       d="m 1032.65,68.3 c 3.975,0 6.765,-2.535 6.765,-6.075 0,-3.39 -2.49,-4.86 -5.955,-6.165 -2.895,-1.095 -4.605,-1.95 -4.605,-3.945 0,-1.8 1.485,-3.135 3.6,-3.135 1.74,0 3.075,0.9 4.02,2.55 l 1.995,-1.23 c -1.245,-2.34 -3.3,-3.555 -5.94,-3.555 -3.705,0 -6.18,2.28 -6.18,5.415 0,3.135 2.235,4.635 5.76,5.985 2.805,1.065 4.815,1.935 4.815,4.245 0,2.19 -1.815,3.675 -4.2,3.675 -2.835,0 -4.74,-1.545 -5.22,-4.335 l -2.445,0.6 c 0.6,3.645 3.405,5.97 7.59,5.97 z" />
    <path
       id="path963"
       d="m 1052.3685,52.97 c -2.025,0 -3.705,0.75 -4.845,2.28 v -2.04 h -2.4 v 20.91 h 2.4 v -8.19 c 1.065,1.455 2.73,2.31 4.845,2.31 3.81,0 6.705,-3 6.705,-7.62 0,-4.365 -2.625,-7.65 -6.705,-7.65 z m -0.405,13.05 c -2.745,0 -4.65,-2.22 -4.65,-5.4 0,-3.195 1.905,-5.43 4.65,-5.43 2.76,0 4.695,2.235 4.695,5.43 0,3.18 -1.935,5.4 -4.695,5.4 z" />
    <path
       id="path965"
       d="m 1071.9552,52.97 c -1.755,0 -3.405,0.99 -4.26,2.685 V 53.21 h -2.43 V 68 h 2.415 v -6.96 c 0,-1.635 0.09,-2.295 0.255,-2.85 0.57,-2.04 2.145,-2.895 3.645,-2.895 0.66,0 1.35,0.195 1.83,0.435 l 1.17,-2.1 c -0.765,-0.42 -1.71,-0.66 -2.625,-0.66 z" />
    <path
       id="path967"
       d="M 1082.1997,50.495 V 47.09 h -2.55 v 3.405 z M 1082.1247,68 V 53.21 h -2.415 V 68 Z" />
    <path
       id="path969"
       d="m 1095.9116,52.97 c -1.89,0 -3.51,0.705 -4.5,2.46 v -2.22 h -2.415 V 68 h 2.415 v -7.395 c 0,-3.825 1.395,-5.52 3.9,-5.52 2.265,0 3.405,1.38 3.405,4.44 V 68 h 2.415 v -9.345 c 0,-3.765 -1.935,-5.685 -5.22,-5.685 z" />
    <path
       id="path971"
       d="m 1114.9691,53.21 h -3.45 v -5.37 l -2.43,1.365 v 4.005 h -3.105 v 1.905 h 3.105 v 9.18 c 0,2.775 1.515,3.945 3.615,3.945 0.735,0 1.485,-0.135 2.265,-0.39 v -1.89 c -0.63,0.195 -1.185,0.285 -1.635,0.285 -1.335,0 -1.815,-0.9 -1.815,-2.595 v -8.535 h 3.45 z" />
  </g>
  <path
     id="Path_54"
     data-name="Path 54"
     d="m 880.497,57.5 h 60"
     fill="none"
     stroke="#707070"
     stroke-width="2" />
  <rect
     y="165"
     x="640"
     fill="#c5c5c5"
     rx="2"
     height="106"
     width="220"
     data-name="Rectangle 252"
     id="Rectangle_252-3" />
  <g
     style="font-weight:500;font-size:30px;font-family:HKGrotesk-Medium, 'HK Grotesk';letter-spacing:0.084em;fill:#ffffff"
     id="Iterate_Refocus"
     aria-label="IterateRefocus">
    <path
       id="path997"
       d="m 703.82199,210.5 v -20.91 h -2.505 v 20.91 z" />
    <path
       id="path999"
       d="m 718.43621,195.71 h -3.45 v -5.37 l -2.43,1.365 v 4.005 h -3.105 v 1.905 h 3.105 v 9.18 c 0,2.775 1.515,3.945 3.615,3.945 0.735,0 1.485,-0.135 2.265,-0.39 v -1.89 c -0.63,0.195 -1.185,0.285 -1.635,0.285 -1.335,0 -1.815,-0.9 -1.815,-2.595 v -8.535 h 3.45 z" />
    <path
       id="path1001"
       d="m 736.23512,202.505 c 0,-3.555 -1.965,-7.035 -6.51,-7.035 -4.44,0 -6.675,3.615 -6.675,7.725 0,4.155 2.28,7.545 6.915,7.545 2.445,0 4.17,-0.78 5.82,-2.505 l -1.695,-1.5 c -1.23,1.335 -2.445,1.815 -4.11,1.815 -2.79,0 -4.425,-1.8 -4.515,-4.725 h 10.695 c 0.045,-0.435 0.075,-0.915 0.075,-1.32 z m -10.785,-0.57 c 0.225,-2.475 1.74,-4.44 4.32,-4.44 2.85,0 4.17,2.13 4.17,4.155 v 0.285 z" />
    <path
       id="path1003"
       d="m 749.07699,195.47 c -1.755,0 -3.405,0.99 -4.26,2.685 v -2.445 h -2.43 v 14.79 h 2.415 v -6.96 c 0,-1.635 0.09,-2.295 0.255,-2.85 0.57,-2.04 2.145,-2.895 3.645,-2.895 0.66,0 1.35,0.195 1.83,0.435 l 1.17,-2.1 c -0.765,-0.42 -1.71,-0.66 -2.625,-0.66 z" />
    <path
       id="path1005"
       d="m 761.90621,195.47 c -2.445,0 -4.605,0.84 -6.255,2.82 l 1.755,1.455 c 1.335,-1.59 2.67,-2.16 4.335,-2.16 2.52,0 3.81,1.305 3.81,3.675 v 0.465 h -4.575 c -1.62,0 -3.06,0.3 -4.08,1.035 -1.005,0.705 -1.605,1.815 -1.605,3.345 0,2.79 2.085,4.635 5.49,4.635 1.95,0 3.675,-0.69 4.8,-2.67 l 0.15,2.43 h 2.22 v -9.24 c 0,-3.69 -2.175,-5.79 -6.045,-5.79 z m -0.915,13.32 c -2.055,0 -3.285,-1.05 -3.285,-2.655 0,-0.855 0.33,-1.455 0.9,-1.875 0.645,-0.45 1.605,-0.63 2.7,-0.63 h 4.245 v 0.615 c 0,2.61 -2.07,4.545 -4.56,4.545 z" />
    <path
       id="path1007"
       d="m 781.71933,195.71 h -3.45 v -5.37 l -2.43,1.365 v 4.005 h -3.105 v 1.905 h 3.105 v 9.18 c 0,2.775 1.515,3.945 3.615,3.945 0.735,0 1.485,-0.135 2.265,-0.39 v -1.89 c -0.63,0.195 -1.185,0.285 -1.635,0.285 -1.335,0 -1.815,-0.9 -1.815,-2.595 v -8.535 h 3.45 z" />
    <path
       id="path1009"
       d="m 799.51824,202.505 c 0,-3.555 -1.965,-7.035 -6.51,-7.035 -4.44,0 -6.675,3.615 -6.675,7.725 0,4.155 2.28,7.545 6.915,7.545 2.445,0 4.17,-0.78 5.82,-2.505 l -1.695,-1.5 c -1.23,1.335 -2.445,1.815 -4.11,1.815 -2.79,0 -4.425,-1.8 -4.515,-4.725 h 10.695 c 0.045,-0.435 0.075,-0.915 0.075,-1.32 z m -10.785,-0.57 c 0.225,-2.475 1.74,-4.44 4.32,-4.44 2.85,0 4.17,2.13 4.17,4.155 v 0.285 z" />
    <path
       id="path1011"
       d="m 701.67701,236.005 c 2.685,-0.75 4.14,-2.61 4.14,-5.565 0,-3.63 -2.19,-5.85 -6.96,-5.85 h -6.15 v 20.91 h 2.505 v -9.15 h 2.535 c 0.36,0 0.795,0 1.26,-0.015 l 5.355,9.165 h 2.925 z m -6.465,-9.165 h 3.405 c 2.775,0 4.695,0.99 4.695,3.63 0,2.64 -1.89,3.66 -4.695,3.66 h -3.405 z" />
    <path
       id="path1013"
       d="m 724.28482,237.505 c 0,-3.555 -1.965,-7.035 -6.51,-7.035 -4.44,0 -6.675,3.615 -6.675,7.725 0,4.155 2.28,7.545 6.915,7.545 2.445,0 4.17,-0.78 5.82,-2.505 l -1.695,-1.5 c -1.23,1.335 -2.445,1.815 -4.11,1.815 -2.79,0 -4.425,-1.8 -4.515,-4.725 h 10.695 c 0.045,-0.435 0.075,-0.915 0.075,-1.32 z m -10.785,-0.57 c 0.225,-2.475 1.74,-4.44 4.32,-4.44 2.85,0 4.17,2.13 4.17,4.155 v 0.285 z" />
    <path
       id="path1015"
       d="m 733.72498,245.5 v -12.885 h 3.465 v -1.905 h -3.465 v -1.95 c 0,-1.53 0.63,-2.385 1.95,-2.385 0.585,0 1.08,0.165 1.56,0.405 l 0.78,-1.845 c -0.735,-0.36 -1.515,-0.585 -2.595,-0.585 -2.34,0 -4.095,1.11 -4.095,4.395 v 1.965 h -3.12 v 1.905 h 3.105 V 245.5 Z" />
    <path
       id="path1017"
       d="m 748.03498,245.74 c 4.17,0 7.155,-3.195 7.155,-7.65 0,-4.455 -2.97,-7.62 -7.155,-7.62 -4.2,0 -7.17,3.165 -7.17,7.62 0,4.47 2.985,7.65 7.17,7.65 z m 0,-2.13 c -2.895,0 -4.755,-2.16 -4.755,-5.52 0,-3.345 1.845,-5.49 4.755,-5.49 2.895,0 4.74,2.145 4.74,5.49 0,3.36 -1.845,5.52 -4.74,5.52 z" />
    <path
       id="path1019"
       d="m 767.43654,245.74 c 2.82,0 4.98,-1.41 5.97,-4.125 l -2.13,-0.84 c -0.6,1.755 -1.89,2.85 -3.84,2.85 -3,0 -4.38,-2.64 -4.38,-5.535 0,-2.865 1.38,-5.505 4.38,-5.505 1.95,0 3.24,1.095 3.84,2.85 l 2.13,-0.84 c -0.99,-2.715 -3.15,-4.125 -5.97,-4.125 -4.35,0 -6.795,3.465 -6.795,7.62 0,4.185 2.445,7.65 6.795,7.65 z" />
    <path
       id="path1021"
       d="m 788.59591,238.105 c 0,3.825 -1.395,5.52 -3.9,5.52 -2.265,0 -3.405,-1.38 -3.405,-4.44 v -8.475 h -2.415 v 9.345 c 0,3.765 1.935,5.685 5.22,5.685 1.89,0 3.51,-0.675 4.5,-2.445 v 2.205 h 2.415 v -14.79 h -2.415 z" />
    <path
       id="path1023"
       d="m 802.73342,245.74 c 3.36,0 5.55,-1.815 5.55,-4.575 0,-3.3 -2.97,-4.005 -5.415,-4.59 -2.04,-0.495 -3.21,-0.93 -3.21,-2.205 0,-1.125 1.14,-1.95 2.76,-1.95 1.56,0 2.805,0.66 3.735,2.085 l 1.695,-1.29 c -1.155,-1.815 -3.075,-2.745 -5.34,-2.745 -3.045,0 -5.115,1.8 -5.115,4.05 0,2.835 2.475,3.6 4.8,4.2 2.175,0.57 3.72,1.02 3.72,2.685 0,1.47 -1.125,2.325 -3.015,2.325 -1.995,0 -3.705,-1.005 -4.605,-2.67 l -1.665,1.41 c 1.32,2.07 3.495,3.27 6.105,3.27 z" />
  </g>
  <path
     id="Path_55"
     data-name="Path 55"
     d="m 109.998,218.5 h 510.5"
     fill="none"
     stroke="#707070"
     stroke-width="2" />
  <path
     id="Path_56"
     data-name="Path 56"
     d="m 879.997,218.5 h 300"
     fill="none"
     stroke="#707070"
     stroke-width="2" />
  <path
     id="Path_57"
     data-name="Path 57"
     d="m 110.5,140.497 v 78"
     fill="none"
     stroke="#707070"
     stroke-width="2" />
  <path
     id="Path_58"
     data-name="Path 58"
     d="m 1180.5,140.497 v 78"
     fill="none"
     stroke="#707070"
     stroke-width="2" />
  <g
     style="font-weight:500;font-size:30px;font-family:HKGrotesk-Medium, 'HK Grotesk';letter-spacing:0.084em;fill:#ffffff"
     id="Prototype"
     aria-label="Prototype">
    <path
       id="path974"
       d="m 1211.98,68 v -9.015 h 3.66 c 4.485,0 6.96,-2.13 6.96,-5.985 0,-3.855 -2.46,-5.91 -6.96,-5.91 h -6.15 V 68 Z m 0,-18.66 h 3.42 c 3.045,0 4.695,1.2 4.695,3.69 0,2.52 -1.725,3.705 -4.695,3.705 h -3.42 z" />
    <path
       id="path976"
       d="m 1234.3103,52.97 c -1.755,0 -3.405,0.99 -4.26,2.685 V 53.21 h -2.43 V 68 h 2.415 v -6.96 c 0,-1.635 0.09,-2.295 0.255,-2.85 0.57,-2.04 2.145,-2.895 3.645,-2.895 0.66,0 1.35,0.195 1.83,0.435 l 1.17,-2.1 c -0.765,-0.42 -1.71,-0.66 -2.625,-0.66 z" />
    <path
       id="path978"
       d="m 1247.1522,68.24 c 4.17,0 7.155,-3.195 7.155,-7.65 0,-4.455 -2.97,-7.62 -7.155,-7.62 -4.2,0 -7.17,3.165 -7.17,7.62 0,4.47 2.985,7.65 7.17,7.65 z m 0,-2.13 c -2.895,0 -4.755,-2.16 -4.755,-5.52 0,-3.345 1.845,-5.49 4.755,-5.49 2.895,0 4.74,2.145 4.74,5.49 0,3.36 -1.845,5.52 -4.74,5.52 z" />
    <path
       id="path980"
       d="m 1267.1284,53.21 h -3.45 v -5.37 l -2.43,1.365 v 4.005 h -3.105 v 1.905 h 3.105 v 9.18 c 0,2.775 1.515,3.945 3.615,3.945 0.735,0 1.485,-0.135 2.265,-0.39 v -1.89 c -0.63,0.195 -1.185,0.285 -1.635,0.285 -1.335,0 -1.815,-0.9 -1.815,-2.595 v -8.535 h 3.45 z" />
    <path
       id="path982"
       d="m 1278.8523,68.24 c 4.17,0 7.155,-3.195 7.155,-7.65 0,-4.455 -2.97,-7.62 -7.155,-7.62 -4.2,0 -7.17,3.165 -7.17,7.62 0,4.47 2.985,7.65 7.17,7.65 z m 0,-2.13 c -2.895,0 -4.755,-2.16 -4.755,-5.52 0,-3.345 1.845,-5.49 4.755,-5.49 2.895,0 4.74,2.145 4.74,5.49 0,3.36 -1.845,5.52 -4.74,5.52 z" />
    <path
       id="path984"
       d="m 1298.8286,53.21 h -3.45 v -5.37 l -2.43,1.365 v 4.005 h -3.105 v 1.905 h 3.105 v 9.18 c 0,2.775 1.515,3.945 3.615,3.945 0.735,0 1.485,-0.135 2.265,-0.39 v -1.89 c -0.63,0.195 -1.185,0.285 -1.635,0.285 -1.335,0 -1.815,-0.9 -1.815,-2.595 v -8.535 h 3.45 z" />
    <path
       id="path986"
       d="m 1308.6962,74.105 8.52,-20.895 h -2.625 l -4.44,11.685 -4.395,-11.685 h -2.655 l 5.775,14.115 -2.79,6.78 z" />
    <path
       id="path988"
       d="m 1329.8636,52.97 c -2.025,0 -3.705,0.75 -4.845,2.28 v -2.04 h -2.4 v 20.91 h 2.4 v -8.19 c 1.065,1.455 2.73,2.31 4.845,2.31 3.81,0 6.705,-3 6.705,-7.62 0,-4.365 -2.625,-7.65 -6.705,-7.65 z m -0.405,13.05 c -2.745,0 -4.65,-2.22 -4.65,-5.4 0,-3.195 1.905,-5.43 4.65,-5.43 2.76,0 4.695,2.235 4.695,5.43 0,3.18 -1.935,5.4 -4.695,5.4 z" />
    <path
       id="path990"
       d="m 1355.3003,60.005 c 0,-3.555 -1.965,-7.035 -6.51,-7.035 -4.44,0 -6.675,3.615 -6.675,7.725 0,4.155 2.28,7.545 6.915,7.545 2.445,0 4.17,-0.78 5.82,-2.505 l -1.695,-1.5 c -1.23,1.335 -2.445,1.815 -4.11,1.815 -2.79,0 -4.425,-1.8 -4.515,-4.725 h 10.695 c 0.045,-0.435 0.075,-0.915 0.075,-1.32 z m -10.785,-0.57 c 0.225,-2.475 1.74,-4.44 4.32,-4.44 2.85,0 4.17,2.13 4.17,4.155 v 0.285 z" />
  </g>
</svg>
