<?xml version="1.0" encoding="UTF-8" standalone="no"?>
<svg
   xmlns:dc="http://purl.org/dc/elements/1.1/"
   xmlns:cc="http://creativecommons.org/ns#"
   xmlns:rdf="http://www.w3.org/1999/02/22-rdf-syntax-ns#"
   xmlns:svg="http://www.w3.org/2000/svg"
   xmlns="http://www.w3.org/2000/svg"
   xmlns:sodipodi="http://sodipodi.sourceforge.net/DTD/sodipodi-0.dtd"
   xmlns:inkscape="http://www.inkscape.org/namespaces/inkscape"
   inkscape:version="1.0 (4035a4fb49, 2020-05-01)"
   sodipodi:docname="VA-des-process.svg"
   id="svg41"
   version="1.1"
   viewBox="0 0 1180 235"
   height="235"
   width="1180">
  <metadata
     id="metadata47">
    <rdf:RDF>
      <cc:Work
         rdf:about="">
        <dc:format>image/svg+xml</dc:format>
        <dc:type
           rdf:resource="http://purl.org/dc/dcmitype/StillImage" />
      </cc:Work>
    </rdf:RDF>
  </metadata>
  <defs
     id="defs45" />
  <sodipodi:namedview
     inkscape:current-layer="svg41"
     inkscape:window-maximized="1"
     inkscape:window-y="-8"
     inkscape:window-x="-8"
     inkscape:cy="170.35261"
     inkscape:cx="573.05188"
     inkscape:zoom="0.96355932"
     showgrid="false"
     id="namedview43"
     inkscape:window-height="1002"
     inkscape:window-width="1920"
     inkscape:pageshadow="2"
     inkscape:pageopacity="0"
     guidetolerance="10"
     gridtolerance="10"
     objecttolerance="10"
     borderopacity="1"
     bordercolor="#666666"
     pagecolor="#ffffff" />
  <path
     id="Path_52"
     data-name="Path 52"
     d="m 240.497,57.5 h 60"
     fill="none"
     stroke="#707070"
     stroke-width="2" />
  <rect
     y="0"
     x="0"
     fill="#fad57d"
     rx="2"
     height="115"
     width="220"
     data-name="Rectangle 250"
     id="Rectangle_250" />
  <rect
     y="0"
     x="320"
     fill="#563811"
     rx="2"
     height="115"
     width="220"
     data-name="Rectangle 251"
     id="Rectangle_251" />
  <g
     style="font-weight:500;font-size:30px;font-family:HKGrotesk-Medium, 'HK Grotesk';letter-spacing:0.084em;fill:#ffffff"
     id="Sketch_Prototype"
     aria-label="Sketch &amp;Prototype">
    <path
       id="path1054"
       d="m 371.38001,51.3 c 3.975,0 6.765,-2.535 6.765,-6.075 0,-3.39 -2.49,-4.86 -5.955,-6.165 -2.895,-1.095 -4.605,-1.95 -4.605,-3.945 0,-1.8 1.485,-3.135 3.6,-3.135 1.74,0 3.075,0.9 4.02,2.55 l 1.995,-1.23 c -1.245,-2.34 -3.3,-3.555 -5.94,-3.555 -3.705,0 -6.18,2.28 -6.18,5.415 0,3.135 2.235,4.635 5.76,5.985 2.805,1.065 4.815,1.935 4.815,4.245 0,2.19 -1.815,3.675 -4.2,3.675 -2.835,0 -4.74,-1.545 -5.22,-4.335 l -2.445,0.6 c 0.6,3.645 3.405,5.97 7.59,5.97 z" />
    <path
       id="path1056"
       d="m 395.92985,36.21 h -3.225 l -6.51,6.96 V 30.09 h -2.415 V 51 h 2.415 v -4.815 l 2.685,-2.88 4.995,7.695 h 2.865 l -6.105,-9.33 z" />
    <path
       id="path1058"
       d="m 413.3711,43.005 c 0,-3.555 -1.965,-7.035 -6.51,-7.035 -4.44,0 -6.675,3.615 -6.675,7.725 0,4.155 2.28,7.545 6.915,7.545 2.445,0 4.17,-0.78 5.82,-2.505 l -1.695,-1.5 c -1.23,1.335 -2.445,1.815 -4.11,1.815 -2.79,0 -4.425,-1.8 -4.515,-4.725 h 10.695 c 0.045,-0.435 0.075,-0.915 0.075,-1.32 z m -10.785,-0.57 c 0.225,-2.475 1.74,-4.44 4.32,-4.44 2.85,0 4.17,2.13 4.17,4.155 v 0.285 z" />
    <path
       id="path1060"
       d="m 426.8622,36.21 h -3.45 v -5.37 l -2.43,1.365 v 4.005 h -3.105 v 1.905 h 3.105 v 9.18 c 0,2.775 1.515,3.945 3.615,3.945 0.735,0 1.485,-0.135 2.265,-0.39 v -1.89 c -0.63,0.195 -1.185,0.285 -1.635,0.285 -1.335,0 -1.815,-0.9 -1.815,-2.595 v -8.535 h 3.45 z" />
    <path
       id="path1062"
       d="m 438.24111,51.24 c 2.82,0 4.98,-1.41 5.97,-4.125 l -2.13,-0.84 c -0.6,1.755 -1.89,2.85 -3.84,2.85 -3,0 -4.38,-2.64 -4.38,-5.535 0,-2.865 1.38,-5.505 4.38,-5.505 1.95,0 3.24,1.095 3.84,2.85 l 2.13,-0.84 c -0.99,-2.715 -3.15,-4.125 -5.97,-4.125 -4.35,0 -6.795,3.465 -6.795,7.62 0,4.185 2.445,7.65 6.795,7.65 z" />
    <path
       id="path1064"
       d="m 457.08345,35.97 c -1.95,0 -3.525,0.705 -4.5,2.445 V 30.09 h -2.415 V 51 h 2.415 v -7.395 c 0,-3.69 1.305,-5.52 3.9,-5.52 2.31,0 3.405,1.44 3.405,4.44 V 51 h 2.415 v -9.345 c 0,-3.63 -1.845,-5.685 -5.22,-5.685 z" />
    <path
       id="path1066"
       d="m 493.01548,47.25 c 1.2,-1.695 2.055,-3.93 2.475,-6.675 l -2.16,-0.33 c -0.36,2.1 -0.96,3.87 -1.815,5.265 l -4.5,-5.235 c 2.385,-1.44 4.605,-3.135 4.605,-6 0,-2.64 -1.905,-4.395 -5.055,-4.395 -3.06,0 -5.475,1.905 -5.475,4.845 0,2.1 1.26,3.69 2.475,5.13 -2.565,1.425 -5.055,3.12 -5.055,6.285 0,3.3 2.76,5.13 6.585,5.13 2.49,0 4.665,-0.78 6.39,-2.31 l 2.595,3.045 1.725,-1.515 z m -6.435,-15.45 c 1.935,0 2.79,1.14 2.79,2.505 0,2.04 -1.785,3.3 -3.915,4.515 -0.99,-1.215 -2.04,-2.535 -2.04,-4.05 0,-1.77 1.305,-2.97 3.165,-2.97 z m -1.485,17.4 c -2.52,0 -4.095,-1.2 -4.095,-3.165 0,-2.175 1.83,-3.36 4.05,-4.62 l 5.025,5.895 c -1.32,1.23 -2.985,1.89 -4.98,1.89 z" />
    <path
       id="path1068"
       d="m 359.98,86 v -9.015 h 3.66 c 4.485,0 6.96,-2.13 6.96,-5.985 0,-3.855 -2.46,-5.91 -6.96,-5.91 h -6.15 V 86 Z m 0,-18.66 h 3.42 c 3.045,0 4.695,1.2 4.695,3.69 0,2.52 -1.725,3.705 -4.695,3.705 h -3.42 z" />
    <path
       id="path1070"
       d="m 382.31031,70.97 c -1.755,0 -3.405,0.99 -4.26,2.685 V 71.21 h -2.43 V 86 h 2.415 v -6.96 c 0,-1.635 0.09,-2.295 0.255,-2.85 0.57,-2.04 2.145,-2.895 3.645,-2.895 0.66,0 1.35,0.195 1.83,0.435 l 1.17,-2.1 c -0.765,-0.42 -1.71,-0.66 -2.625,-0.66 z" />
    <path
       id="path1072"
       d="m 395.15218,86.24 c 4.17,0 7.155,-3.195 7.155,-7.65 0,-4.455 -2.97,-7.62 -7.155,-7.62 -4.2,0 -7.17,3.165 -7.17,7.62 0,4.47 2.985,7.65 7.17,7.65 z m 0,-2.13 c -2.895,0 -4.755,-2.16 -4.755,-5.52 0,-3.345 1.845,-5.49 4.755,-5.49 2.895,0 4.74,2.145 4.74,5.49 0,3.36 -1.845,5.52 -4.74,5.52 z" />
    <path
       id="path1074"
       d="m 415.12843,71.21 h -3.45 v -5.37 l -2.43,1.365 v 4.005 h -3.105 v 1.905 h 3.105 v 9.18 c 0,2.775 1.515,3.945 3.615,3.945 0.735,0 1.485,-0.135 2.265,-0.39 v -1.89 c -0.63,0.195 -1.185,0.285 -1.635,0.285 -1.335,0 -1.815,-0.9 -1.815,-2.595 v -8.535 h 3.45 z" />
    <path
       id="path1076"
       d="m 426.85234,86.24 c 4.17,0 7.155,-3.195 7.155,-7.65 0,-4.455 -2.97,-7.62 -7.155,-7.62 -4.2,0 -7.17,3.165 -7.17,7.62 0,4.47 2.985,7.65 7.17,7.65 z m 0,-2.13 c -2.895,0 -4.755,-2.16 -4.755,-5.52 0,-3.345 1.845,-5.49 4.755,-5.49 2.895,0 4.74,2.145 4.74,5.49 0,3.36 -1.845,5.52 -4.74,5.52 z" />
    <path
       id="path1078"
       d="m 446.82859,71.21 h -3.45 v -5.37 l -2.43,1.365 v 4.005 h -3.105 v 1.905 h 3.105 v 9.18 c 0,2.775 1.515,3.945 3.615,3.945 0.735,0 1.485,-0.135 2.265,-0.39 v -1.89 c -0.63,0.195 -1.185,0.285 -1.635,0.285 -1.335,0 -1.815,-0.9 -1.815,-2.595 v -8.535 h 3.45 z" />
    <path
       id="path1080"
       d="m 456.69625,92.105 8.52,-20.895 h -2.625 l -4.44,11.685 -4.395,-11.685 h -2.655 l 5.775,14.115 -2.79,6.78 z" />
    <path
       id="path1082"
       d="m 477.86359,70.97 c -2.025,0 -3.705,0.75 -4.845,2.28 v -2.04 h -2.4 v 20.91 h 2.4 v -8.19 c 1.065,1.455 2.73,2.31 4.845,2.31 3.81,0 6.705,-3 6.705,-7.62 0,-4.365 -2.625,-7.65 -6.705,-7.65 z m -0.405,13.05 c -2.745,0 -4.65,-2.22 -4.65,-5.4 0,-3.195 1.905,-5.43 4.65,-5.43 2.76,0 4.695,2.235 4.695,5.43 0,3.18 -1.935,5.4 -4.695,5.4 z" />
    <path
       id="path1084"
       d="m 503.30031,78.005 c 0,-3.555 -1.965,-7.035 -6.51,-7.035 -4.44,0 -6.675,3.615 -6.675,7.725 0,4.155 2.28,7.545 6.915,7.545 2.445,0 4.17,-0.78 5.82,-2.505 l -1.695,-1.5 c -1.23,1.335 -2.445,1.815 -4.11,1.815 -2.79,0 -4.425,-1.8 -4.515,-4.725 h 10.695 c 0.045,-0.435 0.075,-0.915 0.075,-1.32 z m -10.785,-0.57 c 0.225,-2.475 1.74,-4.44 4.32,-4.44 2.85,0 4.17,2.13 4.17,4.155 v 0.285 z" />
  </g>
  <rect
     y="0"
     x="640"
     fill="#809bc5"
     rx="2"
     height="115"
     width="220"
     data-name="Rectangle 252"
     id="Rectangle_252" />
  <g
     style="font-weight:500;font-size:30px;font-family:HKGrotesk-Medium, 'HK Grotesk';letter-spacing:0.084em;fill:#ffffff"
     id="Deploy"
     aria-label="Deploy">
    <path
       id="path1041"
       d="m 705.21801,68 c 6.96,0 10.77,-3.645 10.77,-10.29 0,-6.765 -3.915,-10.62 -10.74,-10.62 h -5.76 V 68 Z m -3.225,-18.6 h 3.21 c 5.205,0 8.25,2.49 8.25,8.22 0,5.76 -3.045,8.07 -8.475,8.07 h -2.985 z" />
    <path
       id="path1043"
       d="m 734.52286,60.005 c 0,-3.555 -1.965,-7.035 -6.51,-7.035 -4.44,0 -6.675,3.615 -6.675,7.725 0,4.155 2.28,7.545 6.915,7.545 2.445,0 4.17,-0.78 5.82,-2.505 l -1.695,-1.5 c -1.23,1.335 -2.445,1.815 -4.11,1.815 -2.79,0 -4.425,-1.8 -4.515,-4.725 h 10.695 c 0.045,-0.435 0.075,-0.915 0.075,-1.32 z m -10.785,-0.57 c 0.225,-2.475 1.74,-4.44 4.32,-4.44 2.85,0 4.17,2.13 4.17,4.155 v 0.285 z" />
    <path
       id="path1045"
       d="m 747.93473,52.97 c -2.025,0 -3.705,0.75 -4.845,2.28 v -2.04 h -2.4 v 20.91 h 2.4 v -8.19 c 1.065,1.455 2.73,2.31 4.845,2.31 3.81,0 6.705,-3 6.705,-7.62 0,-4.365 -2.625,-7.65 -6.705,-7.65 z m -0.405,13.05 c -2.745,0 -4.65,-2.22 -4.65,-5.4 0,-3.195 1.905,-5.43 4.65,-5.43 2.76,0 4.695,2.235 4.695,5.43 0,3.18 -1.935,5.4 -4.695,5.4 z" />
    <path
       id="path1047"
       d="m 763.43348,68.24 c 0.57,0 1.305,-0.12 2.085,-0.39 v -2.085 c -0.48,0.165 -0.915,0.24 -1.29,0.24 -0.84,0 -1.35,-0.48 -1.35,-1.68 V 47.09 h -2.4 v 17.685 c 0,2.415 1.185,3.465 2.955,3.465 z" />
    <path
       id="path1049"
       d="m 776.8477,68.24 c 4.17,0 7.155,-3.195 7.155,-7.65 0,-4.455 -2.97,-7.62 -7.155,-7.62 -4.2,0 -7.17,3.165 -7.17,7.62 0,4.47 2.985,7.65 7.17,7.65 z m 0,-2.13 c -2.895,0 -4.755,-2.16 -4.755,-5.52 0,-3.345 1.845,-5.49 4.755,-5.49 2.895,0 4.74,2.145 4.74,5.49 0,3.36 -1.845,5.52 -4.74,5.52 z" />
    <path
       id="path1051"
       d="m 793.68332,74.105 8.52,-20.895 h -2.625 l -4.44,11.685 -4.395,-11.685 h -2.655 l 5.775,14.115 -2.79,6.78 z" />
  </g>
  <path
     id="Path_53"
     data-name="Path 53"
     d="m 560.497,57.5 h 60"
     fill="none"
     stroke="#707070"
     stroke-width="2" />
  <rect
     y="0"
     x="960"
     fill="#809bc5"
     rx="2"
     height="115"
     width="220"
     data-name="Rectangle 252"
     id="Rectangle_252-2" />
  <g
     style="font-weight:500;font-size:30px;font-family:HKGrotesk-Medium, 'HK Grotesk';letter-spacing:0.084em;fill:#ffffff"
     id="Client_Feedback"
     aria-label="ClientFeedback">
    <path
       id="path1012"
       d="m 1035.575,51.345 c 4.185,0 7.365,-2.22 8.73,-5.865 l -2.355,-0.855 c -1.035,2.73 -3.3,4.32 -6.375,4.32 -4.365,0 -7.14,-3.225 -7.14,-8.415 0,-5.145 2.775,-8.385 7.14,-8.385 3.075,0 5.34,1.59 6.375,4.32 l 2.355,-0.855 c -1.365,-3.645 -4.545,-5.865 -8.73,-5.865 -5.775,0 -9.645,4.29 -9.645,10.785 0,6.525 3.87,10.815 9.645,10.815 z" />
    <path
       id="path1014"
       d="m 1052.6736,51.24 c 0.57,0 1.305,-0.12 2.085,-0.39 v -2.085 c -0.48,0.165 -0.915,0.24 -1.29,0.24 -0.84,0 -1.35,-0.48 -1.35,-1.68 V 30.09 h -2.4 v 17.685 c 0,2.415 1.185,3.465 2.955,3.465 z" />
    <path
       id="path1016"
       d="M 1063.0804,33.495 V 30.09 h -2.55 v 3.405 z M 1063.0054,51 V 36.21 h -2.415 V 51 Z" />
    <path
       id="path1018"
       d="m 1082.4172,43.005 c 0,-3.555 -1.965,-7.035 -6.51,-7.035 -4.44,0 -6.675,3.615 -6.675,7.725 0,4.155 2.28,7.545 6.915,7.545 2.445,0 4.17,-0.78 5.82,-2.505 l -1.695,-1.5 c -1.23,1.335 -2.445,1.815 -4.11,1.815 -2.79,0 -4.425,-1.8 -4.515,-4.725 h 10.695 c 0.045,-0.435 0.075,-0.915 0.075,-1.32 z m -10.785,-0.57 c 0.225,-2.475 1.74,-4.44 4.32,-4.44 2.85,0 4.17,2.13 4.17,4.155 v 0.285 z" />
    <path
       id="path1020"
       d="m 1095.4841,35.97 c -1.89,0 -3.51,0.705 -4.5,2.46 v -2.22 h -2.415 V 51 h 2.415 v -7.395 c 0,-3.825 1.395,-5.52 3.9,-5.52 2.265,0 3.405,1.38 3.405,4.44 V 51 h 2.415 v -9.345 c 0,-3.765 -1.935,-5.685 -5.22,-5.685 z" />
    <path
       id="path1022"
       d="m 1114.5416,36.21 h -3.45 v -5.37 l -2.43,1.365 v 4.005 h -3.105 v 1.905 h 3.105 v 9.18 c 0,2.775 1.515,3.945 3.615,3.945 0.735,0 1.485,-0.135 2.265,-0.39 v -1.89 c -0.63,0.195 -1.185,0.285 -1.635,0.285 -1.335,0 -1.815,-0.9 -1.815,-2.595 v -8.535 h 3.45 z" />
    <path
       id="path1024"
       d="m 1001.135,86 v -9.525 h 9.705 v -2.25 h -9.705 V 67.34 h 11.145 V 65.09 H 998.62998 V 86 Z" />
    <path
       id="path1026"
       d="m 1029.0359,78.005 c 0,-3.555 -1.965,-7.035 -6.51,-7.035 -4.44,0 -6.675,3.615 -6.675,7.725 0,4.155 2.28,7.545 6.915,7.545 2.445,0 4.17,-0.78 5.82,-2.505 l -1.695,-1.5 c -1.23,1.335 -2.445,1.815 -4.11,1.815 -2.79,0 -4.425,-1.8 -4.515,-4.725 h 10.695 c 0.045,-0.435 0.075,-0.915 0.075,-1.32 z m -10.785,-0.57 c 0.225,-2.475 1.74,-4.44 4.32,-4.44 2.85,0 4.17,2.13 4.17,4.155 v 0.285 z" />
    <path
       id="path1028"
       d="m 1047.6106,78.005 c 0,-3.555 -1.965,-7.035 -6.51,-7.035 -4.44,0 -6.675,3.615 -6.675,7.725 0,4.155 2.28,7.545 6.915,7.545 2.445,0 4.17,-0.78 5.82,-2.505 l -1.695,-1.5 c -1.23,1.335 -2.445,1.815 -4.11,1.815 -2.79,0 -4.425,-1.8 -4.515,-4.725 h 10.695 c 0.045,-0.435 0.075,-0.915 0.075,-1.32 z m -10.785,-0.57 c 0.225,-2.475 1.74,-4.44 4.32,-4.44 2.85,0 4.17,2.13 4.17,4.155 v 0.285 z" />
    <path
       id="path1030"
       d="m 1064.5353,73.28 c -1.065,-1.455 -2.73,-2.31 -4.845,-2.31 -3.81,0 -6.705,3 -6.705,7.62 0,4.365 2.625,7.65 6.705,7.65 2.025,0 3.705,-0.75 4.845,-2.28 V 86 h 2.4 V 65.09 h -2.4 z m -4.44,10.74 c -2.76,0 -4.695,-2.235 -4.695,-5.43 0,-3.18 1.935,-5.4 4.695,-5.4 2.745,0 4.65,2.22 4.65,5.4 0,3.195 -1.905,5.43 -4.65,5.43 z" />
    <path
       id="path1032"
       d="m 1081.062,70.97 c -2.115,0 -3.78,0.855 -4.845,2.31 v -8.19 h -2.4 V 86 h 2.4 v -2.04 c 1.14,1.53 2.82,2.28 4.845,2.28 4.08,0 6.705,-3.285 6.705,-7.65 0,-4.62 -2.895,-7.62 -6.705,-7.62 z m -0.405,13.05 c -2.745,0 -4.65,-2.235 -4.65,-5.43 0,-3.18 1.905,-5.4 4.65,-5.4 2.76,0 4.695,2.22 4.695,5.4 0,3.195 -1.935,5.43 -4.695,5.43 z" />
    <path
       id="path1034"
       d="m 1099.5908,70.97 c -2.445,0 -4.605,0.84 -6.255,2.82 l 1.755,1.455 c 1.335,-1.59 2.67,-2.16 4.335,-2.16 2.52,0 3.81,1.305 3.81,3.675 v 0.465 h -4.575 c -1.62,0 -3.06,0.3 -4.08,1.035 -1.005,0.705 -1.605,1.815 -1.605,3.345 0,2.79 2.085,4.635 5.49,4.635 1.95,0 3.675,-0.69 4.8,-2.67 l 0.15,2.43 h 2.22 v -9.24 c 0,-3.69 -2.175,-5.79 -6.045,-5.79 z m -0.915,13.32 c -2.055,0 -3.285,-1.05 -3.285,-2.655 0,-0.855 0.33,-1.455 0.9,-1.875 0.645,-0.45 1.605,-0.63 2.7,-0.63 h 4.245 v 0.615 c 0,2.61 -2.07,4.545 -4.56,4.545 z" />
    <path
       id="path1036"
       d="m 1118.1847,86.24 c 2.82,0 4.98,-1.41 5.97,-4.125 l -2.13,-0.84 c -0.6,1.755 -1.89,2.85 -3.84,2.85 -3,0 -4.38,-2.64 -4.38,-5.535 0,-2.865 1.38,-5.505 4.38,-5.505 1.95,0 3.24,1.095 3.84,2.85 l 2.13,-0.84 c -0.99,-2.715 -3.15,-4.125 -5.97,-4.125 -4.35,0 -6.795,3.465 -6.795,7.62 0,4.185 2.445,7.65 6.795,7.65 z" />
    <path
       id="path1038"
       d="m 1142.262,71.21 h -3.225 l -6.51,6.96 V 65.09 h -2.415 V 86 h 2.415 v -4.815 l 2.685,-2.88 4.995,7.695 h 2.865 l -6.105,-9.33 z" />
  </g>
  <path
     id="Path_54"
     data-name="Path 54"
     d="m 880.497,57.5 h 60"
     fill="none"
     stroke="#707070"
     stroke-width="2" />
  <rect
     y="165"
     x="640"
     fill="#c5c5c5"
     rx="2"
     height="70"
     width="220"
     data-name="Rectangle 252"
     id="Rectangle_252-3" />
  <g
     style="font-weight:500;font-size:30px;font-family:HKGrotesk-Medium, 'HK Grotesk';letter-spacing:0.084em;fill:#ffffff"
     id="Iterate"
     aria-label="Iterate">
    <path
       id="path997"
       d="m 703.82199,210.5 v -20.91 h -2.505 v 20.91 z" />
    <path
       id="path999"
       d="m 718.43621,195.71 h -3.45 v -5.37 l -2.43,1.365 v 4.005 h -3.105 v 1.905 h 3.105 v 9.18 c 0,2.775 1.515,3.945 3.615,3.945 0.735,0 1.485,-0.135 2.265,-0.39 v -1.89 c -0.63,0.195 -1.185,0.285 -1.635,0.285 -1.335,0 -1.815,-0.9 -1.815,-2.595 v -8.535 h 3.45 z" />
    <path
       id="path1001"
       d="m 736.23512,202.505 c 0,-3.555 -1.965,-7.035 -6.51,-7.035 -4.44,0 -6.675,3.615 -6.675,7.725 0,4.155 2.28,7.545 6.915,7.545 2.445,0 4.17,-0.78 5.82,-2.505 l -1.695,-1.5 c -1.23,1.335 -2.445,1.815 -4.11,1.815 -2.79,0 -4.425,-1.8 -4.515,-4.725 h 10.695 c 0.045,-0.435 0.075,-0.915 0.075,-1.32 z m -10.785,-0.57 c 0.225,-2.475 1.74,-4.44 4.32,-4.44 2.85,0 4.17,2.13 4.17,4.155 v 0.285 z" />
    <path
       id="path1003"
       d="m 749.07699,195.47 c -1.755,0 -3.405,0.99 -4.26,2.685 v -2.445 h -2.43 v 14.79 h 2.415 v -6.96 c 0,-1.635 0.09,-2.295 0.255,-2.85 0.57,-2.04 2.145,-2.895 3.645,-2.895 0.66,0 1.35,0.195 1.83,0.435 l 1.17,-2.1 c -0.765,-0.42 -1.71,-0.66 -2.625,-0.66 z" />
    <path
       id="path1005"
       d="m 761.90621,195.47 c -2.445,0 -4.605,0.84 -6.255,2.82 l 1.755,1.455 c 1.335,-1.59 2.67,-2.16 4.335,-2.16 2.52,0 3.81,1.305 3.81,3.675 v 0.465 h -4.575 c -1.62,0 -3.06,0.3 -4.08,1.035 -1.005,0.705 -1.605,1.815 -1.605,3.345 0,2.79 2.085,4.635 5.49,4.635 1.95,0 3.675,-0.69 4.8,-2.67 l 0.15,2.43 h 2.22 v -9.24 c 0,-3.69 -2.175,-5.79 -6.045,-5.79 z m -0.915,13.32 c -2.055,0 -3.285,-1.05 -3.285,-2.655 0,-0.855 0.33,-1.455 0.9,-1.875 0.645,-0.45 1.605,-0.63 2.7,-0.63 h 4.245 v 0.615 c 0,2.61 -2.07,4.545 -4.56,4.545 z" />
    <path
       id="path1007"
       d="m 781.71933,195.71 h -3.45 v -5.37 l -2.43,1.365 v 4.005 h -3.105 v 1.905 h 3.105 v 9.18 c 0,2.775 1.515,3.945 3.615,3.945 0.735,0 1.485,-0.135 2.265,-0.39 v -1.89 c -0.63,0.195 -1.185,0.285 -1.635,0.285 -1.335,0 -1.815,-0.9 -1.815,-2.595 v -8.535 h 3.45 z" />
    <path
       id="path1009"
       d="m 799.51824,202.505 c 0,-3.555 -1.965,-7.035 -6.51,-7.035 -4.44,0 -6.675,3.615 -6.675,7.725 0,4.155 2.28,7.545 6.915,7.545 2.445,0 4.17,-0.78 5.82,-2.505 l -1.695,-1.5 c -1.23,1.335 -2.445,1.815 -4.11,1.815 -2.79,0 -4.425,-1.8 -4.515,-4.725 h 10.695 c 0.045,-0.435 0.075,-0.915 0.075,-1.32 z m -10.785,-0.57 c 0.225,-2.475 1.74,-4.44 4.32,-4.44 2.85,0 4.17,2.13 4.17,4.155 v 0.285 z" />
  </g>
  <path
     id="Path_55"
     data-name="Path 55"
     d="m 429.997,200.5 h 190.5"
     fill="none"
     stroke="#707070"
     stroke-width="2" />
  <path
     id="Path_56"
     data-name="Path 56"
     d="m 879.997,200.5 h 190.5"
     fill="none"
     stroke="#707070"
     stroke-width="2" />
  <path
     id="Path_57"
     data-name="Path 57"
     d="m 430.5,140.497 v 60"
     fill="none"
     stroke="#707070"
     stroke-width="2" />
  <path
     id="Path_58"
     data-name="Path 58"
     d="m 1069.5,140.497 v 60"
     fill="none"
     stroke="#707070"
     stroke-width="2" />
  <g
     style="fill:#565656;fill-opacity:1"
     transform="translate(-317.98673)"
     id="g1166">
    <g
       style="font-style:normal;font-variant:normal;font-weight:normal;font-stretch:normal;font-size:30px;font-family:HKGrotesk-Medium, 'HK Grotesk';-inkscape-font-specification:'HKGrotesk-Medium, HK Grotesk';letter-spacing:0px;fill:#565656;fill-opacity:1"
       id="g1124"
       transform="translate(363.2844,-16.257503)">
      <path
         d="m 8.0956143,67.557503 c 6.9599997,0 10.7699997,-3.645 10.7699997,-10.29 0,-6.765 -3.915,-10.62 -10.7399997,-10.62 h -5.76 v 20.91 z m -3.225,-18.6 h 3.21 c 5.2049997,0 8.2499997,2.49 8.2499997,8.22 0,5.76 -3.045,8.07 -8.4749997,8.07 h -2.985 z"
         style="font-style:normal;font-variant:normal;font-weight:500;font-stretch:normal;font-family:'HK Grotesk';-inkscape-font-specification:'HK Grotesk Medium';text-align:center;text-anchor:middle;fill:#565656;fill-opacity:1"
         id="path1087" />
      <path
         d="m 24.743271,50.052503 v -3.405 h -2.55 v 3.405 z m -0.075,17.505 v -14.79 h -2.415 v 14.79 z"
         style="font-style:normal;font-variant:normal;font-weight:500;font-stretch:normal;font-family:'HK Grotesk';-inkscape-font-specification:'HK Grotesk Medium';text-align:center;text-anchor:middle;fill:#565656;fill-opacity:1"
         id="path1089" />
      <path
         d="m 34.225146,67.797503 c 3.36,0 5.55,-1.815 5.55,-4.575 0,-3.3 -2.97,-4.005 -5.415,-4.59 -2.04,-0.495 -3.21,-0.93 -3.21,-2.205 0,-1.125 1.14,-1.95 2.76,-1.95 1.56,0 2.805,0.66 3.735,2.085 l 1.695,-1.29 c -1.155,-1.815 -3.075,-2.745 -5.34,-2.745 -3.045,0 -5.115,1.8 -5.115,4.05 0,2.835 2.475,3.6 4.8,4.2 2.175,0.57 3.72,1.02 3.72,2.685 0,1.47 -1.125,2.325 -3.015,2.325 -1.995,0 -3.705,-1.005 -4.605,-2.67 l -1.665,1.41 c 1.32,2.07 3.495,3.27 6.105,3.27 z"
         style="font-style:normal;font-variant:normal;font-weight:500;font-stretch:normal;font-family:'HK Grotesk';-inkscape-font-specification:'HK Grotesk Medium';text-align:center;text-anchor:middle;fill:#565656;fill-opacity:1"
         id="path1091" />
      <path
         d="m 49.144052,67.797503 c 2.82,0 4.98,-1.41 5.97,-4.125 l -2.13,-0.84 c -0.6,1.755 -1.89,2.85 -3.84,2.85 -3,0 -4.38,-2.64 -4.38,-5.535 0,-2.865 1.38,-5.505 4.38,-5.505 1.95,0 3.24,1.095 3.84,2.85 l 2.13,-0.84 c -0.99,-2.715 -3.15,-4.125 -5.97,-4.125 -4.35,0 -6.795,3.465 -6.795,7.62 0,4.185 2.445,7.65 6.795,7.65 z"
         style="font-style:normal;font-variant:normal;font-weight:500;font-stretch:normal;font-family:'HK Grotesk';-inkscape-font-specification:'HK Grotesk Medium';text-align:center;text-anchor:middle;fill:#565656;fill-opacity:1"
         id="path1093" />
      <path
         d="m 67.783427,60.162503 c 0,3.825 -1.395,5.52 -3.9,5.52 -2.265,0 -3.405,-1.38 -3.405,-4.44 v -8.475 h -2.415 v 9.345 c 0,3.765 1.935,5.685 5.22,5.685 1.89,0 3.51,-0.675 4.5,-2.445 v 2.205 h 2.415 v -14.79 h -2.415 z"
         style="font-style:normal;font-variant:normal;font-weight:500;font-stretch:normal;font-family:'HK Grotesk';-inkscape-font-specification:'HK Grotesk Medium';text-align:center;text-anchor:middle;fill:#565656;fill-opacity:1"
         id="path1095" />
      <path
         d="m 79.400927,67.797503 c 3.36,0 5.55,-1.815 5.55,-4.575 0,-3.3 -2.97,-4.005 -5.415,-4.59 -2.04,-0.495 -3.21,-0.93 -3.21,-2.205 0,-1.125 1.14,-1.95 2.76,-1.95 1.56,0 2.805,0.66 3.735,2.085 l 1.695,-1.29 c -1.155,-1.815 -3.075,-2.745 -5.34,-2.745 -3.045,0 -5.115,1.8 -5.115,4.05 0,2.835 2.475,3.6 4.8,4.2 2.175,0.57 3.72,1.02 3.72,2.685 0,1.47 -1.125,2.325 -3.015,2.325 -1.995,0 -3.705,-1.005 -4.605,-2.67 l -1.665,1.41 c 1.32,2.07 3.495,3.27 6.105,3.27 z"
         style="font-style:normal;font-variant:normal;font-weight:500;font-stretch:normal;font-family:'HK Grotesk';-inkscape-font-specification:'HK Grotesk Medium';text-align:center;text-anchor:middle;fill:#565656;fill-opacity:1"
         id="path1097" />
      <path
         d="m 93.697802,67.797503 c 3.36,0 5.55,-1.815 5.55,-4.575 0,-3.3 -2.97,-4.005 -5.415,-4.59 -2.04,-0.495 -3.21,-0.93 -3.21,-2.205 0,-1.125 1.14,-1.95 2.76,-1.95 1.56,0 2.805,0.66 3.735,2.085 l 1.695,-1.29 c -1.155,-1.815 -3.075,-2.745 -5.34,-2.745 -3.045,0 -5.115,1.8 -5.115,4.05 0,2.835 2.475,3.6 4.8,4.2 2.175,0.57 3.72,1.02 3.72,2.685 0,1.47 -1.125,2.325 -3.015,2.325 -1.995,0 -3.705,-1.005 -4.605,-2.67 l -1.665,1.41 c 1.32,2.07 3.495,3.27 6.105,3.27 z"
         style="font-style:normal;font-variant:normal;font-weight:500;font-stretch:normal;font-family:'HK Grotesk';-inkscape-font-specification:'HK Grotesk Medium';text-align:center;text-anchor:middle;fill:#565656;fill-opacity:1"
         id="path1099" />
      <path
         d="m 124.24905,63.807503 c 1.2,-1.695 2.055,-3.93 2.475,-6.675 l -2.16,-0.33 c -0.36,2.1 -0.96,3.87 -1.815,5.265 l -4.5,-5.235 c 2.385,-1.44 4.605,-3.135 4.605,-6 0,-2.64 -1.905,-4.395 -5.055,-4.395 -3.06,0 -5.475,1.905 -5.475,4.845 0,2.1 1.26,3.69 2.475,5.13 -2.565,1.425 -5.055,3.12 -5.055,6.285 0,3.3 2.76,5.13 6.585,5.13 2.49,0 4.665,-0.78 6.39,-2.31 l 2.595,3.045 1.725,-1.515 z m -6.435,-15.45 c 1.935,0 2.79,1.14 2.79,2.505 0,2.04 -1.785,3.3 -3.915,4.515 -0.99,-1.215 -2.04,-2.535 -2.04,-4.05 0,-1.77 1.305,-2.97 3.165,-2.97 z m -1.485,17.4 c -2.52,0 -4.095,-1.2 -4.095,-3.165 0,-2.175 1.83,-3.36 4.05,-4.62 l 5.025,5.895 c -1.32,1.23 -2.985,1.89 -4.98,1.89 z"
         style="font-style:normal;font-variant:normal;font-weight:500;font-stretch:normal;font-family:'HK Grotesk';-inkscape-font-specification:'HK Grotesk Medium';text-align:center;text-anchor:middle;fill:#565656;fill-opacity:1"
         id="path1101" />
    </g>
    <g
       style="font-style:normal;font-variant:normal;font-weight:normal;font-stretch:normal;font-size:30px;font-family:HKGrotesk-Medium, 'HK Grotesk';-inkscape-font-specification:'HKGrotesk-Medium, HK Grotesk';letter-spacing:0px;fill:#565656;fill-opacity:1"
       transform="translate(249.84221,18.742497)"
       id="g1132">
      <path
         d="m 141.15968,67.557503 v -20.91 h -2.505 v 20.91 z"
         style="font-style:normal;font-variant:normal;font-weight:500;font-stretch:normal;font-family:'HK Grotesk';-inkscape-font-specification:'HK Grotesk Medium';text-align:center;text-anchor:middle;fill:#565656;fill-opacity:1"
         id="path1103" />
      <path
         d="m 156.6289,54.837503 c -1.065,-1.455 -2.73,-2.31 -4.845,-2.31 -3.81,0 -6.705,3 -6.705,7.62 0,4.365 2.625,7.65 6.705,7.65 2.025,0 3.705,-0.75 4.845,-2.28 v 2.04 h 2.4 v -20.91 h -2.4 z m -4.44,10.74 c -2.76,0 -4.695,-2.235 -4.695,-5.43 0,-3.18 1.935,-5.4 4.695,-5.4 2.745,0 4.65,2.22 4.65,5.4 0,3.195 -1.905,5.43 -4.65,5.43 z"
         style="font-style:normal;font-variant:normal;font-weight:500;font-stretch:normal;font-family:'HK Grotesk';-inkscape-font-specification:'HK Grotesk Medium';text-align:center;text-anchor:middle;fill:#565656;fill-opacity:1"
         id="path1105" />
      <path
         d="m 175.91561,59.562503 c 0,-3.555 -1.965,-7.035 -6.51,-7.035 -4.44,0 -6.675,3.615 -6.675,7.725 0,4.155 2.28,7.545 6.915,7.545 2.445,0 4.17,-0.78 5.82,-2.505 l -1.695,-1.5 c -1.23,1.335 -2.445,1.815 -4.11,1.815 -2.79,0 -4.425,-1.8 -4.515,-4.725 h 10.695 c 0.045,-0.435 0.075,-0.915 0.075,-1.32 z m -10.785,-0.57 c 0.225,-2.475 1.74,-4.44 4.32,-4.44 2.85,0 4.17,2.13 4.17,4.155 v 0.285 z"
         style="font-style:normal;font-variant:normal;font-weight:500;font-stretch:normal;font-family:'HK Grotesk';-inkscape-font-specification:'HK Grotesk Medium';text-align:center;text-anchor:middle;fill:#565656;fill-opacity:1"
         id="path1107" />
      <path
         d="m 185.06233,52.527503 c -2.445,0 -4.605,0.84 -6.255,2.82 l 1.755,1.455 c 1.335,-1.59 2.67,-2.16 4.335,-2.16 2.52,0 3.81,1.305 3.81,3.675 v 0.465 h -4.575 c -1.62,0 -3.06,0.3 -4.08,1.035 -1.005,0.705 -1.605,1.815 -1.605,3.345 0,2.79 2.085,4.635 5.49,4.635 1.95,0 3.675,-0.69 4.8,-2.67 l 0.15,2.43 h 2.22 v -9.24 c 0,-3.69 -2.175,-5.79 -6.045,-5.79 z m -0.915,13.32 c -2.055,0 -3.285,-1.05 -3.285,-2.655 0,-0.855 0.33,-1.455 0.9,-1.875 0.645,-0.45 1.605,-0.63 2.7,-0.63 h 4.245 v 0.615 c 0,2.61 -2.07,4.545 -4.56,4.545 z"
         style="font-style:normal;font-variant:normal;font-weight:500;font-stretch:normal;font-family:'HK Grotesk';-inkscape-font-specification:'HK Grotesk Medium';text-align:center;text-anchor:middle;fill:#565656;fill-opacity:1"
         id="path1109" />
      <path
         d="m 202.35546,52.767503 h -3.45 v -5.37 l -2.43,1.365 v 4.005 h -3.105 v 1.905 h 3.105 v 9.18 c 0,2.775 1.515,3.945 3.615,3.945 0.735,0 1.485,-0.135 2.265,-0.39 v -1.89 c -0.63,0.195 -1.185,0.285 -1.635,0.285 -1.335,0 -1.815,-0.9 -1.815,-2.595 v -8.535 h 3.45 z"
         style="font-style:normal;font-variant:normal;font-weight:500;font-stretch:normal;font-family:'HK Grotesk';-inkscape-font-specification:'HK Grotesk Medium';text-align:center;text-anchor:middle;fill:#565656;fill-opacity:1"
         id="path1111" />
      <path
         d="m 217.63436,59.562503 c 0,-3.555 -1.965,-7.035 -6.51,-7.035 -4.44,0 -6.675,3.615 -6.675,7.725 0,4.155 2.28,7.545 6.915,7.545 2.445,0 4.17,-0.78 5.82,-2.505 l -1.695,-1.5 c -1.23,1.335 -2.445,1.815 -4.11,1.815 -2.79,0 -4.425,-1.8 -4.515,-4.725 h 10.695 c 0.045,-0.435 0.075,-0.915 0.075,-1.32 z m -10.785,-0.57 c 0.225,-2.475 1.74,-4.44 4.32,-4.44 2.85,0 4.17,2.13 4.17,4.155 v 0.285 z"
         style="font-style:normal;font-variant:normal;font-weight:500;font-stretch:normal;font-family:'HK Grotesk';-inkscape-font-specification:'HK Grotesk Medium';text-align:center;text-anchor:middle;fill:#565656;fill-opacity:1"
         id="path1113" />
    </g>
  </g>
</svg>
