<?xml version="1.0" encoding="UTF-8" standalone="no"?>
<svg
   xmlns:dc="http://purl.org/dc/elements/1.1/"
   xmlns:cc="http://creativecommons.org/ns#"
   xmlns:rdf="http://www.w3.org/1999/02/22-rdf-syntax-ns#"
   xmlns:svg="http://www.w3.org/2000/svg"
   xmlns="http://www.w3.org/2000/svg"
   xmlns:sodipodi="http://sodipodi.sourceforge.net/DTD/sodipodi-0.dtd"
   xmlns:inkscape="http://www.inkscape.org/namespaces/inkscape"
   inkscape:version="1.0 (4035a4fb49, 2020-05-01)"
   sodipodi:docname="VA-graph.svg"
   id="svg56"
   version="1.1"
   viewBox="0 0 704.271 509"
   height="509"
   width="704.271">
  <metadata
     id="metadata60">
    <rdf:RDF>
      <cc:Work
         rdf:about="">
        <dc:format>image/svg+xml</dc:format>
        <dc:type
           rdf:resource="http://purl.org/dc/dcmitype/StillImage" />
      </cc:Work>
    </rdf:RDF>
  </metadata>
  <sodipodi:namedview
     inkscape:current-layer="svg56"
     inkscape:window-maximized="1"
     inkscape:window-y="-8"
     inkscape:window-x="-8"
     inkscape:cy="378.37655"
     inkscape:cx="239.46922"
     inkscape:zoom="0.80721768"
     showgrid="false"
     id="namedview58"
     inkscape:window-height="1002"
     inkscape:window-width="1920"
     inkscape:pageshadow="2"
     inkscape:pageopacity="0"
     guidetolerance="10"
     gridtolerance="10"
     objecttolerance="10"
     borderopacity="1"
     bordercolor="#666666"
     pagecolor="#ffffff" />
  <defs
     id="defs9">
    <linearGradient
       y1="0"
       gradientTransform="matrix(0.72895868,0,0,1.3718199,-672,-455)"
       gradientUnits="userSpaceOnUse"
       y2="174.22112"
       x2="87.110562"
       x1="87.110562"
       id="linear-gradient">
      <stop
         id="stop2"
         stop-color="#fad57d"
         offset="0" />
      <stop
         id="stop4"
         stop-opacity="0.831"
         stop-color="#fbdc93"
         offset="0.064" />
      <stop
         id="stop6"
         stop-opacity="0"
         stop-color="#fff"
         offset="1" />
    </linearGradient>
  </defs>
  <path
     id="Path_59"
     data-name="Path 59"
     d="M 83.9,0 V 455"
     fill="none"
     stroke="#707070"
     stroke-width="2" />
  <path
     id="Path_61"
     data-name="Path 61"
     d="M 83.779,455 H 82.903"
     fill="none"
     stroke="#707070"
     stroke-width="2" />
  <path
     id="Path_63"
     data-name="Path 63"
     d="m 83.5,455 h -15"
     fill="none"
     stroke="#707070"
     stroke-width="2" />
  <path
     id="Path_65"
     data-name="Path 65"
     d="m 83.5,335.5 h -10"
     fill="none"
     stroke="#707070"
     stroke-width="2" />
  <path
     id="Path_67"
     data-name="Path 67"
     d="m 83.5,215.5 h -15"
     fill="none"
     stroke="#707070"
     stroke-width="2" />
  <path
     id="Path_69"
     data-name="Path 69"
     d="m 83.5,55.5 h -15"
     fill="none"
     stroke="#707070"
     stroke-width="2" />
  <path
     id="Rectangle_253"
     data-name="Rectangle 253"
     d="m 114,216 h 107 a 10,10 0 0 1 10,10 V 455 H 104 V 226 a 10,10 0 0 1 10,-10 z"
     fill="#809bc5"
     opacity="0.5" />
  <g
     style="font-weight:500;font-size:30px;font-family:HKGrotesk-Medium, 'HK Grotesk';letter-spacing:0.084em;fill:#565656"
     id="Practo"
     transform="rotate(-90)"
     aria-label="Practo">
    <path
       id="path999"
       d="m -410.33299,178.5 v -9.015 h 3.66 c 4.485,0 6.96,-2.13 6.96,-5.985 0,-3.855 -2.46,-5.91 -6.96,-5.91 h -6.15 v 20.91 z m 0,-18.66 h 3.42 c 3.045,0 4.695,1.2 4.695,3.69 0,2.52 -1.725,3.705 -4.695,3.705 h -3.42 z" />
    <path
       id="path1001"
       d="m -388.00268,163.47 c -1.755,0 -3.405,0.99 -4.26,2.685 v -2.445 h -2.43 v 14.79 h 2.415 v -6.96 c 0,-1.635 0.09,-2.295 0.255,-2.85 0.57,-2.04 2.145,-2.895 3.645,-2.895 0.66,0 1.35,0.195 1.83,0.435 l 1.17,-2.1 c -0.765,-0.42 -1.71,-0.66 -2.625,-0.66 z" />
    <path
       id="path1003"
       d="m -375.17346,163.47 c -2.445,0 -4.605,0.84 -6.255,2.82 l 1.755,1.455 c 1.335,-1.59 2.67,-2.16 4.335,-2.16 2.52,0 3.81,1.305 3.81,3.675 v 0.465 h -4.575 c -1.62,0 -3.06,0.3 -4.08,1.035 -1.005,0.705 -1.605,1.815 -1.605,3.345 0,2.79 2.085,4.635 5.49,4.635 1.95,0 3.675,-0.69 4.8,-2.67 l 0.15,2.43 h 2.22 v -9.24 c 0,-3.69 -2.175,-5.79 -6.045,-5.79 z m -0.915,13.32 c -2.055,0 -3.285,-1.05 -3.285,-2.655 0,-0.855 0.33,-1.455 0.9,-1.875 0.645,-0.45 1.605,-0.63 2.7,-0.63 h 4.245 v 0.615 c 0,2.61 -2.07,4.545 -4.56,4.545 z" />
    <path
       id="path1005"
       d="m -356.57955,178.74 c 2.82,0 4.98,-1.41 5.97,-4.125 l -2.13,-0.84 c -0.6,1.755 -1.89,2.85 -3.84,2.85 -3,0 -4.38,-2.64 -4.38,-5.535 0,-2.865 1.38,-5.505 4.38,-5.505 1.95,0 3.24,1.095 3.84,2.85 l 2.13,-0.84 c -0.99,-2.715 -3.15,-4.125 -5.97,-4.125 -4.35,0 -6.795,3.465 -6.795,7.62 0,4.185 2.445,7.65 6.795,7.65 z" />
    <path
       id="path1007"
       d="m -337.2544,163.71 h -3.45 v -5.37 l -2.43,1.365 v 4.005 h -3.105 v 1.905 h 3.105 v 9.18 c 0,2.775 1.515,3.945 3.615,3.945 0.735,0 1.485,-0.135 2.265,-0.39 v -1.89 c -0.63,0.195 -1.185,0.285 -1.635,0.285 -1.335,0 -1.815,-0.9 -1.815,-2.595 v -8.535 h 3.45 z" />
    <path
       id="path1009"
       d="m -325.53049,178.74 c 4.17,0 7.155,-3.195 7.155,-7.65 0,-4.455 -2.97,-7.62 -7.155,-7.62 -4.2,0 -7.17,3.165 -7.17,7.62 0,4.47 2.985,7.65 7.17,7.65 z m 0,-2.13 c -2.895,0 -4.755,-2.16 -4.755,-5.52 0,-3.345 1.845,-5.49 4.755,-5.49 2.895,0 4.74,2.145 4.74,5.49 0,3.36 -1.845,5.52 -4.74,5.52 z" />
  </g>
  <path
     id="Rectangle_254"
     data-name="Rectangle 254"
     d="m 261,95 h 107 a 10,10 0 0 1 10,10 V 455 H 251 V 105 a 10,10 0 0 1 10,-10 z"
     fill="#809bc5"
     opacity="0.5" />
  <g
     style="font-weight:500;font-size:30px;font-family:HKGrotesk-Medium, 'HK Grotesk';letter-spacing:0.084em;fill:#565656"
     id="Lybrate"
     transform="rotate(-90)"
     aria-label="Lybrate">
    <path
       id="path984"
       d="m -400.757,325.5 v -2.25 h -9.39 v -18.66 h -2.505 v 20.91 z" />
    <path
       id="path986"
       d="m -393.69294,331.605 8.52,-20.895 h -2.625 l -4.44,11.685 -4.395,-11.685 h -2.655 l 5.775,14.115 -2.79,6.78 z" />
    <path
       id="path988"
       d="m -372.52559,310.47 c -2.115,0 -3.78,0.855 -4.845,2.31 v -8.19 h -2.4 v 20.91 h 2.4 v -2.04 c 1.14,1.53 2.82,2.28 4.845,2.28 4.08,0 6.705,-3.285 6.705,-7.65 0,-4.62 -2.895,-7.62 -6.705,-7.62 z m -0.405,13.05 c -2.745,0 -4.65,-2.235 -4.65,-5.43 0,-3.18 1.905,-5.4 4.65,-5.4 2.76,0 4.695,2.22 4.695,5.4 0,3.195 -1.935,5.43 -4.695,5.43 z" />
    <path
       id="path990"
       d="m -352.93888,310.47 c -1.755,0 -3.405,0.99 -4.26,2.685 v -2.445 h -2.43 v 14.79 h 2.415 v -6.96 c 0,-1.635 0.09,-2.295 0.255,-2.85 0.57,-2.04 2.145,-2.895 3.645,-2.895 0.66,0 1.35,0.195 1.83,0.435 l 1.17,-2.1 c -0.765,-0.42 -1.71,-0.66 -2.625,-0.66 z" />
    <path
       id="path992"
       d="m -340.10966,310.47 c -2.445,0 -4.605,0.84 -6.255,2.82 l 1.755,1.455 c 1.335,-1.59 2.67,-2.16 4.335,-2.16 2.52,0 3.81,1.305 3.81,3.675 v 0.465 h -4.575 c -1.62,0 -3.06,0.3 -4.08,1.035 -1.005,0.705 -1.605,1.815 -1.605,3.345 0,2.79 2.085,4.635 5.49,4.635 1.95,0 3.675,-0.69 4.8,-2.67 l 0.15,2.43 h 2.22 v -9.24 c 0,-3.69 -2.175,-5.79 -6.045,-5.79 z m -0.915,13.32 c -2.055,0 -3.285,-1.05 -3.285,-2.655 0,-0.855 0.33,-1.455 0.9,-1.875 0.645,-0.45 1.605,-0.63 2.7,-0.63 h 4.245 v 0.615 c 0,2.61 -2.07,4.545 -4.56,4.545 z" />
    <path
       id="path994"
       d="m -320.29653,310.71 h -3.45 v -5.37 l -2.43,1.365 v 4.005 h -3.105 v 1.905 h 3.105 v 9.18 c 0,2.775 1.515,3.945 3.615,3.945 0.735,0 1.485,-0.135 2.265,-0.39 v -1.89 c -0.63,0.195 -1.185,0.285 -1.635,0.285 -1.335,0 -1.815,-0.9 -1.815,-2.595 v -8.535 h 3.45 z" />
    <path
       id="path996"
       d="m -302.49762,317.505 c 0,-3.555 -1.965,-7.035 -6.51,-7.035 -4.44,0 -6.675,3.615 -6.675,7.725 0,4.155 2.28,7.545 6.915,7.545 2.445,0 4.17,-0.78 5.82,-2.505 l -1.695,-1.5 c -1.23,1.335 -2.445,1.815 -4.11,1.815 -2.79,0 -4.425,-1.8 -4.515,-4.725 h 10.695 c 0.045,-0.435 0.075,-0.915 0.075,-1.32 z m -10.785,-0.57 c 0.225,-2.475 1.74,-4.44 4.32,-4.44 2.85,0 4.17,2.13 4.17,4.155 v 0.285 z" />
  </g>
  <g
     style="font-weight:500;font-size:10px;font-family:HKGrotesk-Medium, 'HK Grotesk';letter-spacing:0.084em;fill:#565656"
     id="_6"
     aria-label="$6">
    <path
       id="path1043"
       d="m 51.054999,217.075 c 0,-1.13 -0.83,-1.62 -1.985,-2.055 -0.965,-0.365 -1.535,-0.65 -1.535,-1.315 0,-0.6 0.495,-1.045 1.2,-1.045 0.58,0 1.025,0.3 1.34,0.85 l 0.665,-0.41 c -0.365,-0.685 -0.935,-1.08 -1.665,-1.165 v -1.015 h -0.61 v 1.01 c -1.07,0.11 -1.765,0.83 -1.765,1.79 0,1.045 0.745,1.545 1.92,1.995 0.935,0.355 1.605,0.645 1.605,1.415 0,0.73 -0.605,1.225 -1.4,1.225 -0.945,0 -1.58,-0.515 -1.74,-1.445 l -0.815,0.2 c 0.185,1.125 1,1.875 2.23,1.98 v 1.06 h 0.61 v -1.065 c 1.16,-0.12 1.945,-0.925 1.945,-2.01 z" />
    <path
       id="path1045"
       d="m 55.43078,214.455 c -0.265,0 -0.52,0.06 -0.745,0.17 l 1.605,-2.595 h -0.92 l -2.09,3.46 c -0.235,0.385 -0.37,0.805 -0.37,1.265 0,1.325 1.09,2.325 2.415,2.325 1.32,0 2.405,-1 2.405,-2.335 0,-1.28 -1.015,-2.29 -2.3,-2.29 z m -0.105,3.855 c -0.885,0 -1.595,-0.655 -1.595,-1.565 0,-0.92 0.72,-1.575 1.595,-1.575 0.88,0 1.59,0.665 1.59,1.57 0,0.91 -0.715,1.57 -1.59,1.57 z" />
  </g>
  <g
     style="font-weight:500;font-size:10px;font-family:HKGrotesk-Medium, 'HK Grotesk';letter-spacing:0.084em;fill:#565656"
     id="_10"
     aria-label="$10">
    <path
       id="path1048"
       d="m 44.194998,57.075 c 0,-1.13 -0.83,-1.62 -1.985,-2.055 -0.965,-0.365 -1.535,-0.65 -1.535,-1.315 0,-0.6 0.495,-1.045 1.2,-1.045 0.58,0 1.025,0.3 1.34,0.85 l 0.665,-0.41 c -0.365,-0.685 -0.935,-1.08 -1.665,-1.165 V 50.92 h -0.61 v 1.01 c -1.07,0.11 -1.765,0.83 -1.765,1.79 0,1.045 0.745,1.545 1.92,1.995 0.935,0.355 1.605,0.645 1.605,1.415 0,0.73 -0.605,1.225 -1.4,1.225 -0.945,0 -1.58,-0.515 -1.74,-1.445 l -0.815,0.2 c 0.185,1.125 1,1.875 2.23,1.98 v 1.06 h 0.61 v -1.065 c 1.16,-0.12 1.945,-0.925 1.945,-2.01 z" />
    <path
       id="path1050"
       d="m 48.65078,52.58 c 0,0.42 -0.205,0.565 -0.6,0.565 h -1.22 v 0.675 h 1.82 V 59 h 0.805 v -6.97 h -0.805 z" />
    <path
       id="path1052"
       d="m 55.121561,59.075 c 1.805,0 2.235,-1.825 2.235,-3.57 0,-1.71 -0.42,-3.565 -2.265,-3.565 -1.91,0 -2.24,1.96 -2.24,3.555 0,1.62 0.345,3.58 2.27,3.58 z m 0,-0.77 c -1.155,0 -1.45,-1.31 -1.45,-2.785 0,-1.51 0.29,-2.805 1.42,-2.805 1.07,0 1.445,1.18 1.445,2.815 0,1.59 -0.37,2.775 -1.415,2.775 z" />
  </g>
  <path
     id="Path_70"
     data-name="Path 70"
     d="m 83.5,255.5 h -10"
     fill="none"
     stroke="#707070"
     stroke-width="2" />
  <path
     id="Path_71"
     data-name="Path 71"
     d="m 83.5,295.5 h -10"
     fill="none"
     stroke="#707070"
     stroke-width="2" />
  <path
     id="Path_72"
     data-name="Path 72"
     d="m 83.5,375.5 h -10"
     fill="none"
     stroke="#707070"
     stroke-width="2" />
  <path
     id="Path_73"
     data-name="Path 73"
     d="m 83.5,175.5 h -10"
     fill="none"
     stroke="#707070"
     stroke-width="2" />
  <path
     id="Path_74"
     data-name="Path 74"
     d="m 83.5,135.5 h -10"
     fill="none"
     stroke="#707070"
     stroke-width="2" />
  <path
     id="Path_75"
     data-name="Path 75"
     d="m 83.5,95.5 h -10"
     fill="none"
     stroke="#707070"
     stroke-width="2" />
  <path
     id="Path_76"
     data-name="Path 76"
     d="m 83.5,415.5 h -10"
     fill="none"
     stroke="#707070"
     stroke-width="2" />
  <path
     id="Rectangle_255"
     data-name="Rectangle 255"
     d="m 408,55 h 107 a 10,10 0 0 1 10,10 V 455 H 398 V 65 a 10,10 0 0 1 10,-10 z"
     fill="#809bc5"
     opacity="0.5" />
  <g
     style="font-weight:500;font-size:30px;font-family:HKGrotesk-Medium, 'HK Grotesk';letter-spacing:0.084em;fill:#565656"
     id="DocEngage"
     transform="rotate(-90)"
     aria-label="DocEngage">
    <path
       id="path965"
       d="m -406.63801,472.5 c 6.96,0 10.77,-3.645 10.77,-10.29 0,-6.765 -3.915,-10.62 -10.74,-10.62 h -5.76 v 20.91 z m -3.225,-18.6 h 3.21 c 5.205,0 8.25,2.49 8.25,8.22 0,5.76 -3.045,8.07 -8.475,8.07 h -2.985 z" />
    <path
       id="path967"
       d="m -383.40816,472.74 c 4.17,0 7.155,-3.195 7.155,-7.65 0,-4.455 -2.97,-7.62 -7.155,-7.62 -4.2,0 -7.17,3.165 -7.17,7.62 0,4.47 2.985,7.65 7.17,7.65 z m 0,-2.13 c -2.895,0 -4.755,-2.16 -4.755,-5.52 0,-3.345 1.845,-5.49 4.755,-5.49 2.895,0 4.74,2.145 4.74,5.49 0,3.36 -1.845,5.52 -4.74,5.52 z" />
    <path
       id="path969"
       d="m -364.0066,472.74 c 2.82,0 4.98,-1.41 5.97,-4.125 l -2.13,-0.84 c -0.6,1.755 -1.89,2.85 -3.84,2.85 -3,0 -4.38,-2.64 -4.38,-5.535 0,-2.865 1.38,-5.505 4.38,-5.505 1.95,0 3.24,1.095 3.84,2.85 l 2.13,-0.84 c -0.99,-2.715 -3.15,-4.125 -5.97,-4.125 -4.35,0 -6.795,3.465 -6.795,7.62 0,4.185 2.445,7.65 6.795,7.65 z" />
    <path
       id="path971"
       d="m -338.568,472.5 v -2.25 h -11.235 v -7.275 h 10.185 v -2.25 h -10.185 v -6.885 h 11.235 v -2.25 h -13.74 v 20.91 z" />
    <path
       id="path973"
       d="m -326.17941,457.47 c -1.89,0 -3.51,0.705 -4.5,2.46 v -2.22 h -2.415 v 14.79 h 2.415 v -7.395 c 0,-3.825 1.395,-5.52 3.9,-5.52 2.265,0 3.405,1.38 3.405,4.44 v 8.475 h 2.415 v -9.345 c 0,-3.765 -1.935,-5.685 -5.22,-5.685 z" />
    <path
       id="path975"
       d="m -309.34473,470.61 c -2.145,-0.3 -3.495,-0.615 -3.495,-1.98 0,-0.57 0.285,-1.02 0.825,-1.425 0.84,0.405 1.83,0.63 2.94,0.63 3.315,0 5.595,-2.01 5.595,-5.04 0,-0.99 -0.24,-1.86 -0.66,-2.61 l 2.295,-1.98 -1.26,-1.545 -2.355,1.995 c -0.99,-0.765 -2.28,-1.185 -3.675,-1.185 -3.165,0 -5.685,2.115 -5.685,5.235 0,1.32 0.45,2.475 1.245,3.345 -0.96,0.72 -1.485,1.605 -1.485,2.835 0,1.425 0.72,2.34 2.04,2.94 l -2.46,1.8 c -0.06,0.27 -0.075,0.585 -0.075,0.84 0,2.775 2.595,4.41 6.885,4.41 3.885,0 6.255,-1.47 6.255,-4.215 0,-3.105 -3.195,-3.525 -6.93,-4.05 z m 0.24,-11.115 c 1.95,0 3.225,1.305 3.225,3.225 0,1.83 -1.2,3.195 -3.24,3.195 -2.07,0 -3.285,-1.38 -3.285,-3.21 0,-1.875 1.32,-3.21 3.3,-3.21 z m 0.45,17.55 c -2.535,0 -4.5,-0.84 -4.5,-2.505 0,-0.12 0,-0.24 0.03,-0.39 l 1.83,-1.77 c 0.48,0.105 1.005,0.195 1.56,0.27 2.97,0.42 4.92,0.675 4.92,2.28 0,1.5 -1.77,2.115 -3.84,2.115 z" />
    <path
       id="path977"
       d="m -291.13332,457.47 c -2.445,0 -4.605,0.84 -6.255,2.82 l 1.755,1.455 c 1.335,-1.59 2.67,-2.16 4.335,-2.16 2.52,0 3.81,1.305 3.81,3.675 v 0.465 h -4.575 c -1.62,0 -3.06,0.3 -4.08,1.035 -1.005,0.705 -1.605,1.815 -1.605,3.345 0,2.79 2.085,4.635 5.49,4.635 1.95,0 3.675,-0.69 4.8,-2.67 l 0.15,2.43 h 2.22 v -9.24 c 0,-3.69 -2.175,-5.79 -6.045,-5.79 z m -0.915,13.32 c -2.055,0 -3.285,-1.05 -3.285,-2.655 0,-0.855 0.33,-1.455 0.9,-1.875 0.645,-0.45 1.605,-0.63 2.7,-0.63 h 4.245 v 0.615 c 0,2.61 -2.07,4.545 -4.56,4.545 z" />
    <path
       id="path979"
       d="m -273.54301,470.61 c -2.145,-0.3 -3.495,-0.615 -3.495,-1.98 0,-0.57 0.285,-1.02 0.825,-1.425 0.84,0.405 1.83,0.63 2.94,0.63 3.315,0 5.595,-2.01 5.595,-5.04 0,-0.99 -0.24,-1.86 -0.66,-2.61 l 2.295,-1.98 -1.26,-1.545 -2.355,1.995 c -0.99,-0.765 -2.28,-1.185 -3.675,-1.185 -3.165,0 -5.685,2.115 -5.685,5.235 0,1.32 0.45,2.475 1.245,3.345 -0.96,0.72 -1.485,1.605 -1.485,2.835 0,1.425 0.72,2.34 2.04,2.94 l -2.46,1.8 c -0.06,0.27 -0.075,0.585 -0.075,0.84 0,2.775 2.595,4.41 6.885,4.41 3.885,0 6.255,-1.47 6.255,-4.215 0,-3.105 -3.195,-3.525 -6.93,-4.05 z m 0.24,-11.115 c 1.95,0 3.225,1.305 3.225,3.225 0,1.83 -1.2,3.195 -3.24,3.195 -2.07,0 -3.285,-1.38 -3.285,-3.21 0,-1.875 1.32,-3.21 3.3,-3.21 z m 0.45,17.55 c -2.535,0 -4.5,-0.84 -4.5,-2.505 0,-0.12 0,-0.24 0.03,-0.39 l 1.83,-1.77 c 0.48,0.105 1.005,0.195 1.56,0.27 2.97,0.42 4.92,0.675 4.92,2.28 0,1.5 -1.77,2.115 -3.84,2.115 z" />
    <path
       id="path981"
       d="m -248.7166,464.505 c 0,-3.555 -1.965,-7.035 -6.51,-7.035 -4.44,0 -6.675,3.615 -6.675,7.725 0,4.155 2.28,7.545 6.915,7.545 2.445,0 4.17,-0.78 5.82,-2.505 l -1.695,-1.5 c -1.23,1.335 -2.445,1.815 -4.11,1.815 -2.79,0 -4.425,-1.8 -4.515,-4.725 h 10.695 c 0.045,-0.435 0.075,-0.915 0.075,-1.32 z m -10.785,-0.57 c 0.225,-2.475 1.74,-4.44 4.32,-4.44 2.85,0 4.17,2.13 4.17,4.155 v 0.285 z" />
  </g>
  <g
     style="font-weight:500;font-size:20px;font-family:HKGrotesk-Medium, 'HK Grotesk';letter-spacing:0.084em;fill:#565656"
     id="Pricing_per_month"
     transform="rotate(-90)"
     aria-label="Pricing per month">
    <path
       id="path1012"
       d="m -316.415,23 v -6.01 h 2.44 c 2.99,0 4.64,-1.42 4.64,-3.99 0,-2.57 -1.64,-3.94 -4.64,-3.94 h -4.1 V 23 Z m 0,-12.44 h 2.28 c 2.03,0 3.13,0.8 3.13,2.46 0,1.68 -1.15,2.47 -3.13,2.47 h -2.28 z" />
    <path
       id="path1014"
       d="m -301.52812,12.98 c -1.17,0 -2.27,0.66 -2.84,1.79 v -1.63 h -1.62 V 23 h 1.61 v -4.64 c 0,-1.09 0.06,-1.53 0.17,-1.9 0.38,-1.36 1.43,-1.93 2.43,-1.93 0.44,0 0.9,0.13 1.22,0.29 l 0.78,-1.4 c -0.51,-0.28 -1.14,-0.44 -1.75,-0.44 z" />
    <path
       id="path1016"
       d="M -294.69844,11.33 V 9.06 h -1.7 v 2.27 z m -0.05,11.67 v -9.86 h -1.61 V 23 Z" />
    <path
       id="path1018"
       d="m -286.08719,23.16 c 1.88,0 3.32,-0.94 3.98,-2.75 l -1.42,-0.56 c -0.4,1.17 -1.26,1.9 -2.56,1.9 -2,0 -2.92,-1.76 -2.92,-3.69 0,-1.91 0.92,-3.67 2.92,-3.67 1.3,0 2.16,0.73 2.56,1.9 l 1.42,-0.56 c -0.66,-1.81 -2.1,-2.75 -3.98,-2.75 -2.9,0 -4.53,2.31 -4.53,5.08 0,2.79 1.63,5.1 4.53,5.1 z" />
    <path
       id="path1020"
       d="M -276.45562,11.33 V 9.06 h -1.7 v 2.27 z m -0.05,11.67 v -9.86 h -1.61 V 23 Z" />
    <path
       id="path1022"
       d="m -267.31437,12.98 c -1.26,0 -2.34,0.47 -3,1.64 v -1.48 h -1.61 V 23 h 1.61 v -4.93 c 0,-2.55 0.93,-3.68 2.6,-3.68 1.51,0 2.27,0.92 2.27,2.96 V 23 h 1.61 v -6.23 c 0,-2.51 -1.29,-3.79 -3.48,-3.79 z" />
    <path
       id="path1024"
       d="m -256.09125,21.74 c -1.43,-0.2 -2.33,-0.41 -2.33,-1.32 0,-0.38 0.19,-0.68 0.55,-0.95 0.56,0.27 1.22,0.42 1.96,0.42 2.21,0 3.73,-1.34 3.73,-3.36 0,-0.66 -0.16,-1.24 -0.44,-1.74 l 1.53,-1.32 -0.84,-1.03 -1.57,1.33 c -0.66,-0.51 -1.52,-0.79 -2.45,-0.79 -2.11,0 -3.79,1.41 -3.79,3.49 0,0.88 0.3,1.65 0.83,2.23 -0.64,0.48 -0.99,1.07 -0.99,1.89 0,0.95 0.48,1.56 1.36,1.96 l -1.64,1.2 c -0.04,0.18 -0.05,0.39 -0.05,0.56 0,1.85 1.73,2.94 4.59,2.94 2.59,0 4.17,-0.98 4.17,-2.81 0,-2.07 -2.13,-2.35 -4.62,-2.7 z m 0.16,-7.41 c 1.3,0 2.15,0.87 2.15,2.15 0,1.22 -0.8,2.13 -2.16,2.13 -1.38,0 -2.19,-0.92 -2.19,-2.14 0,-1.25 0.88,-2.14 2.2,-2.14 z m 0.3,11.7 c -1.69,0 -3,-0.56 -3,-1.67 0,-0.08 0,-0.16 0.02,-0.26 l 1.22,-1.18 c 0.32,0.07 0.67,0.13 1.04,0.18 1.98,0.28 3.28,0.45 3.28,1.52 0,1 -1.18,1.41 -2.56,1.41 z" />
    <path
       id="path1026"
       d="m -235.83343,12.98 c -1.35,0 -2.47,0.5 -3.23,1.52 v -1.36 h -1.6 v 13.94 h 1.6 v -5.46 c 0.71,0.97 1.82,1.54 3.23,1.54 2.54,0 4.47,-2 4.47,-5.08 0,-2.91 -1.75,-5.1 -4.47,-5.1 z m -0.27,8.7 c -1.83,0 -3.1,-1.48 -3.1,-3.6 0,-2.13 1.27,-3.62 3.1,-3.62 1.84,0 3.13,1.49 3.13,3.62 0,2.12 -1.29,3.6 -3.13,3.6 z" />
    <path
       id="path1028"
       d="m -218.87562,17.67 c 0,-2.37 -1.31,-4.69 -4.34,-4.69 -2.96,0 -4.45,2.41 -4.45,5.15 0,2.77 1.52,5.03 4.61,5.03 1.63,0 2.78,-0.52 3.88,-1.67 l -1.13,-1 c -0.82,0.89 -1.63,1.21 -2.74,1.21 -1.86,0 -2.95,-1.2 -3.01,-3.15 h 7.13 c 0.03,-0.29 0.05,-0.61 0.05,-0.88 z m -7.19,-0.38 c 0.15,-1.65 1.16,-2.96 2.88,-2.96 1.9,0 2.78,1.42 2.78,2.77 v 0.19 z" />
    <path
       id="path1030"
       d="m -210.31437,12.98 c -1.17,0 -2.27,0.66 -2.84,1.79 v -1.63 h -1.62 V 23 h 1.61 v -4.64 c 0,-1.09 0.06,-1.53 0.17,-1.9 0.38,-1.36 1.43,-1.93 2.43,-1.93 0.44,0 0.9,0.13 1.22,0.29 l 0.78,-1.4 c -0.51,-0.28 -1.14,-0.44 -1.75,-0.44 z" />
    <path
       id="path1032"
       d="m -187.99125,12.98 c -1.19,0 -2.33,0.41 -3.09,1.5 -0.59,-1.11 -1.64,-1.5 -2.8,-1.5 -1.11,0 -2.16,0.45 -2.79,1.59 v -1.43 h -1.54 V 23 h 1.62 v -5.32 c 0,-2.17 0.87,-3.29 2.36,-3.29 1.35,0 2.08,0.92 2.08,2.87 V 23 h 1.61 v -5.32 c 0,-2.18 0.86,-3.29 2.32,-3.29 1.55,0 2.13,1.13 2.13,3 V 23 h 1.62 v -5.98 c 0,-2.22 -0.95,-4.04 -3.52,-4.04 z" />
    <path
       id="path1034"
       d="m -175.85406,23.16 c 2.78,0 4.77,-2.13 4.77,-5.1 0,-2.97 -1.98,-5.08 -4.77,-5.08 -2.8,0 -4.78,2.11 -4.78,5.08 0,2.98 1.99,5.1 4.78,5.1 z m 0,-1.42 c -1.93,0 -3.17,-1.44 -3.17,-3.68 0,-2.23 1.23,-3.66 3.17,-3.66 1.93,0 3.16,1.43 3.16,3.66 0,2.24 -1.23,3.68 -3.16,3.68 z" />
    <path
       id="path1036"
       d="m -162.38968,12.98 c -1.26,0 -2.34,0.47 -3,1.64 v -1.48 h -1.61 V 23 h 1.61 v -4.93 c 0,-2.55 0.93,-3.68 2.6,-3.68 1.51,0 2.27,0.92 2.27,2.96 V 23 h 1.61 v -6.23 c 0,-2.51 -1.29,-3.79 -3.48,-3.79 z" />
    <path
       id="path1038"
       d="m -149.68469,13.14 h -2.3 V 9.56 l -1.62,0.91 v 2.67 h -2.07 v 1.27 h 2.07 v 6.12 c 0,1.85 1.01,2.63 2.41,2.63 0.49,0 0.99,-0.09 1.51,-0.26 v -1.26 c -0.42,0.13 -0.79,0.19 -1.09,0.19 -0.89,0 -1.21,-0.6 -1.21,-1.73 v -5.69 h 2.3 z" />
    <path
       id="path1040"
       d="m -141.25624,12.98 c -1.3,0 -2.35,0.47 -3,1.63 V 9.06 h -1.61 V 23 h 1.61 v -4.93 c 0,-2.46 0.87,-3.68 2.6,-3.68 1.54,0 2.27,0.96 2.27,2.96 V 23 h 1.61 v -6.23 c 0,-2.42 -1.23,-3.79 -3.48,-3.79 z" />
  </g>
  <rect
     id="Rectangle_256"
     data-name="Rectangle 256"
     width="127"
     height="239"
     transform="scale(-1)"
     fill="url(#linear-gradient)"
     style="fill:url(#linear-gradient)"
     x="-672"
     y="-455" />
  <g
     style="font-weight:500;font-size:20px;font-family:HKGrotesk-Medium, 'HK Grotesk';letter-spacing:0.084em;fill:#565656"
     id="Competitors"
     aria-label="Competitors">
    <path
       id="path1055"
       d="m 258.505,500.23 c 2.79,0 4.91,-1.48 5.82,-3.91 l -1.57,-0.57 c -0.69,1.82 -2.2,2.88 -4.25,2.88 -2.91,0 -4.76,-2.15 -4.76,-5.61 0,-3.43 1.85,-5.59 4.76,-5.59 2.05,0 3.56,1.06 4.25,2.88 l 1.57,-0.57 c -0.91,-2.43 -3.03,-3.91 -5.82,-3.91 -3.85,0 -6.43,2.86 -6.43,7.19 0,4.35 2.58,7.21 6.43,7.21 z" />
    <path
       id="path1057"
       d="m 272.28407,500.16 c 2.78,0 4.77,-2.13 4.77,-5.1 0,-2.97 -1.98,-5.08 -4.77,-5.08 -2.8,0 -4.78,2.11 -4.78,5.08 0,2.98 1.99,5.1 4.78,5.1 z m 0,-1.42 c -1.93,0 -3.17,-1.44 -3.17,-3.68 0,-2.23 1.23,-3.66 3.17,-3.66 1.93,0 3.16,1.43 3.16,3.66 0,2.24 -1.23,3.68 -3.16,3.68 z" />
    <path
       id="path1059"
       d="m 291.35844,489.98 c -1.19,0 -2.33,0.41 -3.09,1.5 -0.59,-1.11 -1.64,-1.5 -2.8,-1.5 -1.11,0 -2.16,0.45 -2.79,1.59 v -1.43 h -1.54 V 500 h 1.62 v -5.32 c 0,-2.17 0.87,-3.29 2.36,-3.29 1.35,0 2.08,0.92 2.08,2.87 V 500 h 1.61 v -5.32 c 0,-2.18 0.86,-3.29 2.32,-3.29 1.55,0 2.13,1.13 2.13,3 V 500 h 1.62 v -5.98 c 0,-2.22 -0.95,-4.04 -3.52,-4.04 z" />
    <path
       id="path1061"
       d="m 304.18188,489.98 c -1.35,0 -2.47,0.5 -3.23,1.52 v -1.36 h -1.6 v 13.94 h 1.6 v -5.46 c 0.71,0.97 1.82,1.54 3.23,1.54 2.54,0 4.47,-2 4.47,-5.08 0,-2.91 -1.75,-5.1 -4.47,-5.1 z m -0.27,8.7 c -1.83,0 -3.1,-1.48 -3.1,-3.6 0,-2.13 1.27,-3.62 3.1,-3.62 1.84,0 3.13,1.49 3.13,3.62 0,2.12 -1.29,3.6 -3.13,3.6 z" />
    <path
       id="path1063"
       d="m 321.13969,494.67 c 0,-2.37 -1.31,-4.69 -4.34,-4.69 -2.96,0 -4.45,2.41 -4.45,5.15 0,2.77 1.52,5.03 4.61,5.03 1.63,0 2.78,-0.52 3.88,-1.67 l -1.13,-1 c -0.82,0.89 -1.63,1.21 -2.74,1.21 -1.86,0 -2.95,-1.2 -3.01,-3.15 h 7.13 c 0.03,-0.29 0.05,-0.61 0.05,-0.88 z m -7.19,-0.38 c 0.15,-1.65 1.16,-2.96 2.88,-2.96 1.9,0 2.78,1.42 2.78,2.77 v 0.19 z" />
    <path
       id="path1065"
       d="m 330.13375,490.14 h -2.3 v -3.58 l -1.62,0.91 v 2.67 h -2.07 v 1.27 h 2.07 v 6.12 c 0,1.85 1.01,2.63 2.41,2.63 0.49,0 0.99,-0.09 1.51,-0.26 v -1.26 c -0.42,0.13 -0.79,0.19 -1.09,0.19 -0.89,0 -1.21,-0.6 -1.21,-1.73 v -5.69 h 2.3 z" />
    <path
       id="path1067"
       d="m 335.43688,488.33 v -2.27 h -1.7 v 2.27 z m -0.05,11.67 v -9.86 h -1.61 V 500 Z" />
    <path
       id="path1069"
       d="m 344.97813,490.14 h -2.3 v -3.58 l -1.62,0.91 v 2.67 h -2.07 v 1.27 h 2.07 v 6.12 c 0,1.85 1.01,2.63 2.41,2.63 0.49,0 0.99,-0.09 1.51,-0.26 v -1.26 c -0.42,0.13 -0.79,0.19 -1.09,0.19 -0.89,0 -1.21,-0.6 -1.21,-1.73 v -5.69 h 2.3 z" />
    <path
       id="path1071"
       d="m 352.79407,500.16 c 2.78,0 4.77,-2.13 4.77,-5.1 0,-2.97 -1.98,-5.08 -4.77,-5.08 -2.8,0 -4.78,2.11 -4.78,5.08 0,2.98 1.99,5.1 4.78,5.1 z m 0,-1.42 c -1.93,0 -3.17,-1.44 -3.17,-3.68 0,-2.23 1.23,-3.66 3.17,-3.66 1.93,0 3.16,1.43 3.16,3.66 0,2.24 -1.23,3.68 -3.16,3.68 z" />
    <path
       id="path1073"
       d="m 366.10844,489.98 c -1.17,0 -2.27,0.66 -2.84,1.79 v -1.63 h -1.62 V 500 h 1.61 v -4.64 c 0,-1.09 0.06,-1.53 0.17,-1.9 0.38,-1.36 1.43,-1.93 2.43,-1.93 0.44,0 0.9,0.13 1.22,0.29 l 0.78,-1.4 c -0.51,-0.28 -1.14,-0.44 -1.75,-0.44 z" />
    <path
       id="path1075"
       d="m 374.25938,500.16 c 2.24,0 3.7,-1.21 3.7,-3.05 0,-2.2 -1.98,-2.67 -3.61,-3.06 -1.36,-0.33 -2.14,-0.62 -2.14,-1.47 0,-0.75 0.76,-1.3 1.84,-1.3 1.04,0 1.87,0.44 2.49,1.39 l 1.13,-0.86 c -0.77,-1.21 -2.05,-1.83 -3.56,-1.83 -2.03,0 -3.41,1.2 -3.41,2.7 0,1.89 1.65,2.4 3.2,2.8 1.45,0.38 2.48,0.68 2.48,1.79 0,0.98 -0.75,1.55 -2.01,1.55 -1.33,0 -2.47,-0.67 -3.07,-1.78 l -1.11,0.94 c 0.88,1.38 2.33,2.18 4.07,2.18 z" />
  </g>
  <path
     id="Path_60"
     data-name="Path 60"
     d="M 704.271,454.999 H 83.402"
     fill="none"
     stroke="#707070"
     stroke-width="2" />
  <g
     style="font-weight:500;font-size:30px;font-family:HKGrotesk-Medium, 'HK Grotesk';letter-spacing:0.084em;fill:#565656"
     id="Varuna_scales_w_income_"
     transform="rotate(-90)"
     aria-label="Varuna(scales w/ income)">
    <path
       id="path920"
       d="m -405.035,615.54 -6.54,-16.95 h -2.76 l 8.31,20.91 h 1.965 l 8.295,-20.91 h -2.775 z" />
    <path
       id="path922"
       d="m -386.95484,604.47 c -2.445,0 -4.605,0.84 -6.255,2.82 l 1.755,1.455 c 1.335,-1.59 2.67,-2.16 4.335,-2.16 2.52,0 3.81,1.305 3.81,3.675 v 0.465 h -4.575 c -1.62,0 -3.06,0.3 -4.08,1.035 -1.005,0.705 -1.605,1.815 -1.605,3.345 0,2.79 2.085,4.635 5.49,4.635 1.95,0 3.675,-0.69 4.8,-2.67 l 0.15,2.43 h 2.22 v -9.24 c 0,-3.69 -2.175,-5.79 -6.045,-5.79 z m -0.915,13.32 c -2.055,0 -3.285,-1.05 -3.285,-2.655 0,-0.855 0.33,-1.455 0.9,-1.875 0.645,-0.45 1.605,-0.63 2.7,-0.63 h 4.245 v 0.615 c 0,2.61 -2.07,4.545 -4.56,4.545 z" />
    <path
       id="path924"
       d="m -367.55656,604.47 c -1.755,0 -3.405,0.99 -4.26,2.685 v -2.445 h -2.43 v 14.79 h 2.415 v -6.96 c 0,-1.635 0.09,-2.295 0.255,-2.85 0.57,-2.04 2.145,-2.895 3.645,-2.895 0.66,0 1.35,0.195 1.83,0.435 l 1.17,-2.1 c -0.765,-0.42 -1.71,-0.66 -2.625,-0.66 z" />
    <path
       id="path926"
       d="m -350.42422,612.105 c 0,3.825 -1.395,5.52 -3.9,5.52 -2.265,0 -3.405,-1.38 -3.405,-4.44 v -8.475 h -2.415 v 9.345 c 0,3.765 1.935,5.685 5.22,5.685 1.89,0 3.51,-0.675 4.5,-2.445 v 2.205 h 2.415 v -14.79 h -2.415 z" />
    <path
       id="path928"
       d="m -334.22516,604.47 c -1.89,0 -3.51,0.705 -4.5,2.46 v -2.22 h -2.415 v 14.79 h 2.415 v -7.395 c 0,-3.825 1.395,-5.52 3.9,-5.52 2.265,0 3.405,1.38 3.405,4.44 v 8.475 h 2.415 v -9.345 c 0,-3.765 -1.935,-5.685 -5.22,-5.685 z" />
    <path
       id="path930"
       d="m -316.64047,604.47 c -2.445,0 -4.605,0.84 -6.255,2.82 l 1.755,1.455 c 1.335,-1.59 2.67,-2.16 4.335,-2.16 2.52,0 3.81,1.305 3.81,3.675 v 0.465 h -4.575 c -1.62,0 -3.06,0.3 -4.08,1.035 -1.005,0.705 -1.605,1.815 -1.605,3.345 0,2.79 2.085,4.635 5.49,4.635 1.95,0 3.675,-0.69 4.8,-2.67 l 0.15,2.43 h 2.22 v -9.24 c 0,-3.69 -2.175,-5.79 -6.045,-5.79 z m -0.915,13.32 c -2.055,0 -3.285,-1.05 -3.285,-2.655 0,-0.855 0.33,-1.455 0.9,-1.875 0.645,-0.45 1.605,-0.63 2.7,-0.63 h 4.245 v 0.615 c 0,2.61 -2.07,4.545 -4.56,4.545 z" />
    <path
       id="path932"
       style="font-size:20px"
       d="m -301.25219,623.58 c -1.66,-2.24 -2.55,-6.01 -2.55,-9 0,-3.03 0.8,-6.56 2.56,-9.02 h -1.48 c -1.64,2.42 -2.36,5.95 -2.36,9.03 0,3.01 0.81,6.78 2.35,8.99 z" />
    <path
       id="path934"
       style="font-size:20px"
       d="m -293.31063,619.66 c 2.24,0 3.7,-1.21 3.7,-3.05 0,-2.2 -1.98,-2.67 -3.61,-3.06 -1.36,-0.33 -2.14,-0.62 -2.14,-1.47 0,-0.75 0.76,-1.3 1.84,-1.3 1.04,0 1.87,0.44 2.49,1.39 l 1.13,-0.86 c -0.77,-1.21 -2.05,-1.83 -3.56,-1.83 -2.03,0 -3.41,1.2 -3.41,2.7 0,1.89 1.65,2.4 3.2,2.8 1.45,0.38 2.48,0.68 2.48,1.79 0,0.98 -0.75,1.55 -2.01,1.55 -1.33,0 -2.47,-0.67 -3.07,-1.78 l -1.11,0.94 c 0.88,1.38 2.33,2.18 4.07,2.18 z" />
    <path
       id="path936"
       style="font-size:20px"
       d="m -280.84469,619.66 c 1.88,0 3.32,-0.94 3.98,-2.75 l -1.42,-0.56 c -0.4,1.17 -1.26,1.9 -2.56,1.9 -2,0 -2.92,-1.76 -2.92,-3.69 0,-1.91 0.92,-3.67 2.92,-3.67 1.3,0 2.16,0.73 2.56,1.9 l 1.42,-0.56 c -0.66,-1.81 -2.1,-2.75 -3.98,-2.75 -2.9,0 -4.53,2.31 -4.53,5.08 0,2.79 1.63,5.1 4.53,5.1 z" />
    <path
       id="path938"
       style="font-size:20px"
       d="m -268.25937,609.48 c -1.63,0 -3.07,0.56 -4.17,1.88 l 1.17,0.97 c 0.89,-1.06 1.78,-1.44 2.89,-1.44 1.68,0 2.54,0.87 2.54,2.45 v 0.31 h -3.05 c -1.08,0 -2.04,0.2 -2.72,0.69 -0.67,0.47 -1.07,1.21 -1.07,2.23 0,1.86 1.39,3.09 3.66,3.09 1.3,0 2.45,-0.46 3.2,-1.78 l 0.1,1.62 h 1.48 v -6.16 c 0,-2.46 -1.45,-3.86 -4.03,-3.86 z m -0.61,8.88 c -1.37,0 -2.19,-0.7 -2.19,-1.77 0,-0.57 0.22,-0.97 0.6,-1.25 0.43,-0.3 1.07,-0.42 1.8,-0.42 h 2.83 v 0.41 c 0,1.74 -1.38,3.03 -3.04,3.03 z" />
    <path
       id="path940"
       style="font-size:20px"
       d="m -257.29062,619.66 c 0.38,0 0.87,-0.08 1.39,-0.26 v -1.39 c -0.32,0.11 -0.61,0.16 -0.86,0.16 -0.56,0 -0.9,-0.32 -0.9,-1.12 v -11.49 h -1.6 v 11.79 c 0,1.61 0.79,2.31 1.97,2.31 z" />
    <path
       id="path942"
       style="font-size:20px"
       d="m -243.45782,614.17 c 0,-2.37 -1.31,-4.69 -4.34,-4.69 -2.96,0 -4.45,2.41 -4.45,5.15 0,2.77 1.52,5.03 4.61,5.03 1.63,0 2.78,-0.52 3.88,-1.67 l -1.13,-1 c -0.82,0.89 -1.63,1.21 -2.74,1.21 -1.86,0 -2.95,-1.2 -3.01,-3.15 h 7.13 c 0.03,-0.29 0.05,-0.61 0.05,-0.88 z m -7.19,-0.38 c 0.15,-1.65 1.16,-2.96 2.88,-2.96 1.9,0 2.78,1.42 2.78,2.77 v 0.19 z" />
    <path
       id="path944"
       style="font-size:20px"
       d="m -235.24187,619.66 c 2.24,0 3.7,-1.21 3.7,-3.05 0,-2.2 -1.98,-2.67 -3.61,-3.06 -1.36,-0.33 -2.14,-0.62 -2.14,-1.47 0,-0.75 0.76,-1.3 1.84,-1.3 1.04,0 1.87,0.44 2.49,1.39 l 1.13,-0.86 c -0.77,-1.21 -2.05,-1.83 -3.56,-1.83 -2.03,0 -3.41,1.2 -3.41,2.7 0,1.89 1.65,2.4 3.2,2.8 1.45,0.38 2.48,0.68 2.48,1.79 0,0.98 -0.75,1.55 -2.01,1.55 -1.33,0 -2.47,-0.67 -3.07,-1.78 l -1.11,0.94 c 0.88,1.38 2.33,2.18 4.07,2.18 z" />
    <path
       id="path946"
       style="font-size:20px"
       d="m -215.43437,619.5 2.48,-7.61 2.48,7.61 h 1.49 l 2.92,-9.86 h -1.72 l -2.04,7.4 -2.42,-7.4 h -1.43 l -2.43,7.42 -2.03,-7.42 h -1.72 l 2.92,9.86 z" />
    <path
       id="path948"
       style="font-size:20px"
       d="m -202.80281,623.71 7.14,-18.15 h -1.25 l -7.13,18.15 z" />
    <path
       id="path950"
       style="font-size:20px"
       d="m -182.59594,607.83 v -2.27 h -1.7 v 2.27 z m -0.05,11.67 v -9.86 h -1.61 v 9.86 z" />
    <path
       id="path952"
       style="font-size:20px"
       d="m -172.61469,609.48 c -1.26,0 -2.34,0.47 -3,1.64 v -1.48 h -1.61 v 9.86 h 1.61 v -4.93 c 0,-2.55 0.93,-3.68 2.6,-3.68 1.51,0 2.27,0.92 2.27,2.96 v 5.65 h 1.61 v -6.23 c 0,-2.51 -1.29,-3.79 -3.48,-3.79 z" />
    <path
       id="path954"
       style="font-size:20px"
       d="m -159.88251,619.66 c 1.88,0 3.32,-0.94 3.98,-2.75 l -1.42,-0.56 c -0.4,1.17 -1.26,1.9 -2.56,1.9 -2,0 -2.92,-1.76 -2.92,-3.69 0,-1.91 0.92,-3.67 2.92,-3.67 1.3,0 2.16,0.73 2.56,1.9 l 1.42,-0.56 c -0.66,-1.81 -2.1,-2.75 -3.98,-2.75 -2.9,0 -4.53,2.31 -4.53,5.08 0,2.79 1.63,5.1 4.53,5.1 z" />
    <path
       id="path956"
       style="font-size:20px"
       d="m -147.05438,619.66 c 2.78,0 4.77,-2.13 4.77,-5.1 0,-2.97 -1.98,-5.08 -4.77,-5.08 -2.8,0 -4.78,2.11 -4.78,5.08 0,2.98 1.99,5.1 4.78,5.1 z m 0,-1.42 c -1.93,0 -3.17,-1.44 -3.17,-3.68 0,-2.23 1.23,-3.66 3.17,-3.66 1.93,0 3.16,1.43 3.16,3.66 0,2.24 -1.23,3.68 -3.16,3.68 z" />
    <path
       id="path958"
       style="font-size:20px"
       d="m -127.14,609.48 c -1.19,0 -2.33,0.41 -3.09,1.5 -0.59,-1.11 -1.64,-1.5 -2.8,-1.5 -1.11,0 -2.16,0.45 -2.79,1.59 v -1.43 h -1.54 v 9.86 h 1.62 v -5.32 c 0,-2.17 0.87,-3.29 2.36,-3.29 1.35,0 2.08,0.92 2.08,2.87 v 5.74 h 1.61 v -5.32 c 0,-2.18 0.86,-3.29 2.32,-3.29 1.55,0 2.13,1.13 2.13,3 v 5.61 h 1.62 v -5.98 c 0,-2.22 -0.95,-4.04 -3.52,-4.04 z" />
    <path
       id="path960"
       style="font-size:20px"
       d="m -110.11281,614.17 c 0,-2.37 -1.31,-4.69 -4.34,-4.69 -2.96,0 -4.45,2.41 -4.45,5.15 0,2.77 1.52,5.03 4.61,5.03 1.63,0 2.78,-0.52 3.88,-1.67 l -1.13,-1 c -0.82,0.89 -1.63,1.21 -2.74,1.21 -1.86,0 -2.95,-1.2 -3.01,-3.15 h 7.13 c 0.03,-0.29 0.05,-0.61 0.05,-0.88 z m -7.19,-0.38 c 0.15,-1.65 1.16,-2.96 2.88,-2.96 1.9,0 2.78,1.42 2.78,2.77 v 0.19 z" />
    <path
       id="path962"
       style="font-size:20px"
       d="m -104.62157,623.58 c 1.54,-2.21 2.35,-5.98 2.35,-8.99 0,-3.08 -0.72,-6.61 -2.36,-9.03 h -1.48 c 1.76,2.46 2.56,5.99 2.56,9.02 0,2.99 -0.89,6.76 -2.55,9 z" />
  </g>
</svg>
