<svg width="60" height="60" fill="none"
    xmlns="http://www.w3.org/2000/svg"
    xmlns:xlink="http://www.w3.org/1999/xlink">
    <defs>
        <path fill-rule="evenodd" clip-rule="evenodd" d="M44.9673 30.0006c0 2.96-.8777 5.8536-2.5221 8.3148s-3.9816 4.3795-6.7161 5.5123c-2.7345 1.1328-5.7435 1.4291-8.6465.8517-2.9029-.5775-5.5694-2.0029-7.6623-4.096s-3.5182-4.7599-4.0956-7.6631c-.5775-2.9031-.2811-5.9124.8516-8.6471 1.1326-2.7348 3.0507-5.0722 5.5117-6.7167 2.461-1.6446 5.3544-2.5223 8.3142-2.5223 3.969 0 7.7754 1.5768 10.5819 4.3835 2.8065 2.8068 4.3832 6.6135 4.3832 10.5829Z" fill="#FFDD8C" id="reuse-0"/>
    </defs>
    <circle cx="30" cy="30" r="30" fill="#F7FAFF"/>
    <g clip-path="url(#a)">
        <use fill-rule="evenodd" clip-rule="evenodd" xlink:href="#reuse-0"/>
        <use fill-rule="evenodd" clip-rule="evenodd" xlink:href="#reuse-0"/>
        <path fill-rule="evenodd" clip-rule="evenodd" d="M26.3398 32.2378v11.8633c2.7611.6691 4.8609.6904 7.3386-.0096V32.2387l-7.3386-.0009Z" fill="#99C0FF"/>
        <path d="m26.3398 38.8232 7.3425.0001v5.2732c-.759.2312-2.105.4865-2.88.4865l-4.4625-5.3254v-.4344Z" fill="#191919"/>
        <path d="M23.7292 30.9639c-.0159.0051-.0329.0273-.0488.0328-.0159.0056-.0365-.0028-.0522.0028-.0157.0056-.029.0185-.0445.0247-.0154.0063-.0339.0054-.0494.0121-.0155.0066-.0247.0264-.0402.0328-.0154.0065-.0358.0022-.0511.0093-.0152.0071-.0256.0236-.0406.0314-.015.0077-.0273.0197-.043.0277-.0156.0079-.0401-.0035-.0547.0049-.0147.0084-.0215.0297-.0359.0383-.0144.0085-.0282.018-.043.0268-.0148.0088-.0324.0114-.0464.0215-.014.0101-.0247.0234-.0385.0329-.0137.0094-.036.0073-.0494.0172-.0133.0098-.0266.0214-.0399.0309-.0133.0095-.0179.0318-.031.043-.0131.0111-.0287.018-.0412.0288-.0125.0107-.017.0313-.0297.0429-.0126.0116-.0268.0198-.0393.0312-.0124.0114-.0232.0238-.0352.0354-.012.0116-.038.0093-.0494.0215-.0114.0123-.0133.034-.0247.046-.0114.012-.0232.0241-.0344.0365-.0112.0125-.0348.014-.0458.0267-.0109.0126-.0214.0266-.0315.0395-.0101.0129-.0138.0322-.0241.0453s-.0127.0325-.0226.0458c-.0098.0133-.0369.0146-.0466.0281-.0096.0136-.0034.0387-.0129.0525-.0094.0137-.0169.0285-.026.0429-.009.0144-.0292.0215-.038.0355-.0088.014-.023.0256-.0314.04-.0083.0144-.0141.0307-.0214.0453-.0073.0146-.0153.0301-.023.0449-.0078.0148-.0161.0296-.0234.0447-.0073.015-.0082.0333-.0153.0485-.0071.0153-.0215.0273-.0279.043-.0065.0157-.0037.0348-.0099.0503-.0062.0155-.0039.0344-.0099.05-.006.0157-.0286.0248-.0344.0409s-.0062.0333-.0113.0494c-.0052.0161-.0142.0307-.0192.0466-.0049.0159.0067.0368.0022.0529-.0045.0161-.0215.029-.0247.0453-.0033.0163 0 .0346-.003.0509-.003.0164-.0157.0307-.0192.0471-.0034.0163.0015.0344-.0015.0507-.003.0163-.0045.0329-.007.0494-.0026.0165-.0138.0316-.0162.0483-.0023.0168-.0045.0329-.0064.0495-.0019.0165 0 .0335-.0022.0502-.0021.0168-.0049.0329-.006.0499-.001.017.0067.0337.006.0505-.0006.0167-.0045.0328-.0049.0498-.0004.017-.0013.0329-.0013.0501s-.0017.0329-.0013.0494c.0005.0165-.0041.0333-.0034.0498.0006.0166.0122.0329.0135.0495.0013.0165-.0109.0341-.0094.0507.0015.0165.0129.032.0148.0485.0019.0166.0092.0322.0114.0486.0021.0163-.009.0348-.0065.0513.0026.0166.0112.0318.0142.0482.003.0163.0015.0335.0047.0498.0033.0163.0119.0316.0155.0477.0037.0161.0105.0316.0148.0475.0043.0159-.0064.0361-.0019.0522.0045.0161.0234.0277.0284.043.0049.0152-.0033.0358.0019.0517.0051.0159.023.0273.0286.043.0055.0157.0152.0297.0214.0451.0063.0155.0116.031.0181.0464.0064.0155 0 .0366.0056.0518.0056.0153.0154.0297.0215.0447.006.0151.0096.0325.0169.0473.0073.0148.0183.0281.026.043.0078.0148.0196.0272.0275.0429.008.0157.0215.0267.0288.0413.0073.0146.0067.0348.0153.049.0086.0141.02.0268.029.0412.009.0144.0285.0215.0378.0348.0092.0133.0097.0338.0191.0473.0095.0135.0189.0275.0288.0408.0099.0133.0284.0202.0384.0329.0101.0127.0185.0277.0288.0406.0103.0129.0215.0247.0329.0372.0114.0124.0153.0307.0262.0429.011.0123.0166.0299.0282.043.0116.0131.0315.0159.0429.0279.0114.0121.0237.0232.0357.0348.012.0116.0294.017.0412.0284.0119.0114.0174.0301.0297.0413.0122.0111.0307.0152.043.026.0122.0107.0178.0302.0307.0408.0129.0105.0225.0247.0356.0352.0131.0105.0295.0166.043.0264.0135.0099.0256.0215.0391.0312.0135.0097.0329.0109.0464.0204.0135.0095.02.0301.034.0391.0139.009.0367.0039.0509.0127.0141.0088.0202.0314.0343.0397.0142.0084.0303.0142.0449.0215.0147.0073.0308.0133.0454.0215.0146.0082.0326.0092.0475.0165.0148.0074.0257.0235.0412.0303.0155.0069.0301.0147.0453.0215.0153.0069.0305.0138.046.02.0155.0062.0337.0056.0494.0114.0157.0058.0269.0234.043.029.0161.0056.0378-.0082.0537-.0028.0159.0054.0322.0073.0481.0123.0159.0049.0314.0103.0475.0148.0161.0045.0314.0105.0475.0146.0161.0041.0316.0107.0477.0144.0161.0036.0298.0193.0462.0225.0163.0033.0328.0067.0494.0097.0165.003.0328.0035.0494.006.0165.0026.0344-.0045.0507-.0023.0163.0021.0316.0165.0481.018.0166.0015.0335-.0013.0503 0 .0167.0013.0339-.0099.0507-.0088.0167.0011.0329.0067.0494.0075.0165.0009.0329.0131.0494.0136.0166.0004.0333 0 .0501 0 .0167 0 .0296.0075.0442.0073.0146-.0002.0295-.0022.043-.0028.0135-.0007.0189-.0133.0335-.0142.0043-.0158.0051-.0324.0022-.0486-.0046-.0247.0055-.0266 0-.0513-.0056-.0247-.0147-.0228-.0192-.0475-.0045-.0247-.0144-.0228-.0191-.0475-.0047-.0247.012-.0277.0073-.0524-.0047-.0247-.0114-.0234-.0159-.0481-.0045-.0247-.015-.0228-.0195-.0475-.0045-.0247-.0015-.0254-.0063-.0501-.0047-.0247-.0049-.0247-.0096-.0494-.0048-.0247-.0039-.0247-.0082-.0494-.0043-.0247-.0062-.0247-.0107-.0494s-.0054-.0247-.0099-.0494c-.0045-.0248.0058-.0267.0011-.0514-.0048-.0247-.0205-.0215-.0247-.0464-.0043-.0249.0189-.029.0141-.0537-.0047-.0247-.0247-.0215-.0296-.0458-.005-.0243.0019-.026-.0026-.0507-.0045-.0247-.0056-.0247-.0103-.0494s.0088-.0273.0043-.052c-.0045-.0247-.0105-.0236-.0153-.0483-.0047-.0247-.0062-.0247-.0109-.0495-.0047-.0247-.0176-.0214-.0215-.047-.0039-.0256-.003-.0247-.0077-.0494-.0048-.0247.009-.0273.0043-.052-.0048-.0247.0036-.0262-.0011-.0509-.0047-.0248-.0247-.0215-.0292-.0458-.0045-.0243.0133-.0282.0086-.0529-.0048-.0247-.0101-.0236-.0149-.0483-.0047-.0247 0-.0256-.0053-.0503-.0054-.0247-.0093-.0236-.014-.0483-.0047-.0247-.0191-.0215-.0236-.0464-.0045-.025.0159-.0286.0114-.0531-.0046-.0245-.0172-.0215-.0215-.0468-.0043-.0254-.0039-.0247-.0082-.0495-.0043-.0247.005-.0264 0-.0511-.0049-.0247-.0256-.0215-.0301-.0453-.0045-.0239.0067-.0269.0022-.0514-.0045-.0245-.0153-.0225-.02-.0475-.0047-.0249.0088-.0272.0043-.052-.0045-.0247-.0183-.0214-.023-.047-.0047-.0256.0198-.0294.015-.0542l-.0094-.0494c-.0047-.0247-.0247-.0215-.0292-.0457-.0045-.0243-.0093-.0239-.0138-.0486-.0045-.0247.006-.0266.0013-.0513s-.006-.0247-.0105-.0495c-.0045-.0247.0039-.0262 0-.0509s.0021-.026-.0026-.0507c-.0047-.0247-.0159-.0225-.0215-.0475-.0056-.0249-.0096-.0238-.0142-.0487-.0045-.025.0031-.0262-.0017-.0512-.0047-.0249-.0021-.0251-.0066-.05-.0045-.025 0-.0256-.005-.0503-.0049-.0247-.0062-.0247-.0107-.0494s-.0241-.0215-.0286-.046c-.0045-.0245.003-.0262-.0015-.0509-.0045-.0247.0101-.0275.0056-.0525-.0045-.0249-.0187-.0214-.0234-.047-.0047-.0256 0-.0256-.005-.0505-.0049-.0249.002-.026-.0028-.0507-.0047-.0247-.0021-.0251-.0066-.0501-.0045-.0249-.0067-.0247-.0112-.0494s-.0193-.0215-.0238-.0468c-.0045-.0254.0126-.0282.0081-.0529-.0045-.0247-.0154-.0227-.0202-.0477-.0047-.0249-.0073-.0247-.012-.0494s-.0155-.0228-.02-.0475c-.0045-.0247.0013-.0258-.0034-.0505-.0047-.0247-.0024-.0251-.0069-.0498-.0045-.0247.0092-.0275.0047-.0524-.0045-.025-.0113-.0237-.0159-.0484-.0045-.0247-.0174-.0215-.0214-.0472-.0041-.0258-.0052-.0248-.0099-.0495-.0048-.0247.0038-.0266 0-.0513-.0039-.0247.0101-.0275.0053-.0524-.0047-.025-.0055-.0247-.0101-.0495-.0045-.0247-.0214-.0214-.0262-.0466-.0047-.0251 0-.0258-.0045-.0509s-.0028-.0253-.0075-.0503c-.0047-.0249-.0165-.0225-.0215-.0477-.0049-.0251-.0023-.018-.0092-.052-.003-.0146.0148-.0361.0112-.0563-.0031-.0156-.0284-.029-.0318-.0481-.0035-.0191 0-.035-.0026-.0537-.0026-.0187.0097-.0367.0066-.055-.0075-.0181-.0135-.0368-.018-.0559l.0011-.0053Z" fill="#99C0FF"/>
        <path d="M22.9052 32.1563c-.0595.0088-.1163.0307-.1663.0641-.0499.0335-.0918.0776-.1226.1293-.137.2181-.1882.4794-.1435.7331.003.0192.0098.0377.02.0542.0103.0166.0237.031.0395.0423.0159.0113.0338.0194.0528.0237.019.0043.0387.0048.0579.0014.0192-.0034.0375-.0106.0538-.0211.0164-.0106.0305-.0243.0415-.0403.0111-.0161.0188-.0342.0227-.0533.0039-.0191.004-.0387.0003-.0578-.0324-.1831.0048-.3717.1042-.5288l.0011-.0022.0021-.0021c.0081-.0151.0196-.0281.0336-.038.014-.01.0302-.0165.0471-.0191.017-.0026.0343-.0013.0506.0039.0164.0052.0313.0142.0436.0261l.2032.185c.0784.0717.1312.1669.1504.2714l.0011.0021.1173.5748c.0079.0381.0307.0716.0633.093.0326.0214.0723.029.1105.0211.0382-.008.0716-.0307.093-.0633.0214-.0326.029-.0724.0211-.1106l-.118-.5687c-.0306-.1679-.1156-.321-.2419-.4357l-.2026-.185h-.0011c-.0448-.0405-.0981-.0704-.1561-.0876-.0579-.0172-.1189-.0213-.1786-.0119Z" fill="#191919"/>
        <path d="M23.2417 33.162c-.0345.0002-.0678.0127-.0941.0351-.0263.0224-.0438.0533-.0494.0874-.0194.1246-.0113.252.0238.3732.0306.1101.0966.207.1878.2758.1223.0811.2699.1149.4153.0952.0387-.0035.0745-.0223.0994-.0522.025-.0299.037-.0685.0334-.1073-.0035-.0388-.0223-.0746-.0522-.0995-.0299-.0249-.0685-.0369-.1073-.0334-.0746.0148-.1521.0005-.2165-.04-.0397-.0309-.068-.0741-.0804-.1229-.0196-.0785-.0247-.16-.015-.2404.0033-.0211.0021-.0426-.0037-.0631-.0057-.0206-.0158-.0397-.0295-.056-.0138-.0163-.0309-.0294-.0502-.0385-.0193-.0092-.0403-.014-.0616-.0143l.0002.0009Z" fill="#191919"/>
        <path d="M36.3887 30.8357c.0159.0052.0329.0273.0488.0329.0159.0056.0365-.0028.0522.0028.0157.0056.029.0185.0445.0247.0154.0062.0339.0054.0494.012.0154.0067.0249.0275.0414.035.0166.0076.0359.0022.0512.0093.0152.0071.0255.0236.0406.0313.015.0078.0273.0198.0429.0278.0157.0079.0402-.0035.0548.0049.0146.0084.0215.0297.0359.0382.0144.0086.0281.0181.043.0269.0148.0088.0324.0114.0464.0215.0139.0101.0247.0234.0384.0329.0138.0094.0361.0073.0494.0172.0134.0098.0267.0214.04.0309.0133.0094.0178.0318.0309.043.0131.0111.0288.018.0413.0288.0125.0107.017.0313.0296.0429.0127.0116.0269.0198.0394.0312.0124.0114.0232.0238.0352.0354.012.0116.038.0093.0494.0215.0114.0123.0133.034.0247.046.0114.012.0232.0241.0344.0365.0112.0125.0348.014.0457.0267.011.0126.0215.0266.0316.0395.0101.0129.0138.0322.0241.0453s.009.0284.0197.0426c.0108.0142.037.0146.0467.0281.0096.0136.0034.0387.0129.0524.0094.0138.0169.0288.026.043.009.0142.0292.0215.038.0355.0088.0139.023.0255.0313.0399.0084.0144.0142.0308.0215.0454.0073.0146.0153.03.023.0449.0077.0148.0161.0296.0234.0447.0073.015.0082.0333.0153.0485.0071.0153.0215.0273.0279.043.0065.0157.0037.0348.0099.0503.0062.0154.0039.0343.0099.05.006.0157.0286.0247.0344.0408.0058.0162.0068.0329.0128.0488.0061.0159.0142.0307.0192.0466.0049.0159-.0067.0368-.0022.0529.0045.0161.0215.029.0247.0453.0032.0164 0 .0346.003.0509.003.0164.0157.0308.0192.0471.0034.0163-.0024.0344.0006.0516.003.0172.0045.0328.0071.0494.0026.0165.0144.0309.0163.0477.0019.0167.0045.0329.0065.0494.0019.0165 0 .0335.0021.0503.0022.0167.0049.0328.006.0498.0011.017-.0066.0338-.006.0505.0007.0168.0045.0329.0049.0499.0005.0169.0013.0328.0013.05s.0018.0329.0013.0494c-.0004.0166.0035.0336.0035.0501s-.0123.0329-.0136.0494c-.0013.0166.011.0342.0097.0507-.0013.0166-.0129.032-.0148.0486-.002.0165-.0093.0322-.0114.0485-.0022.0164.0086.0351.0062.0514-.0023.0163-.0112.0318-.0142.0481-.003.0163-.0013.0337-.0049.0499-.0037.0161-.0118.0315-.0155.0477-.0036.0161-.0105.0315-.0148.0474-.0043.0159.0067.0363.0024.0522-.0043.0159-.0235.0278-.0284.043-.0049.0153.0032.0365-.0019.0524-.0052.0159-.023.0273-.0286.043-.0056.0157-.0153.0297-.0215.0451-.0062.0155-.0116.031-.018.0464-.0065.0155 0 .0366-.0056.0518-.0056.0153-.0155.0297-.0215.0447-.006.0151-.0097.0325-.017.0473-.0073.0148-.0182.0281-.026.043-.0077.0148-.0195.0272-.0275.0429-.0079.0157-.0214.0267-.0288.0413-.0073.0146-.007.0341-.0159.0477-.0088.0135-.0199.0268-.029.0412-.009.0144-.0285.0215-.0378.0348-.0092.0134-.0094.0338-.0191.0473-.0097.0135-.0189.0275-.0288.0408-.0099.0133-.0283.0202-.0384.0329-.0101.0127-.0185.0277-.0288.0406-.0103.0129-.0215.0247-.0329.0372-.0114.0124-.0152.0307-.0262.0429-.011.0123-.0165.0299-.0281.043-.0116.0131-.0316.0159-.043.0279-.0114.0121-.0236.0233-.0357.0349-.012.0116-.0294.0169-.0412.0283-.0118.0114-.0174.0301-.0297.0413-.0122.0111-.0307.0152-.0429.026-.0123.0107-.0179.0303-.0308.0408-.0128.0105-.0225.0247-.0356.0352-.0131.0105-.0295.0166-.043.0264-.0135.0099-.0256.0215-.0391.0312-.0135.0097-.0329.011-.0464.0204-.0135.0095-.02.0301-.0339.0391-.014.009-.0368.0039-.051.0127-.0141.0088-.0201.0314-.0343.0397-.0142.0084-.0303.0142-.0449.0215-.0146.0073-.0307.0133-.0454.0215-.0146.0082-.0326.0093-.0474.0166-.0149.0073-.0265.0217-.0426.0296-.0161.008-.0301.0146-.0453.0215-.0153.0069-.0297.0135-.0451.0195-.0155.0061-.0337.0056-.0494.0114-.0157.0058-.0269.0235-.043.029-.0161.0056-.0376-.0079-.0535-.0034-.0159.0045-.0322.0082-.0481.0129-.0159.0047-.0314.0103-.0475.0148-.0161.0045-.0314.0105-.0475.0153-.0161.0047-.0316.0107-.0477.0144-.0161.0036-.0298.0187-.0455.0219-.0157.0032-.0335.0066-.0501.0096-.0165.0031-.0328.0035-.0494.0061-.0165.0025-.0341-.0048-.0509-.0026-.0168.0021-.0316.0165-.0481.018-.0166.0015-.0338-.0013-.0503 0s-.0339-.0098-.0507-.0088c-.0168.0011-.0327.0058-.049.0075-.0163.0018-.0329.0132-.0494.0136-.0165.0004-.0333 0-.05 0-.0168 0-.0297.0062-.0443.0062-.0146 0-.0294-.0021-.043-.0028-.0135-.0006-.0189-.0133-.0335-.0142-.0043-.0158-.0051-.0324-.0021-.0485.0045-.0247-.0056-.0267 0-.0514.0055-.0247.0122-.0227.0169-.0475.0048-.0247.0144-.0227.0192-.0474.0047-.0247-.0121-.0278-.0073-.0525.0047-.0247.0113-.0234.0159-.0481.0045-.0247.015-.0228.0195-.0475.0045-.0247.0015-.0253.0062-.05.0048-.0247.005-.0247.0097-.0494.0047-.0248.0039-.0248.0082-.0495.0043-.0247.0062-.0247.0107-.0494s.0054-.0247.0099-.0494c.0045-.0247-.0058-.0266-.0011-.0513.0047-.0248.0204-.0215.0247-.0465.0043-.0249-.0189-.029-.0142-.0537.0048-.0247.0247-.0215.0297-.0457.0049-.0243-.0019-.026.0026-.0507.0045-.0247.0056-.0247.0103-.0495.0047-.0247-.0088-.0272-.0043-.052.0045-.0247.0105-.0236.0152-.0483.0048-.0247.0063-.0247.011-.0494.0047-.0247.0176-.0215.0215-.0471.0038-.0255.003-.0247.0077-.0494s-.009-.0273-.0043-.052c.0047-.0247-.0036-.0262 0-.0509.0037-.0247.0247-.0215.0292-.0458.0045-.0242-.0133-.0281-.0086-.0528.0048-.0247.0101-.0236.0149-.0484.0047-.0247 0-.0255.0053-.0502.0054-.0247.0093-.0237.014-.0484.0047-.0247.0191-.0215.0236-.0464.0045-.0249-.0159-.0286-.0114-.0531.0046-.0244.0172-.0214.0215-.0468.0043-.0253.0039-.0247.0082-.0494.0043-.0247-.005-.0264 0-.0511.0049-.0248.0256-.0215.0301-.0454.0045-.0238-.0067-.0268-.0022-.0513.0045-.0245.0153-.0226.02-.0475.0047-.0249-.0088-.0273-.0043-.052.0045-.0247.0183-.0215.023-.0471.0047-.0255-.0198-.0294-.0151-.0541.0048-.0247.0048-.0247.0095-.0494s.0247-.0215.0292-.0458c.0045-.0243.0093-.0238.0138-.0485.0045-.0247-.006-.0267-.0013-.0514s.006-.0247.0105-.0494c.0045-.0247-.0039-.0262 0-.0509s-.0021-.026.0026-.0507c.0047-.0247.0159-.0226.0215-.0475.0056-.0249.0096-.0239.0141-.0488.0046-.0249-.003-.0262.0018-.0511.0047-.0249.0021-.0252.0066-.0501.0045-.0249 0-.0256.005-.0503.0049-.0247.0062-.0247.0107-.0494s.0241-.0215.0286-.046c.0045-.0245-.003-.0262.0015-.0509.0045-.0247-.0101-.0275-.0056-.0524.0045-.0249.0187-.0215.0234-.0471.0047-.0255 0-.0255.005-.0504.0049-.025-.002-.026.0028-.0508.0047-.0247.0021-.0251.0066-.05.0045-.0249.0067-.0247.0112-.0494s.0193-.0215.0238-.0469c.0045-.0253-.0126-.0281-.0081-.0528.0045-.0247.0154-.0228.0202-.0477.0047-.0249.0073-.0247.012-.0494s.0155-.0228.02-.0475c.0045-.0247-.0013-.0258.0034-.0505.0047-.0247.0024-.0252.0069-.0499.0045-.0247-.0093-.0275-.0047-.0524.0045-.0249.0113-.0236.0159-.0483.0045-.0247.0174-.0215.0214-.0473.0041-.0258.0052-.0247.0099-.0494.0047-.0247-.0038-.0267 0-.0514.0039-.0247-.0101-.0275-.0053-.0524.0047-.0249.0055-.0247.01-.0494.0046-.0247.0215-.0215.0263-.0466.0047-.0252 0-.0258.0045-.0509.0045-.0252.0028-.0254.0075-.0503.0047-.0249.0165-.0226.0215-.0477.0049-.0252.0023-.0181.0092-.052.003-.0146-.0148-.0361-.0112-.0563.003-.0157.0284-.029.0318-.0481.0035-.0192 0-.0351.0026-.0537.0026-.0187-.0097-.0368-.0066-.0551.0086-.0183.0158-.0373.0212-.0569Z" fill="#99C0FF"/>
        <path d="M37.2122 32.0283c-.06-.0094-.1214-.0052-.1797.0123-.0582.0174-.1118.0476-.1569.0884l-.2032.184c-.1251.1141-.2095.266-.2404.4325v.0021l-.0011.0011-.1173.5691c-.0079.038-.0003.0775.0209.1099.0213.0324.0546.055.0925.0629.038.0078.0775.0003.1099-.021.0324-.0212.055-.0545.0628-.0925l.1191-.5743.001-.001c.0188-.1046.0717-.2.1504-.2714l.2037-.185c.0122-.0121.027-.0212.0433-.0266.0163-.0054.0337-.0068.0507-.0043.0169.0025.0331.009.0472.0189.014.0098.0255.0229.0337.038l.001.0028.0022.0021c.0992.1571.1362.3455.1035.5284-.0054.0377.0041.0761.0265.107.0224.0309.0559.0518.0935.0584.0376.0066.0763-.0018.1078-.0232.0315-.0215.0535-.0544.0612-.0917.0444-.2534-.0069-.5143-.1439-.732-.0305-.052-.0722-.0965-.1221-.1302-.0499-.0337-.1067-.0558-.1663-.0647Z" fill="#191919"/>
        <path d="M36.8651 33.0354c-.0202.0019-.0398.0078-.0576.0174-.0178.0097-.0335.0228-.0461.0386s-.0219.0341-.0273.0536c-.0054.0195-.0068.0399-.0042.0599.0097.0804.0045.162-.0154.2405-.0121.0492-.0401.093-.0797.1246-.0648.0398-.142.054-.2166.0399-.0193-.0021-.0389-.0003-.0575.0052-.0186.0056-.036.0147-.051.027-.0151.0123-.0275.0275-.0367.0447-.0091.0171-.0147.0359-.0165.0553-.0018.0193.0003.0388.0061.0574.0058.0185.0152.0357.0278.0506.0125.0148.0279.0271.0452.0359.0173.0089.0361.0142.0555.0157.1451.0197.2923-.0141.4142-.0952.0917-.0687.1582-.1656.1893-.2758.0351-.121.0432-.2482.0238-.3726-.0058-.0358-.0247-.0682-.0531-.0908-.0283-.0227-.064-.0341-.1002-.0319Z" fill="#191919"/>
        <path d="M36.5299 31.4386c-.0045.0247.0082.0269.005.0516-.0032.0247-.0135.0232-.0174.0477-.0039.0245.0082.0264.0049.0513-.0032.025.0039.0258 0 .0505-.0038.0247-.0038.0247-.0077.0494-.0039.0247-.0215.0215-.0247.0469-.0032.0253.0109.027.0073.0518-.0037.0247-.0039.0247-.0075.0494-.0037.0247-.0166.0225-.0215.0475-.005.0249 0 .0251-.0045.0498-.0045.0247-.0065.0243-.0101.049-.0037.0247.0028.0258 0 .0503-.0028.0245-.014.023-.0179.0477-.0038.0247.0056.0262.0018.0507-.0039.0245.001.0255-.0022.05-.0032.0245-.0148.023-.0187.0477-.0038.0247-.0071.0241-.0109.0488-.0039.0247.0049.026.001.0507-.0038.0247.0039.0258 0 .0505-.0038.0247-.0107.0236-.0146.0483-.0038.0247-.0055.0247-.009.0495-.0034.0247 0 .0251-.0039.0498-.0038.0247-.0081.0241-.0116.0488-.0034.0247.0067.0262.0028.0509-.0038.0247-.0141.0232-.018.0477-.0039.0245 0 .0253-.0032.0501-.0033.0247 0 .0253-.0033.05-.0032.0247-.0146.023-.0184.0477-.0039.0247.0099.0269.0062.0516-.0036.0247-.0193.0215-.023.047-.0036.0256-.0056.0247-.0092.0494-.0037.0248.006.0263.0021.051-.0038.0247-.0099.0238-.0137.0483-.0039.0245-.0011.0247-.005.0494-.0038.0247-.0101.0237-.0139.0484-.0039.0247.0126.0273.0088.052-.0039.0247-.017.0225-.0215.0474-.0045.025-.0022.0248-.0062.0495-.0041.0247.0045.026 0 .0509-.0045.0249-.0185.0215-.0215.0473-.003.0257.006.0262.0021.0509-.0038.0247-.0075.024-.0111.0487-.0037.0248.0021.0256-.0011.0503-.0032.0247.0021.0256-.0017.0503-.0039.0247-.0018.0247-.0056.0494-.0039.0247-.0127.0232-.0166.0477-.0038.0245.0018.0256-.0017.0501-.0034.0245-.0081.0238-.0122.0485-.0041.0247-.009.0239-.0129.0484-.0039.0245-.0151.023-.0189.0475-.0039.0244.0096.0266.006.0513-.0037.0247.0039.0258 0 .0505-.0039.0247-.0058.0243-.0097.049-.0038.0247-.0215.0215-.0251.0466-.0037.0251.0148.0275.0109.0522-.0038.0247-.0049.0247-.0081.0494-.0032.0247-.0166.0228-.0215.0475-.0049.0247.0067.0264.0028.0512-.0039.0247-.0196.0214-.0234.047-.0039.0256.0176.0279.0139.0526-.0036.0248-.0171.0226-.0214.0473-.0043.0247 0 .0252-.0046.0494-.0045.0243-.0092.0239-.0131.0486-.0038.0247.0153.0277.0114.0524-.0038.0247-.0165.0228-.0215.0475-.0049.0247-.0077.0243-.0113.049-.0037.0247.0045.026 0 .0509l-.0078.0494c-.0038.0247.0032.0258 0 .0505-.0032.0247-.0021.0247-.006.0494-.0039.0247-.0116.0234-.0155.0482-.0038.0247.0022.0255-.0017.0504-.0039.025-.0247.0215-.0281.0465-.0035.0249.0032.0257 0 .0507-.0032.0249-.0129.0234-.0166.0481-.0036.0247.0131.0273.0093.0522-.0039.0249-.0189.0215-.0226.0473-.0036.0257.0077.0266.0039.0513-.0039.0247-.0022.0247-.006.0499-.0039.0251-.0011.0251-.005.0498-.0038.0247-.0105.0239-.0142.0486-.0036.0247 0 .0253-.0038.0502-.0039.025.0064.0263.0028.051-.0037.0247-.0187.0214-.0215.047-.0028.0256-.009.0241-.0129.0488-.0039.0247-.0082.0243-.012.049-.0039.0247.0045.026 0 .0509-.0045.0249.0045.026 0 .0509-.0045.0249-.0071.0247-.011.0494-.0039.0247-.0114.0237-.0152.0486-.0039.0249.0062.0264.0021.0513-.0041.025.0017.0256-.0021.0503-.0039.0247-.0138.0234-.0177.0481-.0038.0248.0071.0267.0033.0516-.0039.0249-.0125.0236-.0166.0486-.0041.0249.0082.0268.0045.052-.0021.0165-.0238.03-.0264.0466-.0026.0165-.0021.0335-.0056.0494-.0034.0159-.0038.0329-.0075.0494-.0037.0166 0 .0342-.0039.0505-.0038.0163-.0193.0299-.0234.046-.0041.0161-.0066.0329-.0107.0488-.0041.0159.0066.0363.0021.0524-.0045.0161-.0191.0294-.0238.0455-.0048.0161-.0215.0282-.0269.0441-.0054.0159-.0045.0333-.0099.0494-.0053.0161.0082.038.0028.0539-.0053.0159-.0178.0292-.0236.0451s-.0056.0338-.0114.0495c-.0058.0156-.024.0266-.0301.0429-.006.0164-.0159.0297-.0214.0451-.0056.0155-.0022.0355-.0089.0508-.0066.0152-.0318.0214-.0388.0373-.0071.0159-.0018.0361-.0089.0512-.007.015-.0081.0328-.0158.0481-.0078.0153-.023.0258-.0308.0406-.0077.0148-.0215.026-.03.0406-.0086.0146-.0033.0363-.0114.0509-.0082.0147-.0172.0286-.0256.043-.0084.0144-.032.0198-.0406.034-.0086.0141-.0127.0311-.0215.0453-.0088.0142-.0157.0294-.0247.043-.009.0135-.0131.0313-.0215.0453-.0084.014-.0268.0215-.0365.0359-.0097.0144-.0075.0354-.0174.049-.0099.0135-.0138.0315-.0236.0451-.0099.0135-.0381.0131-.0484.0264-.0103.0133-.0146.031-.0247.043-.0101.012-.0094.0354-.0202.0483-.0159.0194-.0247.0123-.0404.0318-.0156.0196-.0187.017-.0346.0365-.0158.0196-.0214.0144-.0378.0338-.0163.0193-.009.0247-.0247.0442-.0157.0196-.0144.0215-.03.0398-.0157.0183-.02.0159-.0357.0354-.0157.0196-.0146.0202-.0305.0398-.0159.0195-.0215.0146-.0376.0339-.0161.0194.0028.0344-.0133.054-.0161.0195-.0344.0045-.0503.0236-.0159.0191-.015.0202-.0309.0395-.0159.0194-.0129.0215-.0288.0413l-.0318.0387c-.0159.0193-.0032.0294-.0194.0487-.0161.0194-.0307.0071-.0466.0265-.0159.0193-.0028.03-.0187.0494-.0159.0193-.0251.0116-.0412.0309-.0161.0194-.0082.0254-.0243.0447-.0161.0193-.017.0185-.0329.0376-.0159.0191-.0227.0135-.0384.0329-.0157.0193-.0215.015-.037.0344-.0154.0193.0022.0339-.0137.0532-.0159.0194-.0316.0065-.0475.0258-.0159.0194.0017.0335-.0142.0531l-.0318.0389c-.0159.0193-.0182.0176-.0341.0369-.0159.0194-.0293.0082-.0452.0282-.0158.02-.001.0318-.0165.0511-.0155.0194-.0152.02-.0311.0393-.0159.0194-.0235.0134-.0391.0329-.0157.0196-.0106.0239-.0265.043-.0159.0191-.0215.0142-.038.0335s-.012.0226-.0277.043c-.0157.0204-.0297.0081-.0456.0275-.0159.0193-.0176.018-.0335.0374-.0159.0193-.0028.03-.0189.0494-.0161.0193-.0247.0122-.0406.0318-.0159.0195-.0165.0189-.0324.0384-.0159.0196-.005.0286-.0215.0479-.0165.0194-.0133.0215-.0292.0413-.0159.0198-.0166.0189-.0322.0384-.0157.0196-.0155.0198-.0316.0392-.0161.0193-.0243.0126-.0402.032-.0159.0193-.0058.0277-.0215.0472-.0157.0196-.0275.0101-.0429.0297-.0155.0195-.0121.0225-.028.043-.0159.0204-.0101.0242-.026.0429-.0159.0187-.0307.0075-.0466.0271-.0159.0195-.0082.0256-.0247.0451-.0165.0196-.0198.0166-.0357.0355-.0159.0189-.0038.0292-.0195.0485-.0157.0194-.0256.0116-.0413.0312-.0156.0195-.0161.0193-.032.0389-.0159.0195-.012.0225-.0279.0429-.0159.0205-.0234.0134-.0393.0329-.0159.0196-.014.0215-.0299.0404-.0159.0189-.0116.0232-.0277.043-.0161.0197-.0127.0215-.0286.0417-.0159.0202-.015.0202-.0309.0397-.0159.0196-.0247.0125-.0406.032-.0159.0196-.0082.0258-.0247.0454-.0166.0195-.0267.0107-.043.0302-.0163.0196-.0185.0175-.0344.037-.0159.0196.0011.0337-.0148.0533-.0159.0195-.0286.0092-.0447.029-.0161.0198-.0165.0195-.0324.0391-.0159.0195-.0176.0185-.0335.0382-.0105.0129-.0159.0301-.0269.043-.0109.0129-.0148.0314-.026.043-.0111.0116-.0292.0189-.0404.0311-.0111.0123-.0154.0312-.027.043-.0116.0118-.0239.0236-.0355.0357-.0116.012-.0348.0126-.0466.0247-.0118.012-.0082.0389-.0215.0505-.0133.0116-.0294.0178-.0412.0292-.0118.0114-.0314.0152-.043.0266-.0116.0114-.0296.0166-.043.028-.0133.0114-.0191.0288-.0318.0395-.0126.0107-.0307.0153-.0429.026-.0123.0107-.0215.0264-.0344.0367-.0129.0103-.0165.0329-.0296.043-.0132.0101-.0329.0116-.0467.0215-.0137.0099-.0214.0266-.0354.0365-.014.0099-.026.0215-.0398.031-.0137.0094-.0373.0049-.0511.0141-.0137.0093-.0301.0149-.043.0241-.0128.0092-.0214.0297-.0343.0387-.0129.009-.028.0182-.043.027-.015.0089-.0296.0153-.044.0239-.0144.0086-.0316.012-.0462.0202-.0146.0082-.0194.0337-.034.0419-.0146.0082-.0386-.0011-.0535.0066-.0148.0078-.0247.0254-.0391.0329-.0144.0075-.0315.0116-.0466.0189-.015.0073-.0307.0133-.0457.0215-.0151.0082-.0284.0181-.043.0247-.0146.0067-.0316.011-.0471.0179-.0154.0068-.0275.0214-.0429.0272-.0155.0058-.0299.0157-.0454.0215-.0154.0058-.032.0099-.0477.0159-.0156.006-.035.0017-.0509.0073-.0159.0056-.0296.0166-.0453.0215-.0157.005-.0301.0155-.046.0215-.0159.006-.0301.0159-.046.0215-.0159.0056-.0358-.0028-.0519.0017-.0162.0045-.0346 0-.0507.0049-.0162.005-.0312.0117-.0475.0159-.0163.0043-.0284.0243-.0445.0282-.0161.0039-.0318.0114-.0479.015-.0161.0037-.0344 0-.0507.0033l-.0494.0094c-.0166.0032-.0346-.0032-.0509 0-.0164.0032-.032.0101-.0486.0129-.0165.0028-.0309.0189-.0473.0215-.0163.0026-.036-.0166-.0528-.0146-.0168.0019-.0329.0028-.0494.0049-.0166.0022-.0329.0067-.0494.0082-.0166.0015-.0316.0198-.0481.0215-.0166.0017-.0349-.0159-.0514-.0149-.0165.0011-.0322.0183-.0488.0194-.0165.0011-.0339-.0082-.0504-.0075-.0166.0006-.0329.0092-.0495.0096-.0165.0005-.0335-.0021-.05-.0017-.0166.0004-.0335-.0032-.0503-.0032-.0247 0-.0247.0165-.0494.0165s-.0247-.0049-.0494-.0049-.0247-.0088-.0494-.0088-.0247.0146-.0501.0146c-.0253 0-.0247-.0039-.0498-.0039-.0252 0-.0247-.0111-.0499-.0111-.0251 0-.0247.0058-.05.0058-.0254 0-.0247.0027-.0501.0027-.0253 0-.0247-.0045-.05-.0045-.0254 0-.0247-.0017-.0499-.0017-.0251 0-.0247.0017-.05.0017-.0254 0-.0247-.0038-.0501-.0038h-.0503c-.0251 0-.0251.0122-.0502.0122-.0166 0-.0329-.0021-.0499-.0028-.017-.0006-.0328-.0112-.0494-.0116-.0165-.0004-.0335.0073-.05.0065-.0166-.0009-.0329-.0082-.0495-.0093l-.0494-.0028c-.0165-.001-.0335.0039-.05.0028-.0166-.0011-.0314-.0185-.0479-.0204-.0166-.0019-.034.0065-.0505.0045-.0166-.0019-.0314-.0154-.0477-.0176-.0163-.0021-.035.011-.0514.0082-.0163-.0028-.0328-.0032-.0494-.0063-.0165-.003-.0296-.0214-.046-.0255-.0163-.0041-.0356.0096-.0517.0064-.0161-.0032-.0312-.0131-.0475-.0165-.0163-.0035-.0337-.0011-.0498-.005-.0162-.0038-.0336-.0032-.0495-.0071-.0159-.0038-.027-.0277-.0429-.032-.0159-.0043-.0348.0017-.0507-.0028-.0159-.0045-.0305-.0137-.0464-.0184-.0159-.0048-.034-.0022-.0494-.0076-.0155-.0053-.0286-.0193-.0443-.0247-.0157-.0053-.0303-.0135-.046-.0189-.0157-.0053-.0382.0082-.0537.0028s-.0307-.0129-.0462-.0189c-.0154-.006-.0247-.0271-.0404-.0329-.0156-.0058-.0341-.0038-.0494-.0105-.0152-.0066-.0309-.012-.046-.0187-.015-.0066-.0305-.0131-.0455-.02-.015-.0068-.0234-.0279-.0385-.035-.015-.0071-.0373.0017-.0524-.0058-.015-.0075-.0307-.0131-.0453-.0215-.0146-.0084-.0322-.0099-.0471-.0176-.0148-.0077-.024-.0256-.0384-.0335-.0144-.008-.0346-.0065-.049-.0146-.0144-.0082-.02-.0318-.0342-.0404-.0141-.0086-.0264-.02-.0406-.0286-.0141-.0086-.0298-.0144-.0429-.0232-.0131-.0088-.0271-.0189-.0413-.0281-.0142-.0093-.0277-.0179-.0412-.0273-.0136-.0095-.0239-.0234-.0374-.0329-.0135-.0095-.0322-.0116-.0458-.0215-.0135-.0099-.0341-.0094-.0474-.0193-.0134-.0099-.0159-.0338-.029-.043-.0132-.0092-.0348-.0092-.0477-.0195-.0129-.0104-.0204-.0275-.0329-.0381-.0125-.0105-.0282-.0178-.0413-.0285-.0131-.0108-.0268-.0198-.0393-.0308-.0124-.0109-.0215-.027-.0328-.038-.0114-.011-.023-.0241-.0351-.0352-.018-.0172-.0131-.0215-.0311-.0396-.0181-.018-.0215-.0131-.0398-.0305-.0182-.0174-.0199-.0152-.0378-.0324-.0178-.0172-.0141-.0215-.032-.0383-.0178-.0167-.015-.0202-.0328-.0371-.0179-.017-.0284-.0063-.0462-.0235-.0179-.0171-.0082-.0272-.0262-.0442-.0181-.017-.0196-.0153-.0374-.0325-.0179-.0171-.0166-.0187-.0344-.0358-.0178-.0172-.0269-.0082-.0445-.0247-.0176-.0166-.0081-.0275-.0258-.0447-.0176-.0172-.0182-.0166-.036-.034-.0179-.0174-.0243-.0105-.043-.0275-.0187-.017-.0215-.0144-.0385-.0316-.0169-.0172-.0118-.0236-.0296-.0408-.0179-.0172-.0166-.0185-.0346-.0357-.0181-.0171-.0165-.0189-.0344-.0361-.0178-.0171-.0275-.0075-.0453-.0247s-.0234-.0114-.0413-.0288c-.0178-.0174-.0165-.0184-.0348-.0358-.0182-.0174-.0058-.0299-.0238-.0471-.0181-.0172-.0189-.0165-.0367-.0335-.0179-.017-.0215-.014-.0389-.0312-.0174-.0171-.0127-.0225-.0305-.0399-.0179-.0174-.0327-.0017-.0505-.0191-.0179-.0174-.0073-.0284-.0252-.0456-.0178-.0172-.0305-.0039-.0485-.0215-.0181-.0176-.0166-.0189-.0344-.0363s-.0088-.0268-.0268-.044c-.0181-.0172-.0153-.0202-.0329-.0374-.0176-.0172-.0215-.0136-.0395-.0305-.0181-.017-.0271-.0078-.0452-.0247-.018-.017-.0098-.0256-.0279-.043-.018-.0174-.0256-.0095-.043-.0267-.0174-.0171-.0171-.0182-.035-.0354-.0178-.0172-.0086-.0271-.0266-.0443-.0181-.0171-.0185-.0165-.0365-.0339-.0181-.0174-.0269-.0082-.0449-.0251-.0181-.017-.0192-.0159-.037-.0329-.0178-.017-.0045-.0314-.0215-.0486-.0169-.0172-.0184-.0165-.0365-.0335-.018-.017-.0159-.0191-.0339-.0363-.0181-.0172-.0215-.0142-.0389-.0314-.0174-.0172-.02-.0154-.0381-.0328-.018-.0174-.0259-.0091-.0429-.0263-.017-.0171-.0194-.0156-.0374-.0328-.018-.0172-.0075-.0284-.0254-.0456-.0178-.0172-.0214-.0131-.0403-.0305-.0189-.0174-.0129-.0225-.031-.04-.018-.0174-.0309-.0038-.049-.0214-.018-.0177-.0032-.0325-.0214-.0499-.0183-.0174-.026-.009-.0441-.0264-.018-.0174-.0165-.0187-.0348-.0361-.0182-.0174-.0176-.0176-.0357-.0348-.018-.0172-.0165-.0187-.035-.0361-.0184-.0174-.0215-.0135-.0399-.0309-.0185-.0175-.0133-.0226-.0314-.04-.018-.0174-.0215-.0146-.0391-.032-.0122-.0114-.0273-.0202-.0393-.0318-.012-.0116-.0279-.0198-.0398-.0316-.0118-.0118-.009-.0382-.0214-.0503-.0125-.012-.0329-.0146-.0447-.0271-.0118-.0124-.0159-.0311-.0273-.0429-.0114-.0118-.0215-.0265-.0316-.0391-.0101-.0127-.0316-.0172-.043-.0299-.0113-.0127-.0092-.0361-.0199-.049-.0108-.0129-.029-.0195-.0394-.0329-.0103-.0133-.0292-.0197-.0395-.0328-.0103-.0131-.0182-.0286-.0283-.0419-.0101-.0133-.0235-.0247-.0329-.0383-.0095-.0135-.0101-.0341-.0198-.0479-.0096-.0137-.0215-.0264-.0301-.0404-.0085-.0139-.0133-.0313-.0225-.0453-.0092-.014-.0247-.0241-.0335-.0383-.0088-.0141-.0161-.0294-.0247-.0429-.0086-.0136-.0215-.0264-.0297-.0413-.0081-.0148-.0253-.0243-.0335-.0389-.0082-.0146.0039-.0406-.0045-.0552-.0084-.0146-.0159-.0294-.0236-.0442-.0078-.0149-.0166-.029-.0239-.0441-.0073-.015-.0238-.0256-.0311-.0408-.0073-.0153-.0153-.0301-.0215-.0453-.0062-.0153-.0028-.0355-.0095-.051-.0066-.0154-.0146-.03-.0215-.0455-.0068-.0155-.0165-.0294-.0225-.0451-.006-.0157-.0277-.0252-.0337-.0413-.0061-.0161.0055-.038 0-.0537-.0056-.0157-.0305-.0247-.0361-.0406-.0056-.0159.0081-.0383.0028-.0542-.0054-.0158-.0058-.0328-.011-.0494-.0052-.0165-.0131-.0309-.0178-.047-.0048-.0161-.0292-.0267-.0335-.043-.0043-.0163 0-.0348-.005-.0509-.0049-.0161.0028-.0352-.0011-.0516-.0038-.0163-.007-.0329-.0107-.0494-.0037-.0165-.017-.0307-.0215-.047-.0045-.0248-.0039-.0248-.0081-.0495-.0043-.0247-.0159-.0214-.0205-.047-.0045-.0256 0-.0254-.0049-.0494-.0049-.0241.0045-.0262 0-.0507s.0011-.0256-.0032-.0501c-.0043-.0245-.0194-.0215-.0239-.0462-.0045-.0247.0065-.0264.0018-.0509-.0048-.0245-.0101-.0234-.0147-.0479-.0045-.0245-.0055-.0247-.0098-.0488-.0043-.0241-.0082-.0238-.0125-.0483s.0112-.0275.0067-.052c-.0046-.0245-.0091-.0237-.0136-.0482-.0045-.0245-.0165-.0214-.0215-.0468-.0049-.0254 0-.0251-.0049-.0494s0-.0254-.0045-.0499-.0138-.0227-.0185-.0472c-.0047-.0245.0133-.028.0088-.0525-.0045-.0245-.0049-.0247-.0094-.0489-.0045-.0243-.0091-.0237-.0138-.0482-.0047-.0245-.0185-.0215-.023-.0464-.0045-.0249.0146-.0281.0101-.0526-.0045-.0245-.0092-.0237-.0137-.0481-.0045-.0245-.0138-.0228-.0185-.0475-.0047-.0247.0022-.0258-.0028-.0503-.0049-.0245-.0105-.0234-.015-.0481-.0045-.0247-.005-.0247-.0097-.049-.0047-.0243.0028-.026-.0017-.0505-.0045-.0245-.0118-.0232-.0166-.0477-.0047-.0245-.0081-.0239-.0131-.0484-.0049-.0244.0022-.0257-.0021-.0502s-.0062-.0243-.011-.0488c-.0047-.0245.005-.0264 0-.0509-.0049-.0245-.0148-.0226-.0193-.0471-.0045-.0245-.0127-.023-.0172-.0475-.0045-.0244.0049-.0264 0-.0509s.0045-.0262 0-.0507-.0275-.0202-.032-.0449c-.0045-.0247.0172-.0286.0127-.0531-.0045-.0245-.0215-.0214-.0267-.0457-.0051-.0243.0039-.0262-.001-.0507-.005-.0245.0038-.0262 0-.0507-.0039-.0245-.0097-.0237-.0144-.0482-.0048-.0245-.0067-.0242-.0114-.0489-.0047-.0248-.0148-.0226-.0194-.0473-.0045-.0247 0-.0254-.0055-.0499-.0056-.0245-.011-.0234-.0157-.0479-.0048-.0245.0182-.0288.0137-.0533-.0045-.0245-.018-.0214-.0225-.0466-.0045-.0251.001-.0256-.0039-.05-.0049-.0245-.0187-.0215-.0234-.0465-.0047-.0249-.0017-.0247-.0065-.0494-.0047-.0247-.0055-.0247-.0101-.049-.0045-.0242.0112-.0275.0065-.0522-.0047-.0247-.0101-.0236-.0146-.0481-.0045-.0245-.0078-.0241-.0123-.0488-.0045-.0247 0-.0255-.0038-.0502-.0039-.0247-.0161-.0215-.0215-.0471-.0054-.0256.0017-.0258-.0028-.0503-.0045-.0245-.0017-.0251-.006-.0494s.0038-.0262 0-.0507c-.0039-.0245-.0234-.0215-.028-.0453-.0045-.0239.0155-.0282.011-.0527-.0045-.0245-.0202-.0215-.0247-.0459-.0045-.0245.0045-.0263 0-.0508-.0045-.0244-.0039-.0247-.0082-.0489-.0043-.0243-.0068-.0241-.0116-.0486-.0047-.0245-.0028-.0247-.0071-.0494s-.0116-.0232-.0165-.0477c-.0049-.0245-.0127-.023-.0172-.0475-.0045-.0245.005-.0264 0-.0509-.0049-.0245-.0125-.023-.017-.0477-.0045-.0247 0-.0256-.0049-.0501-.0049-.0245.0114-.0277.0067-.0522-.0048-.0245-.0215-.0215-.0269-.046-.0054-.0245.0101-.0272.0056-.052-.0045-.0247-.0181-.0214-.0228-.0466-.0047-.0251.005-.0264 0-.0509-.0049-.0245-.0215-.0215-.0271-.0458-.0055-.0242.0202-.0292.0155-.0537-.0047-.0245-.0109-.0234-.0157-.0479-.0047-.0245-.0038-.0247-.0086-.0494-.0047-.0247-.0028-.0247-.0075-.0494-.0047-.0247-.0122-.0232-.017-.0479-.0047-.0247-.0064-.0243-.0109-.049-.0045-.0247.006-.0267.0011-.0512-.005-.0245-.0215-.0214-.0265-.0459-.0049-.0245.0101-.0273.0056-.052l-.0088-.0495c-.0045-.0247-.0182-.0214-.0228-.0468-.0045-.0253.0108-.0277.0063-.0522-.0045-.0245-.0166-.0215-.0215-.0471-.005-.0255-.0123-.0232-.0166-.0476-.0042-.0245.0099-.0273.0056-.0523-.0043-.0249-.0187-.0214-.0232-.0466-.0045-.0251.0166-.0288.0121-.0533-.0045-.0245-.0265-.0215-.0312-.0453-.0047-.0239 0-.0256-.0045-.0503-.0045-.0247-.0107-.0234-.0153-.0481-.0045-.0247 0-.0256-.0045-.0501-.0045-.0245.0033-.026-.0017-.0507-.0049-.0247-.0049-.0247-.0094-.0494-.0045-.0247-.0082-.0241-.0134-.0488-.0051-.0247.0022-.026-.0021-.0507-.0043-.0247-.0157-.0225-.0202-.0472-.0045-.0247.0028-.026-.0021-.051-.005-.0249-.0089-.024-.0134-.0485-.0045-.0245.0033-.0262-.001-.0509s-.0202-.0215-.0247-.0464c-.0046-.025.0027-.0263-.0018-.051-.0045-.0247-.0021-.0253-.0066-.05-.0045-.0247.0056-.0269.001-.0518-.0045-.0249-.0214-.0215-.0257-.0466-.0043-.0252-.0022-.0172-.0088-.0494-.0028-.0136-.0011-.0312-.0046-.0501-.0027-.0148-.0032-.0318-.0066-.0494-.0035-.0176-.0193-.0295-.0215-.0471-.0021-.0176.0011-.0328-.0017-.0505-.0028-.0176-.0022-.0328-.005-.0494-.0028-.0165-.0055-.0322-.0081-.0494s.0011-.0329-.0017-.0503-.0046-.0328-.0067-.0494c-.0021-.0165.0039-.0337.0017-.0507-.0021-.017-.0092-.032-.0114-.049-.0021-.017-.0021-.0329-.0038-.0498-.0018-.017-.0065-.0327-.0082-.0494-.0017-.0168-.0215-.0312-.0215-.048 0-.0167.0166-.0352.0151-.052-.0015-.0167-.0046-.0328-.0061-.0494-.0015-.0165 0-.0328-.001-.0502-.0011-.0175-.0183-.0318-.0198-.0486-.0015-.0168-.0082-.0329-.0097-.0494-.0015-.0166.0101-.0342.0088-.0509-.0012-.0168.0022-.0336.0011-.0503-.0011-.0168-.0081-.0329-.0094-.0494-.0013-.0166-.0058-.0329-.0067-.0499-.0009-.017.0082-.0335.0075-.0503-.0006-.0167-.0049-.0328-.006-.0494-.0011-.0165-.0157-.0324-.0165-.0494-.0009-.017-.0018-.0329-.0022-.0498-.0004-.017-.0028-.0329-.0032-.0495-.0004-.0165.0017-.0328.0017-.05v-.0499c0-.0169.0071-.0328.0069-.05-.0002-.0172-.0045-.0329-.005-.0499-.0004-.0169.0114-.0328.0112-.0498-.0002-.017-.0049-.0329-.0049-.0499 0-.0169-.0017-.0328-.0011-.0498.0006-.017.0082-.0329.0088-.0494.0007-.0166-.0157-.0335-.0155-.0503.0003-.0168.0121-.0329.0127-.0494.0007-.0166-.0122-.0335-.0116-.0503.0007-.0168.0022-.0329.0028-.0498.0007-.017-.0039-.0336-.0028-.0503.0011-.0168.0082-.0329.0093-.0494.001-.0166.0109-.0329.0118-.0494.0008-.0166.0109-.0329.012-.0495.0011-.0165-.0103-.0339-.0092-.0507.001-.0167.0073-.0328.0081-.0494.0009-.0165 0-.0333.0022-.05.0021-.0168-.0067-.034-.005-.0508.0018-.0167.0028-.0328.0045-.0498.0018-.017.0198-.0316.0215-.0481.0017-.0166.005-.0329.0067-.0494.0017-.0166-.0138-.0351-.0118-.0516.0019-.0166.0184-.0314.0215-.0481.003-.0168-.0157-.0357-.0136-.0522.0022-.0166.0153-.0318.0176-.0484.0024-.0165.0082-.0326.0106-.0494.0023-.0168.006-.0329.0081-.0494.0022-.0166.0011-.0335.0039-.0501.0028-.0165-.0069-.035-.0039-.0516.003-.0165.0136-.0315.0166-.0481.003-.0165.009-.0322.012-.0488.003-.0165-.0039-.0348-.0011-.0511.0028-.0163.0033-.0333.0067-.0494.0034-.0161.0148-.0312.018-.0477.0033-.0165.0157-.0309.0192-.0473.0034-.0163-.0058-.0352-.0022-.0517.0037-.0166.0062-.0329.0099-.0495.0036-.0165.0028-.0337.0067-.05.0038-.0164.0105-.0318.0146-.0482.004-.0163.0139-.0311.0182-.0472.0043-.0161-.0011-.0348.0032-.0509.0043-.0162.0149-.0308.0189-.0471.0041-.0163.0235-.0281.0278-.0445.0043-.0163.0075-.0326.012-.0487.0045-.0162.0017-.0344.0062-.0503.0045-.0159.0101-.0318.0151-.0479.0049-.0161.0049-.0335.0098-.0494.005-.0159.0174-.0297.0226-.0456s.012-.0312.0174-.0471c.0054-.0159.0017-.0345.0071-.0504.0054-.0159.0122-.0312.0176-.0471.0054-.0159.0075-.0329.0133-.0486.0058-.0156.0187-.0287.0247-.0444.0061-.0157 0-.0361.005-.0516.0049-.0155.0247-.0262.0311-.0419.0065-.0157.0125-.0309.0187-.0466.0063-.0157.0138-.0305.0202-.046.0065-.0155.0112-.0314.0176-.047.0065-.0157.0045-.0344.0112-.0495.0067-.015.0215-.027.0286-.0429.0071-.0159.0154-.0297.0215-.0449.006-.0153-.0018-.0376.0055-.0529.0074-.0152.0333-.0215.0406-.0363.0074-.0148.0142-.0301.0215-.0451.0073-.0151.0045-.035.0121-.0501.0075-.015.0064-.0344.0141-.0494.0078-.015.0192-.0279.0269-.043.0077-.015.0273-.0234.0352-.038.008-.0146.017-.0288.0252-.043.0081-.0142.0154-.0296.0238-.0442.0084-.0146.0157-.0295.0241-.043.0084-.0135.0185-.0277.027-.043.0086-.0152.0183-.0279.0269-.0429.0086-.0151.0021-.0381.011-.0523.0088-.0141.0227-.0251.0318-.0393.009-.0142.0287-.0215.038-.0352.0092-.0138.0075-.0352.0165-.0494.009-.0142.0243-.0241.0337-.0378.0095-.0138.0248-.0235.0344-.0372.0097-.0138.0116-.0329.0215-.0462.0099-.0133.0215-.0247.0324-.0385.011-.0137.0215-.0255.0314-.0391.0099-.0135.0142-.0311.0247-.0447.0105-.0135.0226-.0247.0329-.038s.0202-.0266.0307-.0397c.0105-.0131.0264-.0215.0372-.0344.0107-.0129.0144-.0316.0247-.0445.0103-.0129.0305-.0178.0412-.0307.0108-.0129.0215-.0262.0316-.0389.0101-.0127.0127-.0335.0241-.046.0114-.0124.0335-.0146.0449-.0271.0114-.0124.0215-.0264.0318-.0386.0103-.0123.0197-.0273.0313-.0393.0116-.0121.0131-.034.0247-.0458.0116-.0118.037-.0105.0488-.0215.0118-.0109.0226-.0247.0348-.0361.0123-.0114.02-.0273.0322-.0391.0123-.0118.0263-.0215.0385-.032.0122-.0105.0296-.017.043-.0282.0133-.0111.0189-.0287.0313-.0399.0125-.0112.0284-.0181.0413-.0292.0129-.0112.0144-.0344.027-.0454.0127-.0109.0342-.0114.0471-.0215.0129-.0101.0275-.0189.0404-.0296.0129-.0107.0176-.0314.0307-.0419.0131-.0105.0303-.0155.043-.0258.0127-.0103.0215-.0264.0352-.0365.0138-.0101.037-.0065.0503-.0166.0133-.01.0195-.0296.0329-.0395.0133-.0099.024-.0238.0375-.0335.0136-.0097.0357-.0075.0495-.017.0137-.0094.0247-.0232.0382-.0328.0135-.0097.0299-.0153.043-.0248.0131-.0094.0225-.0262.0367-.0352.0142-.009.0348-.0075.049-.0165.0142-.0091.0288-.0166.043-.0256.0141-.009.0234-.0256.0376-.0344.0141-.0088.0229-.0264.0373-.035.0144-.0086.0363-.0045.0507-.0127.0144-.0081.0228-.0273.0374-.0354.0146-.0082.0344-.0071.049-.0153.0146-.0082.0324-.0101.0473-.018.0148-.008.0281-.0179.0429-.0258.0149-.008.0299-.0148.0447-.0215.0148-.0067.0194-.0355.0344-.043s.0387.0028.0539-.0045c.0153-.0073.0247-.0247.04-.0322.0152-.0075.0285-.0178.0429-.0247s.0321-.0105.0473-.0176c.0153-.0071.0288-.0177.043-.0247.0142-.0071.0343-.005.0494-.0116.015-.0067.0247-.0265.0404-.0329.0157-.0065.0363 0 .0517-.0067.0155-.0066.0329-.0071.0488-.0135.0159-.0065.026-.0247.0417-.031.0157-.0062.0329-.0081.0483-.0146.0155-.0064.0299-.0154.0456-.0215.0157-.006.0294-.0165.0453-.0214.0159-.005.0329-.0071.0488-.0129.0159-.0058.0301-.0155.046-.0215.0159-.006.0378.0069.0537.0017.0159-.0052.0318-.0099.0477-.0153.0159-.0053.027-.0251.0429-.0302.0159-.0052.0318-.0108.0477-.0159.0159-.0052.0344-.0022.0505-.0069.0161-.0047.0296-.0176.0458-.0215.0161-.0039.0322-.0088.0481-.0135.0159-.0048.0318-.0104.0479-.0149.0161-.0045.0318-.0096.0481-.0141l.0484-.0134c.0161-.0045.0328-.0064.0494-.0107.0165-.0043.0315-.0112.0479-.0153.0163-.004.032-.0098.0481-.0137.0161-.0039.0335-.0032.0498-.0075.0164-.0043.0314-.0125.0477-.0166.0164-.0041.0327-.0081.049-.0116.0163-.0034.0353.0045.0516.0011.0163-.0034.0324-.0082.0487-.0118.0164-.0037.0336-.0028.0499-.0063.0163-.0034.0316-.0126.0481-.0159.0166-.0032.0348.0046.0514.0018.0165-.0028.0303-.0202.0468-.0235.0165-.0032.0329-.0045.0498-.007.017-.0026.0329-.0067.0494-.0093.0166-.0026.0344.0028.051 0 .0165-.0028.0309-.0195.0474-.0215.0166-.0019.0361.0144.0527.0121.0165-.0024.0318-.0146.0483-.017.0166-.0024.0337 0 .0505-.0028.0168-.0028.0339.0017.0507 0 .0168-.0017.0329-.0082.0494-.0105l.0494-.006c.0166-.0022.0335-.0018.0501-.0033.0165-.0015.0329-.0045.0494-.006.0165-.0015.0324-.0109.0494-.0127l.0501-.0049c.0169-.0017.0328-.0056.0498-.0071.017-.0015.0337.0017.0505 0 .0168-.0017.0335 0 .0503-.0017.0167-.0017.0328-.0093.0494-.0105.0165-.0013.0329-.0082.0498-.0093.017-.0011.0346.014.0514.0129.0167-.0011.0335 0 .0505 0 .0169 0 .0328-.0088.0498-.0097.017-.0008.0335 0 .0503-.001.0167-.0011.0328-.0056.05-.0063.0172-.0006.0329-.0122.0499-.0131.0169-.0008.0341.0127.0509.0121.0167-.0007.0329-.0166.0498-.0174.017-.0009.034.007.0507.0066.0168-.0004.034.0101.0509.0097.017-.0004.0329-.0193.0499-.0198.017-.0004.0339.011.0509.0105.017-.0004.0339.005.0507.005.0168 0 .0335-.02.0505-.0202.017-.0002.0339.0241.0509.0241s.0342-.0022.0511-.0022c.017 0 .0336-.0137.0503-.0137.0168 0 .0335.0077.0503.0077.0167 0 .0335-.0105.0503-.0103.0167.0002.0333.0148.05.0152.0168.0005.0337-.0129.0503-.0126.0165.0002.0335.0032.0503.0032.0167 0 .0335-.0039.0502-.0039.0168 0 .0338-.0045.0503-.0039.0165.0007.0329.0082.0501.0082.0171 0 .0328.0138.0494.0142.0165.0004.0341-.0155.0507-.0148.0165.0006.0328.0107.0494.0114.0165.0006.0339-.0065.0505-.0058.0165.0006.0328.0178.0494.0186l.05.0018.0501.0038c.0168.0011.0344-.0159.0511-.0148.0168.0011.0322.0193.049.0204l.0501.0028c.0167.0011.0343-.0099.0509-.0088.0165.0011.0322.0176.049.0187.0167.0011.0341-.0056.0507-.0045.0165.0011.0328.0069.0494.0081.0165.0013.0341-.0049.0507-.0038.0165.0011.0337-.0011.0502 0 .0166.0011.0323.0154.0488.017.0166.0015.0342-.0039.0507-.0022.0166.0017.0329.0088.0494.0105.0166.0018.0329.005.0494.0067.0166.0017.0336 0 .0501.0021.0165.0022.0342-.0038.0509-.0021.0168.0017.034 0 .0505.0017s.032.0153.0486.0174c.0165.0022.0328.009.0494.0114.0165.0024.0343-.0032.0509 0 .0165.0032.0322.0125.0488.0148.0165.0024.0328.0082.0494.0108.0165.0025.0354-.0097.0522-.0071.0167.0026.0311.0185.0477.0215.0165.003.0328.0081.0494.0109.0165.0028.0367-.0154.0533-.0127.0165.0028.0294.0275.0457.0303.0163.0028.0372-.0171.0537-.0141.0166.003.032.0116.0486.0148.0165.0032.0307.0182.0472.0215.0166.0032.0348-.0033.0514 0 .0165.0032.0341 0 .0505.0045.0163.0045.0288.0266.0451.0301.0163.0034.0357-.0067.0522-.0033.0165.0035.0329.0056.0494.0093.0166.0036.0325.0088.0488.0124.0163.0037.0318.0114.0481.0151.0163.0036.0314.0127.0477.0165.0163.0039.0348-.0011.0511.0028.0164.0039.0329.006.0494.0099.0166.0039.0316.012.0477.0165.0161.0046.0318.011.0479.0153.0162.0043.0361-.0045.0522 0 .0162.0045.0258.0329.0419.0374.0162.0045.0336.0045.0494.0092.0159.0047.0361-.0038.0523 0 .0161.0039.032.0099.0481.0148.0161.005.0303.0155.0462.0215.0159.006.0346.0022.0505.0071.0159.005.0318.0112.0477.0166.0158.0053.0264.0268.0429.032.0166.0051.0378-.0071.0537-.0017.0159.0053.0252.03.0413.0356.0161.0056.0371-.0049.053 0 .0159.005.0278.0215.043.0277l.0473.017c.0157.0058.0363-.0017.052.0045.0156.0063.0257.0262.0412.0323.0155.006.0305.0137.046.0199.0155.0063.0316.0112.047.0174.0155.0063.0295.0166.0451.0226.0157.006.0376-.0032.0531.0032.0155.0065.0286.0185.043.0252.0144.0066.0313.012.0466.0187.0153.0066.0286.0182.043.0247.0144.0064.0292.0165.0442.0236.0151.0071.0389-.0045.0542.0028.0152.0073.0292.017.0442.0243.0151.0073.0202.035.0353.0429.015.008.0391-.0032.0539.0039s.0281.0187.0429.0264c.0149.0078.0241.0265.0389.0342.0149.0077.0325.0101.0471.018.0146.008.026.0215.0406.0301.0146.0086.0322.0106.047.0185.0149.008.0357.0049.0501.0131.0144.0082.0215.0284.0367.0367.0153.0084.0338.0082.0481.017.0144.0088.0301.0151.0445.0237.0144.0085.0269.0214.0413.0292.0144.0077.0251.023.0393.0318.0142.0088.0329.0101.047.0191.0142.009.0269.0202.0409.0294.0139.0093.0247.0239.0382.0329.0135.009.0348.0082.0485.0178.0138.0097.0284.0179.043.0275.0146.0097.014.0383.0275.048.0135.0096.0312.0137.0447.0234.0135.0096.0367.0064.0503.0165l.0401.0301c.0134.0101.0183.0314.0314.0412.0131.0099.0226.0252.0359.0355.0133.0103.0268.02.0397.0303.0129.0103.0301.0159.043.0264.0129.0105.0305.0157.043.0264.0124.0108.0273.0196.0399.0303.0127.0108.0153.0336.0277.0445.0125.011.026.0215.0383.032.0122.0106.0264.0215.0387.0318.0122.0103.0268.0202.0388.0314.0121.0112.0282.0187.0404.0303.0123.0116.0286.0185.0406.0301.0121.0116.0237.0238.0355.0354.0118.0116.0204.0271.032.0389.0116.0118.0118.0352.0234.0471.0116.0118.0378.0098.0494.0215.0116.0116.0082.038.0196.0502.0114.0123.032.0159.0429.0282.011.0122.029.0189.04.0313.011.0125.0159.0308.0269.043.0109.0123.0247.023.0354.0357.0107.0127.0088.0363.0196.0494.0107.0131.0341.015.0446.0279.0106.0129.0157.0303.0262.043.0106.0127.0215.0254.0323.0382.0107.0129.0174.0288.0275.043.0101.0142.0165.029.0268.043.0103.0139.0329.017.043.0303.0101.0133.006.0369.0157.0505.0096.0135.0215.0253.0313.0389.0099.0135.0301.0197.0398.0328.0097.0131.0066.0359.0161.0494.0095.0136.0241.0241.0329.0381.0088.0139.0202.0266.0292.0406.009.0139.0277.0215.0365.0361.0088.0146 0 .0395.0082.0537.0081.0142.0283.0215.0369.0361.0086.0146.0247.0243.0329.0387.0082.0144.0071.0346.0152.0494.0082.0148.011.0322.0192.0468.0081.0146.026.0239.0341.0385.0082.0146.0215.026.0301.0406.0086.0146.0135.0307.0215.0455.0079.0149.0021.0366.0099.0514.0077.0148.0111.0318.0184.0466.0073.0148.0153.0294.0226.0445.0073.015.0155.0294.0228.0445.0073.015.0294.0229.0365.0382.0071.0153.0118.0314.0187.0466.0069.0153.0195.028.0262.043.0067.015-.0045.0385.0021.0537.0067.0153.0142.0301.0215.0456.0073.0154.0282.0247.0344.0399.0062.0153-.0017.0368.0045.0522.0062.0155.0108.0316.0166.0471s.0247.0264.0305.043c.0058.0165.0159.0298.0215.0455.0055.0157.0066.0329.0122.0488.0056.0159 0 .0356.0049.0513.005.0157.0192.0288.0247.0445.0056.0157.0177.0294.023.0453.0054.0159.0056.0336.0103.0495.0048.0159-.0049.0365 0 .0524.005.0159.0082.0322.0134.0481.0051.0159.026.0273.0305.043.0045.0157-.005.0361 0 .0522.0049.0161.0081.0322.0126.0483.0046.0161.0278.0273.0318.043.0041.0157.0056.0329.0095.0494.0039.0166.0103.0318.0142.0481.0038.0164.001.0342.0045.0503.0034.0161.009.0322.0129.0484.0038.0161.0109.0318.0144.0481.0034.0163-.0093.0361-.0058.0524.0034.0163.0032.0329.0066.0494.0035.0166.006.0329.0093.0494.0032.0166.0148.0312.0178.0475.003.0164.0215.0301.0241.0464.0025.0164.0032.0333.0062.0495.003.0161-.0144.0361-.0116.0526.0028.0165.0215.0305.0232.047.0017.0166-.0112.0355-.0088.052.0023.0166.0215.0308.0234.0473.0019.0166-.009.035-.0069.0516.0022.0165.005.0328.0067.0494.0017.0165.0178.0316.02.0481.0021.0166-.0082.0346-.0061.0512.0022.0165.0159.0318.0177.0485.0017.0168-.0082.0346-.0069.0512.0013.0165 0 .0335.0011.0502.001.0168.0199.0318.0214.0484.0016.0165-.0107.0343-.0096.0511.0011.0168-.0022.0335-.0011.0503.0011.0167.0011.0333.0017.05.0007.0168.0116.0329.0127.0495.0011.0165.0064.0328.0073.0494.0009.0165 0 .0335 0 .05 0 .0166-.0094.0338-.0088.0505.0006.0168.0144.0329.0148.0494.0004.0166-.009.0338-.0088.0503.0002.0166-.0039.0335-.0039.0501 0 .0165.0022.0333.0028.0498.0007.0166.0058.0333.0058.0499 0 .0165.0116.0335.0116.05 0 .0166-.0144.0329-.0146.0499-.0002.017-.0062.0329-.0064.0498-.0002.017.0165.0338.0165.0503s-.0032.0333-.0038.0499c-.0007.0165.0075.0337.0071.0502-.0005.0166-.019.0329-.0198.0494-.0009.0166.0114.034.0105.0505-.0008.0166-.0058.0329-.0066.0495-.0009.0165-.0157.0326-.0166.0489-.0008.0164.0202.0346.0191.0512-.001.0165-.0092.0328-.0103.0494-.0011.0165.005.0339.0039.0503-.0011.0163-.014.0322-.0155.0487-.0015.0166-.0118.0325-.0133.0488-.0015.0163.0021.0337 0 .0501-.0021.0163-.0099.0326-.0116.049-.0017.0163.0045.0341.0028.0502-.0017.0161.0112.0351.0092.0514-.0019.0163-.0242.0309-.0262.047-.0019.0161.0155.0357.0136.052-.002.0164-.0123.0323-.0144.0484-.0022.0161-.0166.0318-.0185.0477-.002.0159.0058.0348.0034.0507-.0023.0159-.0028.0337-.0049.0494-.0022.0157-.0011.0342-.0039.0498-.0028.0157-.0127.0323-.0155.048-.0027.0156-.0131.0322-.0159.0476-.0027.0155-.0109.0329-.0137.048-.0028.015.0067.0365.0039.0511-.0039.0189.0028.0374 0 .0509-.0078.0322-.0327.0196-.037.043l.0034-.0069Z" fill="#99C0FF"/>
        <path d="M35.2328 26.5859c-.0183-.0176-.0215.0032-.0537 0-.014-.0015-.0312 0-.0503-.0041-.0151-.0024-.0316-.0071-.0494-.0105-.0179-.0035-.0307-.0112-.0482-.0155-.0174-.0043-.0328-.0032-.05-.0082-.0172-.0049-.0301-.0142-.0466-.0195-.0166-.0054-.0335-.0043-.0499-.0101-.0163-.0058-.0298-.0148-.0459-.0215-.0162-.0067-.0312-.0116-.0471-.0185-.0159-.0069-.032-.0103-.0475-.0176-.0154-.0073-.0264-.0215-.0417-.0296-.0152-.0082-.032-.011-.047-.0194-.015-.0084-.0305-.0142-.0453-.023-.0149-.0088-.0297-.0159-.0441-.0251-.0144-.0093-.0264-.0215-.0404-.0307-.0139-.0093-.0268-.0202-.0406-.0303-.0137-.0101-.0251-.0215-.0386-.0329-.0136-.0114-.0275-.0191-.0409-.0299-.0133-.0107-.0294-.0174-.0429-.0285-.0136-.0112-.0215-.0273-.0329-.0389l-.0365-.0351c-.0123-.012-.0247-.0229-.0365-.0352-.0119-.0122-.0215-.0256-.0336-.0382-.012-.0127-.0251-.0215-.0365-.0353-.0114-.0137-.0247-.0227-.0361-.0359-.0114-.0131-.0141-.0318-.0247-.0451-.0105-.0133-.0227-.0247-.0328-.0384-.0101-.0138-.0187-.028-.0286-.0417-.0099-.0138-.0247-.0239-.034-.0378-.0092-.014-.0137-.0312-.0229-.0456-.0093-.0144-.0252-.0238-.0344-.0382-.0093-.0144-.0166-.0295-.0254-.0441-.0088-.0146-.0122-.0318-.0215-.0466-.0092-.0148-.0197-.0275-.0279-.043-.0081-.0154-.0165-.0294-.024-.0444-.0076-.0151-.0097-.0329-.0174-.0482-.0078-.0152-.0174-.029-.0248-.0444-.0073-.0155-.0135-.0308-.0214-.0462-.008-.0155-.0136-.031-.0204-.0467-.0069-.0156-.0177-.026-.0243-.0419-.0243-.006-.0157.0033-.043.0215-.0114.0082-.0195.0252-.0354.0361-.0125.0082-.0303.0121-.0456.0215l-.043.0269c-.0133.0081-.0238.023-.0386.0322s-.0297.0142-.0445.0232c-.0148.009-.029.0153-.043.0241-.0139.0088-.0285.0165-.0429.0247-.0144.0081-.0247.0215-.04.0309-.0152.0095-.0301.014-.0449.0215-.0148.0075-.0296.0144-.0447.0215-.015.0071-.0294.015-.0444.023-.0151.0079-.028.0178-.043.0255-.0151.0078-.0303.0134-.0456.0215l-.0449.0215c-.0152.0073-.0281.0178-.0429.0247s-.0329.0067-.0486.0136c-.0157.0068-.0266.0214-.0419.0283-.0152.0069-.0328.0078-.0481.0144-.0152.0067-.0296.0146-.0453.0215-.0157.0069-.0295.0159-.0449.0215-.0155.0056-.0329.0077-.0484.0137-.0154.006-.0307.0127-.0464.0185l-.0468.0176c-.0157.0058-.0331.0071-.0486.0125-.0154.0054-.0311.0118-.047.0172s-.0303.0139-.0464.0191c-.0161.0052-.0322.0082-.0483.0135-.0162.0054-.0321.0093-.0482.0138-.0161.0045-.03.0157-.0464.0202-.0163.0045-.0335.0041-.0494.0081-.0159.0041-.0324.0082-.0485.0121-.0162.0038-.0321.0092-.0484.0131-.0163.0039-.0313.0127-.0477.0165-.0163.0039-.0343 0-.0507.0028-.0163.0028-.0322.009-.0485.0123-.0164.0032-.0316.012-.0482.0152-.0165.0032-.0339 0-.0504.0026-.0166.0026-.0323.0097-.0488.012-.0165.0024-.0335.0018-.0501.0041-.0165.0024-.0328.0054-.0494.0073-.0165.002-.0328.0054-.0494.0071-.0165.0017-.0329.0067-.0494.0082-.0165.0015-.0335.0019-.0503.0032-.0167.0013-.0335 0-.0502 0-.0168 0-.0336-.0026-.0503-.0017-.0168.0008-.0329.006-.0499.0064-.0169.0005-.0328.0043-.05.0045-.0172.0003-.0335 0-.0503 0-.0167 0-.0335.002-.0503.0018-.0167-.0003-.0328-.0067-.05-.0073-.0172-.0007-.0337.0032-.0503.0023-.0165-.0008-.0329-.0081-.0494-.0097-.0165-.0015-.0339.0061-.0507.0046-.0168-.0015-.0329-.0071-.0494-.0088-.0166-.0018-.0329-.0069-.0494-.0091-.0166-.0021-.0335 0-.0501-.0032-.0165-.0032-.0329-.0028-.0498-.0054-.017-.0025-.0318-.0124-.0481-.0154-.0164-.003-.0338 0-.0503-.0039-.0166-.0039-.0329-.0037-.0494-.0071-.0166-.0034-.0325-.0082-.0488-.012-.0163-.0039-.0309-.0142-.0473-.0183-.0163-.0041-.0328-.0043-.0494-.0082-.0165-.0038-.0311-.0124-.0472-.0171-.0162-.0048-.0342-.0024-.0503-.0073-.0161-.005-.0301-.0159-.046-.0215-.0159-.0056-.0335-.005-.0494-.0103-.0159-.0054-.0303-.0147-.046-.0205-.0157-.0058-.0316-.0113-.047-.0174-.0155-.006-.0312-.012-.0469-.0182-.0156-.0063-.0322-.0095-.0474-.0166l-.046-.0202c-.0153-.0068-.0292-.0165-.0445-.0234-.0152-.0069-.0316-.0114-.0466-.0187-.015-.0073-.0303-.0144-.0453-.0215-.0151-.007-.028-.0187-.043-.0268-.015-.0082-.0305-.0138-.0453-.0215-.0149-.0077-.0299-.015-.0445-.0234-.0146-.0084-.0258-.0215-.0402-.0307-.0144-.0093-.0322-.0112-.0466-.02-.0144-.0088-.0256-.0215-.0397-.0314-.0142-.0099-.0316-.0131-.0456-.0215-.0139-.0084-.0281-.0182-.043-.0277-.0148-.0095-.0251-.0215-.0388-.0322-.0138-.0108-.0284-.0241-.043-.034-.0241.0071 0 .0215-.0148.052-.006.0127-.0215.0241-.0295.0413-.0066.0137-.0129.0292-.0214.0453-.0086.0161-.0078.0322-.0159.0481-.0082.0159-.0215.0247-.0305.0404-.0091.0157-.0112.0312-.0194.0464-.0081.0153-.0159.0288-.024.043-.0082.0142-.0132.0305-.0215.0453-.0084.0149-.0215.0258-.0299.0406-.0084.0149-.0116.0314-.0202.0462-.0086.0149-.0215.0254-.0305.04-.009.0146-.0129.0307-.0215.0453-.0086.0147-.0159.029-.0247.043-.0088.014-.0215.0262-.0296.0404-.0082.0142-.0153.0294-.0247.043-.0095.0135-.0215.0253-.031.0395-.0094.0142-.0172.0284-.0264.043-.0092.0146-.0153.0296-.0247.043-.0095.0133-.0165.0292-.0256.0429-.009.0138-.0247.0232-.0343.0372-.0097.014-.0181.0279-.0275.0417-.0095.0137-.0142.0307-.0239.0445-.0097.0137-.0195.0268-.0294.0406-.0099.0137-.0185.0279-.0284.0412l-.0301.04c-.0101.0135-.0262.0215-.0363.0352-.0101.0138-.0154.0301-.026.043-.0105.0129-.0184.0279-.029.0412-.0105.0134-.0275.0215-.038.0338-.0105.0122-.015.0309-.0256.0429-.0105.0121-.0214.0247-.0328.0376-.0114.0129-.0264.0215-.0374.034-.011.0124-.0193.0273-.0305.0399-.0112.0127-.0215.0263-.0318.0387-.0103.0125-.0202.0269-.0316.0391-.0114.0123-.0294.0181-.0412.0303-.0119.0123-.0215.0256-.0329.0376s-.0232.0239-.035.0357c-.0118.0118-.0198.0275-.0316.0393-.0118.0118-.0247.0226-.0365.0342-.0118.0116-.0277.0193-.0398.0307-.012.0114-.0234.0238-.0356.035-.0123.0112-.0247.0215-.0374.0329-.0127.0114-.0247.0215-.0372.0335-.0124.012-.0215.0266-.0337.0376-.0123.011-.0301.0161-.043.0269-.0129.0107-.0215.0264-.0346.0367-.0131.0103-.0311.0146-.0442.0247-.0131.0101-.0215.0277-.034.0378-.0124.0101-.0288.0174-.0429.0273-.0142.0099-.029.017-.043.0266-.014.0097-.0273.0192-.0413.0286-.0139.0095-.0281.0179-.0429.0273-.0148.0095-.0273.0193-.0413.0286-.0139.0092-.029.0165-.0429.0256-.014.009-.0282.0176-.043.0264-.0148.0088-.0247.0238-.0393.0322-.0146.0084-.0295.0157-.0441.0239-.0146.0081-.0311.0126-.0459.0214-.0149.0089-.0269.0215-.0419.0284-.0151.0069-.0329.0086-.0482.0159-.0152.0073-.0266.0215-.0418.029-.0153.0075-.031.0131-.0462.0198-.0153.0066-.0329.0073-.0488.0137-.0159.0065-.0307.0129-.0464.0191-.0157.0063-.0316.0108-.0473.0166s-.0311.0118-.047.0174c-.0159.0056-.0307.0131-.0466.0183-.0159.0051-.0305.0146-.0464.0195-.0159.005-.0323.0088-.0484.0133-.0161.0045-.0339.0026-.05.0067l-.0486.012c-.0163.0039-.0318.0106-.0481.0142-.0163.0037-.032.0105-.0486.0135-.0165.003-.0335.0026-.05.0054-.0166.0028-.0329.0065-.0494.0086-.0166.0022-.0329.0032-.0499.0052-.017.0019-.0329.0038-.0498.0055-.017.0018-.0329.0024-.0501.0037-.0172.0013-.0335 0-.0503.0015-.0167.0015-.0328.0071-.0498.0075-.017.0005-.0335-.0038-.0503-.0038-.0167 0-.0333-.0022-.05-.0026-.0168-.0005-.0335.0026-.0503.0019-.0168-.0006-.0329-.0054-.0498-.0064-.017-.0011-.0338.0032-.0505.0019-.0168-.0013-.0333-.0024-.0501-.0041-.0167-.0017-.0329-.0047-.0494-.0069-.0165-.0021-.0329-.0038-.0494-.0064-.0165-.0026-.0324-.0082-.0494-.0112-.017-.003-.0322-.0094-.0486-.0127-.0163-.0032-.0341 0-.0507-.0023-.0165-.0024-.0331-.0073-.049-.011-.0159-.0036-.0315-.0114-.0479-.0152-.0163-.0039-.0328-.0056-.0494-.0099-.0165-.0043-.0318-.0097-.0479-.0144-.0161-.0047-.0324-.0077-.0485-.0127-.0162-.0049-.0305-.0135-.0464-.0189-.0159-.0054-.0329-.0064-.049-.0118-.0161-.0054-.0288-.0185-.0445-.0241-.0157-.0056-.0346-.0028-.0503-.0088s-.0288-.0176-.0444-.024c-.0157-.0065-.0303-.014-.0458-.0215-.0155-.0075-.0329-.0082-.0481-.0153-.0153-.0071-.0282-.0187-.043-.0258-.0148-.0071-.0294-.0154-.0447-.0227-.0152-.0073-.0339-.0063-.0494-.0138s-.0288-.0172-.043-.0247c-.0141-.0075-.029-.0165-.0429-.0243-.014-.0077-.0269-.0204-.0417-.0286-.0148-.0081-.0301-.0141-.0447-.0214-.0146-.0073-.0316-.0121-.046-.0205-.0144-.0083-.0296-.0154-.0429-.024-.0134-.0086-.0269-.0202-.0413-.029-.0144-.0088-.0292-.0166-.0429-.0252-.0138-.0086-.0293-.0165-.043-.0255-.0138-.0091-.0236-.0247-.0376-.0342-.014-.0094-.029-.017-.043-.0264-.0139-.0095-.0294-.0159-.0429-.0256-.0136-.0097-.0286-.0174-.043-.0271-.0144-.0096-.0234-.0247-.037-.0345-.0135-.0099-.029-.017-.0429-.0271-.014-.0101-.0288-.0174-.043-.0275-.0142-.0101-.0232-.0247-.0365-.035l-.04-.0308c-.0133-.0103-.0266-.0187-.0399-.0294-.0226.0107-.0065.0159-.0082.0488 0 .0139.0067.0311.0056.0507 0 .0152-.0047.0318-.0056.05-.0009.0183.0019.0327 0 .0503-.0019.0176-.0082.0322-.0097.0494-.0015.0172-.0043.0327-.0051.0499-.0009.0172.0019.0329 0 .0503-.002.0174-.0028.0328-.0039.05-.0011.0172 0 .0329-.0021.0503-.0022.0174.0017.0333 0 .0505-.0018.0172-.0093.0329-.0106.0494-.0013.0165.0024.0335 0 .0505-.0023.017-.0056.0329-.0068.0498-.0013.017.0015.0336 0 .0505-.0016.017-.0086.0329-.0099.0494-.0013.0166.0058.034.0043.0507-.0015.0168-.0103.0327-.0118.0495-.0016.0167.0038.0337.0023.0507-.0015.0169-.0071.0328-.0081.0494-.0011.0165-.0026.0329-.0041.05-.0015.0172-.0017.0329-.0033.0501-.0015.0172-.0045.0329-.006.0499-.0015.0169-.0081.0328-.0098.0494-.0018.0165.0049.0339.0034.0509s-.0103.0324-.012.0494c-.0018.017.0049.034.0032.0509-.0017.017-.0125.0323-.0142.0494-.0017.0172-.0037.0329-.0054.0495-.0017.0165 0 .0333-.0023.05-.0024.0168-.0043.0329-.0063.0494-.0019.0166-.0015.0329-.0032.0501-.0017.0172-.0049.0329-.0066.0494-.0018.0166-.0078.0329-.0099.0494-.0022.0166-.0022.0329-.0043.0499-.0022.017.0013.0337 0 .0503-.0013.0165-.0017.0333-.0039.05-.0021.0168-.0073.0329-.0094.0494-.0022.0166-.0067.0329-.0089.0495-.0021.0165.0022.0339 0 .0507-.0021.0167-.0107.0322-.0128.0489-.0022.0168-.0026.0336-.0048.0501-.0021.0166-.0023.0335-.0047.0501-.0024.0165-.0118.0322-.0142.0487-.0023.0166 0 .0338-.0015.0503-.0015.0166-.0028.0329-.0051.0499-.0024.0169-.0069.0328-.0093.0494-.0023.0165-.0032.0333-.0056.0498-.0023.0166-.0107.0323-.0131.0488-.0023.0165-.0056.0329-.0081.0494-.0026.0166-.0039.0329-.0067.0494-.0028.0166.0017.0342 0 .0507-.0017.0166-.0152.0316-.018.0482-.0028.0165.0045.0348.0017.0513-.0028.0166-.0058.0329-.0082.0494-.0023.0166-.0152.0316-.018.0479-.0028.0164-.0017.0338-.0048.0503-.003.0166-.0012.034-.0042.0505-.0031.0166-.0078.0329-.011.0494-.0032.0166-.0105.0323-.0135.0488-.003.0165-.005.0329-.0082.0498-.0032.017-.0065.0329-.0097.0495-.0032.0165-.0105.0322-.0139.0487-.0035.0166-.005.0329-.0082.0495-.0032.0165-.0043.0335-.0075.05-.0032.0166-.0054.0329-.009.0494-.0037.0166-.0116.032-.0153.0484-.0036.0163-.0043.0335-.0082.0498-.0038.0163-.009.0325-.0126.0488-.0037.0163-.0067.0329-.0106.0494-.0038.0166-.0021.0342-.006.0505-.0038.0163-.0165.0307-.0202.0471-.0036.0163-.0077.0328-.0118.0494-.0041.0165-.0082.0328-.0122.049-.0041.0161 0 .0348-.0039.0511-.0039.0163-.0135.0314-.0176.0475-.0041.0161-.0114.0318-.0157.0481-.0043.0163-.0067.0329-.011.0494-.0043.0166-.007.0329-.0116.0494-.0045.0166-.0124.0316-.0171.0477-.0048.0161-.0065.0329-.0114.0494-.005.0166-.0112.0318-.0159.048-.0048.0161-.0082.0328-.0133.0487-.0052.0159-.0097.0323-.0149.0482-.0051.0159-.0154.0305-.0215.0462-.006.0156-.0027.0345-.0081.0502-.0054.0157-.0151.0305-.0215.0462-.0065.0157-.0067.0335-.0122.0494-.0056.0159-.0166.0297-.0215.0454-.005.0157-.0103.032-.0166.0475-.0062.0154-.0131.0309-.0193.0464-.0062.0154-.014.0305-.0202.0459-.0062.0155-.0065.0338-.0129.0495-.0064.0156-.0153.0303-.0215.0457-.0062.0155-.0202.028-.027.043-.0069.015-.0108.0322-.0181.0473-.0073.015-.011.032-.0185.047-.0075.0151-.0144.0305-.0215.0454-.007.0148-.0165.0294-.0242.0429-.0078.0136-.0194.0277-.0275.043-.0082.0153-.0153.0301-.0237.0443-.0083.0141-.0165.0294-.0251.0429-.0086.0136-.0195.0275-.0286.0413-.009.0137-.0142.0309-.0236.0447-.0095.0137-.0236.0247-.0335.0378-.0099.0131-.0198.0301-.0299.043-.0247-.0026-.0069-.0185-.0232-.0469-.0069-.012-.0159-.0262-.0255-.043-.0076-.0131-.017-.0268-.0258-.0429-.0088-.0161-.0123-.0301-.0215-.0456-.0093-.0154-.0166-.0279-.0247-.0429-.0082-.0151-.0194-.0267-.0277-.0417-.0084-.0151-.0116-.031-.0202-.046s-.0215-.0262-.0288-.0413c-.0073-.015-.0099-.032-.0183-.047-.0084-.0151-.018-.0277-.0262-.043-.0082-.0152-.0215-.0264-.0286-.0412-.0071-.0149-.0118-.0312-.0199-.046-.0082-.0148-.0159-.029-.0241-.043-.0082-.0139-.0165-.0286-.0241-.043-.0075-.0143-.0137-.0298-.0214-.0449-.0078-.015-.0215-.0262-.0286-.0412-.0071-.0151-.0146-.0297-.0215-.0445-.0069-.0148-.0146-.0296-.0215-.0445-.0069-.0148-.0135-.0303-.0215-.0451-.0079-.0148-.0144-.0296-.0215-.0445-.007-.0148-.0184-.0277-.026-.0429-.0075-.0153-.0165-.0288-.024-.043-.0075-.0142-.0118-.0312-.0196-.046-.0077-.0148-.0178-.0281-.0253-.0429-.0075-.0149-.0099-.0323-.0174-.0471-.0075-.0148-.0153-.0294-.0228-.0445-.0075-.015-.0195-.0273-.0271-.0429-.0075-.0157-.0066-.0338-.0141-.0488-.0076-.0151-.0215-.0269-.0282-.0417-.0066-.0148-.0142-.0301-.0215-.0451-.0073-.0151-.0124-.031-.0197-.046-.0073-.015-.0136-.0303-.0215-.0453-.008-.0151-.0142-.0301-.0215-.0452-.0073-.015-.0133-.0305-.0215-.0455-.0081-.015-.0159-.0292-.023-.0443l-.0214-.0453c-.0071-.015-.0179-.0284-.0248-.043-.0068-.0146-.0103-.032-.0174-.047-.007-.0151-.0122-.031-.0193-.0462-.0071-.0153-.017-.0288-.0241-.0441-.007-.0152-.0111-.0315-.018-.0466-.0069-.015-.0215-.0273-.0273-.043-.0058-.0156-.0105-.0318-.0174-.0468-.0069-.015-.0161-.0292-.023-.0445-.0068-.0152-.0148-.0298-.0215-.0449-.0066-.015-.0152-.0296-.0214-.0449-.0063-.0152-.0101-.032-.0166-.0472-.0064-.0153-.0122-.031-.0191-.0462-.0069-.0153-.0153-.0297-.0215-.0449-.0062-.0153-.0103-.0318-.017-.0471-.0066-.0153-.0148-.0299-.0214-.0453-.0067-.0155-.0078-.0329-.0142-.0484-.0065-.0154-.0157-.0296-.0215-.0449-.0058-.0152-.011-.0316-.0174-.047-.0065-.0155-.0215-.0273-.0279-.043-.0065-.0157-.0099-.032-.0166-.0475-.0066-.0155-.0116-.0314-.0178-.0468-.0062-.0155-.011-.0316-.0174-.0471-.0065-.0154-.0088-.0324-.0151-.0479-.0062-.0155-.018-.0288-.024-.0443-.006-.0154-.0075-.0328-.0135-.0485-.0061-.0157-.0192-.0284-.0252-.043-.006-.0146-.0049-.0339-.0109-.0494-.0061-.0155-.014-.0305-.0198-.0462-.0058-.0157-.0125-.0311-.0185-.0466-.006-.0155-.0099-.032-.0157-.0477-.0058-.0157-.0178-.0292-.0234-.0449-.0056-.0157-.0103-.032-.0159-.0477-.0056-.0157-.0058-.0335-.0114-.0494-.0056-.0159-.0156-.0301-.0214-.0458-.0058-.0157-.0119-.0314-.0175-.0473-.0055-.0159-.006-.0333-.0113-.0494-.0054-.0161-.0159-.0301-.0215-.046-.0056-.0159-.0073-.0328-.0125-.0487-.0051-.0159-.0081-.0325-.0135-.0484-.0054-.0159-.0155-.0303-.0215-.0462l-.0148-.0479c-.005-.0159-.0093-.0322-.014-.0483-.0047-.0161-.0049-.0335-.0099-.0494-.0049-.0159-.0103-.0321-.0148-.048-.0045-.0159-.0142-.0307-.0187-.0468-.0045-.0161-.0081-.0324-.0131-.0485-.0049-.0162-.0067-.0329-.0112-.0495-.0045-.0165-.012-.0315-.0165-.0477-.0045-.0161-.0099-.0322-.0142-.0483-.0043-.0161-.0023-.034-.0064-.0503-.0041-.0163-.011-.0318-.0151-.0481-.004-.0163-.0077-.0329-.0116-.0488-.0038-.0159-.0103-.032-.0139-.0483-.0037-.0164-.0103-.032-.014-.0484-.0036-.0163-.0032-.0337-.0067-.05-.0034-.0164-.0027-.0338-.006-.0501-.0032-.0163-.0092-.0324-.0122-.0488-.003-.0163-.0056-.0328-.0082-.0494-.0026-.0165-.0036-.0333-.0064-.0494-.0028-.0161-.0129-.0318-.0155-.0483-.0026-.0166.0024-.0344 0-.0507-.0024-.0164-.0103-.0325-.0127-.0488-.0023-.0163-.0015-.0335-.0036-.0501-.0022-.0165-.0114-.0324-.0136-.0487-.0021-.0164-.0027-.0336-.0045-.0501-.0017-.0166-.0038-.0329-.0053-.0499-.0015-.0169 0-.0337 0-.0502 0-.0166-.005-.0329-.0058-.0499-.0009-.0169.0032-.0337.0025-.0503-.0006-.0165-.0047-.0333-.0051-.0498-.0004-.0165-.0028-.0335-.003-.0501-.0002-.0165 0-.0337 0-.05 0-.0163.0096-.0329.0101-.0499.0004-.0169-.002-.0335 0-.05.0019-.0166-.0022-.0338 0-.0503.0021-.0165.0034-.0335.0051-.0499.0017-.0163.0063-.0328.0082-.0494.0019-.0165.0017-.0337.0043-.05.0026-.0164.006-.0329.009-.0494.003-.0166.0127-.0316.0166-.0477.0038-.0162.0053-.0329.0096-.0495.0043-.0165.009-.0322.0138-.0481.0047-.0159.0066-.0329.0122-.0485.0056-.0157.0144-.0303.0215-.0458.0071-.0155.0135-.0305.0202-.0458.0067-.0152.0099-.0322.0176-.047.0077-.0149.0166-.029.0247-.043.0082-.014.0153-.0299.0247-.043.0095-.0131.0185-.0279.0284-.0412.0099-.0133.0247-.0232.0352-.0361.0105-.0129.0189-.0277.0305-.04.0116-.0122.0258-.0215.0378-.0329.0121-.0113.0228-.0247.0357-.035.0129-.0103.0284-.0174.043-.0273.0146-.0098.0272-.0187.0412-.0277.014-.009.0243-.024.0389-.0324.0146-.0084.0301-.0144.0453-.0215.0153-.0071.0353-.0099.0507-.0165.0121-.0215-.006-.0198-.0092-.052-.0015-.0138-.0082-.0301-.0101-.0495-.0013-.015 0-.0318-.0022-.0494-.0021-.0176 0-.0324 0-.05 0-.0177.0026-.0329.0015-.0501-.001-.0172-.0042-.0324-.0051-.0494-.0009-.017-.0062-.0329-.0069-.0494-.0006-.0166.0067-.0329.0062-.0501-.0004-.0172-.007-.0329-.0075-.0494-.0004-.0166-.0034-.0329-.0034-.0494 0-.0166.0047-.0329.0047-.0499 0-.0169-.0019-.0328-.0017-.0498.0002-.017.0056-.0329.006-.0494.0004-.0166-.0036-.0329-.0032-.0499.0004-.017-.0022-.0329-.0015-.05.0006-.0172.0082-.0329.009-.0495.0009-.0165.0022-.0328.0032-.0494.0011-.0165 0-.0329 0-.05 0-.0172.0056-.0329.0071-.0495.0015-.0165 0-.0333.0013-.05.0013-.0168 0-.0335.0019-.0501.002-.0165.0104-.0322.0123-.0488.0019-.0165 0-.0337.0017-.0502.0017-.0166.0123-.0318.0148-.0484.0026-.0165 0-.0339.002-.0502.0019-.0164.0032-.0329.0062-.0495.003-.0165.0142-.0311.0176-.0474.0035-.0164.0019-.0338.0056-.0499.0037-.0161.0043-.0329.0082-.0494.0038-.0166.0165-.0301.0214-.0462.005-.0161.0024-.0339.0071-.0498.0048-.0159.0091-.0323.014-.0482.0049-.0159.0071-.0328.0125-.0487.0053-.0159.018-.0293.0236-.045.0056-.0156.0127-.0307.0187-.0464.006-.0156.0049-.0341.0114-.0494.0064-.0152.0146-.0303.0215-.0453.0068-.0151.0182-.0284.0255-.043.0073-.0146.0129-.0309.0215-.0455.0086-.0146.0204-.0269.0288-.0413.0084-.0144.0187-.0275.0275-.0412.0088-.0138.0127-.0316.0215-.0454.0088-.0137.023-.0247.0328-.0378.0099-.0131.0196-.0271.0303-.0397.0108-.0127.0179-.0288.029-.0413.0112-.0124.0232-.0241.0351-.0359.0118-.0118.0275-.0195.0399-.0305.0125-.0109.023-.0247.0361-.0348.0131-.0101.0294-.0161.043-.0258.0135-.0096.0266-.0197.0406-.0285.0139-.0089.0294-.0153.043-.0235.0135-.0081.0257-.0214.0408-.0296.015-.0082.0296-.0153.0453-.0215.0157-.0062.0296-.0105.0455-.0161.0153-.0198.0061-.015.0106-.0471.0019-.0137.0045-.0303.0075-.0494.0021-.0148.0013-.0316.0043-.0494.003-.0178.0099-.0307.0129-.0479.003-.0172-.0011-.0329.0019-.0501s.0112-.0309.0146-.0477c.0035-.0167.0054-.0322.0088-.0487.0035-.0166.0073-.0318.0108-.0486.0034-.0168.0058-.0322.0094-.0488.0037-.0165.0082-.0318.0121-.0483.0038-.0166.0088-.0316.0128-.0481.0041-.0166.0056-.0327.0097-.049.0041-.0164.0125-.031.0166-.0473.004-.0163.0055-.0329.0098-.0488.0043-.0159.0028-.0335.0076-.0494.0047-.0159.0165-.0296.0214-.0457.005-.0162.0078-.0323.0125-.0484.0047-.0161.0114-.0311.0165-.047.0052-.0159.0082-.0318.0131-.0477.005-.0159.0043-.0329.0093-.049.0049-.0161.0092-.0316.0146-.0475.0054-.0159.0178-.0286.0232-.0445.0054-.0159.0062-.0329.0118-.0483.0056-.0155.0159-.0292.0215-.0449.0056-.0157.0082-.0323.014-.0477.0058-.0155.0071-.0329.0131-.0482.006-.0152.0165-.029.0215-.0446.0049-.0157.0088-.0321.0152-.0475.0064-.0155.0159-.0293.0215-.0447.0056-.0155.0082-.0322.015-.0475.0069-.0153.0144-.0299.0215-.0451.0071-.0153.0178-.0282.0247-.043.0069-.0148.009-.0322.0159-.0475.0069-.0152.0125-.0307.0198-.0457.0073-.0151.0159-.0293.0232-.0441.0073-.0148.02-.0271.0275-.0419s.0109-.0316.0187-.0464c.0077-.0148.0172-.0284.0247-.043.0075-.0146.0165-.029.0243-.0429.0077-.014.0158-.0293.024-.043.0082-.0138.0125-.0312.0215-.0456.009-.0143.0215-.0255.0305-.0399.009-.0144.0178-.0282.0264-.043.0086-.0148.0172-.0283.0262-.043.0091-.0146.0172-.0285.0263-.0429.009-.0144.0195-.0269.0287-.0409.0093-.0139.0153-.0296.0247-.0429.0095-.0133.0241-.0237.0338-.0374.0096-.0138.018-.0277.0281-.0413.0101-.0135.0151-.03.0252-.0429l.0302-.0398c.0104-.0131.0256-.0215.0361-.035.0106-.0135.0155-.0303.0262-.043.0108-.0126.0232-.024.034-.0365.0107-.0125.0198-.0269.0307-.0393.011-.0125.0271-.0202.0385-.0329s.018-.0286.0294-.0406c.0114-.012.0284-.0189.04-.0307.0116-.0118.0214-.0247.0337-.0368.0122-.012.023-.024.035-.0354.012-.0114.0226-.0247.0348-.0357.0123-.0109.0243-.0228.0367-.0339.0125-.0112.0282-.0185.0409-.0292.0126-.0108.0204-.0275.0328-.0383.0125-.0107.0316-.014.0445-.0247.0129-.0107.0241-.0232.0372-.0329.0131-.0096.0279-.018.0412-.0279.0133-.0099.0215-.0258.0359-.0355.0144-.0096.0286-.0174.043-.0266.0144-.0092.0303-.0142.0442-.0234.014-.0093.028-.0178.043-.0267.015-.0088.0271-.0193.0412-.0277.0142-.0084.0275-.0187.043-.0268.0155-.0082.0284-.0174.043-.0252.0146-.0077.0303-.0135.0451-.0215.0148-.0079.0288-.0169.043-.0242.0141-.0073.0296-.0149.0449-.0215.0152-.0067.0298-.0146.0451-.0215.0152-.0069.0324-.0082.0479-.0148.0155-.0067.0305-.0131.046-.0194.0154-.0062.0285-.0184.0442-.0242.0157-.0058.034-.0037.0494-.0093.0155-.0056.0305-.0133.0464-.0185.0159-.0051.0308-.0135.0467-.0184.0158-.005.0311-.0119.0474-.0166.0164-.0047.0329-.0056.0494-.0099.0166-.0043.0318-.0096.048-.0135.0161-.0039.0328-.0054.0494-.009.0165-.0037.0328-.0026.0494-.0058.0165-.0032.0322-.0082.0487-.011.0166-.0028.0329-.0045.0495-.0071.0165-.0026.0322-.0081.0487-.0105.0166-.0024.0329-.0024.0494-.0045l.0494-.0058c.0166-.0017.0325-.0082.049-.0099.0166-.0017.0329-.0032.0494-.0045.0166-.0013.0336.003.0503.0021.0168-.0008.0329-.0101.0494-.0107.0166-.0006.0329-.0026.0499-.003.0169-.0004.0335.0082.0502.0082.0168 0 .0329-.0041.0499-.0041s.0367.0038.0537.0041c.0195-.0157 0-.0215.0088-.0525.0039-.0135.0075-.0296.0133-.0479.0045-.0144.017-.0277.0228-.0449.0058-.0172.0082-.0311.0144-.0475.0062-.0163.0116-.0301.0178-.0464.0063-.0163.0108-.0307.0172-.0466.0065-.0159.0088-.0318.0155-.0475.0066-.0157.0193-.0273.0264-.043.0071-.0156.0097-.0318.017-.047.0073-.0153.0137-.0299.0215-.0451.0077-.0153.0107-.0316.0184-.0467.0078-.015.0153-.0294.0232-.0442.008-.0148.0157-.0292.0241-.043.0084-.0137.0215-.0262.0294-.0406.008-.0144.0166-.0288.0256-.043.009-.0141.0195-.0268.0288-.0412.0092-.0144.0215-.0258.0307-.0395.0092-.0138.012-.0323.0215-.0458.0094-.0135.0215-.0258.0316-.0389.0101-.0131.0262-.0215.0367-.0346.0105-.0131.0185-.0277.0294-.0406.011-.0129.0237-.0234.0348-.0357.0112-.0122.0215-.0247.0338-.0365.0122-.0118.0184-.0286.0303-.0404.0118-.0118.0283-.0185.0406-.0296.0122-.0112.0199-.0275.0324-.0385.0125-.011.0254-.0215.0382-.0322.0129-.0108.0275-.0189.0409-.029.0133-.0101.0251-.0215.0386-.0318.0136-.0103.0269-.02.0406-.029.0138-.0091.0329-.0106.0469-.0194.0139-.0088.0247-.0236.0393-.0318.0146-.0081.0311-.0122.046-.0197.0148-.0076.0283-.0177.0429-.0247.0146-.0071.0305-.0136.046-.0198.0155-.0062.0312-.0116.0471-.0174.0159-.0058.0328-.006.0489-.0112.0162-.0051.0314-.0105.0475-.015.0161-.0045.0307-.0136.0471-.0176.0163-.0041.0324-.0067.049-.0101.0165-.0035.0324-.0067.0494-.0095.0169-.0028.0328-.0062.0494-.0082.0165-.0019.0328 0 .05-.0015s.0329-.0043.0494-.0051c.0166-.0009.0329 0 .0499-.0013s.0329 0 .0498 0c.017 0 .0329.0017.0499.0026.0169.0008.0331.0023.0494.0038.0163.0015.0329.0037.0494.0056.0165.002.0335 0 .0503.0015.0167.0015.0318.0112.0483.0142.0165.003.0322.0077.0488.0112.0165.0034.0339 0 .0505.0028.0165.0028.0328.0056.0494.0096.0165.0041.032.0093.0481.0138.0161.0045.0296.0165.0458.0215.0161.0049.0328.0064.0487.0118.0159.0054.031.012.0469.0176.0159.0056.0328.006.0487.012.0159.0061.0286.0185.0443.0248l.0462.0191c.0157.0064.0311.0116.0466.0182.0155.0067.0329.0082.0481.0151.0153.0069.0292.0159.0445.0232.0152.0073.0307.0127.0457.0202.0151.0075.0306.0135.0454.0215l.0444.0232c.0149.0079.0256.0215.0404.0305.0149.009.0329.0099.0471.0182.0142.0084.0243.0241.0387.0325l.0429.0247c.0144.0082.0284.0165.043.0256.0146.009.0318.0113.046.0202.0141.0088.0275.0184.0412.0275.0138.009.0267.0197.0406.029.014.0092.0256.0214.0393.0309l.0413.0284c.0137.0094.0296.0152.043.0247.0133.0094.0257.0215.0395.0307.0137.0092.0255.0215.0389.0314.0133.0098.0281.0176.0416.0277.0136.0101.0241.0234.0374.0335.0133.0101.0303.015.043.0253.0127.0104.0247.0226.0378.0329s.0241.0232.0372.0338c.0131.0105.0273.0191.0404.0296.0131.0105.0251.0215.0382.032.0131.0105.0247.0215.0374.0329.0127.0114.0307.0148.0429.0256.0123.0107.023.0247.0357.0352.0127.0105.0271.0195.0398.0307.0126.0112.0214.0262.0339.0374.0125.0112.0277.0191.0402.0303.0124.0112.0215.026.0339.0372.0125.0111.0271.0197.0396.0311.0124.0114.0262.0215.0386.0318.0125.0103.0237.0234.0361.0348l.0365.0346c.0123.0116.0198.0275.032.0393.0123.0119.0258.0215.0381.0329.0122.0114.0264.0215.0384.0325.0121.0109.0198.0275.0318.0395.0121.012.0254.0215.0374.0337.012.0123.0269.0176.0389.0297.0243.0056.0144-.0054.0458-.0146.0133-.0039.0296-.0082.0481-.0131.0146-.0039.0313-.0063.049-.0108.0176-.0045.0302-.0116.0477-.0159.0174-.0043.0328-.0017.05-.0056.0172-.0038.0324-.0045.0494-.0081.017-.0037.0316-.0091.0486-.0125.0169-.0034.0328-.0039.0494-.0069.0165-.003.0318-.0099.0485-.0129.0168-.003.0329-.0045.0495-.0075.0165-.003.032-.0082.0487-.0107.0168-.0026.0329-.0041.0494-.0067l.0494-.0073c.0166-.0024.0325-.0067.0495-.0088.0169-.0022.0328-.0024.0494-.0043.0165-.0019.0335.0015.0502 0 .0168-.0015.0323-.0103.049-.0118l.0494-.0045c.0166-.0015.0329 0 .0499-.0022.0169-.0021.0328-.0019.0498-.0032l.0499-.0032c.0165 0 .0328-.006.0494-.0069.0165-.0009.0328.003.05.0024.0172-.0007.0329-.0071.0494-.0076.0166-.0004.0329.0024.0501.002.0172-.0005.0329 0 .0501 0 .0171 0 .0328.0045.05.0045s.0329-.0058.0499-.0056c.0169.0002.0328.0058.0498.0062.017.0005.0335-.0073.0503-.0068.0167.0004.0328.0073.0494.0081.0165.0009.0329.0039.0494.0045.0165.0007.0329.0024.0498.0035.017.001.0336-.0039.0503-.0028.0168.0011.0329.0036.0494.0049.0166.0013.0329.0017.0499.0032l.0494.005c.0165.0015.0337-.0015.0502 0 .0166.0015.0329.0045.0495.0064.0165.002.032.0118.0487.014.0168.0021.0335 0 .0503.0024l.0494.0077c.0166.0024.0335 0 .0501.0034.0165.0035.0328.0045.0494.0073.0165.0028.0311.0149.0477.0179.0165.003.0339 0 .0502.0032.0164.0032.0323.0088.0486.012l.0494.0103c.0166.0035.0329.0063.0494.0099.0166.0037.0318.0103.0481.0142.0164.0039.0329.0067.049.0105.0161.0039.0338.0024.0501.0065.0163.0041.0316.0109.0477.0152.0161.0043.0318.0101.0479.0146.0161.0046.0314.0112.0477.0157.0163.0045.0322.0088.0481.0136.0159.0047.0316.0109.0475.0159.0159.0049.0348 0 .0507.0058.0159.0058.0294.0174.0453.0225.0159.0052.0316.011.0475.0166.0159.0056.0337.0047.0494.0103s.0312.0118.0471.0176c.0159.0058.0294.0165.0449.0226.0154.006.0315.0109.047.0171.0155.0063.0309.0127.0464.0187.0155.0061.0312.0121.0464.0185.0153.0065.0297.0157.0449.0215.0153.0058.0329.0082.0479.0153.0151.007.0292.0165.0445.0234.0153.0068.0307.0129.046.02.0152.007.0307.0131.0457.0202.0151.007.0325.0094.0475.0169.015.0075.0294.0161.0443.0237.0148.0075.026.0214.0412.03.0153.0086.0322.0106.0471.0185.0148.008.0288.017.0429.0247.0142.0078.032.011.0469.0191.0148.0082.0264.0215.0412.0295.0148.0079.0305.0139.0449.0215.0144.0075.0292.0165.043.0247.0137.0081.0268.0202.0412.029.0144.0088.031.0133.0454.0215.0144.0081.0255.0215.0395.0313.014.0099.0273.0194.0412.0284.014.009.0329.0114.0467.0215.0137.0101.0264.0215.0404.0301.0139.0086.0268.0199.0406.0296.0137.0097.0268.0198.0406.0294.0137.0097.0277.0187.0412.0284.0135.0097.0271.0193.0406.0292.0135.0099.0254.0215.0387.0318l.0397.0303c.0133.0101.0241.0232.0372.0335.0131.0104.0299.0159.043.0265.0131.0105.0236.0236.0367.0341.0131.0106.0279.0185.0412.029.0134.0106.0248.0215.0374.0329.0127.0114.0286.0176.0413.0286.0127.0109.0215.0273.0328.0382.0114.011.0254.0215.0379.0329.0124.0114.0247.0215.0376.0329.0128.0114.0247.0215.0369.0337.0123.0122.0273.0198.0393.0312.0121.0113.0215.0247.0344.0365.0129.0118.0284.0185.0404.0301.012.0116.017.0303.029.0429.012.0127.0273.0198.0393.0316.012.0118.0215.0256.0329.0376s.0266.0215.0382.0329.0228.0247.0344.0365c.0116.0118.0247.0215.0365.0346.0118.0131.0174.0292.0288.0417.0114.0124.0253.0215.0365.0344.0112.0129.0215.026.032.0386.0106.0127.0194.0275.0303.04.011.0125.0241.0232.035.0359.011.0127.0215.0262.0316.0389.0101.0126.0215.0258.0318.0386.0103.0129.0215.0254.0325.0383.0109.0129.0227.0247.0333.0376.0105.0129.0242.0232.0348.0365.0105.0133.0204.0267.0307.0398s.017.029.0273.0429c.0103.014.0215.026.0311.0394.0097.0133.0181.0281.0282.0416.0101.0136.0214.0256.0313.0391.0099.0136.0159.0297.0258.043l.0294.0406c.0099.0136.0256.0228.0353.0365.0096.0138.0182.0282.0277.0419.0094.0138.0195.0271.029.0413.0094.0142.0215.0264.0299.0404.0083.0139.0174.0286.0266.043.0092.0143.0131.0313.0215.0453.0084.014.024.0241.0328.0382.0089.0142.017.0288.026.043.0091.0142.017.0288.026.043.0091.0142.0153.0296.0241.0429.0088.0134.023.0248.0316.0394.0086.0146.0182.0279.0268.0429.0086.0151.0097.0329.0183.0475.0086.0146.0174.0284.026.043.0086.0146.0172.0286.0256.043.0083.0144.0191.0275.0272.0429.0082.0155.0215.0262.0299.0406.0084.0144.0092.0329.0176.0477.0084.0149.0215.0256.0305.0404.0091.0149.0088.0329.0166.0482.0077.0152.0157.0294.0236.0442.0079.0148.0165.029.0247.043.0082.014.0157.0296.0234.0445.0078.0148.0239.0251.0316.0401.0077.0151.0088.0329.0165.0482.0078.0152.0183.0281.0258.0429.0075.0149.0114.0318.0187.0469.0073.015.0198.0277.0271.0429.0073.0153.0103.0323.0176.0473.0073.0151.0165.0295.0234.0447.0069.0153.0153.0297.0215.0449.0062.0153.0097.0325.0165.0477.0069.0153.0153.0297.0215.0451.0063.0155.0151.0297.0215.0451.0065.0155.0114.0316.0181.0469.0066.0152.0152.0296.0214.0451.0063.0155.0166.0294.023.0447.0065.0153.0172.029.0237.0445.0064.0154.0062.0337.0126.0494.0065.0157.0114.0316.0179.047.0064.0155.0165.0297.0215.0452.0049.0154.0152.0298.0214.0455.0063.0157.0166.0294.0228.0451.0062.0157.0045.0344.0108.0501.0062.0157.0174.0292.0236.0449.0062.0157.0075.0329.0137.0488.0063.0159.0144.0303.0215.0459.0071.0157.014.0306.0198.0462.0058.0157.0109.0316.017.0475l.0176.0473c.0058.0157.012.0314.0178.0473.0058.0159.0097.0322.0153.0481.0055.0159.0156.0301.0214.046s.0082.0328.014.0485.0082.0329.0135.0488c.0054.0159.0189.029.0247.0449s.0065.0335.0121.0494c.0056.0159.0099.0346.0152.0507.0215.0116.0196-.0051.0509-.0081.0142-.0013.0306-.0076.0495-.0082h.0502c.0181 0 .0325.0036.0499.0049s.0322.0065.0494.0091c.0172.0025.0329.0032.0494.0068.0165.0037.032.0076.0485.0121.0166.0045.0316.0094.0477.015.0162.0056.0329.0065.0488.0127.0159.0062.0269.0215.043.0286.0161.007.029.015.0429.0234.014.0084.0282.0165.043.0262.0148.0097.0329.0109.0462.0215.0133.0105.0215.0258.0348.0367.0133.011.0241.0215.0363.0342.0123.0127.0282.0187.0398.0311.0116.0125.0214.0256.0322.0385.0107.0129.0215.0256.0313.0391.0099.0135.0166.0288.026.043.0095.0141.0187.0273.0273.0419.0086.0146.0159.029.0239.0429.0079.014.0189.0275.0264.043.0075.0155.0099.0318.0165.0475.0067.0157.0159.029.0215.0449.0056.0159.0078.0324.0136.0483.0058.0159.0126.0305.0178.0469.0052.0163.0105.0313.0152.0477.0048.0163.0114.0311.0157.0477.0043.0165.003.0328.0069.0498.0039.017.0135.031.017.0475.0034.0165 0 .0339.0028.0505.0028.0165.0116.0316.0144.0483.0028.0168.0043.0329.0066.0494.0024.0166.005.0329.0071.0495.0022.0165-.0015.0337 0 .0505.0015.0167.0054.0328.0067.0494.0013.0165.003.0328.0041.0498.001.017.0038.0329.0047.0499.0008.0169.0071.0328.0077.0498.0007.017.0013.0329.0017.0503.0005.0174 0 .0329 0 .0503s.002.0328.002.0502-.002.0329-.0022.0501c-.0002.0172 0 .0329 0 .0503s-.0054.0329-.006.0498c-.0006.017 0 .0329-.0015.0501s-.0013.0329-.0021.05c-.0009.0172-.005.0329-.0063.0495-.0013.0165.0024.0335 0 .0502-.0023.0168-.0049.0329-.0064.0495-.0015.0165 0 .0328-.0026.05s0 .0335-.0015.0503c-.0015.0168-.0092.0324-.0112.0494-.0019.017-.0047.0329-.0066.0494-.002.0166-.005.0329-.0069.0494-.0019.0166-.0019.0329-.0041.0499-.0021.017 0 .0337-.0021.0503-.0022.0165-.0018.0333-.0043.05-.0026.0168-.0052.0329-.0078.0494-.0026.0166-.0053.0329-.0081.0495-.0028.0165-.0138.0315-.0166.0481-.0028.0165.0035.0344 0 .0509-.0034.0166-.0137.0314-.0165.0479-.0028.0166-.005.0329-.0082.0494-.0032.0166-.0066.0329-.0097.0495-.003.0165-.0049.0328-.0081.0494-.0032.0165-.0093.0318-.0125.0483-.0032.0166-.0026.0329-.0058.0494-.0032.0166-.0045.0329-.0081.0494-.0037.0166-.0123.0312-.0157.0475-.0035.0164-.0028.0329-.0063.0494-.0034.0166-.0094.0318-.0131.0482-.0036.0163 0 .0339-.0043.05-.0043.0161-.0066.0325-.0103.0488-.0036.0163-.0159.0303-.0197.0466-.0039.0164-.0052.0329-.0091.0494-.0038.0166-.0098.0316-.0139.048-.0041.0163-.003.0333-.0071.0494-.0041.0161-.014.0307-.0181.0468-.004.0161-.0062.0329-.0103.0488-.0041.0159-.0105.0316-.0146.0477-.0041.0161-.0069.0324-.0109.0488-.0041.0163-.0093.0318-.0136.0481-.0043.0163-.0017.0339-.006.05-.0043.0162-.0127.0312-.017.0471-.0043.0159-.0116.0312-.0161.0475-.0045.0163 0 .0344-.0049.0505-.005.0161-.0123.0311-.0166.047-.0042.0159-.0064.0329-.0109.0488-.0045.0159-.0097.0318-.0144.0479-.0047.0161-.0125.0309-.0172.0471-.0047.0161-.0082.0322-.0133.0481-.0052.0159-.011.0316-.0157.0475-.0047.0159-.009.032-.0137.0481-.0048.0161-.0082.0322-.0136.0481-.0053.0159-.0152.0301-.0202.0462-.0049.0161-.0034.0338-.0081.0494-.0048.0157-.0149.0303-.0198.0462-.0049.0159-.0118.0312-.0165.0471-.0048.0159-.0076.0329-.0127.0485-.0052.0157-.0133.0308-.0185.0467-.0052.0159-.0099.0318-.0152.0477-.0054.0159-.0035.0339-.0086.0498-.0052.0159-.0142.0305-.0194.0464-.0051.0159-.0081.0325-.0135.0484-.0054.0159-.0138.0305-.0191.0464-.0054.0159-.0037.0339-.0088.0498-.0052.0159-.0181.0292-.0235.0449-.0053.0157-.0075.0329-.0128.0486-.0054.0157-.0108.0316-.0166.0475-.0058.0159-.0092.0322-.0146.0479s-.014.0305-.0195.0464c-.0056.0159-.0106.0316-.0166.0475-.006.0159-.0114.0313-.017.0472-.0056.0159-.0088.0323-.0144.0482-.0055.0159-.0165.0296-.0214.0455-.005.0159-.0052.0337-.011.0494s-.014.0303-.0198.046c-.0058.0157-.0154.0297-.0214.0453-.0061.0157-.0067.0329-.0125.0488l-.0172.0471c-.0058.0157-.0125.0309-.0183.0466-.0058.0157-.0109.0316-.0165.047-.0056.0155-.0155.0297-.0215.0454-.006.0157-.0112.0313-.017.047-.0058.0157-.007.0329-.0131.0486-.006.0157-.0081.0324-.0141.0481-.0061.0157-.0149.0301-.0215.0458-.0067.0157-.0136.0305-.0196.0462s-.0129.0307-.0189.0464c-.006.0157-.0092.0322-.0154.0477-.0063.0155-.0166.0296-.0215.0451-.005.0155-.0088.0324-.0149.0481-.006.0157-.0156.0297-.0214.0454-.0058.0156-.0048.0339-.011.0494-.0062.0154-.0142.0303-.0202.046-.006.0156-.0103.0318-.0165.0474-.0063.0157-.0159.0297-.0215.0454-.0056.0157-.017.0292-.0232.0449-.0062.0157-.0071.0329-.0136.0488-.0064.0159-.0184.0287-.0247.0442-.0062.0155-.004.0344-.0105.0501-.0064.0157-.0144.0303-.0215.0457-.0071.0155-.0159.0297-.0215.0454-.0055.0157-.0156.0296-.0214.0453s-.0048.0344-.011.0499c-.0062.0154-.015.03-.0215.0457-.0064.0157-.0131.0307-.0193.0462-.0062.0155-.0131.0307-.0196.0462-.0064.0155-.0165.0294-.0229.0449-.0065.0155-.0065.0335-.0127.049-.0063.0155-.0194.0281-.0258.043-.0064.0148-.0133.0307-.0198.0462-.0064.0154-.006.0337-.0126.0494-.0067.0157-.0187.0283-.0254.043-.0067.0146-.0082.0328-.015.0483-.0069.0155-.0166.0294-.0232.0449-.0067.0155-.0101.0322-.0166.0477-.0064.0155-.017.0292-.0236.0447-.0067.0155-.0159.0296-.0226.0451-.0066.0155-.0071.0335-.0137.0494-.0067.0159-.0148.0303-.0215.0458-.0067.0155-.0142.0305-.0215.046l-.0202.0459c-.0066.0155-.0099.0323-.0165.0477-.0067.0155-.0138.0305-.0215.046-.0077.0155-.0193.0282-.0262.043-.0069.0148-.0093.0329-.0159.0481-.0067.0153-.0176.029-.0247.0445-.0071.0155-.0095.0329-.0166.0481-.0071.0153-.0133.0312-.0202.0464-.0068.0153-.0189.0284-.0257.043-.0069.0146-.0082.0329-.0153.0486-.0071.0156-.0118.0318-.0187.047-.0069.0153-.0215.0275-.0283.043-.0069.0155-.0095.0329-.0166.0481-.0071.0153-.0178.0292-.0247.0447-.0069.0155-.012.0318-.0189.0475s-.0135.0356-.0215.0513c-.0236-.0077.0071-.0215.0093-.0535 0-.0139-.0041-.0309-.003-.0502 0-.0151.0017-.0318.0027-.0499.0011-.018 0-.0324.0011-.0503.0011-.0178.0039-.0324.0045-.0498.0007-.0174.0026-.0329.0033-.0501.0006-.0172.0025-.0328.003-.05.0004-.0172-.0024-.0329-.002-.0503.0005-.0174.006-.0329.0065-.0499.0004-.0169-.0082-.0328-.0082-.0502s.0041-.0329.0043-.0499c.0002-.017 0-.0329.0011-.0498.0011-.017-.003-.0329-.003-.0501s.0032-.0329.0032-.05c0-.0172.0021-.0329.0021-.0501v-.1001c0-.0172-.0045-.0329-.0047-.0501-.0002-.0172.0043-.0333.0039-.0503-.0004-.0169-.0082-.0328-.0088-.0498-.0007-.017.0034-.0335.0028-.0503-.0007-.0167.0013-.0335 0-.0503-.0013-.0167-.0065-.0328-.0071-.0494-.0007-.0165-.0026-.0329-.0035-.0494-.0008-.0165.0063-.0337.0054-.0503-.0008-.0165-.0097-.0329-.0107-.0494-.0011-.0165-.0024-.0329-.0037-.0498-.0013-.017.002-.0338 0-.0503-.0019-.0166-.0051-.0329-.0064-.0494-.0013-.0166-.0026-.0329-.0041-.0501-.0015-.0172.0021-.0337 0-.0505-.0022-.0167-.0034-.0329-.0052-.05-.0017-.0172-.0043-.0329-.006-.0499-.0017-.017-.0112-.0324-.0131-.0494-.0019-.017.003-.0342 0-.0507-.003-.0166-.0064-.0329-.0082-.0494-.0017-.0166-.007-.0329-.0092-.0494-.0021-.0166-.0023-.0336-.0047-.0503-.0024-.0168-.0013-.0338-.0039-.0503s-.0034-.0335-.006-.0501c-.0026-.0165-.0088-.0328-.0116-.0494-.0028-.0165-.0092-.0324-.0122-.049-.0031-.0165 0-.0341-.0035-.0505-.0034-.0163-.0146-.0313-.0178-.0477-.0032-.0163.0021-.0348-.0015-.0513-.0037-.0165-.0159-.0312-.0196-.0475-.0036-.0163-.0075-.0329-.0114-.0494-.0038-.0165-.0081-.0329-.0124-.0488-.0043-.0159-.0082-.0328-.0125-.0487-.0043-.0159-.0021-.0344-.0066-.0505-.0045-.0162-.0067-.0329-.0116-.0495-.005-.0165-.0129-.0313-.0181-.0472-.0051-.0159-.0103-.032-.0157-.0477-.0053-.0157-.0161-.0301-.0214-.0458-.0054-.0157-.0123-.0311-.0181-.0466-.0058-.0155-.0112-.0316-.0174-.0471-.0062-.0154-.0125-.0311-.0191-.0464-.0067-.0152-.0067-.0339-.0136-.049-.0068-.015-.0165-.0294-.0236-.0444-.0071-.0151-.0215-.0271-.0283-.0419-.0069-.0149-.0082-.0335-.0166-.0479-.0084-.0144-.0215-.0265-.0298-.0407-.0084-.0141-.0166-.029-.0248-.0429-.0081-.014-.0158-.0292-.0236-.0443-.0077-.015-.0197-.0275-.0273-.043-.0075-.0154-.0058-.0341-.0126-.0494-.0069-.0152-.0138-.0303-.0205-.0457-.0066-.0155-.0201-.0277-.0266-.043-.0064-.0153-.0133-.0307-.0193-.0464-.006-.0157-.0037-.0342-.0095-.0501-.0058-.0159-.0144-.0303-.02-.0462-.0055-.0159-.0137-.0305-.0191-.0466-.0054-.0161-.0054-.0329-.0103-.0494-.0049-.0166-.0109-.0316-.0157-.0477-.0047-.0161-.0142-.0307-.0189-.0468-.0047-.0162-.0088-.0323-.0131-.0486-.0043-.0163-.0056-.0329-.0099-.0494-.0043-.0166-.0129-.0312-.0169-.0473-.0041-.0161-.0046-.0329-.0082-.0494-.0037-.0165-.009-.0322-.0129-.0486-.0039-.0163-.0097-.032-.0133-.0483-.0037-.0163-.003-.0335-.0067-.0498-.0036-.0164-.006-.0329-.0094-.0495-.0035-.0165-.0069-.0328-.0103-.0494-.0035-.0165-.0121-.0318-.0153-.0481-.0032-.0163-.0064-.0329-.0094-.0494-.0031-.0166 0-.0342-.0024-.0507-.0024-.0166-.006-.0329-.0088-.0494-.0028-.0166-.0024-.0336-.0054-.0501-.003-.0166-.0142-.0316-.0165-.0481-.0024-.0166 0-.034-.0033-.0505-.0032-.0166-.0073-.0329-.0098-.0494-.0026-.0166-.0076-.0329-.0099-.0495-.0024-.0165-.0058-.0328-.0082-.0494-.0023-.0165 0-.0339-.003-.0505-.003-.0165 0-.0339-.0021-.0507-.0022-.0167-.0054-.0328-.0076-.0498-.0021-.017-.0111-.0327-.0133-.0494-.0021-.0168.0041-.0344.0022-.0512-.002-.0167-.0116-.0328-.0136-.0494-.0019-.0165.0018-.0342 0-.0509-.0017-.0168-.0023-.0337-.004-.0505-.0018-.0168-.0031-.0337-.0048-.0505-.0017-.0168-.0088-.0329-.0105-.0494-.0017-.0166.0024-.0342 0-.0509-.0024-.0168-.0082-.0329-.0099-.0494-.0017-.0166.0024-.034 0-.0508-.0023-.0167-.0094-.0328-.0109-.0494-.0015-.0165.0032-.0339.0019-.0507-.0013-.0167-.0043-.0335-.0056-.05-.0013-.0166 0-.0338-.0024-.0503-.0023-.0166-.0081-.0329-.0096-.0494-.0015-.0166 0-.0338-.0022-.0503-.0021-.0165 0-.0337-.0021-.0503-.0022-.0165-.0041-.0335-.0052-.05-.001-.0166-.0038-.0336-.0047-.0501-.0009-.0165 0-.0337 0-.0503v-.0503c0-.0165-.0049-.0335-.006-.05-.0011-.0166-.0058-.0335-.0067-.0501-.0008-.0165.0065-.0341.0056-.0507-.0008-.0165-.0069-.0335-.0077-.0503-.0009-.0167.0026-.0339.0019-.0507-.0006-.0167 0-.0339 0-.0505 0-.0165-.0034-.0337-.0041-.0502-.0006-.0166-.0028-.0338-.0034-.0501-.0007-.0163.0036-.0342.003-.0503-.0006-.0161-.0043-.0339-.0047-.0502-.0005-.0164-.0063-.034-.0067-.0503-.0004-.0164 0-.0344 0-.0503 0-.0159-.0013-.0344-.0017-.0501-.0004-.0156.0028-.035.0026-.05 0-.0196-.005-.0363-.0052-.0503.0015-.0314.0273-.035.0095-.0522l.0159.0041Z" fill="#191919"/>
        <path d="M27.6388 31.0753c0 .0877-.026.1735-.0747.2464-.0488.0729-.118.1298-.1991.1633-.081.0336-.1702.0423-.2562.0252-.086-.0171-.165-.0594-.227-.1214-.0621-.0621-.1043-.1411-.1214-.2271-.017-.0861-.0082-.1752.0254-.2563.0336-.081.0904-.1502.1634-.1989.0729-.0487.1587-.0747.2464-.0747.1176.0001.2303.0468.3134.13.0831.0832.1298.1959.1298.3135" fill="#191919"/>
        <path d="M27.6388 31.0753c0 .0877-.026.1735-.0747.2464-.0488.0729-.118.1298-.1991.1633-.081.0336-.1702.0423-.2562.0252-.086-.0171-.165-.0594-.227-.1214-.0621-.0621-.1043-.1411-.1214-.2271-.017-.0861-.0082-.1752.0254-.2563.0336-.081.0904-.1502.1634-.1989.0729-.0487.1587-.0747.2464-.0747.1176.0001.2303.0468.3134.13.0831.0832.1298.1959.1298.3135" stroke="#191919" stroke-width=".149" stroke-miterlimit="10"/>
        <path d="M33.6368 31.0753c0 .0877-.026.1735-.0747.2464-.0487.0729-.118.1298-.199.1633-.0811.0336-.1702.0423-.2563.0252-.086-.0171-.165-.0594-.227-.1214-.062-.062-.1042-.1411-.1213-.2271-.0171-.0861-.0083-.1752.0253-.2563.0336-.081.0905-.1502.1634-.1989.073-.0487.1587-.0747.2464-.0747.1176.0001.2303.0468.3134.13.0831.0832.1298.1959.1298.3135" fill="#191919"/>
        <path d="M33.6368 31.0753c0 .0877-.026.1735-.0747.2464-.0487.0729-.118.1298-.199.1633-.0811.0336-.1702.0423-.2563.0252-.086-.0171-.165-.0594-.227-.1214-.062-.062-.1042-.1411-.1213-.2271-.0171-.0861-.0083-.1752.0253-.2563.0336-.081.0905-.1502.1634-.1989.073-.0487.1587-.0747.2464-.0747.1176.0001.2303.0468.3134.13.0831.0832.1298.1959.1298.3135" stroke="#191919" stroke-width=".149" stroke-miterlimit="10"/>
        <path d="M28.0995 36.5365c-.0322.0027-.0627.0159-.0867.0377-.0239.0218-.04.0509-.0457.0828-.0057.0319-.0006.0647.0143.0935.0149.0287.0389.0517.0683.0653 0 0 1.6605.7471 4.1496.3767.0193-.0025.038-.0088.0549-.0186.0169-.0097.0317-.0228.0435-.0384.0117-.0155.0203-.0333.0251-.0522.0049-.0189.0059-.0386.0031-.0579-.0029-.0193-.0096-.0378-.0197-.0545s-.0235-.0312-.0392-.0427c-.0158-.0115-.0337-.0197-.0528-.0241-.019-.0045-.0387-.0051-.0579-.0019-2.4141.3595-3.9861-.3532-3.9861-.3532-.0221-.01-.0464-.0142-.0707-.0125Z" fill="#191919"/>
        <path d="M30.2787 31.8668c-.0387-.0011-.0763.0132-.1044.0398-.0282.0266-.0447.0632-.046.102-.0517.7062-.3495 1.3719-.8417 1.881-.2284.1963-.3868.4616-.4512.7559-.0203.1124-.0171.2279.0095.339.0266.1111.076.2155.145.3066.1416.1763.3441.2931.5676.3273.2235.0343.4517-.0165.6396-.1423.0162-.0104.0301-.024.0411-.0398.0109-.0158.0187-.0337.0227-.0525.0041-.0188.0044-.0383.0009-.0572-.0034-.019-.0106-.037-.021-.0532-.0104-.0162-.024-.0302-.0398-.0411-.0158-.011-.0337-.0187-.0525-.0228-.0188-.004-.0383-.0043-.0572-.0009-.0189.0035-.037.0106-.0532.0211-.1256.0873-.2797.1238-.4312.1021-.1514-.0217-.2891-.0999-.3852-.219-.0451-.0588-.0772-.1266-.094-.1987-.0168-.0722-.018-.1472-.0035-.2199.0535-.2311.1806-.4387.3622-.5915.5504-.5605.8813-1.3001.9324-2.084.0014-.0388-.0126-.0765-.039-.105-.0264-.0284-.063-.0452-.1017-.0467l.0006-.0002Z" fill="#000"/>
        <path d="M33.8217 29.122c-.4082-.0666-.8263-.0339-1.2192.0951-.4264.1402-.8189.3675-1.1528.6674-.0267.0274-.0415.0642-.0415.1024.0001.0383.015.075.0418.1023.0267.0274.063.0433.1012.0442.0383.001.0754-.013.1034-.039.3013-.2687.6548-.4723 1.0383-.5982.6295-.2037 1.4596-.226 2.3632.5516.0296.0239.0673.0355.1052.0321.0379-.0033.073-.0213.0979-.0501.0249-.0287.0377-.0661.0355-.1041-.0021-.038-.019-.0737-.0469-.0995-.4009-.3623-.8947-.6062-1.4261-.7042ZM26.5691 29.1471c-.5306.1035-1.0229.3497-1.4241.712-.028.0258-.0449.0614-.0471.0993-.0022.038.0104.0753.0351.1042.0248.0288.0598.0469.0976.0505.0379.0036.0756-.0077.1053-.0314.9043-.7786 1.7353-.7692 2.3654-.5775.3819.1175.7354.3126 1.0383.5732.0285.0265.0663.0406.1052.0392.0389-.0014.0756-.0182.1021-.0467.0265-.0285.0406-.0664.0392-.1052-.0014-.0389-.0182-.0757-.0467-.1022-.3355-.291-.7282-.5087-1.1528-.6389-.3941-.1216-.8113-.1478-1.2175-.0765Z" fill="#191919"/>
        <path d="M35.4627 30.9973c-.0334-.0014-.0666.004-.0978.0157-.0312.0118-.0597.0298-.0837.0529-.0241.0231-.0432.0508-.0563.0815-.0131.0306-.0198.0636-.0198.097 0 .0333.0067.0663.0198.097.0131.0306.0322.0584.0563.0814.024.0231.0525.0411.0837.0529.0312.0118.0644.0171.0978.0158h1.0956c.0333.0013.0666-.004.0978-.0158.0312-.0118.0596-.0298.0837-.0529.0241-.023.0432-.0508.0563-.0814.0131-.0307.0198-.0637.0198-.097 0-.0334-.0067-.0664-.0198-.097-.0131-.0307-.0322-.0584-.0563-.0815-.0241-.0231-.0525-.0411-.0837-.0529-.0312-.0117-.0645-.0171-.0978-.0157h-1.0956ZM23.9353 30.9973c-.0333-.0014-.0665.004-.0977.0157-.0312.0118-.0597.0298-.0838.0529-.024.0231-.0432.0508-.0562.0815-.0131.0306-.0199.0636-.0199.097 0 .0333.0068.0663.0199.097.013.0306.0322.0584.0562.0814.0241.0231.0526.0411.0838.0529.0312.0118.0644.0171.0977.0158h1.097c.0637-.0027.124-.0299.1681-.076.0442-.046.0688-.1073.0688-.1711s-.0246-.1252-.0688-.1712c-.0441-.0461-.1044-.0733-.1681-.0759h-1.097Z" fill="#FAD57D"/>
        <path d="M26.4364 33.4051c-.1994 0-.3968-.0393-.5811-.1156-.1842-.0763-.3516-.1882-.4926-.3292-.141-.141-.2528-.3084-.3291-.4927-.0764-.1842-.1156-.3817-.1156-.5811v-.0045c-.0001-.4029.1598-.7893.4446-1.0743.2847-.2849.671-.4452 1.0738-.4454h1.5683c.4029.0002.7891.1605 1.0739.4454.2847.285.4447.6714.4446 1.0743v.0045c0 .1994-.0393.3969-.1156.5811-.0763.1843-.1881.3517-.3291.4927-.1411.141-.3084.2529-.4927.3292-.1842.0763-.3817.1156-.5811.1156h-1.5683Zm0-.3298h1.5683c.1564.0009.3114-.0293.4561-.0887.1446-.0594.276-.1469.3867-.2574.1106-.1105.1982-.2419.2577-.3865.0596-.1446.0898-.2996.0891-.456v-.0045c.0008-.1565-.0295-.3115-.089-.4562s-.1471-.2761-.2577-.3867c-.1106-.1107-.2421-.1983-.3867-.2578-.1447-.0595-.2997-.0897-.4562-.089h-1.5683c-.1564-.0007-.3114.0295-.4561.089s-.2761.1471-.3867.2578c-.1106.1106-.1982.242-.2577.3867s-.0898.2997-.089.4562v.0045c-.0008.1564.0295.3114.089.456.0596.1446.1472.276.2578.3865.1106.1105.2421.198.3867.2574.1447.0594.2997.0896.456.0887ZM32.4883 33.4051c-.4029 0-.7892-.1599-1.0742-.4447-.2849-.2847-.4451-.671-.4453-1.0739v-.0045c.0002-.403.1603-.7894.4453-1.0743.2849-.285.6713-.4452 1.0742-.4454h1.5683c.4028.0002.7891.1605 1.0738.4454.2848.285.4447.6714.4447 1.0743v.0045c0 .1994-.0393.3969-.1156.5811-.0763.1843-.1882.3517-.3292.4927-.141.141-.3084.2529-.4926.3292-.1842.0763-.3817.1156-.5811.1156h-1.5683Zm0-.3298h1.5683c.1563.0009.3113-.0292.4559-.0886.1446-.0594.276-.147.3865-.2575.1105-.1106.1981-.242.2575-.3866.0594-.1446.0895-.2996.0886-.4559v-.0045c.0008-.1564-.0293-.3114-.0887-.4561-.0594-.1446-.1469-.2761-.2574-.3867-.1105-.1106-.2419-.1983-.3865-.2578-.1446-.0595-.2995-.0898-.4559-.0891h-1.5683c-.1564-.0007-.3115.0295-.4561.089-.1447.0595-.2761.1471-.3868.2578-.1106.1106-.1982.242-.2577.3867s-.0897.2997-.089.4562v.0045c-.0007.1564.0296.3114.0891.456s.1471.276.2578.3865c.1106.1105.242.198.3867.2574.1446.0594.2996.0896.456.0887Z" fill="#191919"/>
        <path d="M29.2734 31.0898v.303h1.9187v-.303h-1.9187Z" fill="#191919"/>
        <path d="M29.7257 31.0982c-.1356.0008-.2654.0549-.3613.1506-.096.0957-.1504.2254-.1515.361v.0516c0 .0389.0155.0762.043.1037.0275.0275.0648.043.1037.043.0389 0 .0763-.0155.1038-.043.0275-.0275.043-.0648.043-.1037v-.0516c-.0006-.0288.0047-.0574.0155-.0842.0107-.0267.0268-.051.0471-.0714.0204-.0204.0446-.0365.0713-.0474.0267-.0108.0553-.0162.0841-.0157.0197.0008.0394-.0024.0578-.0093.0185-.007.0353-.0176.0496-.0312.0142-.0136.0256-.03.0334-.0481.0077-.0181.0118-.0376.0119-.0573 0-.0197-.0039-.0392-.0115-.0574-.0077-.0182-.0189-.0346-.0331-.0483-.0141-.0137-.0309-.0245-.0493-.0316-.0184-.007-.038-.0103-.0577-.0097h.0002ZM30.7679 31.0986c-.0379.0015-.0737.0175-.1.0448-.0263.0273-.0409.0638-.0409.1017 0 .0378.0146.0743.0409.1016.0263.0273.0621.0433.1.0448.0288-.0005.0574.0049.0841.0158.0267.0108.0509.0269.0713.0473.0203.0204.0363.0447.0471.0714.0108.0268.016.0554.0155.0842v.0516c0 .0389.0155.0762.043.1037.0275.0276.0648.043.1038.043.0389 0 .0762-.0154.1037-.043.0275-.0275.043-.0648.043-.1037v-.0516c-.0006-.1355-.0547-.2653-.1505-.3611s-.2255-.1499-.361-.1505Z" fill="#191919"/>
    </g>
    <defs>
        <clipPath id="a">
            <path fill="#fff" transform="translate(15.0039 15)" d="M0 0h29.9974v30H0z"/>
        </clipPath>
    </defs>
</svg>
  