<svg fill="none" xmlns="http://www.w3.org/2000/svg" viewBox="0 0 660 801">
    <g opacity=".75" filter="url(#a)">
        <ellipse cx="330" cy="400.5" rx="180" ry="250.5" fill="#5797FF" />
    </g>
    <g clip-path="url(#b)">
        <path
            d="M428.859 347.311c0 19.157-5.681 37.883-16.324 53.811-10.642 15.928-25.769 28.343-43.468 35.673-17.698 7.331-37.173 9.249-55.961 5.512-18.789-3.737-36.047-12.962-49.593-26.508-13.545-13.545-22.77-30.804-26.507-49.592-3.738-18.788-1.819-38.263 5.511-55.961 7.331-17.699 19.746-32.826 35.674-43.469 15.928-10.642 34.654-16.323 53.811-16.323 25.688 0 50.324 10.205 68.488 28.369s28.369 42.8 28.369 68.488Z"
            fill="#FFDD8C"
            stroke="#F2F7FF"
            stroke-width="2"
        />
        <path
            fill-rule="evenodd"
            clip-rule="evenodd"
            d="M398.432 347.307c0 13.138-3.896 25.982-11.196 36.906-7.299 10.924-17.674 19.439-29.812 24.467-12.139 5.028-25.496 6.343-38.382 3.78s-24.722-8.89-34.013-18.18c-9.29-9.291-15.617-21.127-18.18-34.013-2.563-12.887-1.248-26.243 3.78-38.382 5.028-12.138 13.542-22.513 24.467-29.813 10.924-7.299 23.768-11.195 36.906-11.195 17.618 0 34.515 6.999 46.973 19.457 12.458 12.458 19.457 29.354 19.457 46.973"
            fill="#EBAA4F"
        />
        <path
            fill-rule="evenodd"
            clip-rule="evenodd"
            d="M308.061 361.94v77.568c18.054 4.375 31.785 4.514 47.987-.063v-77.499l-47.987-.006Z"
            fill="#99C0FF"
        />
        <path
            d="M308.057 404.999h48.012v34.479c-4.963 1.512-13.764 3.181-18.832 3.181l-29.18-34.82v-2.84Z"
            fill="#191919"
        />
        <path
            d="M290.979 353.61c-.104.034-.215.178-.319.215-.104.036-.239-.018-.341.018-.103.037-.19.121-.291.162-.101.04-.222.035-.323.078-.101.044-.162.173-.263.215-.101.042-.235.014-.334.061-.1.046-.168.154-.266.205-.098.05-.178.129-.281.181-.102.052-.263-.023-.358.032-.096.055-.141.194-.235.25-.094.057-.184.118-.281.176-.097.058-.212.074-.303.14-.091.066-.162.154-.252.215-.089.062-.236.048-.323.113-.087.064-.174.14-.261.202-.087.062-.117.208-.202.281-.086.073-.188.118-.27.188-.081.07-.111.205-.194.281-.083.076-.175.129-.257.204-.081.074-.152.156-.23.232-.079.076-.249.06-.323.14-.075.08-.088.222-.162.301-.074.078-.152.157-.225.239-.073.081-.227.091-.299.174-.072.083-.14.174-.206.258-.067.085-.09.211-.158.297-.067.085-.083.212-.147.299-.065.087-.242.095-.305.184-.063.088-.023.253-.084.343-.062.09-.111.187-.17.281-.059.094-.191.14-.249.232-.058.091-.15.167-.205.261-.055.094-.093.201-.141.296-.047.096-.099.197-.15.294-.051.097-.105.194-.153.292-.048.098-.054.218-.1.318-.046.099-.14.178-.182.281-.043.102-.024.227-.065.328s-.025.225-.065.328c-.039.102-.187.161-.225.266-.037.106-.04.218-.074.324-.034.105-.093.2-.125.304-.032.104.044.241.014.346-.029.105-.14.19-.161.296-.022.107 0 .227-.02.333-.02.107-.103.201-.125.308-.023.107.01.225-.01.332-.02.106-.03.215-.046.323-.017.108-.09.206-.106.316-.015.109-.029.215-.042.323-.013.108 0 .219-.014.329-.014.109-.032.215-.039.326-.007.111.043.22.039.33-.004.109-.029.215-.032.326-.003.111-.009.215-.009.327 0 .112-.011.215-.008.323.003.108-.027.218-.023.326.005.108.08.215.089.323.008.108-.072.223-.062.332.01.108.084.209.097.317.013.108.06.211.074.318.015.106-.059.227-.042.335.017.108.073.208.093.315.02.107.01.219.031.326.021.107.077.206.101.312.024.105.069.206.097.31.028.104-.042.236-.013.342.03.105.154.181.186.281.032.099-.021.234.012.338.034.104.151.179.187.281.037.103.1.194.141.295.041.101.076.202.118.304.042.101 0 .238.036.338.037.1.101.194.141.292.039.099.063.212.111.309s.119.184.17.281c.05.097.128.179.18.281.052.103.14.175.188.27.048.096.043.228.1.32.056.093.13.176.189.27.059.094.187.141.247.228.061.087.064.22.126.309.061.088.123.18.188.267.064.087.185.132.251.215.066.082.121.181.188.265.068.084.141.162.215.243.075.082.1.201.172.281.071.08.108.195.184.281.076.086.206.104.281.183.074.078.154.151.233.227.079.076.192.111.27.186.077.074.114.196.194.269.08.073.2.1.281.17.08.071.116.198.2.267.085.069.148.162.234.231.085.069.192.108.281.172.088.065.167.141.255.204.089.063.215.072.304.134.088.061.13.196.222.255.091.059.24.026.333.083.092.058.132.205.224.26.093.055.198.093.294.141.096.047.201.087.296.14.096.053.214.06.311.108s.168.153.27.198c.101.045.196.096.296.141.1.045.2.09.301.13.101.041.22.037.323.075.102.038.175.153.281.19.105.036.247-.054.351-.019.104.035.211.048.315.08.104.033.205.068.31.097.105.03.205.069.311.096.105.027.206.07.311.094.106.024.196.126.302.147.107.022.215.044.324.064.108.019.215.022.323.039.108.017.224-.03.331-.015.107.014.207.108.315.118.108.009.219-.009.329 0 .109.008.222-.065.331-.058.11.007.215.044.323.049.108.006.215.086.323.089.109.002.218 0 .328 0 .109 0 .194.049.289.047.096-.001.193-.014.281-.018.089-.004.124-.087.219-.093.029-.103.033-.212.014-.317-.029-.162.037-.174 0-.336-.036-.161-.095-.149-.125-.31-.029-.162-.094-.149-.125-.311-.031-.161.079-.181.048-.343-.031-.161-.074-.153-.104-.314-.029-.162-.098-.149-.128-.311-.029-.161-.01-.165-.041-.327-.03-.162-.032-.162-.063-.323-.031-.162-.025-.162-.053-.323-.028-.162-.041-.162-.07-.323-.03-.162-.036-.162-.065-.323-.03-.162.038-.175.007-.336-.031-.162-.133-.141-.162-.304-.028-.163.124-.189.093-.351-.031-.161-.161-.14-.194-.299-.032-.159.013-.17-.017-.332-.029-.161-.036-.161-.067-.323-.031-.161.058-.178.028-.34-.029-.161-.069-.154-.1-.316-.031-.161-.04-.161-.071-.323-.031-.161-.115-.14-.141-.308-.025-.167-.019-.161-.05-.323-.031-.161.059-.178.028-.34-.031-.161.024-.171-.007-.333-.031-.161-.162-.14-.191-.299-.03-.159.087-.184.056-.345-.031-.162-.066-.155-.097-.316-.031-.162 0-.168-.035-.329-.035-.162-.061-.155-.091-.316-.031-.162-.126-.141-.155-.304-.03-.163.104-.187.074-.347-.029-.16-.112-.14-.14-.306-.028-.166-.025-.162-.053-.323-.029-.162.032-.173 0-.334-.033-.162-.168-.141-.197-.297-.03-.156.043-.175.014-.336-.03-.16-.1-.147-.131-.31s.058-.178.028-.34c-.029-.162-.119-.14-.15-.308-.031-.167.129-.192.098-.354-.03-.161-.031-.161-.061-.323-.031-.161-.162-.14-.191-.299-.03-.159-.061-.156-.09-.318-.03-.161.039-.174.008-.335-.031-.162-.039-.162-.069-.323-.029-.162.026-.172 0-.333-.025-.162.014-.17-.017-.332-.031-.161-.104-.147-.14-.31-.037-.163-.063-.156-.093-.319-.029-.163.02-.172-.011-.335-.031-.163-.014-.164-.044-.327-.029-.163 0-.167-.032-.329-.032-.161-.041-.161-.07-.323-.03-.161-.158-.14-.187-.3-.03-.16.02-.172-.01-.333-.029-.162.066-.18.037-.343-.03-.163-.123-.141-.153-.308-.031-.167 0-.167-.033-.33-.032-.163.013-.17-.018-.331-.031-.162-.014-.165-.044-.328-.029-.163-.043-.161-.073-.323-.029-.161-.126-.14-.156-.306-.029-.166.083-.184.054-.346-.03-.161-.101-.149-.132-.312-.031-.162-.048-.161-.079-.323-.031-.161-.101-.149-.131-.31-.029-.162.009-.169-.022-.33-.031-.162-.015-.165-.045-.326-.029-.162.06-.18.031-.343-.03-.163-.075-.154-.104-.316-.03-.162-.114-.141-.141-.309-.026-.169-.033-.162-.064-.323-.031-.162.025-.174 0-.336-.025-.161.066-.18.035-.343-.031-.163-.037-.161-.066-.323-.03-.161-.141-.14-.171-.305-.031-.164 0-.168-.03-.333-.029-.164-.018-.165-.049-.328-.031-.163-.108-.148-.141-.312-.032-.165-.015-.118-.06-.34-.02-.096.097-.236.073-.368-.02-.103-.185-.19-.208-.315-.022-.125 0-.229-.017-.351-.017-.122.064-.24.044-.36-.049-.118-.089-.24-.118-.365l.007-.035Z"
            fill="#99C0FF"
        />
        <path
            d="M285.597 361.407c-.389.057-.761.2-1.088.419-.326.219-.6.507-.802.845-.896 1.426-1.23 3.135-.938 4.793.02.126.064.247.131.355.067.109.155.203.259.277.103.074.221.126.345.154.124.029.252.032.378.009.125-.022.245-.069.352-.138.107-.068.199-.158.272-.263.072-.105.122-.223.148-.348.025-.125.026-.254.002-.378-.212-1.198.031-2.431.681-3.458l.007-.014.014-.014c.053-.099.128-.184.22-.249.091-.064.197-.107.308-.124.111-.017.224-.009.331.026.107.034.204.092.285.17l1.328 1.21c.513.468.858 1.091.984 1.774l.007.014.767 3.758c.052.25.201.468.414.608.213.14.473.19.722.138.25-.052.469-.201.609-.414.14-.213.189-.473.137-.723l-.771-3.718c-.2-1.098-.756-2.099-1.582-2.849l-1.324-1.21h-.007c-.294-.264-.643-.46-1.021-.573-.379-.112-.778-.139-1.168-.077Z"
            fill="#191919"
        />
        <path
            d="M287.801 367.981c-.226.002-.444.083-.616.229-.171.147-.286.349-.323.572-.127.815-.074 1.648.156 2.44.2.72.631 1.354 1.228 1.804.8.53 1.765.751 2.715.622.254-.023.488-.146.651-.341.163-.196.241-.448.218-.702-.023-.253-.146-.487-.341-.65-.196-.163-.448-.242-.702-.219-.488.097-.994.004-1.416-.261-.259-.202-.444-.485-.525-.804-.128-.513-.162-1.046-.099-1.572.022-.137.014-.278-.023-.413-.038-.134-.104-.259-.194-.365-.09-.107-.202-.193-.328-.252-.126-.06-.263-.092-.403-.093l.002.005Z"
            fill="#191919"
        />
        <path
            d="M373.764 352.773c.104.034.215.179.319.215.104.037.239-.018.341.018.103.037.19.121.291.162.101.041.222.035.323.079.101.043.163.179.271.229.109.049.235.014.335.06.099.046.167.155.265.205.099.051.179.129.281.181.103.052.263-.022.358.033.096.054.141.194.235.25.094.056.184.118.281.175.097.058.212.075.303.141.092.066.162.153.252.215s.236.048.323.112c.087.065.174.141.261.202.087.062.117.208.203.281.085.073.188.118.269.189.082.07.111.205.194.281.083.075.176.129.257.203.082.075.152.156.231.232.078.076.248.061.323.141.074.08.087.222.161.3.075.079.152.158.225.239.073.082.228.091.299.174.072.083.141.174.207.259.066.084.09.21.157.296.068.086.059.186.129.278.071.093.242.096.305.184.063.089.023.253.085.343.061.09.111.188.17.281.059.093.191.141.248.232.058.091.15.167.205.261.055.094.093.201.141.297.048.095.099.196.15.293.051.097.105.194.153.292.048.099.054.218.1.318.046.1.14.178.183.281.042.102.023.227.064.329.041.101.025.224.065.327.039.102.187.161.225.267.038.105.045.215.084.319.039.104.093.201.125.305.032.103-.044.24-.014.345.029.105.14.19.161.297.021.106 0 .226.02.332.02.107.103.201.125.308.023.107-.015.225.004.337.02.113.03.215.047.323.017.109.094.203.106.312.013.11.03.215.043.323.012.109 0 .22.014.329.014.11.032.215.039.326.007.111-.044.221-.039.33.004.11.029.215.032.326.003.111.008.215.008.327 0 .113.012.215.009.324-.003.108.022.219.022.327 0 .108-.08.215-.088.323-.009.108.071.223.063.331-.008.109-.084.21-.097.318-.013.108-.06.211-.074.317-.014.107.056.229.04.336-.015.107-.073.208-.092.315-.02.107-.009.22-.033.326-.024.105-.077.206-.101.312-.024.105-.069.206-.097.31-.028.104.044.238.016.342-.028.103-.153.181-.186.28-.032.1.021.239-.012.343-.034.104-.151.179-.187.281-.037.103-.1.194-.141.295-.04.101-.076.203-.118.304-.042.101 0 .238-.036.338-.037.1-.101.194-.141.292-.039.099-.063.213-.111.31-.047.096-.119.184-.17.28-.05.097-.128.179-.18.281-.051.103-.14.175-.188.27-.048.096-.046.224-.104.312-.057.089-.13.176-.189.27-.059.094-.187.14-.248.227-.06.087-.061.221-.125.309-.063.089-.123.18-.188.267-.065.087-.185.132-.251.215-.066.083-.121.181-.189.266-.067.084-.14.161-.215.243-.074.081-.099.201-.171.281-.072.08-.108.195-.184.281-.076.085-.206.104-.281.182-.074.079-.154.152-.233.228-.079.076-.193.111-.27.185-.077.075-.114.197-.194.27-.08.073-.201.1-.281.17-.08.07-.116.198-.201.267-.084.069-.147.162-.233.23-.085.069-.192.109-.281.173-.088.065-.167.141-.255.204-.089.063-.215.072-.304.133-.088.062-.131.197-.222.256s-.24.025-.333.083c-.092.057-.132.205-.225.26-.092.055-.198.093-.293.14-.096.048-.201.087-.297.141-.095.053-.213.06-.31.108s-.173.142-.278.194c-.106.052-.197.095-.297.14-.099.045-.193.089-.295.128-.101.039-.22.037-.323.075-.102.037-.175.153-.281.189-.105.037-.246-.052-.349-.022-.104.029-.211.053-.315.084-.104.031-.205.067-.311.097-.105.029-.205.069-.31.1-.105.031-.207.07-.312.094-.105.024-.195.122-.298.143-.102.021-.219.044-.327.063-.108.02-.215.023-.323.04-.108.017-.224-.031-.333-.017-.11.014-.207.108-.315.118-.108.01-.22-.009-.329 0-.108.008-.222-.065-.331-.058-.11.007-.214.038-.32.049-.107.012-.215.086-.324.089-.108.003-.217 0-.327 0-.109 0-.194.041-.289.041-.096 0-.193-.014-.281-.019-.089-.004-.124-.087-.219-.092-.029-.104-.034-.212-.014-.318.029-.161-.037-.174 0-.336.036-.161.08-.149.111-.31.03-.162.094-.149.125-.311.031-.161-.079-.181-.048-.342.031-.162.074-.153.104-.315.029-.162.098-.149.128-.31.029-.162.009-.166.04-.328.031-.161.033-.161.064-.323.031-.161.025-.161.053-.323.028-.162.041-.162.07-.323.03-.162.035-.162.065-.323.029-.162-.038-.174-.007-.336.031-.162.133-.14.161-.303.028-.163-.123-.19-.092-.352.031-.161.161-.14.194-.299.032-.159-.013-.17.016-.331.03-.162.037-.162.068-.323.031-.162-.058-.179-.028-.34.029-.162.069-.155.099-.317.031-.161.041-.161.072-.323.031-.161.115-.14.141-.307.025-.167.019-.162.05-.323.031-.162-.059-.179-.028-.34.031-.162-.024-.172 0-.333.024-.162.162-.141.191-.3.03-.158-.087-.184-.056-.345.031-.162.066-.155.097-.316.031-.162 0-.167.035-.329.035-.161.06-.154.091-.316s.125-.141.155-.303c.029-.163-.104-.187-.075-.347.03-.161.113-.141.141-.307.028-.165.025-.161.053-.323.028-.161-.032-.173 0-.334.033-.162.167-.141.197-.297.029-.156-.044-.175-.014-.335.029-.16.1-.148.131-.311.03-.163-.058-.178-.029-.34.03-.161.12-.14.151-.307.031-.168-.13-.193-.099-.354l.062-.324c.031-.161.162-.14.191-.299.03-.159.061-.156.09-.317.03-.162-.039-.174-.008-.336.031-.162.039-.162.069-.323.029-.162-.026-.172 0-.333.025-.162-.014-.17.016-.332.031-.161.104-.147.141-.31.036-.163.063-.156.093-.319.029-.163-.02-.171.011-.334s.014-.165.043-.328c.03-.163 0-.167.033-.328.032-.162.04-.162.07-.323.029-.162.157-.141.187-.301.029-.16-.02-.171.01-.333.029-.162-.066-.18-.037-.343.03-.163.122-.14.153-.307.031-.168 0-.168.033-.331.032-.163-.013-.17.018-.331.031-.162.014-.165.043-.327.03-.163.044-.162.073-.324.03-.161.127-.14.156-.306.03-.166-.083-.184-.053-.345.029-.162.101-.149.132-.312s.048-.162.079-.323c.031-.162.101-.149.13-.311.03-.161-.008-.168.023-.33s.015-.164.045-.326c.029-.161-.061-.18-.031-.343.029-.163.074-.154.104-.316.029-.161.114-.14.14-.309.027-.168.034-.161.065-.323.031-.161-.025-.174 0-.336.025-.161-.066-.18-.035-.342.031-.163.036-.162.066-.324.029-.161.14-.14.171-.304.031-.165 0-.169.03-.333.029-.165.018-.166.049-.329.031-.163.108-.148.14-.312.033-.164.016-.118.061-.34.019-.095-.097-.236-.073-.368.019-.103.185-.19.208-.315.022-.125 0-.229.017-.351.016-.122-.064-.24-.044-.36.057-.119.103-.244.139-.372Z"
            fill="#99C0FF"
        />
        <path
            d="M379.152 360.57c-.393-.061-.794-.033-1.175.081s-.732.311-1.026.578l-1.329 1.203c-.818.746-1.37 1.739-1.572 2.828v.014l-.007.007-.767 3.721c-.052.248-.002.506.137.718.139.212.356.36.604.411.249.052.507.003.719-.137.212-.139.36-.356.411-.604l.778-3.755.007-.007c.123-.684.469-1.308.984-1.775l1.331-1.209c.08-.08.177-.139.284-.174.106-.035.22-.045.331-.028.111.016.217.058.308.123.092.065.168.15.221.249l.007.018.014.014c.649 1.027.89 2.259.677 3.454-.035.247.027.498.173.7.147.202.366.339.612.382.245.043.498-.011.704-.152.207-.14.35-.355.401-.599.29-1.657-.045-3.363-.942-4.787-.199-.339-.472-.63-.798-.85-.326-.221-.697-.366-1.087-.424Z"
            fill="#191919"
        />
        <path
            d="M376.882 367.156c-.132.012-.26.051-.376.114-.117.063-.219.149-.302.252-.082.104-.143.223-.178.35-.036.128-.045.261-.028.392.064.526.029 1.059-.101 1.572-.079.322-.262.609-.521.815-.423.26-.928.353-1.416.261-.126-.013-.254-.002-.376.034-.122.037-.235.097-.334.177-.098.08-.18.18-.239.292-.06.112-.097.235-.108.361-.012.127.001.255.039.376s.1.234.182.331c.082.097.183.177.296.235.113.058.236.092.363.102.948.129 1.911-.092 2.708-.622.6-.449 1.035-1.083 1.238-1.804.23-.791.283-1.622.156-2.436-.038-.234-.162-.446-.347-.594-.185-.148-.419-.222-.656-.208Z"
            fill="#191919"
        />
        <path
            d="M374.688 356.714c-.03.162.053.176.032.337-.021.162-.089.152-.114.312-.025.16.054.173.032.336-.021.163.026.168 0 .33-.025.162-.025.162-.05.323-.025.162-.141.141-.162.306-.021.166.072.177.048.339-.024.161-.025.161-.049.323s-.108.148-.141.31c-.032.163 0 .165-.029.326-.03.162-.042.159-.066.321-.024.161.018.168 0 .328-.018.161-.091.151-.117.312-.025.162.037.172.012.332-.026.16.007.167-.015.327-.021.16-.096.15-.122.312-.025.162-.046.157-.071.319-.026.161.032.17.007.331-.026.162.025.169 0 .331-.026.161-.071.154-.096.316-.025.161-.036.161-.059.323-.022.161 0 .164-.025.326-.025.161-.054.157-.076.319-.023.161.044.171.018.333-.025.161-.092.151-.118.311-.025.161 0 .166-.021.328-.021.161 0 .166-.021.327-.021.162-.095.15-.121.312-.025.162.065.176.041.337-.024.162-.126.141-.15.308-.024.167-.037.161-.061.323-.024.161.04.171.014.333-.025.161-.064.156-.09.316-.025.16-.007.161-.032.323s-.066.155-.091.316c-.025.162.083.178.057.34-.025.162-.111.148-.14.311-.03.162-.014.161-.041.323-.027.161.03.17 0 .333-.029.163-.121.14-.14.309-.02.168.039.171.014.333-.026.161-.049.157-.073.318-.024.162.014.168-.007.329-.021.162.014.167-.012.329-.025.161-.011.161-.036.323-.025.162-.083.152-.108.312-.026.16.011.167-.012.327-.022.16-.053.156-.08.318-.026.161-.059.156-.084.316-.025.16-.098.15-.123.31-.026.16.063.174.039.336-.024.162.025.169 0 .33-.025.162-.038.159-.063.32-.026.162-.141.141-.165.305-.024.165.097.18.072.342-.025.161-.032.161-.053.323-.022.161-.109.149-.141.31-.032.162.044.173.018.335-.025.161-.128.14-.153.307-.025.167.115.183.091.344-.023.162-.112.148-.14.309-.028.162 0 .165-.029.324-.03.158-.061.156-.086.317-.025.162.1.181.074.343-.025.161-.108.149-.14.31-.033.162-.051.159-.075.321-.024.161.03.17 0 .333l-.05.323c-.026.161.021.168 0 .33-.021.161-.014.161-.04.323-.025.161-.075.153-.101.315-.025.161.014.167-.011.33s-.162.14-.184.303c-.022.163.021.169 0 .332s-.084.153-.108.314c-.024.162.086.179.06.342-.025.163-.123.14-.147.309-.024.168.05.174.025.336-.025.161-.014.161-.039.326-.026.164-.007.164-.033.325-.025.162-.068.156-.092.318-.024.161 0 .166-.026.329-.025.163.043.171.019.333-.024.161-.123.14-.141.307-.018.167-.059.158-.084.319-.025.162-.054.159-.079.32-.025.162.03.17 0 .333-.029.163.03.17 0 .333-.029.163-.046.162-.071.323-.026.162-.075.155-.1.318-.025.163.041.173.014.336-.027.163.011.167-.014.328-.025.162-.09.154-.115.315-.026.162.046.174.021.337-.026.163-.082.155-.108.318-.027.163.053.175.029.34-.014.108-.156.196-.173.305-.017.108-.014.219-.036.323-.023.104-.026.215-.049.323-.024.108 0 .223-.026.33-.025.107-.126.195-.153.301-.027.105-.043.214-.07.318-.027.104.043.238.014.343-.03.106-.125.193-.156.298-.031.105-.14.184-.176.288-.035.104-.029.218-.064.323-.035.105.053.249.018.353-.035.104-.117.191-.155.295-.037.104-.036.22-.074.323-.038.102-.157.174-.197.281-.039.107-.104.194-.14.295-.037.101-.014.232-.058.331-.043.1-.208.141-.254.245-.046.104-.011.236-.058.334-.046.098-.053.215-.104.315-.05.1-.15.168-.2.265-.051.097-.141.17-.197.266-.056.095-.021.237-.075.333-.053.095-.112.187-.167.281-.055.094-.209.129-.265.222-.056.092-.083.203-.141.296-.057.093-.102.193-.161.281-.059.089-.086.205-.141.297-.055.091-.175.14-.239.234-.063.094-.049.232-.113.32-.065.089-.09.207-.155.295-.065.089-.249.086-.316.173s-.096.203-.162.281c-.066.079-.061.232-.132.316-.104.127-.161.08-.264.208-.102.128-.122.111-.226.239-.104.128-.14.094-.247.221-.107.126-.059.161-.162.289-.102.128-.094.14-.196.26-.103.119-.131.104-.234.232-.102.127-.095.132-.199.26-.104.127-.141.095-.246.221-.105.127.018.225-.087.353-.105.128-.225.03-.329.155-.104.125-.098.132-.202.258-.104.127-.084.141-.188.27l-.208.253c-.104.126-.021.192-.127.319-.105.126-.2.046-.304.172-.104.127-.019.197-.123.324-.104.126-.164.075-.269.202-.106.126-.054.166-.159.292-.105.126-.111.121-.215.246s-.149.088-.252.215c-.102.126-.14.098-.241.225-.101.126.014.222-.09.348-.104.126-.207.042-.311.169-.104.126.012.219-.092.347l-.208.254c-.104.126-.12.115-.224.241-.104.127-.191.054-.295.184-.104.131-.007.208-.108.335-.101.126-.099.13-.203.257-.104.126-.154.087-.256.215-.103.128-.069.156-.173.281-.104.125-.14.093-.249.219-.108.126-.078.147-.181.281-.102.133-.194.053-.298.18-.104.126-.115.118-.219.244-.104.127-.018.197-.123.323-.106.127-.162.08-.266.208-.104.128-.108.124-.212.252-.104.127-.032.187-.14.313-.109.126-.088.14-.192.27-.104.129-.108.123-.21.251-.103.128-.101.129-.207.256-.105.126-.159.083-.262.209-.104.127-.038.181-.141.309-.103.128-.18.066-.281.194-.101.128-.079.148-.183.281-.104.133-.066.159-.17.281-.103.122-.2.049-.304.177-.104.128-.054.167-.162.295-.108.128-.129.108-.233.232-.104.123-.025.191-.128.317-.103.127-.167.076-.27.204-.102.128-.105.126-.209.254s-.079.148-.183.281c-.104.134-.153.087-.257.215-.104.128-.091.141-.195.264-.104.124-.076.152-.181.281-.106.129-.083.141-.187.273-.104.132-.098.132-.202.26-.104.127-.162.081-.266.209-.104.128-.053.169-.161.296-.109.128-.175.071-.281.198-.107.128-.121.114-.225.242-.104.128.007.221-.097.348-.104.128-.187.061-.292.19-.106.129-.108.128-.212.256s-.116.121-.22.25c-.068.084-.104.197-.175.281-.072.084-.097.205-.17.281-.073.076-.191.123-.264.203-.073.081-.101.204-.177.281-.076.078-.156.155-.232.234-.076.078-.228.083-.305.161-.077.079-.053.254-.14.33-.088.076-.193.117-.27.191-.077.075-.205.1-.281.175-.076.074-.194.108-.281.182-.087.075-.125.188-.208.259-.083.07-.201.099-.281.17-.08.07-.14.172-.225.24-.084.067-.108.215-.194.281-.085.066-.215.076-.304.14-.09.065-.141.175-.232.239-.092.065-.17.141-.26.202-.09.062-.245.033-.334.093-.09.061-.197.097-.281.158-.085.06-.141.193-.225.252-.084.059-.183.12-.281.177-.098.058-.194.1-.288.156-.094.057-.207.079-.302.132-.096.054-.127.221-.222.274-.096.054-.253-.007-.35.044-.097.05-.162.166-.256.215-.094.049-.206.076-.304.123-.099.048-.201.088-.3.141-.098.053-.185.118-.281.162-.095.043-.206.071-.307.116-.101.045-.18.141-.281.179-.101.037-.196.102-.297.14-.101.038-.209.065-.312.104-.102.039-.229.011-.333.048-.103.036-.193.108-.296.14-.102.033-.197.101-.301.141-.104.039-.196.104-.3.14-.104.037-.235-.018-.34.011-.106.03-.226 0-.332.033-.105.032-.203.076-.31.104-.107.028-.186.158-.291.184-.105.025-.208.074-.313.098-.106.024-.225 0-.332.021l-.323.062c-.108.021-.226-.021-.333 0-.107.021-.209.066-.317.084-.108.018-.203.124-.309.141-.107.017-.236-.108-.346-.096-.11.013-.215.018-.323.032-.108.015-.215.044-.323.054-.108.01-.207.129-.315.14-.108.012-.227-.104-.336-.097-.108.007-.21.12-.319.127-.108.007-.221-.054-.33-.049-.108.004-.215.06-.323.063-.108.003-.219-.014-.327-.011-.108.002-.219-.021-.329-.021-.161 0-.161.108-.323.108-.161 0-.161-.033-.323-.033s-.162-.057-.323-.057c-.162 0-.162.095-.327.095-.166 0-.162-.025-.326-.025-.165 0-.162-.073-.326-.073-.165 0-.162.038-.328.038-.165 0-.161.018-.327.018s-.161-.029-.327-.029-.162-.012-.326-.012c-.165 0-.162.012-.328.012-.165 0-.161-.026-.327-.026h-.329c-.164 0-.164.081-.328.081-.108 0-.215-.015-.326-.019-.111-.004-.215-.073-.323-.076-.108-.002-.219.048-.328.043-.108-.006-.215-.054-.323-.061l-.323-.018c-.108-.007-.219.025-.327.018-.108-.007-.205-.121-.313-.133-.109-.013-.222.042-.331.029-.108-.012-.205-.101-.311-.115-.107-.014-.229.072-.336.053-.107-.018-.215-.021-.323-.04-.108-.02-.194-.141-.301-.168-.107-.026-.233.064-.339.043-.105-.021-.203-.086-.31-.109-.107-.022-.221-.007-.326-.032-.105-.025-.219-.021-.323-.046-.104-.026-.177-.181-.281-.21-.104-.028-.228.012-.332-.018-.103-.029-.199-.09-.303-.121-.104-.031-.222-.014-.323-.049s-.187-.126-.289-.161c-.103-.035-.199-.089-.301-.124-.103-.035-.25.053-.351.018-.101-.035-.201-.084-.302-.123-.101-.04-.162-.177-.264-.215-.103-.038-.224-.026-.324-.069-.099-.044-.202-.079-.3-.122-.099-.044-.2-.086-.298-.131-.098-.045-.153-.183-.251-.229-.099-.046-.245.011-.343-.038-.099-.049-.201-.086-.297-.14-.095-.055-.21-.065-.307-.116-.097-.05-.158-.167-.252-.219-.094-.052-.226-.042-.32-.095-.094-.054-.131-.208-.223-.264-.093-.057-.173-.131-.266-.187-.093-.056-.195-.094-.281-.152-.086-.058-.177-.124-.27-.184-.092-.06-.181-.117-.269-.178-.089-.062-.156-.154-.245-.215-.088-.062-.211-.076-.299-.141-.089-.064-.223-.062-.31-.126-.088-.065-.104-.221-.19-.281-.086-.061-.228-.061-.312-.128-.084-.067-.133-.18-.215-.249-.081-.069-.184-.116-.27-.187-.085-.07-.175-.129-.257-.2-.081-.072-.14-.177-.215-.249-.074-.072-.15-.157-.229-.23-.118-.113-.085-.141-.203-.259-.118-.118-.141-.086-.26-.199-.12-.114-.131-.1-.248-.213-.116-.112-.092-.14-.209-.25-.116-.109-.098-.132-.215-.243-.116-.111-.185-.04-.302-.153-.116-.112-.053-.178-.171-.289-.118-.111-.128-.1-.245-.212-.116-.113-.108-.123-.224-.235-.117-.112-.176-.053-.291-.161-.115-.109-.054-.18-.169-.293-.115-.112-.119-.108-.236-.222-.116-.113-.159-.068-.281-.179-.122-.111-.14-.095-.251-.207-.111-.112-.077-.154-.194-.267-.117-.112-.108-.121-.226-.233-.118-.112-.108-.124-.225-.236-.117-.112-.18-.049-.296-.162-.117-.112-.154-.074-.27-.188-.117-.114-.108-.121-.228-.234-.119-.114-.038-.196-.156-.308-.118-.113-.123-.108-.24-.219-.117-.111-.14-.092-.254-.204-.114-.112-.083-.148-.2-.261-.116-.114-.213-.012-.33-.125-.116-.114-.048-.186-.164-.298-.117-.113-.2-.025-.318-.141-.118-.115-.108-.123-.224-.237-.117-.114-.058-.176-.176-.288-.118-.112-.1-.132-.215-.244-.115-.113-.14-.089-.258-.2-.118-.111-.177-.051-.295-.162-.118-.11-.065-.167-.183-.28-.118-.114-.167-.062-.281-.175-.114-.112-.112-.119-.229-.231-.117-.113-.056-.177-.174-.29-.118-.112-.121-.108-.239-.222s-.176-.053-.294-.164c-.118-.111-.125-.104-.241-.215-.117-.111-.03-.205-.141-.318-.111-.112-.121-.108-.239-.219s-.104-.125-.222-.237c-.118-.113-.14-.093-.254-.205-.114-.113-.131-.101-.249-.215-.118-.114-.169-.059-.28-.172-.111-.112-.127-.102-.245-.215-.118-.112-.049-.185-.166-.297-.116-.113-.14-.086-.264-.2-.123-.114-.084-.147-.202-.261-.118-.114-.202-.025-.32-.141-.118-.115-.021-.212-.141-.326-.119-.113-.17-.059-.288-.172-.118-.114-.108-.123-.227-.236-.12-.114-.116-.116-.234-.228-.118-.112-.108-.122-.229-.236-.12-.114-.14-.088-.261-.202-.121-.114-.087-.148-.205-.262-.118-.113-.141-.095-.256-.209-.08-.074-.178-.132-.257-.208-.078-.076-.182-.129-.26-.206-.077-.078-.059-.25-.14-.329-.082-.079-.215-.096-.292-.177-.078-.081-.104-.204-.179-.281-.074-.077-.14-.173-.206-.256-.066-.083-.207-.112-.281-.195-.075-.083-.061-.236-.131-.32-.07-.085-.19-.128-.257-.215s-.191-.129-.258-.215c-.068-.086-.12-.187-.186-.274-.066-.087-.153-.162-.215-.25-.062-.089-.066-.223-.129-.313s-.141-.173-.197-.264c-.056-.092-.087-.206-.147-.297-.061-.091-.162-.157-.219-.25-.058-.093-.106-.192-.162-.281-.056-.088-.14-.173-.194-.27-.053-.097-.166-.158-.219-.254-.053-.095.025-.265-.029-.361-.055-.095-.104-.192-.155-.289-.051-.097-.108-.19-.156-.288-.048-.099-.156-.168-.204-.267-.047-.1-.099-.197-.14-.297-.041-.099-.018-.231-.062-.333-.043-.101-.095-.196-.14-.297-.045-.102-.109-.193-.148-.295-.039-.103-.181-.165-.22-.27-.04-.106.036-.249 0-.351-.037-.103-.2-.162-.237-.266-.036-.104.054-.25.019-.354-.035-.104-.038-.215-.072-.323-.034-.108-.086-.202-.116-.308-.031-.105-.192-.174-.22-.281-.028-.106 0-.227-.032-.333-.032-.105.018-.23-.007-.337-.025-.107-.046-.215-.07-.323-.024-.108-.111-.201-.141-.308-.029-.161-.025-.161-.053-.323-.028-.161-.104-.14-.134-.307-.029-.167 0-.166-.032-.323-.032-.158.03-.172 0-.332-.029-.16.007-.167-.021-.327s-.126-.141-.156-.302c-.029-.162.042-.173.011-.333-.031-.16-.066-.153-.095-.313-.03-.161-.037-.162-.065-.319-.028-.158-.053-.156-.081-.316-.028-.161.073-.18.043-.34-.029-.161-.059-.155-.088-.315-.03-.16-.108-.141-.141-.306-.032-.166 0-.165-.032-.323-.032-.159 0-.166-.029-.326-.03-.161-.09-.149-.121-.309-.031-.161.087-.183.057-.343-.029-.16-.032-.162-.062-.321-.029-.158-.059-.154-.089-.314-.031-.16-.121-.141-.151-.304-.029-.163.096-.184.066-.344-.029-.16-.06-.154-.09-.315-.029-.16-.09-.148-.12-.31-.031-.162.014-.169-.019-.329-.032-.16-.069-.153-.098-.314-.03-.162-.032-.162-.063-.321-.031-.158.018-.17-.011-.33-.03-.16-.078-.152-.109-.312s-.053-.156-.085-.316c-.033-.16.014-.168-.014-.329-.029-.16-.041-.158-.072-.318-.031-.161.032-.173 0-.333-.032-.161-.097-.148-.126-.308-.03-.16-.083-.15-.113-.31-.029-.161.032-.173 0-.333-.032-.161.03-.172 0-.332-.029-.16-.18-.132-.209-.294-.03-.161.112-.186.083-.347-.03-.16-.141-.14-.175-.299-.033-.159.026-.171-.007-.331-.032-.16.026-.172 0-.332-.025-.16-.063-.154-.094-.315-.031-.16-.043-.158-.074-.32-.031-.161-.097-.147-.127-.309-.029-.161 0-.166-.036-.326-.037-.16-.072-.153-.103-.313s.12-.188.09-.348c-.029-.161-.118-.141-.147-.305-.03-.165.007-.168-.026-.328-.032-.16-.122-.14-.153-.303-.031-.163-.011-.162-.042-.323-.031-.162-.036-.162-.066-.321-.029-.158.073-.179.042-.341-.031-.161-.066-.154-.095-.315-.03-.16-.051-.157-.08-.318-.03-.162 0-.168-.026-.329-.025-.162-.105-.141-.14-.308-.035-.167.011-.168-.018-.329-.03-.16-.012-.164-.04-.323-.028-.158.026-.171 0-.331-.025-.16-.153-.141-.182-.297-.03-.156.101-.184.071-.344-.029-.16-.132-.14-.161-.3-.03-.161.029-.172 0-.332-.03-.16-.025-.162-.054-.32-.028-.159-.045-.158-.075-.318-.031-.16-.019-.161-.047-.323-.028-.161-.076-.152-.108-.312s-.083-.15-.112-.31c-.03-.16.032-.173 0-.333-.033-.16-.082-.15-.111-.312-.03-.162 0-.167-.033-.327-.032-.161.075-.182.044-.342-.031-.16-.141-.14-.176-.3-.035-.161.066-.179.037-.34-.03-.162-.118-.141-.149-.305-.031-.165.032-.173 0-.333-.032-.16-.141-.141-.177-.299-.037-.159.132-.191.101-.352-.031-.16-.072-.153-.102-.313-.031-.16-.026-.161-.057-.323-.031-.161-.018-.161-.049-.323-.031-.162-.08-.152-.111-.313-.031-.162-.042-.159-.071-.321-.03-.161.039-.174.007-.334-.033-.16-.141-.14-.173-.301-.033-.16.066-.178.036-.34l-.057-.323c-.03-.161-.12-.14-.149-.306-.03-.166.07-.181.041-.341-.03-.16-.109-.141-.141-.308-.032-.167-.08-.152-.108-.312-.028-.16.064-.178.036-.341-.028-.163-.122-.141-.151-.305-.03-.164.108-.188.078-.348-.029-.161-.172-.141-.203-.297-.031-.156 0-.167-.03-.329-.029-.161-.07-.153-.1-.314-.029-.162 0-.167-.029-.328-.03-.16.021-.17-.011-.331-.033-.162-.033-.162-.062-.323-.03-.162-.054-.158-.087-.319-.034-.162.014-.17-.014-.332-.028-.161-.103-.147-.132-.309-.03-.161.018-.17-.014-.333-.033-.163-.058-.157-.087-.317-.03-.16.021-.172-.008-.333-.028-.162-.132-.141-.161-.304-.03-.162.018-.171-.011-.332-.03-.162-.014-.166-.044-.328-.029-.161.037-.175.007-.338-.029-.163-.14-.141-.168-.305-.029-.165-.014-.113-.058-.323-.018-.089-.007-.204-.03-.328-.018-.097-.021-.208-.043-.323-.023-.115-.126-.192-.141-.307-.014-.116.007-.215-.011-.331-.018-.115-.014-.214-.032-.323-.018-.108-.037-.21-.053-.323-.017-.112.007-.215-.012-.328-.018-.114-.029-.215-.043-.324-.014-.108.025-.22.011-.331-.014-.111-.06-.209-.074-.32-.015-.111-.015-.215-.026-.326-.011-.111-.042-.214-.053-.323-.011-.11-.141-.204-.141-.314 0-.109.109-.23.099-.34-.01-.109-.03-.215-.04-.323-.009-.108 0-.215-.007-.329-.007-.113-.119-.207-.129-.317-.01-.11-.053-.215-.063-.323-.01-.108.066-.223.057-.333-.008-.11.015-.219.008-.329-.008-.109-.054-.215-.062-.323-.009-.108-.038-.215-.044-.326-.005-.111.054-.219.049-.329-.004-.109-.032-.214-.039-.323-.007-.108-.103-.212-.108-.323-.006-.111-.011-.215-.014-.326-.003-.111-.019-.215-.021-.323-.003-.108.011-.215.011-.327v-.326c0-.111.046-.215.045-.327-.002-.113-.03-.215-.032-.326-.003-.111.074-.215.073-.326-.002-.111-.033-.215-.033-.326 0-.111-.011-.215-.007-.326.004-.111.054-.215.058-.323.004-.108-.103-.219-.101-.329.001-.109.078-.215.083-.323.004-.108-.08-.219-.076-.329.004-.109.014-.215.018-.326.004-.111-.025-.219-.018-.328.007-.11.053-.215.06-.323.007-.109.072-.215.077-.324.006-.108.072-.215.079-.323.007-.108-.067-.222-.06-.331.007-.11.047-.215.053-.323.006-.109 0-.218.014-.328.014-.109-.043-.222-.032-.331.011-.11.018-.215.029-.326.012-.111.13-.207.141-.315.011-.108.032-.215.043-.323.012-.108-.09-.229-.077-.337.013-.108.121-.205.141-.315.019-.109-.103-.233-.089-.341.014-.108.1-.208.115-.316.016-.108.054-.214.069-.323.016-.11.039-.215.053-.323.015-.109.007-.22.026-.328.018-.108-.045-.229-.026-.337.02-.108.089-.206.109-.315.019-.108.059-.21.078-.318.02-.109-.025-.228-.007-.335.019-.107.021-.218.044-.323.022-.105.097-.204.118-.312.021-.108.102-.202.125-.309.022-.107-.038-.23-.014-.338.024-.109.041-.215.064-.324.024-.108.019-.22.044-.327.025-.107.069-.208.096-.315.026-.106.091-.203.119-.309.028-.105-.007-.227.021-.333.028-.105.097-.2.124-.307.026-.107.153-.184.181-.291.028-.107.049-.214.079-.319.029-.105.011-.225.04-.329.03-.104.066-.208.099-.313.032-.105.032-.219.064-.323.033-.104.114-.194.148-.298.033-.104.078-.204.114-.307.035-.104.011-.227.046-.331.035-.104.08-.203.115-.307.035-.104.049-.215.087-.318.038-.102.122-.188.162-.291.039-.102 0-.236.032-.337.032-.101.162-.171.204-.274.042-.102.081-.202.122-.305.041-.102.09-.199.132-.3.042-.101.073-.205.115-.308.042-.102.03-.225.073-.323.044-.098.141-.177.187-.281.046-.104.101-.194.141-.293.039-.1-.012-.246.036-.346.048-.1.218-.141.266-.237.047-.097.092-.197.14-.295.048-.099.03-.229.079-.328.049-.098.042-.225.092-.323.051-.098.126-.183.176-.281.051-.098.179-.153.23-.249.052-.095.111-.188.165-.28.053-.093.101-.194.156-.29.055-.095.102-.192.157-.281.055-.088.121-.181.177-.281.056-.1.12-.182.176-.281.056-.098.014-.248.071-.341.058-.093.149-.165.208-.257.059-.093.189-.141.249-.231.06-.09.049-.23.108-.323.059-.092.159-.157.221-.247.061-.09.161-.153.224-.243.064-.09.076-.215.141-.302.065-.087.14-.162.212-.252.072-.089.141-.167.205-.255.065-.089.093-.204.162-.292.069-.089.147-.162.215-.249.067-.087.132-.174.201-.26.068-.086.172-.14.243-.225.07-.084.094-.206.161-.291.068-.084.2-.116.27-.2.07-.085.14-.172.206-.255.066-.083.083-.219.158-.3.074-.082.219-.096.293-.177.075-.082.141-.173.208-.253.068-.08.129-.179.205-.257.076-.079.086-.222.162-.299.076-.078.242-.069.319-.141.077-.072.147-.162.227-.236.08-.074.131-.178.211-.256.08-.077.171-.14.252-.209.08-.069.193-.111.281-.184.087-.073.123-.188.205-.261.081-.073.185-.118.269-.191.085-.073.094-.225.177-.297.083-.071.224-.074.308-.14.084-.066.18-.124.264-.194.084-.07.115-.205.201-.274.086-.069.198-.101.281-.169.083-.067.14-.172.23-.238.09-.067.242-.043.329-.109.087-.066.128-.194.215-.258.087-.065.157-.156.246-.219.088-.063.233-.049.323-.111s.162-.152.25-.215c.089-.063.195-.1.281-.162.086-.062.148-.171.24-.23.093-.059.228-.049.321-.108.092-.059.188-.108.28-.167.093-.059.154-.168.246-.225.093-.058.151-.173.245-.229.094-.056.237-.03.331-.083.094-.054.149-.179.245-.232.095-.053.225-.046.32-.1.096-.053.212-.066.309-.118.097-.052.184-.116.281-.168.097-.052.195-.097.292-.141.097-.043.127-.232.225-.281.098-.049.253.019.353-.029.099-.048.161-.162.261-.211.1-.049.187-.117.281-.161.094-.045.209-.069.309-.116.1-.046.188-.115.281-.161.093-.047.225-.033.323-.076.098-.044.162-.173.264-.215.103-.042.238 0 .339-.044.101-.043.215-.046.319-.088.104-.042.17-.162.272-.202.103-.041.215-.054.316-.096s.196-.101.298-.14c.103-.04.193-.109.296-.141.104-.032.215-.046.319-.084.104-.038.197-.101.301-.141.104-.039.247.045.351.012.104-.034.208-.065.312-.1.104-.035.177-.165.281-.198.104-.034.208-.07.312-.104.104-.034.225-.014.33-.045.105-.031.194-.115.299-.141.106-.025.211-.057.315-.088.104-.031.208-.068.313-.097.106-.03.208-.063.315-.093l.316-.087c.105-.029.215-.042.323-.07.108-.028.207-.073.313-.1.107-.027.21-.064.315-.09.105-.025.219-.021.326-.049.107-.028.205-.081.312-.108.107-.027.213-.053.32-.076.107-.022.231.03.337.007.107-.022.212-.053.319-.077.107-.024.219-.018.326-.041.107-.022.207-.083.315-.104.108-.021.227.03.336.011.108-.018.198-.132.306-.153.108-.021.215-.029.326-.046.111-.017.215-.044.323-.061.108-.016.225.019.333 0 .108-.018.202-.127.31-.14.108-.013.236.094.344.079.109-.016.208-.096.317-.111.108-.016.22 0 .33-.019.109-.018.222.012.331 0 .11-.011.215-.053.323-.068l.323-.04c.109-.014.22-.011.328-.021.108-.01.215-.029.323-.039.108-.01.212-.072.323-.083l.327-.032c.111-.012.215-.037.326-.047.111-.01.221.012.33 0 .11-.011.219 0 .329-.011.11-.011.215-.06.323-.069.108-.008.215-.053.326-.06.111-.007.226.091.336.084.109-.007.219 0 .33 0 .111 0 .215-.058.326-.063.111-.006.219 0 .329-.007.109-.007.215-.037.327-.041.112-.004.215-.08.326-.086.111-.005.223.083.333.079.109-.004.215-.108.326-.114.111-.005.222.047.331.044.11-.003.222.066.333.063.111-.003.215-.126.326-.129.111-.003.222.071.333.069.111-.003.222.032.332.032.109 0 .219-.131.33-.132.111-.002.222.157.333.157.111 0 .223-.014.334-.014.111 0 .219-.09.329-.09.109 0 .219.051.328.051.11 0 .22-.069.329-.068.11.002.218.097.328.1.109.003.22-.084.328-.083.108.002.219.021.329.021.11 0 .219-.025.329-.025.109 0 .22-.029.328-.025.109.004.215.053.328.053.112 0 .215.09.323.093.108.003.223-.101.331-.097.109.004.215.07.324.074.108.005.221-.042.33-.038.108.005.215.117.323.123l.327.011.327.025c.11.007.225-.104.335-.097.109.007.21.127.32.134l.327.018c.11.007.225-.065.333-.058.108.007.211.116.321.123.109.007.223-.037.331-.03.108.007.215.045.323.053.108.009.224-.032.332-.025.108.007.22-.007.329 0 .108.007.21.101.318.111.109.01.224-.025.332-.014.108.011.215.058.323.069.108.011.215.032.323.044.108.011.219 0 .328.014.108.014.223-.026.332-.014.11.011.222 0 .331.011.108.011.209.1.317.114.108.014.215.059.323.074.108.015.225-.021.333 0 .108.021.211.082.319.097.108.015.215.053.323.07.108.017.232-.063.341-.046.11.017.204.121.312.14.109.02.215.054.323.072.109.018.241-.101.349-.083.108.018.192.18.299.198.107.018.243-.112.351-.093.108.02.21.076.318.097.108.021.201.12.309.141.108.021.227-.021.336 0 .108.021.223 0 .33.029.107.03.188.175.295.197.107.023.233-.044.341-.021.108.022.215.036.323.06.108.024.212.058.319.082.107.024.208.074.315.098.107.024.205.083.312.108.106.026.227-.007.334.019.107.025.215.039.323.064.108.026.207.079.312.108.105.03.208.072.313.1.106.028.236-.029.342 0 .105.03.168.215.274.245.105.029.219.029.323.06.104.031.236-.025.341 0 .105.025.209.065.315.097.105.032.198.101.302.14.104.04.226.014.33.047.104.032.208.073.312.108.104.035.173.176.281.209.108.034.247-.046.351-.011.104.035.164.197.27.233.105.037.243-.032.347 0 .104.033.181.141.281.181l.309.111c.102.038.237-.011.34.03.102.041.168.171.269.211.102.039.2.09.301.13.101.041.207.073.308.114.101.041.192.108.295.148.102.039.246-.021.347.021.101.042.187.12.281.164.094.044.205.079.304.122.1.044.187.12.281.162.095.042.192.108.29.154.098.047.254-.029.354.019.1.047.191.111.289.158.099.048.132.229.231.281.098.052.255-.021.352.026.097.046.184.122.281.172.097.051.158.173.254.224.097.05.213.066.308.118.096.052.17.14.266.196.095.057.21.069.307.121.097.052.234.033.328.086.094.053.14.185.24.24.1.055.22.054.315.111.094.058.196.098.29.155.094.056.176.14.27.191.094.05.164.15.257.208.093.057.215.066.308.125s.175.132.267.192c.091.061.161.156.25.215.088.059.227.053.317.117.09.063.186.116.281.179.096.064.092.251.18.314.089.063.204.09.292.153.089.063.24.042.329.108l.263.197c.087.066.119.205.205.269.085.065.147.165.234.232.087.068.176.131.26.198.085.068.197.104.281.173.085.069.2.103.281.173.082.07.179.128.262.198.082.07.099.219.181.291.081.071.17.14.25.209.08.069.173.141.253.208.08.067.175.132.254.205.079.073.184.122.264.198.08.076.187.121.266.197.078.076.154.156.231.232.078.076.134.177.21.254.076.077.077.23.153.308.076.077.247.064.323.14.076.076.053.249.128.329.074.08.209.104.281.184.071.08.189.123.261.205.072.081.104.201.176.281.071.08.161.15.231.233.071.083.058.238.128.323.07.086.224.099.292.183.069.084.103.198.172.281.069.083.14.166.211.25.07.084.113.188.179.281.066.093.109.19.176.281.067.091.215.111.281.198.066.087.039.242.102.33.064.089.141.166.206.254.064.089.196.13.259.215.064.086.044.235.106.323.062.089.157.158.215.249.057.091.132.174.191.266.059.091.181.14.239.236.057.095 0 .258.053.351.053.092.185.14.242.236.056.095.161.158.215.253.053.094.046.226.099.323.054.097.072.21.125.306.054.095.17.156.224.251.053.096.14.17.196.266.057.095.089.201.141.298.052.097.014.239.065.336.05.096.073.207.12.304.048.097.1.193.148.291.048.098.101.193.149.291.048.098.192.15.239.25.046.1.077.205.122.305s.128.182.171.281c.044.098-.029.251.014.351.044.1.093.197.141.298.047.101.184.161.224.261.041.1-.011.24.03.342.041.101.07.206.108.307.038.101.162.173.2.281.038.108.104.195.14.298.037.103.044.215.08.319.037.104 0 .233.033.336.032.102.125.188.161.29.037.103.115.193.15.297.036.104.037.219.068.323.031.104-.032.239 0 .343.032.104.053.21.087.314.034.104.17.179.199.281.03.103-.032.236 0 .342.033.105.054.21.083.316.03.105.182.178.208.281.027.102.037.215.062.323.025.108.067.208.093.315.025.106.007.223.029.328.023.106.059.211.085.316.025.106.071.208.094.315.022.107-.061.236-.038.343.022.107.021.215.043.323.023.108.04.215.061.323.021.108.097.204.116.311.02.106.141.196.158.303.016.107.021.218.04.323.02.105-.094.236-.076.344.019.108.141.2.152.308.011.108-.073.232-.057.34.015.108.14.201.153.309.012.108-.059.229-.045.337.014.108.032.215.043.323.012.108.117.207.131.315.014.108-.053.226-.039.334.014.108.104.208.115.318.011.109-.054.226-.045.334.008.108 0 .219.007.329.007.109.131.208.14.316.01.108-.07.225-.063.334.007.11-.014.219-.007.329.007.11.007.218.011.327.005.11.076.215.083.323.007.109.042.215.048.323.006.109 0 .22 0 .328 0 .108-.062.22-.058.33.005.11.095.215.097.323.003.108-.059.221-.057.329.001.108-.026.219-.026.327 0 .108.015.218.019.326.004.108.038.218.038.326 0 .108.076.219.076.327 0 .108-.095.215-.096.326-.001.111-.041.215-.042.326-.002.111.108.221.108.329 0 .108-.021.218-.025.326-.004.108.049.22.046.328-.003.109-.124.215-.129.324-.006.108.074.222.069.33-.006.108-.038.215-.044.323-.005.108-.102.213-.108.32-.006.107.132.226.125.334-.007.109-.06.215-.067.324-.007.108.032.222.025.328-.007.107-.091.211-.101.319-.01.108-.078.212-.087.319-.01.107.014.221 0 .327-.014.107-.065.214-.076.321-.011.107.029.223.018.328-.011.106.073.229.06.336-.012.107-.158.203-.171.308-.013.105.101.233.089.34-.013.107-.081.211-.095.316-.014.105-.108.208-.12.312-.013.104.038.227.022.331-.015.104-.018.221-.032.323-.014.103-.007.224-.025.326-.019.103-.083.211-.102.314-.018.102-.085.21-.104.311-.018.102-.071.215-.09.314-.018.098.044.239.026.334-.026.124.018.245 0 .333-.051.211-.214.128-.242.281l.023-.045Z"
            fill="#99C0FF"
        />
        <path
            d="M366.198 324.984c-.12-.115-.141.021-.352 0-.091-.009-.203 0-.328-.026-.099-.016-.207-.047-.323-.069-.117-.023-.201-.073-.315-.101-.114-.028-.215-.021-.327-.054-.113-.032-.197-.092-.305-.127-.108-.036-.219-.029-.326-.067-.107-.037-.195-.096-.301-.14-.105-.044-.203-.076-.307-.121-.104-.045-.21-.067-.311-.115s-.173-.14-.272-.194c-.1-.053-.21-.072-.308-.126-.098-.055-.2-.093-.296-.151-.097-.057-.194-.104-.288-.164-.095-.06-.173-.14-.265-.201-.091-.06-.175-.132-.265-.198-.09-.066-.164-.14-.253-.215-.088-.074-.18-.125-.267-.195-.087-.07-.192-.114-.281-.187-.088-.073-.14-.178-.215-.254l-.239-.229c-.08-.079-.161-.151-.238-.231-.078-.08-.141-.167-.22-.25-.078-.083-.164-.14-.238-.23-.075-.09-.162-.149-.236-.235-.075-.085-.093-.208-.162-.295s-.149-.161-.215-.251-.122-.183-.187-.273c-.064-.09-.161-.156-.222-.247-.06-.091-.09-.204-.15-.298s-.164-.156-.225-.25c-.06-.094-.108-.192-.166-.288-.057-.095-.08-.208-.14-.305-.06-.097-.129-.179-.183-.281-.053-.101-.108-.192-.157-.29-.049-.099-.063-.215-.114-.315-.05-.1-.114-.19-.161-.291-.048-.101-.089-.201-.141-.302-.052-.101-.088-.202-.133-.305-.045-.102-.115-.17-.159-.274-.159-.039-.103.021-.281.141-.074.053-.128.164-.232.236-.081.053-.198.078-.298.14l-.281.176c-.087.053-.156.15-.252.211-.097.06-.194.092-.291.151-.097.059-.19.1-.281.158-.092.057-.187.108-.281.161-.094.054-.162.141-.261.202-.1.062-.197.092-.294.141-.097.049-.194.094-.292.14-.099.047-.193.099-.291.151-.098.052-.183.116-.281.167-.098.051-.198.087-.298.14l-.293.141c-.1.048-.185.116-.281.161-.097.045-.215.044-.318.089-.102.045-.174.14-.274.185-.1.045-.215.051-.315.095-.099.043-.193.095-.296.14-.103.045-.192.104-.294.14-.101.037-.215.051-.316.09-.101.04-.201.083-.303.121l-.306.115c-.103.038-.217.047-.318.082s-.204.077-.308.112c-.103.035-.198.092-.303.125-.105.034-.211.054-.316.089-.105.035-.209.06-.315.09-.105.029-.196.102-.303.132-.107.029-.219.026-.323.053-.104.027-.212.054-.318.079-.105.025-.209.06-.316.085-.107.026-.205.083-.312.109-.106.025-.224 0-.331.018-.107.018-.211.059-.318.08-.107.021-.206.079-.314.1-.109.021-.222 0-.331.017-.108.016-.21.063-.318.078-.109.016-.22.012-.328.027-.108.015-.215.035-.323.048-.108.012-.215.035-.323.046-.108.011-.215.044-.323.053-.108.01-.219.013-.329.022-.109.008-.219 0-.329 0-.109 0-.219-.017-.328-.012-.11.006-.215.04-.326.042-.111.003-.215.029-.328.03-.112.001-.219 0-.328 0-.11 0-.219.013-.329.011-.11-.001-.215-.043-.327-.048-.113-.004-.221.021-.329.016-.108-.006-.215-.054-.323-.063-.108-.01-.222.039-.332.029-.109-.01-.215-.046-.323-.057-.108-.012-.215-.045-.323-.059-.108-.014-.219 0-.327-.022-.108-.021-.215-.018-.326-.035-.111-.016-.208-.081-.315-.101-.107-.019-.22 0-.329-.025-.108-.025-.214-.024-.323-.046-.108-.023-.212-.054-.319-.079-.106-.025-.202-.093-.309-.119-.106-.027-.215-.029-.323-.054-.108-.025-.203-.081-.309-.112-.105-.031-.223-.016-.329-.048-.105-.032-.196-.104-.3-.141-.104-.036-.219-.032-.323-.067-.104-.035-.198-.095-.301-.133-.102-.038-.206-.075-.308-.114-.101-.04-.203-.079-.306-.12-.102-.04-.211-.061-.31-.108l-.301-.132c-.1-.045-.191-.108-.291-.153-.099-.045-.206-.074-.305-.122-.098-.048-.198-.094-.296-.141-.098-.046-.183-.122-.281-.175-.098-.054-.199-.09-.296-.141-.097-.05-.196-.098-.291-.153-.096-.055-.169-.14-.263-.201-.094-.06-.211-.073-.305-.13-.094-.058-.167-.141-.26-.206-.092-.064-.206-.085-.297-.14-.092-.055-.184-.119-.281-.181-.097-.062-.165-.141-.255-.211s-.185-.157-.281-.222c-.157.046 0 .141-.097.34-.039.083-.14.157-.192.27-.044.09-.084.191-.14.296-.057.106-.051.211-.104.315-.054.104-.141.161-.2.264-.059.103-.073.204-.126.303-.054.1-.104.189-.158.281-.053.093-.085.2-.14.297-.055.097-.141.168-.195.265-.055.097-.076.205-.132.302-.057.097-.141.166-.2.262-.059.095-.084.201-.14.296-.057.096-.104.19-.162.281-.058.091-.14.171-.194.264-.053.093-.1.193-.161.281-.062.089-.141.166-.203.259-.062.092-.112.185-.173.281-.06.095-.099.193-.161.281-.062.087-.108.191-.167.28-.059.09-.162.152-.225.244-.063.091-.118.182-.18.272-.062.09-.093.201-.156.291-.063.09-.128.175-.192.265-.065.09-.121.183-.186.27l-.196.261c-.066.089-.172.141-.238.231-.066.09-.101.196-.17.281-.069.084-.121.182-.189.269-.069.088-.18.141-.249.221-.069.08-.098.202-.167.281-.069.079-.141.162-.215.246-.075.084-.173.14-.245.222-.071.081-.126.178-.199.261-.073.083-.141.171-.208.253-.067.081-.132.176-.206.256-.075.08-.193.118-.27.198-.077.08-.141.167-.215.246-.075.078-.152.156-.229.233-.077.077-.129.18-.207.257-.077.077-.161.147-.238.223-.078.076-.182.127-.26.201-.079.075-.154.156-.234.229-.08.073-.161.141-.244.215-.083.074-.162.141-.243.219-.082.079-.141.174-.221.246-.08.072-.196.105-.281.176-.084.07-.14.172-.226.24-.085.067-.203.095-.289.161-.086.066-.141.182-.222.248-.082.066-.188.113-.281.178-.093.065-.19.111-.281.174-.091.063-.178.125-.27.187-.091.062-.184.117-.281.179-.097.061-.178.126-.269.186-.092.061-.19.109-.281.168-.092.059-.184.115-.281.172-.097.058-.162.156-.257.211-.096.055-.193.103-.288.156-.096.053-.204.083-.301.14-.097.058-.176.141-.274.186-.098.045-.215.056-.315.104-.099.048-.174.14-.274.19-.099.049-.202.085-.302.129-.099.043-.215.048-.319.09-.104.042-.2.084-.303.125-.103.04-.207.07-.309.108-.103.038-.204.077-.308.114-.104.036-.201.085-.305.119-.104.034-.199.096-.303.128-.104.032-.211.058-.316.087-.105.03-.222.017-.327.044l-.318.078c-.107.026-.208.069-.315.093-.106.024-.209.069-.317.088-.108.02-.219.017-.327.036-.109.018-.215.042-.324.056-.108.014-.214.021-.325.033-.111.013-.215.026-.326.037-.111.011-.215.015-.328.024-.112.008-.219 0-.328.01-.11.01-.215.046-.326.049-.111.003-.219-.025-.329-.025-.11 0-.218-.014-.327-.017-.11-.003-.22.017-.329.012-.11-.004-.215-.035-.326-.042-.111-.007-.221.021-.33.013-.11-.009-.218-.016-.327-.027-.11-.011-.215-.031-.324-.045-.108-.014-.215-.025-.323-.042-.108-.017-.212-.053-.323-.073-.111-.02-.211-.062-.317-.083-.107-.021-.224 0-.332-.015-.108-.016-.216-.048-.32-.072-.104-.024-.207-.074-.313-.1-.107-.025-.215-.036-.324-.064-.108-.028-.207-.064-.313-.094-.105-.031-.212-.051-.317-.083-.106-.033-.2-.089-.304-.124-.104-.035-.215-.042-.32-.077-.105-.035-.188-.121-.291-.158-.102-.036-.226-.018-.329-.057-.102-.039-.188-.115-.29-.157-.103-.043-.198-.092-.3-.141-.101-.049-.215-.053-.314-.1-.1-.046-.184-.122-.281-.168-.097-.047-.193-.101-.292-.149-.1-.048-.222-.041-.324-.09-.101-.049-.188-.112-.28-.162-.093-.049-.19-.108-.281-.158-.092-.051-.176-.134-.273-.187-.097-.054-.197-.093-.292-.141-.096-.047-.207-.078-.301-.133-.094-.055-.194-.101-.281-.158-.087-.056-.175-.132-.27-.189-.094-.058-.191-.108-.28-.165-.09-.056-.192-.108-.281-.167-.09-.059-.155-.161-.246-.223-.092-.062-.19-.111-.281-.173-.092-.062-.193-.104-.281-.167-.089-.063-.187-.114-.281-.177-.094-.063-.153-.162-.242-.226-.088-.065-.189-.111-.281-.177-.091-.066-.188-.114-.281-.18-.092-.066-.151-.162-.239-.229l-.261-.201c-.087-.067-.174-.122-.261-.192-.148.07-.042.104-.054.319 0 .091.044.203.037.331 0 .1-.031.208-.037.327-.005.12.013.214 0 .329-.012.115-.053.211-.063.323-.01.113-.028.214-.033.326-.006.113.012.215 0 .329-.013.114-.019.215-.026.327-.007.113 0 .215-.014.329-.014.114.011.218 0 .33-.011.112-.06.215-.069.323-.008.108.016.219 0 .33-.015.111-.036.215-.045.326-.008.111.01.219 0 .33-.009.111-.056.215-.064.323-.009.109.038.222.028.332-.01.11-.068.214-.077.323-.01.11.025.221.015.332-.01.111-.046.215-.053.323-.007.108-.017.215-.027.327-.01.112-.011.215-.021.327-.01.113-.03.215-.039.326-.01.111-.054.215-.065.323-.011.109.032.222.022.333-.009.111-.067.212-.078.323-.011.111.032.222.021.333-.011.111-.082.211-.093.324-.011.112-.024.214-.035.323-.011.108 0 .217-.015.327-.016.11-.029.215-.041.323-.013.108-.01.215-.021.327-.012.113-.033.215-.044.323-.011.109-.05.215-.064.324-.014.108-.014.215-.029.326-.014.11.009.22 0 .328-.008.108-.011.218-.025.328-.014.109-.048.215-.062.323-.014.108-.043.215-.057.323-.014.108.014.222 0 .331-.014.11-.07.211-.085.321-.014.109-.016.219-.03.327-.014.108-.016.219-.031.327-.016.108-.078.211-.093.319-.015.108 0 .221-.01.329-.01.108-.018.215-.034.326-.015.111-.045.215-.06.323-.015.108-.021.218-.037.326-.015.108-.07.211-.085.319-.016.108-.037.215-.054.323-.016.108-.025.215-.043.323-.018.108.011.223 0 .331-.011.109-.1.207-.118.315-.018.108.029.228.011.336-.018.108-.038.215-.053.323-.016.108-.1.207-.118.313-.019.107-.012.221-.031.329-.02.108-.009.222-.028.33-.02.108-.051.215-.072.323-.021.108-.069.211-.088.319-.02.108-.033.215-.054.326-.021.111-.042.215-.063.323-.021.108-.069.211-.091.319-.023.108-.033.215-.054.323-.021.108-.028.219-.049.328-.021.108-.035.214-.059.323-.024.108-.076.209-.1.316-.024.106-.028.219-.053.326-.025.106-.059.212-.083.319-.024.106-.043.214-.069.323-.025.108-.014.223-.039.33-.025.107-.108.201-.132.307-.024.107-.051.215-.077.324-.027.108-.054.214-.081.32-.026.105 0 .227-.025.334-.025.107-.088.205-.115.311-.027.105-.074.208-.103.314-.028.107-.043.215-.071.323-.028.109-.047.215-.076.324-.03.108-.082.206-.112.311-.031.106-.043.215-.075.324-.032.108-.073.207-.104.313-.031.105-.053.215-.087.319-.034.104-.063.21-.097.314-.034.104-.101.2-.14.302-.04.103-.019.227-.054.329-.035.103-.098.2-.14.302-.042.103-.044.219-.08.323-.037.104-.108.194-.141.297-.032.102-.067.209-.108.31-.041.101-.086.202-.126.304-.041.101-.092.199-.132.3-.041.101-.043.221-.085.323-.042.103-.099.198-.14.3-.041.101-.132.182-.177.281-.045.098-.07.21-.118.309-.048.098-.072.209-.121.307-.049.099-.094.2-.141.297-.046.097-.108.192-.158.281-.051.088-.127.181-.18.281-.053.099-.1.196-.155.289-.054.093-.108.192-.164.281-.056.088-.128.18-.187.27-.059.09-.093.202-.154.292-.062.09-.155.161-.22.247-.064.086-.129.197-.195.281-.161-.017-.045-.121-.151-.306-.045-.079-.104-.172-.168-.281-.049-.086-.111-.176-.168-.281-.058-.105-.08-.197-.141-.298-.06-.101-.108-.183-.161-.281-.054-.098-.127-.174-.181-.272-.055-.099-.076-.203-.133-.301-.056-.098-.14-.171-.188-.27-.048-.098-.064-.209-.119-.307-.055-.099-.118-.182-.172-.281-.053-.1-.14-.173-.186-.27-.047-.097-.078-.204-.131-.301-.053-.097-.104-.189-.157-.281-.054-.091-.109-.187-.158-.281-.049-.094-.09-.195-.14-.293-.051-.099-.141-.172-.187-.27-.046-.098-.096-.194-.141-.291-.045-.097-.095-.194-.14-.291-.045-.097-.089-.198-.141-.295-.052-.097-.094-.193-.14-.29-.046-.097-.121-.182-.17-.281-.049-.1-.108-.189-.157-.281-.05-.093-.078-.204-.128-.301-.051-.097-.117-.184-.166-.281-.049-.097-.065-.211-.114-.308s-.099-.192-.149-.29c-.049-.099-.127-.179-.177-.281-.049-.103-.043-.221-.092-.319-.05-.099-.141-.176-.184-.273-.044-.097-.093-.196-.141-.295-.048-.098-.081-.202-.129-.3-.048-.099-.089-.199-.141-.297-.052-.098-.092-.197-.14-.295-.048-.098-.087-.199-.141-.298-.053-.098-.104-.191-.15-.289l-.14-.296c-.047-.099-.117-.186-.162-.281-.045-.096-.067-.21-.114-.308-.046-.098-.08-.202-.126-.302-.047-.1-.111-.188-.158-.288-.046-.1-.073-.207-.118-.305-.044-.098-.14-.178-.178-.281-.038-.102-.069-.208-.114-.306-.045-.099-.105-.191-.15-.291-.045-.1-.097-.195-.141-.294-.043-.098-.099-.193-.14-.293-.041-.1-.066-.21-.108-.309-.042-.1-.08-.203-.125-.302-.045-.1-.1-.194-.141-.294-.04-.1-.067-.208-.111-.308-.043-.099-.097-.195-.14-.296-.044-.101-.051-.215-.093-.316s-.102-.194-.14-.294c-.038-.099-.072-.206-.114-.307-.042-.101-.141-.179-.183-.281-.042-.103-.064-.21-.108-.311-.043-.101-.076-.205-.117-.306-.04-.101-.071-.207-.113-.308-.042-.101-.058-.212-.099-.313-.04-.101-.118-.188-.157-.289-.039-.101-.049-.215-.088-.318-.04-.102-.126-.185-.165-.281-.039-.095-.032-.222-.072-.323-.039-.101-.091-.199-.129-.302-.038-.102-.081-.204-.121-.305-.039-.101-.064-.209-.102-.312-.038-.102-.117-.191-.153-.293-.037-.103-.068-.21-.104-.312-.037-.103-.038-.219-.075-.323-.036-.104-.102-.197-.14-.299-.038-.103-.077-.206-.114-.31-.036-.103-.039-.217-.074-.323-.036-.105-.104-.196-.141-.3-.036-.104-.048-.215-.081-.319-.034-.104-.054-.212-.089-.316-.035-.104-.101-.198-.14-.302l-.097-.314c-.033-.104-.061-.21-.092-.316-.03-.105-.032-.219-.064-.323-.033-.104-.068-.209-.097-.313-.03-.104-.093-.201-.122-.306-.03-.106-.054-.212-.086-.318-.032-.105-.044-.215-.073-.323-.03-.108-.079-.206-.108-.312-.03-.105-.065-.21-.093-.316-.028-.105-.015-.222-.042-.329-.027-.106-.072-.207-.098-.314-.027-.107-.051-.215-.076-.319-.026-.104-.068-.209-.092-.316-.024-.107-.067-.21-.091-.316-.024-.107-.021-.221-.043-.328-.023-.106-.019-.22-.04-.327-.021-.107-.06-.212-.08-.319-.02-.107-.036-.215-.053-.323-.017-.108-.024-.218-.042-.323-.019-.105-.085-.208-.102-.316-.016-.108.016-.225 0-.332-.015-.106-.067-.212-.082-.319-.016-.106-.01-.219-.024-.327-.014-.108-.075-.212-.089-.319-.014-.107-.018-.219-.029-.327-.012-.108-.026-.215-.035-.326-.01-.111 0-.221 0-.329 0-.108-.033-.215-.038-.326-.006-.111.021-.22.016-.328-.004-.109-.03-.218-.033-.326-.003-.109-.019-.219-.02-.328-.001-.108 0-.22 0-.327 0-.107.063-.215.066-.326.003-.111-.013-.219 0-.327.013-.108-.014-.221 0-.329.014-.108.023-.219.034-.326.011-.107.041-.215.053-.323.013-.108.011-.221.028-.327.017-.107.04-.215.059-.323.02-.109.083-.207.108-.312.026-.106.036-.215.064-.323.028-.109.059-.211.09-.315.03-.104.043-.215.08-.318.036-.102.094-.198.14-.299.046-.101.089-.199.132-.299.044-.1.065-.211.115-.308.051-.097.109-.189.162-.281.053-.091.1-.195.161-.281.062-.085.121-.182.186-.269.065-.087.161-.152.23-.236.069-.085.124-.182.2-.262.076-.08.168-.14.247-.215.079-.074.149-.161.233-.229.085-.067.186-.113.281-.178.096-.065.179-.122.27-.181.091-.059.159-.158.254-.212.096-.055.197-.094.297-.141.099-.046.23-.064.331-.108.079-.14-.039-.129-.06-.34-.01-.09-.054-.197-.066-.323-.009-.098 0-.208-.014-.323-.014-.115 0-.212 0-.327 0-.116.017-.215.01-.328-.007-.112-.029-.212-.034-.323-.006-.111-.041-.215-.045-.323-.004-.108.043-.215.041-.327-.003-.113-.047-.215-.05-.323-.002-.109-.022-.215-.022-.324 0-.108.031-.214.031-.325 0-.111-.013-.215-.011-.326.001-.111.036-.215.039-.324.003-.108-.024-.214-.021-.325.003-.111-.014-.215-.01-.328.004-.112.053-.215.059-.323.006-.108.014-.215.021-.323.007-.108 0-.215 0-.327 0-.113.037-.215.046-.323.01-.109 0-.218.009-.328.008-.109 0-.219.013-.327.012-.108.067-.211.08-.319.012-.108 0-.22.011-.329.011-.108.08-.208.097-.316.017-.108 0-.222.012-.328.013-.107.022-.215.041-.324.02-.108.093-.203.115-.31.023-.107.013-.221.037-.326.024-.105.028-.215.053-.323.026-.108.108-.197.141-.302.032-.105.015-.222.046-.326.031-.104.059-.211.091-.315.033-.104.047-.215.082-.319.035-.104.118-.191.154-.293.037-.103.083-.201.123-.304.039-.102.032-.223.074-.323.042-.1.096-.198.141-.296.045-.099.119-.186.167-.281.048-.096.084-.202.14-.298.056-.096.134-.176.189-.27.054-.094.122-.18.179-.269.058-.09.083-.207.141-.297.057-.09.15-.161.215-.247.064-.086.128-.177.198-.26.07-.083.116-.188.189-.27.074-.081.152-.157.229-.234.078-.078.18-.128.262-.2.081-.071.15-.161.236-.227.085-.066.192-.106.281-.169.088-.063.174-.129.265-.187.092-.057.193-.1.281-.153.089-.053.169-.14.267-.194.098-.053.194-.1.297-.14.102-.041.193-.069.297-.106.1-.129.04-.098.069-.307.013-.09.03-.198.049-.323.014-.097.009-.207.028-.324.02-.116.065-.2.085-.313.019-.112-.007-.215.012-.327.02-.112.073-.202.096-.312.022-.11.035-.211.058-.319.022-.108.047-.208.07-.317.022-.11.038-.211.062-.319.023-.108.053-.208.078-.316.026-.109.058-.207.085-.315.026-.108.036-.214.063-.32.026-.107.081-.203.108-.309.027-.107.036-.215.065-.319.028-.104.018-.219.049-.323.031-.104.108-.194.14-.3.033-.105.051-.21.082-.316.031-.105.074-.203.108-.307.034-.104.053-.208.086-.312.032-.104.028-.215.06-.321.032-.105.06-.206.095-.31.036-.104.117-.187.152-.291.035-.104.041-.215.077-.316.037-.101.104-.191.141-.293.036-.103.053-.211.091-.312s.047-.215.086-.315c.039-.1.108-.19.14-.292.033-.103.058-.21.1-.311s.104-.191.141-.292c.036-.101.053-.211.098-.31.045-.1.094-.196.14-.295.047-.1.117-.184.162-.281.045-.097.059-.211.104-.311s.081-.201.129-.299c.048-.098.104-.191.152-.288.048-.097.131-.177.18-.274.049-.097.071-.206.122-.303.051-.097.112-.186.162-.281.049-.096.108-.19.158-.281.051-.092.104-.191.158-.281.053-.09.081-.204.14-.298.059-.094.141-.167.2-.261.059-.095.116-.184.172-.281.057-.097.113-.186.172-.281.059-.096.112-.187.171-.281.059-.094.128-.176.188-.267.061-.092.1-.194.162-.281.062-.087.157-.155.221-.245.063-.09.118-.181.184-.269.066-.089.098-.197.164-.281l.198-.26c.067-.086.167-.141.236-.229.069-.089.101-.198.171-.281.071-.083.152-.158.222-.239.071-.081.13-.176.201-.257.072-.082.177-.132.252-.215.074-.083.118-.187.192-.266.075-.078.186-.123.261-.2.076-.078.141-.162.221-.241.08-.078.15-.157.229-.231.079-.075.148-.162.228-.234.08-.071.158-.149.24-.222.081-.073.184-.12.267-.191.083-.07.133-.179.215-.25.081-.07.206-.091.29-.161.085-.07.158-.152.244-.215.085-.063.182-.118.269-.183.087-.064.141-.168.235-.232.094-.063.187-.113.281-.174.094-.06.198-.093.289-.153.092-.06.183-.117.281-.174.099-.058.177-.127.27-.181.093-.055.18-.123.281-.176.101-.053.185-.114.281-.164.095-.051.198-.089.295-.141.097-.052.188-.111.281-.159.093-.047.194-.096.293-.14.1-.044.196-.096.295-.141.1-.044.213-.053.314-.096.101-.044.199-.086.3-.127.101-.041.187-.121.29-.159.102-.038.222-.024.323-.06.101-.037.199-.087.303-.121.104-.034.201-.088.305-.121.104-.032.204-.077.311-.108.106-.031.215-.036.323-.064.108-.029.208-.064.313-.089.105-.025.215-.035.323-.059.108-.024.215-.017.323-.038.108-.021.211-.053.319-.072.108-.018.215-.029.323-.046.108-.017.211-.053.319-.069.108-.015.215-.015.323-.029l.323-.038c.108-.011.212-.054.321-.065.108-.011.215-.021.323-.029.108-.009.219.019.328.014.11-.006.215-.066.324-.07.108-.005.214-.017.325-.02.111-.003.22.053.329.053.11 0 .215-.026.326-.026.111 0 .24.025.351.026.128-.102 0-.14.058-.343.025-.088.049-.193.087-.313.03-.094.111-.181.149-.293.038-.113.053-.204.094-.311.041-.107.076-.197.117-.303.04-.107.07-.201.112-.305.042-.104.058-.208.101-.311.044-.102.127-.178.173-.281.046-.102.063-.208.111-.307.048-.1.09-.196.14-.295.051-.1.071-.207.121-.305.051-.098.1-.193.152-.29.052-.096.103-.191.157-.28.055-.09.141-.172.193-.266.052-.094.108-.188.167-.281.059-.093.128-.176.188-.27.061-.094.141-.168.201-.258.06-.09.079-.211.141-.299.061-.089.14-.169.206-.255.066-.085.171-.14.24-.226.069-.086.121-.181.193-.265.071-.085.154-.153.227-.234.073-.08.141-.161.221-.238.08-.078.121-.187.198-.264.077-.078.185-.121.265-.194.081-.073.131-.18.213-.252.081-.071.165-.14.25-.211.084-.07.179-.123.267-.189.087-.066.164-.141.252-.208.089-.068.176-.131.266-.19.09-.059.215-.069.306-.126.092-.058.162-.155.257-.208.096-.053.204-.08.301-.129.097-.05.185-.116.281-.162.095-.046.199-.088.301-.129.101-.041.203-.076.307-.114.104-.038.215-.039.32-.073.106-.034.206-.069.311-.098.105-.03.201-.089.308-.116.106-.026.212-.043.32-.066.108-.022.212-.043.323-.061.111-.019.215-.041.323-.054.108-.012.215 0 .327-.01.113-.009.215-.028.324-.033.108-.006.214 0 .325-.009.111-.008.215 0 .326 0 .111 0 .215.012.326.017.111.006.217.016.323.025.107.01.215.024.324.037.108.013.219 0 .328.01.11.01.208.073.316.093.109.019.211.05.319.073.108.022.222 0 .33.018.109.018.215.036.323.063.109.027.21.06.315.09.106.029.194.108.299.14.106.033.215.043.319.078.104.035.203.078.307.115.103.036.214.039.318.079.104.039.187.12.29.161l.302.125c.102.042.204.076.305.12.101.043.215.053.314.098.1.045.191.104.291.152.1.047.201.082.299.132.099.049.2.088.297.14l.291.152c.097.052.167.14.264.199s.215.065.307.12c.093.055.159.157.253.212l.281.161c.094.054.186.109.281.168.096.059.208.074.301.132.093.057.18.12.27.179.089.059.174.13.265.19.091.061.167.141.257.202l.27.186c.09.062.194.1.281.161.087.062.168.141.258.201.09.061.167.141.255.205.087.065.184.116.272.182.089.066.157.153.245.219.087.066.198.098.281.166.082.067.161.147.247.214.085.068.157.152.243.221s.178.125.264.194c.086.069.164.14.25.209.086.069.162.141.244.215.083.075.201.097.281.167.08.071.151.162.234.231.082.069.177.128.259.201.083.073.141.171.222.244.082.073.182.125.263.198.082.073.141.17.222.243.082.073.177.129.259.204.081.074.171.14.252.208.082.067.155.153.236.227l.239.227c.08.075.13.179.21.257.08.077.168.14.248.215.08.074.173.14.252.212.078.071.129.18.208.258.078.079.165.141.244.221.079.08.176.115.254.194.159.036.094-.036.3-.096.087-.025.193-.053.314-.086.096-.025.205-.04.321-.07.115-.029.198-.076.311-.104.114-.028.215-.011.328-.036.112-.026.212-.03.323-.054.111-.024.206-.059.317-.081.111-.023.215-.025.323-.045.109-.02.208-.065.318-.084.11-.02.215-.03.323-.05.108-.019.209-.053.319-.07.11-.017.215-.027.323-.043l.323-.048c.108-.016.212-.044.323-.058.111-.014.215-.015.323-.028.109-.013.22.01.329 0 .11-.01.211-.067.32-.077l.324-.03c.108-.009.214 0 .325-.014.111-.014.215-.012.326-.021l.326-.021c.108 0 .215-.039.323-.045.109-.005.215.02.328.016.112-.005.215-.047.323-.049.108-.003.215.015.327.012.113-.003.215 0 .327 0 .113 0 .215.03.328.03.112 0 .215-.038.326-.037.111.002.215.038.326.041.111.003.219-.048.328-.045.11.003.215.048.323.053.109.006.215.026.324.03.108.004.214.015.325.022.111.007.22-.025.329-.018.11.007.215.024.323.032.108.009.215.012.326.021l.323.033c.109.01.221-.01.329 0 .108.01.215.029.323.042.108.012.21.077.319.091.11.014.219 0 .329.016l.323.05c.108.016.219 0 .327.023.108.022.215.029.323.047.109.019.204.097.312.117.108.02.222 0 .329.021.107.021.211.058.317.079l.324.067c.108.023.214.041.323.065.108.024.208.067.314.093.107.025.215.043.321.068.105.026.22.016.327.043.107.026.206.071.312.099.105.028.208.066.313.096.105.029.205.073.312.102.107.03.211.058.315.089.104.031.206.072.31.104.104.032.228 0 .332.038.104.038.192.114.296.147.104.034.207.072.311.108.103.037.22.031.323.068.102.036.203.077.307.115.104.038.193.108.294.148.101.039.206.071.308.112.101.041.202.083.303.122.101.039.204.079.303.121.1.042.194.103.294.14.1.038.215.054.313.1.099.047.191.108.291.153.1.045.201.085.301.131.1.046.201.086.299.132.098.046.212.062.31.111.099.049.193.105.29.155.097.049.17.14.27.196.099.056.21.069.307.121.097.052.188.111.281.162.093.05.21.071.306.125.097.053.173.14.27.192.097.052.2.091.294.141.094.049.191.108.281.161.09.053.175.132.269.19.095.057.203.087.297.14.094.054.167.141.258.205.092.065.179.127.27.186.091.059.215.074.305.14.09.066.173.141.264.197.091.056.176.131.266.194.089.063.175.129.265.192.09.063.181.122.27.186.088.063.177.126.265.191.089.064.166.14.253.208l.26.198c.087.066.157.151.243.219.086.067.195.104.281.173.086.069.155.154.24.223.086.069.183.121.27.19.087.069.162.14.244.215.083.074.187.115.27.186.083.072.141.179.215.251.075.071.166.14.247.214.082.075.162.141.246.215.084.075.162.141.242.221.08.08.178.129.257.204.079.074.14.161.225.239.084.077.185.12.264.196.078.076.111.198.189.281.079.083.179.129.258.207.078.077.14.167.214.245.075.079.175.141.251.215.075.075.148.162.224.239.076.078.162.141.239.226.077.086.114.191.188.273.075.081.166.14.239.225.073.084.141.17.21.253.068.082.126.179.198.261.071.081.157.152.229.235.071.082.14.171.206.254.066.083.141.168.208.253.067.084.14.165.212.25.072.084.149.161.218.246.069.084.159.151.227.238.069.087.134.175.201.26.068.086.111.19.179.281.067.092.14.17.203.257.064.087.118.184.184.273.067.088.141.167.206.256.064.088.104.193.168.28l.193.266c.064.088.167.149.23.239s.119.184.181.274c.062.09.128.177.19.269.062.093.14.173.195.265.055.091.114.186.174.281.061.094.086.205.141.296.055.091.157.157.215.25.057.093.111.188.17.281.059.093.111.188.17.281.059.093.099.194.157.281.058.087.15.161.207.257.056.096.119.183.175.281.056.098.063.215.12.31.056.096.113.186.17.281.056.096.112.187.167.281.055.094.125.18.178.281.054.101.141.172.195.266.055.094.061.215.116.312.054.097.14.167.199.264s.058.215.108.314c.051.1.103.193.155.29.052.097.108.19.161.281.054.091.103.194.154.291.05.097.155.164.206.262.051.099.058.215.108.315.051.1.12.184.169.281.049.097.074.208.122.306.048.099.129.181.177.281.048.1.067.211.115.309.048.099.108.193.153.292.045.1.1.194.141.294.041.1.063.212.108.312s.1.194.14.295c.041.101.099.194.141.295.042.101.074.206.118.306.043.1.1.194.14.295.041.101.109.193.151.292.042.1.112.19.154.291.042.101.041.221.083.323.042.103.075.207.117.308.042.101.108.194.14.295.033.101.1.195.141.298.04.102.108.192.149.295.04.102.029.225.07.327.041.103.114.191.154.294.041.102.05.215.09.319.041.104.094.198.141.3.046.103.091.2.129.302.038.103.072.207.111.311l.115.309c.038.102.079.205.117.309.038.104.063.211.1.315.036.104.102.196.14.3.038.104.053.215.091.318.038.102.054.215.089.319.035.104.123.189.161.293.038.104.043.219.079.323.037.104.065.227.1.332.14.076.128-.034.333-.054.092-.008.199-.049.323-.053h.329c.118 0 .212.024.326.032.113.009.21.043.323.059.112.017.215.021.323.045.108.024.209.05.317.079.108.03.207.062.312.098.105.037.215.043.319.083.104.041.176.141.281.187.105.046.19.098.281.153.091.055.184.108.281.172.097.063.215.071.302.14.087.069.14.169.228.24.087.072.157.141.237.224.08.083.184.122.26.203.076.082.14.168.211.252.07.084.14.167.205.256.064.088.108.188.17.281.061.092.122.178.178.273.056.096.104.19.156.281.052.092.124.18.173.281.049.102.064.208.108.311.043.102.104.189.14.293.037.104.051.213.089.317.038.103.083.199.117.306.033.107.068.205.099.312.031.106.075.203.103.312.028.108.019.214.045.325.025.111.088.203.111.311.022.108 0 .222.018.33.018.108.076.207.094.316.018.11.028.215.044.323.015.108.032.215.046.323.014.109-.01.221 0 .33.01.11.035.215.044.324.008.108.019.215.026.326.007.11.026.214.031.325.006.111.047.215.051.326.004.111.008.215.011.329.003.114 0 .215 0 .329 0 .114.013.215.013.329 0 .113-.013.214-.014.327-.002.112 0 .215 0 .329 0 .113-.036.215-.04.326-.004.11 0 .214-.01.327-.009.112-.008.215-.014.327-.005.113-.032.215-.04.323-.009.108.015.219 0 .329-.016.11-.033.215-.043.323-.009.108 0 .215-.016.327-.017.113 0 .22-.01.329-.01.11-.061.212-.073.323-.013.111-.031.215-.044.323-.012.109-.032.215-.045.323-.012.109-.012.215-.026.326-.015.111 0 .221-.014.329-.015.108-.012.218-.029.327-.016.11-.033.215-.05.324-.017.108-.035.214-.054.323-.018.108-.089.206-.108.314-.018.109.023.225 0 .333-.022.108-.09.205-.108.314-.018.108-.032.214-.053.323-.021.108-.044.215-.063.323-.02.108-.033.215-.054.323-.021.108-.06.208-.081.316-.021.108-.017.215-.038.323-.021.108-.03.215-.054.323-.024.108-.08.204-.102.311-.023.106-.018.215-.041.323-.022.108-.062.208-.086.314-.024.107 0 .222-.028.328-.028.105-.043.212-.067.319-.024.106-.104.198-.129.305-.026.106-.034.214-.059.323-.026.108-.065.206-.092.313-.026.107-.019.218-.046.323-.027.105-.091.201-.118.306-.027.106-.041.215-.068.319-.026.104-.068.207-.095.312-.027.105-.045.212-.072.319-.026.107-.06.208-.088.315-.028.106-.011.222-.04.327-.028.105-.082.204-.111.308-.028.104-.075.203-.105.31-.029.107 0 .225-.032.33-.033.106-.08.204-.108.308-.028.104-.043.215-.072.319-.03.104-.063.208-.094.313-.031.105-.082.202-.113.308-.03.105-.053.21-.087.314-.033.104-.071.207-.102.311-.031.104-.059.209-.09.314-.031.106-.053.211-.089.315-.035.104-.099.197-.132.302-.032.106-.022.221-.053.323-.031.103-.097.198-.129.302-.033.104-.078.204-.108.308-.031.104-.05.215-.083.317-.034.103-.087.201-.121.305-.034.104-.065.208-.1.312-.035.104-.022.222-.056.326-.034.104-.093.2-.127.304-.033.104-.053.212-.088.316-.035.104-.09.199-.125.303-.035.104-.024.222-.058.326-.033.104-.118.191-.153.294-.035.102-.049.215-.084.317-.035.103-.07.207-.108.311-.038.104-.061.21-.096.313-.035.102-.091.199-.128.303-.036.104-.068.207-.108.311-.039.104-.074.205-.111.309-.036.104-.057.211-.094.314-.036.104-.108.194-.14.298-.033.104-.034.221-.072.323-.038.103-.091.199-.129.301-.038.103-.101.194-.141.296-.039.103-.043.215-.081.319l-.113.308c-.038.103-.081.202-.119.305-.038.102-.072.206-.108.308-.037.101-.101.193-.141.296-.039.102-.073.205-.111.308-.038.102-.046.215-.085.317-.04.103-.054.212-.093.315-.039.102-.097.196-.141.299-.043.103-.088.199-.127.302-.04.103-.085.201-.124.303-.039.103-.06.211-.101.312-.041.101-.108.194-.141.295-.032.101-.057.212-.097.315-.039.103-.102.194-.14.296-.038.103-.031.222-.072.324-.04.101-.092.198-.132.3-.039.103-.067.208-.108.311-.041.102-.104.194-.14.296-.037.103-.111.191-.152.294-.041.102-.046.215-.089.319-.042.104-.12.188-.161.289-.041.101-.027.225-.069.327-.042.103-.094.198-.14.3-.047.101-.104.193-.141.296-.036.102-.103.194-.14.296-.038.103-.031.225-.072.326-.041.101-.098.197-.141.299-.042.103-.085.201-.126.303-.041.101-.086.2-.128.302-.042.101-.108.192-.15.293-.042.101-.042.219-.083.32-.041.102-.126.185-.169.281-.042.097-.087.201-.129.302-.042.102-.039.221-.083.324-.043.102-.122.185-.166.281-.043.095-.053.214-.098.316-.045.101-.108.192-.152.293-.043.101-.066.211-.108.312-.042.101-.111.191-.154.292-.044.101-.104.194-.148.295-.043.101-.046.219-.09.323-.043.104-.097.199-.14.3-.044.101-.093.199-.141.3l-.132.301c-.043.101-.064.211-.108.312-.043.101-.09.199-.14.3-.051.102-.127.184-.172.281-.045.097-.06.215-.104.315-.043.1-.115.19-.161.291-.047.101-.062.215-.108.315-.047.099-.088.203-.132.303-.045.1-.124.185-.169.281-.045.095-.053.215-.1.317-.046.103-.077.208-.122.308s-.141.18-.185.281c-.045.101-.062.215-.109.315-.046.1-.116.191-.161.292-.045.101-.079.208-.124.31-.045.103-.088.234-.14.336-.155-.05.046-.14.06-.35 0-.091-.027-.202-.02-.328 0-.099.012-.208.019-.326.007-.118 0-.212.007-.329.007-.117.025-.212.029-.326.004-.114.017-.215.021-.327.005-.113.017-.215.02-.328.003-.112-.015-.214-.013-.328.003-.114.04-.215.042-.326.003-.111-.053-.215-.053-.329 0-.114.027-.215.028-.326.002-.111 0-.215.007-.326.007-.111-.019-.215-.019-.327 0-.112.021-.215.021-.327 0-.113.014-.215.014-.328v-.654c0-.113-.03-.215-.031-.328-.002-.112.028-.217.025-.328-.003-.111-.053-.215-.058-.326-.004-.111.023-.22.019-.329-.005-.11.008-.219 0-.329-.009-.109-.042-.215-.047-.323-.004-.108-.017-.215-.022-.323-.006-.108.041-.221.035-.329-.006-.108-.063-.215-.07-.323-.007-.108-.016-.215-.024-.326-.009-.111.013-.22 0-.329-.013-.108-.034-.214-.042-.323-.009-.108-.017-.215-.027-.327-.01-.112.014-.221 0-.33-.014-.11-.022-.215-.034-.327-.011-.113-.028-.215-.039-.326-.011-.111-.073-.212-.086-.323-.012-.111.02-.224 0-.332-.019-.108-.042-.215-.053-.323-.011-.108-.046-.215-.061-.323-.014-.108-.015-.219-.03-.329-.016-.11-.009-.22-.026-.329-.017-.108-.022-.219-.039-.327-.017-.108-.058-.215-.076-.323-.018-.108-.06-.212-.08-.32-.02-.109 0-.224-.022-.331-.023-.106-.096-.205-.117-.311-.021-.107.014-.228-.01-.336-.024-.108-.104-.204-.128-.311-.024-.106-.049-.215-.074-.323-.025-.108-.054-.215-.082-.319-.028-.104-.053-.215-.081-.319-.028-.103-.014-.224-.044-.33-.029-.105-.043-.215-.076-.323-.032-.108-.084-.205-.118-.309-.033-.104-.067-.209-.102-.312-.035-.102-.105-.196-.141-.299-.035-.102-.08-.204-.118-.305-.038-.101-.073-.206-.113-.307-.041-.102-.082-.204-.125-.304-.044-.1-.044-.222-.089-.32s-.108-.193-.154-.291c-.047-.098-.141-.177-.186-.274-.045-.097-.053-.219-.108-.313s-.141-.173-.195-.266c-.055-.092-.108-.189-.162-.281-.053-.091-.104-.191-.154-.289-.051-.098-.13-.18-.179-.281-.049-.101-.038-.223-.083-.323-.045-.1-.09-.198-.133-.299-.044-.101-.132-.182-.174-.281-.043-.1-.087-.201-.127-.304-.039-.102-.024-.223-.062-.327-.038-.104-.094-.198-.13-.302-.037-.104-.09-.2-.125-.305-.035-.105-.035-.215-.068-.323-.032-.108-.071-.207-.102-.312-.031-.105-.093-.201-.124-.306-.031-.106-.057-.211-.086-.318-.028-.106-.036-.215-.064-.323-.028-.108-.084-.203-.111-.309-.027-.105-.03-.215-.054-.323-.023-.108-.059-.211-.084-.317-.025-.107-.063-.21-.087-.317-.024-.106-.02-.219-.044-.325-.023-.107-.039-.215-.061-.324-.023-.108-.045-.214-.068-.323-.022-.108-.078-.208-.099-.314-.022-.107-.043-.215-.062-.323-.02-.109 0-.224-.016-.332-.015-.108-.039-.215-.057-.323-.019-.108-.016-.219-.035-.327-.02-.109-.093-.207-.109-.315-.015-.108 0-.222-.021-.33-.021-.108-.047-.215-.064-.323-.017-.109-.05-.215-.065-.323-.015-.109-.038-.215-.053-.324-.016-.108 0-.222-.02-.33-.02-.108 0-.222-.014-.331-.014-.11-.035-.215-.049-.326-.014-.111-.073-.214-.087-.323-.014-.11.026-.225.014-.335-.013-.109-.076-.215-.089-.323-.012-.108.011-.223 0-.333-.011-.109-.015-.22-.026-.33-.012-.109-.02-.22-.031-.33-.012-.109-.058-.215-.069-.323-.011-.108.015-.223 0-.333-.016-.11-.054-.215-.065-.323-.011-.108.016-.222 0-.332-.015-.109-.062-.215-.071-.323-.01-.108.021-.222.012-.331-.008-.11-.028-.219-.036-.328-.009-.108 0-.22-.016-.328-.015-.108-.053-.215-.063-.323-.01-.109 0-.221-.014-.329-.014-.108 0-.221-.014-.329-.014-.108-.027-.219-.034-.327-.007-.108-.025-.219-.031-.328-.005-.108 0-.22 0-.328v-.329c0-.108-.032-.219-.039-.327-.007-.108-.038-.219-.044-.328-.005-.108.043-.223.037-.331-.006-.108-.045-.219-.051-.329-.005-.109.017-.222.013-.331-.004-.11 0-.222 0-.331 0-.108-.023-.22-.027-.328-.004-.108-.018-.221-.022-.328-.004-.106.024-.223.019-.328-.004-.106-.028-.222-.03-.329-.003-.107-.041-.222-.044-.329-.003-.107 0-.225 0-.329 0-.103-.008-.224-.011-.327-.003-.102.018-.229.017-.327 0-.128-.033-.238-.034-.329.01-.205.178-.229.062-.341l.104.026Z"
            fill="#191919"
        />
        <path
            d="M316.551 354.339c0 .574-.17 1.135-.489 1.612-.318.476-.771.848-1.301 1.067-.53.22-1.113.277-1.676.165-.562-.112-1.079-.388-1.484-.794-.406-.405-.682-.922-.794-1.485-.111-.562-.054-1.145.166-1.675s.592-.983 1.069-1.301c.477-.319 1.037-.488 1.611-.488.769 0 1.506.306 2.049.85.544.543.849 1.281.849 2.049"
            fill="#191919"
        />
        <path
            d="M316.551 354.339c0 .574-.17 1.135-.489 1.612-.318.476-.771.848-1.301 1.067-.53.22-1.113.277-1.676.165-.562-.112-1.079-.388-1.484-.794-.406-.405-.682-.922-.794-1.485-.111-.562-.054-1.145.166-1.675s.592-.983 1.069-1.301c.477-.319 1.037-.488 1.611-.488.769 0 1.506.306 2.049.85.544.543.849 1.281.849 2.049"
            stroke="#191919"
            stroke-width=".149"
            stroke-miterlimit="10"
        />
        <path
            d="M355.774 354.339c0 .574-.17 1.135-.489 1.612-.319.476-.772.848-1.302 1.067-.529.22-1.113.277-1.675.165-.563-.112-1.079-.388-1.485-.794-.405-.405-.681-.922-.793-1.485-.112-.562-.054-1.145.166-1.675.219-.53.591-.983 1.068-1.301.477-.319 1.038-.488 1.612-.488.768 0 1.505.306 2.049.85.543.543.849 1.281.849 2.049"
            fill="#191919"
        />
        <path
            d="M355.774 354.339c0 .574-.17 1.135-.489 1.612-.319.476-.772.848-1.302 1.067-.529.22-1.113.277-1.675.165-.563-.112-1.079-.388-1.485-.794-.405-.405-.681-.922-.793-1.485-.112-.562-.054-1.145.166-1.675.219-.53.591-.983 1.068-1.301.477-.319 1.038-.488 1.612-.488.768 0 1.505.306 2.049.85.543.543.849 1.281.849 2.049"
            stroke="#191919"
            stroke-width=".149"
            stroke-miterlimit="10"
        />
        <path
            d="M319.557 390.046c-.211.017-.411.104-.567.247-.157.142-.262.332-.299.541-.037.208-.005.423.093.611s.255.338.447.427c0 0 10.858 4.885 27.134 2.463.126-.016.249-.057.359-.121.11-.064.207-.15.284-.251.077-.102.133-.218.165-.342.032-.123.038-.252.02-.378-.019-.127-.063-.248-.129-.357-.066-.109-.153-.204-.257-.279-.103-.075-.22-.129-.344-.158-.124-.029-.253-.033-.379-.012-15.786 2.35-26.065-2.31-26.065-2.31-.145-.065-.304-.093-.462-.081Z"
            fill="#191919"
        />
        <path
            d="M333.813 359.515c-.253-.006-.499.087-.683.261-.184.174-.292.414-.301.667-.338 4.617-2.285 8.97-5.504 12.299-1.493 1.283-2.529 3.018-2.95 4.942-.133.735-.112 1.49.062 2.217.174.726.497 1.409.948 2.005.926 1.152 2.251 1.916 3.712 2.14 1.461.224 2.953-.108 4.182-.931.106-.068.197-.157.269-.26.071-.104.122-.22.148-.343.027-.124.029-.251.006-.374-.022-.124-.069-.243-.137-.348-.068-.106-.157-.197-.26-.269-.104-.072-.221-.122-.344-.149-.123-.026-.25-.028-.374-.006-.124.023-.242.07-.348.138-.821.571-1.829.81-2.819.668-.99-.142-1.89-.654-2.519-1.432-.295-.385-.505-.828-.615-1.3-.11-.472-.118-.962-.023-1.437.35-1.512 1.181-2.869 2.369-3.868 3.599-3.665 5.763-8.5 6.097-13.626.009-.254-.083-.5-.255-.686-.173-.186-.412-.296-.665-.306l.004-.002Z"
            fill="#000"
        />
        <path
            d="M356.973 341.567c-2.669-.435-5.403-.221-7.972.623-2.788.916-5.355 2.402-7.538 4.363-.175.179-.272.42-.272.67.001.25.099.49.273.669.175.179.413.282.663.289.25.006.492-.086.676-.256 1.97-1.756 4.281-3.088 6.789-3.911 4.116-1.331 9.545-1.477 15.453 3.607.194.156.44.232.688.21.248-.022.478-.139.64-.328.163-.188.247-.432.232-.68-.014-.249-.124-.482-.307-.651-2.621-2.369-5.85-3.964-9.325-4.605ZM309.55 341.732c-3.47.676-6.69 2.286-9.313 4.655-.183.169-.293.402-.308.65-.014.248.068.492.23.681.162.188.391.307.638.33.248.023.495-.05.689-.205 5.913-5.091 11.347-5.03 15.467-3.777 2.497.769 4.809 2.045 6.789 3.749.187.173.434.265.688.256.255-.009.495-.119.668-.306.173-.186.266-.433.256-.688-.009-.254-.119-.494-.305-.667-2.194-1.903-4.762-3.326-7.538-4.178-2.577-.795-5.306-.966-7.961-.5Z"
            fill="#191919"
        />
        <path
            d="M367.71 353.831c-.218-.01-.436.025-.639.103-.204.077-.391.194-.548.345-.157.151-.282.332-.368.533-.086.2-.13.416-.13.634 0 .218.044.434.13.634.086.201.211.382.368.533.157.151.344.268.548.346.203.077.421.112.639.103h7.164c.218.009.436-.026.639-.103.204-.078.391-.195.548-.346.157-.151.283-.332.368-.533.086-.2.13-.416.13-.634 0-.218-.044-.434-.13-.634-.085-.201-.211-.382-.368-.533-.157-.151-.344-.268-.548-.345-.203-.078-.421-.113-.639-.103h-7.164ZM292.335 353.831c-.218-.01-.435.025-.639.103-.204.077-.391.194-.548.345-.157.151-.282.332-.368.533-.086.2-.13.416-.13.634 0 .218.044.434.13.634.086.201.211.382.368.533.157.151.344.268.548.346.204.077.421.112.639.103h7.173c.417-.018.811-.196 1.099-.497.289-.301.45-.702.45-1.119 0-.417-.161-.818-.45-1.119-.288-.301-.682-.479-1.099-.496h-7.173Z"
            fill="#FAD57D"
        />
        <path
            d="M308.693 369.573c-1.304 0-2.595-.257-3.8-.756-1.205-.499-2.299-1.23-3.221-2.152-.922-.922-1.654-2.017-2.153-3.222-.499-1.204-.755-2.496-.755-3.799v-.03c-.001-2.634 1.045-5.161 2.907-7.024 1.862-1.863 4.388-2.911 7.022-2.912h10.255c2.634.001 5.16 1.049 7.022 2.912s2.908 4.39 2.907 7.024v.03c0 1.303-.256 2.595-.755 3.799-.499 1.205-1.231 2.3-2.153 3.222-.922.922-2.016 1.653-3.221 2.152-1.205.499-2.496.756-3.8.756h-10.255Zm0-2.157h10.255c1.023.006 2.036-.191 2.982-.579.946-.389 1.805-.961 2.529-1.683.723-.723 1.296-1.582 1.685-2.528.39-.945.587-1.959.583-2.981v-.03c.005-1.022-.193-2.036-.582-2.982-.389-.946-.962-1.806-1.685-2.529-.724-.723-1.583-1.296-2.529-1.685s-1.96-.587-2.983-.582h-10.255c-1.023-.005-2.037.193-2.983.582-.946.389-1.805.962-2.528 1.685-.724.723-1.297 1.583-1.686 2.529s-.587 1.96-.582 2.982v.03c-.004 1.022.194 2.036.583 2.981.389.946.962 1.805 1.685 2.528.724.722 1.583 1.294 2.529 1.683.946.388 1.959.585 2.982.579ZM348.257 369.573c-2.635 0-5.161-1.046-7.024-2.908-1.864-1.862-2.911-4.387-2.913-7.021v-.03c.002-2.635 1.049-5.161 2.912-7.024 1.863-1.863 4.39-2.911 7.025-2.912h10.255c2.634.001 5.16 1.049 7.022 2.912s2.907 4.39 2.907 7.024v.03c0 1.303-.257 2.595-.756 3.799-.499 1.205-1.23 2.3-2.152 3.222-.922.922-2.017 1.653-3.221 2.152-1.205.499-2.496.756-3.8.756h-10.255Zm0-2.157h10.255c1.022.006 2.035-.191 2.981-.579.945-.388 1.805-.961 2.527-1.683.723-.723 1.295-1.582 1.684-2.528.388-.946.585-1.959.579-2.981v-.03c.006-1.022-.191-2.036-.579-2.981-.389-.946-.961-1.806-1.684-2.529-.722-.724-1.581-1.296-2.527-1.686-.945-.389-1.959-.587-2.981-.582h-10.255c-1.023-.005-2.037.193-2.983.582-.946.389-1.806.962-2.529 1.685-.723.723-1.296 1.583-1.685 2.529s-.587 1.96-.582 2.982v.03c-.005 1.022.193 2.036.582 2.981.39.946.963 1.805 1.686 2.528.723.722 1.583 1.294 2.529 1.683.946.388 1.959.585 2.982.579Z"
            fill="#191919"
        />
        <path d="M327.242 354.435v1.98h12.547v-1.98h-12.547Z" fill="#191919" />
        <path
            d="M330.197 354.491c-.886.005-1.735.358-2.363.984-.627.626-.983 1.474-.99 2.361v.337c0 .254.101.498.281.678.18.18.424.281.678.281.255 0 .499-.101.679-.281.18-.18.281-.424.281-.678v-.337c-.004-.189.031-.376.101-.551.071-.174.175-.333.309-.467.133-.133.291-.238.466-.309.174-.071.361-.106.55-.103.128.005.257-.016.378-.061.12-.046.23-.115.324-.204.093-.089.167-.196.218-.314.051-.119.077-.246.078-.375 0-.129-.025-.257-.075-.376-.05-.118-.124-.226-.216-.315-.093-.09-.203-.16-.323-.207-.12-.046-.249-.068-.377-.063h.001ZM337.013 354.491c-.247.009-.482.114-.653.293-.172.178-.268.416-.268.664 0 .248.096.486.268.664.171.179.406.284.653.293.189-.002.376.033.55.104.175.071.333.176.466.309.133.134.238.293.309.467.07.175.105.362.101.551v.337c0 .254.101.498.281.678.18.18.424.281.679.281.254 0 .498-.101.678-.281.18-.18.281-.424.281-.678v-.337c-.004-.886-.357-1.735-.984-2.362-.626-.626-1.475-.98-2.361-.983Z"
            fill="#191919"
        />
    </g>
    <path
        d="m227.846 271.519-5.089-1.097 2.18 4.737-8.158-3.727-1.847 2.312 13.306 6.255 1.473-1.844-1.595-3.451 3.718.795 1.461-1.828-9.037-11.599-1.848 2.313 5.436 7.134ZM248.71 256.816l8.399-6.5-1.873-2.42-5.979 4.627-1.567-2.024 3.559-2.755-1.873-2.42-3.559 2.755-1.566-2.025 5.978-4.627-1.873-2.42-8.398 6.5 8.752 11.309ZM265.221 228.088l-2.735 1.372 6.411 12.782 6.794-3.408-1.372-2.735-4.058 2.036-5.04-10.047ZM299.129 225.301c-.562.982-1.45 1.68-2.55 1.979-2.219.604-4.551-.73-5.155-2.95-.609-2.238.725-4.57 2.945-5.174 1.085-.275 2.213-.167 3.201.414l1.369.767 1.559-2.725-1.369-.767c-1.675-.975-3.694-1.234-5.585-.719-3.898 1.061-6.216 5.111-5.15 9.029 1.061 3.898 5.111 6.216 9.01 5.155 1.916-.5 3.486-1.736 4.45-3.449l.787-1.375-2.725-1.559-.787 1.374ZM322.174 211.041c-4.035.201-7.166 3.681-6.964 7.736.202 4.035 3.662 7.167 7.697 6.966 4.055-.202 7.206-3.664 7.005-7.699-.202-4.055-3.683-7.205-7.738-7.003Zm.576 11.566c-2.297.114-4.289-1.689-4.403-3.986-.117-2.337 1.686-4.329 3.983-4.444 2.337-.116 4.33 1.687 4.446 4.024.115 2.297-1.688 4.289-4.026 4.406ZM358.129 213.615l-5.498 3.962-3.658-5.705-2.357-.449-2.774 14.028 3.006.573 1.796-9.003 3.156 4.917 4.742-3.413-1.639 9.033 3.006.572 2.577-14.066-2.357-.449ZM374.675 232.642l9.718 4.283 1.234-2.801-6.918-3.048 1.033-2.343 4.118 1.815 1.234-2.8-4.118-1.815 1.032-2.343 6.918 3.049 1.234-2.8-9.718-4.283-5.767 13.086ZM417.97 240.53l-2.016 2.301 3.249 2.847-7.408 8.454 2.302 2.017 7.407-8.454 3.249 2.847 2.017-2.301-8.8-7.711ZM441.881 264.033c-2.434-3.225-7.072-3.86-10.312-1.414-3.225 2.434-3.872 7.056-1.438 10.28 2.446 3.241 7.08 3.903 10.304 1.47 3.241-2.446 3.891-7.096 1.446-10.336Zm-9.244 6.975c-1.385-1.836-1.013-4.497.823-5.883 1.868-1.409 4.529-1.037 5.914.799 1.41 1.868 1.038 4.529-.83 5.938-1.836 1.386-4.497 1.014-5.907-.854Z"
        fill="#F7FAFF"
    />
    <path
        d="M383 461.077v13.077M242.336 523.813c-2.803 10.462-7.395 19.281-12.46 25.093-5.163 5.923-10.327 8.227-14.411 7.132-4.084-1.094-7.405-5.671-8.914-13.382-1.481-7.566-1.048-17.499 1.755-27.961s7.395-19.281 12.461-25.093c5.162-5.923 10.326-8.226 14.41-7.132 4.085 1.094 7.405 5.671 8.914 13.382 1.482 7.566 1.049 17.499-1.755 27.961ZM257.072 500.343c-15.038 74.539-27.599 109.777-40.564 100.039-14.588-10.957 28.788-41.193 40.564-56.231M280.552 516.634c-1.461 5.45-3.843 9.999-6.421 12.957-2.676 3.069-5.075 3.937-6.707 3.5-1.632-.438-3.276-2.388-4.058-6.384-.754-3.851-.542-8.982.918-14.432 1.46-5.45 3.842-9.999 6.421-12.957 2.675-3.07 5.075-3.937 6.706-3.5 1.632.438 3.276 2.388 4.058 6.384.754 3.851.543 8.981-.917 14.432ZM286.252 497.692l-6.539 26.808s-.655 4.577 5.231 5.885M337.113 481.477l-16.296 35.005 3.786-30.739c.228-3.024-1.08-5.047-3.307-5.247-2.88-.259-5.025 2.893-5.619 4.839M349.447 474.154l-6.985 35.09M306.476 494.579c.791-3.485-.659-4.848-4.551-5.387-3.892-.539-4.867 2.694-3.569 5.387 3.733 7.745 15.338 12.921 10.625 22.302-4.864 9.679-20.786 5.003-15.557-8.073M401.962 467.615c0-3.269-2.353-5.171-5.495-5.171-2.351 0-4.867 2.694-3.569 5.387 3.733 7.745 15.946 13.251 10.624 22.301-4.829 8.214-19.869 5.599-19.868-8.132M358.41 469.713c.574 1.072 1.342 3.041.939 6.9m-6.305 28.393c2.199-7.613 5.476-20.466 6.305-28.393m0 0c3.051-4.416 11.552-7.872 12.094-.851.481 6.24-3.132 17.781-3.791 23.334-1.264 6.119 6.169 8.544 9.214-1.954"
        stroke="#F7FAFF"
        stroke-width="4"
    />
    <circle cx="258.771" cy="488.538" r="4.53846" stroke="#F7FAFF" stroke-width="4" />
    <circle cx="351.617" cy="463.692" r="4.53846" stroke="#F7FAFF" stroke-width="4" />
    <path
        d="M326.28 589.149c-1.383 5.159-3.636 9.459-6.07 12.252-2.531 2.903-4.769 3.687-6.258 3.288-1.489-.399-3.036-2.197-3.776-5.977-.712-3.635-.513-8.486.869-13.645 1.383-5.158 3.636-9.459 6.07-12.251 2.531-2.903 4.769-3.687 6.258-3.288 1.489.399 3.036 2.197 3.776 5.977.712 3.635.513 8.486-.869 13.644ZM402.125 566.265c-1.382 5.159-3.635 9.459-6.069 12.251-2.531 2.904-4.769 3.688-6.258 3.289-1.49-.399-3.036-2.197-3.776-5.977-.712-3.635-.513-8.486.869-13.645 1.382-5.159 3.636-9.459 6.07-12.251 2.53-2.903 4.769-3.687 6.258-3.288 1.489.399 3.036 2.197 3.776 5.976.711 3.636.513 8.486-.87 13.645ZM457.049 550.573c-1.382 5.159-3.636 9.459-6.069 12.251-2.531 2.903-4.77 3.687-6.259 3.288-1.489-.399-3.035-2.197-3.775-5.976-.712-3.636-.513-8.486.869-13.645 1.382-5.159 3.636-9.459 6.07-12.252 2.53-2.903 4.769-3.687 6.258-3.288 1.489.399 3.035 2.197 3.775 5.977.712 3.635.514 8.486-.869 13.645ZM371.23 527.769l-11.97 65.82M423.713 510.769l-11.97 65.82M371.03 588.358l5.985-32.91L383 522.537c1.83-11.586 22.426-4.973-5.203 32.039M304.539 540.846l-17 79.115M339.849 574.846c1.71-7.846 5.229-10.462 13.076-5.231M334.943 600.673l4.904-25.827M296.545 572.23c12.901-5.046 39.202-18.474 41.199-31.82 2.497-16.682-28.714-7.105-44.32 9.268M397.386 546.73l-43.808 17.654M432.938 536.922l-6.985 35.09"
        stroke="#F7FAFF"
        stroke-width="4"
    />
    <circle cx="435.107" cy="526.461" r="4.53846" stroke="#F7FAFF" stroke-width="4" />
    <div style="width: auto; height: 60px" />
    <defs>
        <clipPath id="b">
            <path fill="#fff" transform="translate(233.922 249.23)" d="M0 0h196.154v196.154H0z" />
        </clipPath>
        <filter
            id="a"
            x="0"
            y="0"
            width="660"
            height="801"
            filterUnits="userSpaceOnUse"
            color-interpolation-filters="sRGB"
        >
            <feFlood flood-opacity="0" result="BackgroundImageFix" />
            <feBlend in="SourceGraphic" in2="BackgroundImageFix" result="shape" />
            <feGaussianBlur stdDeviation="40" result="effect1_foregroundBlur_1411_337" id="css-blur"/>
            <style>
                #css-blur {
                    @media screen and (max-width: 835px) {
                        stdDeviation: 30;
                    }
                }
            </style>
        </filter>
    </defs>
</svg>