<svg width="149" height="165" viewBox="0 0 149 165" fill="none" xmlns="http://www.w3.org/2000/svg">
<g filter="url(#filter0_dd_2697_14708)">
<ellipse cx="74.5" cy="79" rx="67.5" ry="75" fill="#F4E5FF"/>
<ellipse cx="74.5" cy="79" rx="67.5" ry="75" stroke="#F7FAFF" stroke-width="2"/>
</g>
<path d="M58.5 128.233C40.7374 121.894 27.3679 105.287 24.5504 85C24.1878 82.3896 24 79.7183 24 77C24 67.9791 26.0686 59.4748 29.7263 52M90.5 128.233C108.263 121.894 121.632 105.287 124.45 85C124.812 82.3896 125 79.7183 125 77C125 67.9791 122.931 59.4748 119.274 52" stroke="#8547B2"/>
<path fill-rule="evenodd" clip-rule="evenodd" d="M49 61C49 58.7909 50.7909 57 53 57L69 57C71.2091 57 73 58.7909 73 61C73 63.2091 71.2091 65 69 65L53 65C50.7909 65 49 63.2091 49 61ZM41 73C41 70.7909 42.7909 69 45 69H69C71.2091 69 73 70.7909 73 73C73 75.2091 71.2091 77 69 77L45 77C42.7909 77 41 75.2091 41 73ZM53 93C50.7909 93 49 94.7909 49 97C49 99.2091 50.7909 101 53 101L69 101C71.2091 101 73 99.2091 73 97C73 94.7909 71.2091 93 69 93L53 93ZM97 93C99.2091 93 101 94.7909 101 97C101 99.2091 99.2091 101 97 101L81 101C78.7909 101 77 99.2091 77 97C77 94.7909 78.7909 93 81 93H97ZM81 69C78.7909 69 77 70.7909 77 73C77 75.2091 78.7909 77 81 77L105 77C107.209 77 109 75.2091 109 73C109 70.7909 107.209 69 105 69L81 69ZM41 85C41 82.7909 42.7909 81 45 81L69 81C71.2091 81 73 82.7909 73 85C73 87.2091 71.2091 89 69 89L45 89C42.7909 89 41 87.2091 41 85ZM81 81C78.7909 81 77 82.7909 77 85C77 87.2091 78.7909 89 81 89H105C107.209 89 109 87.2091 109 85C109 82.7909 107.209 81 105 81L81 81ZM81 57C78.7909 57 77 58.7909 77 61C77 63.2091 78.7909 65 81 65H97C99.2091 65 101 63.2091 101 61C101 58.7909 99.2091 57 97 57L81 57Z" fill="#8547B2"/>
<path d="M42.6901 44.5909L33 33.7433L37.6823 29.5606C38.4874 28.8414 39.3338 28.371 40.2215 28.1495C41.1092 27.9279 41.9779 27.955 42.8275 28.231C43.6771 28.5069 44.4458 29.0297 45.1334 29.7995C45.8274 30.5764 46.2552 31.4036 46.417 32.2813C46.5824 33.1557 46.4915 34.0242 46.1444 34.8865C45.8009 35.7458 45.216 36.5444 44.3897 37.2825L41.593 39.7808L39.549 37.4926L41.7525 35.5243C42.0985 35.2152 42.3398 34.8917 42.4762 34.554C42.6129 34.2096 42.6457 33.8661 42.5745 33.5234C42.5068 33.1775 42.3357 32.851 42.0613 32.5438C41.7837 32.233 41.4801 32.0281 41.1503 31.9291C40.8209 31.8233 40.4806 31.8226 40.1293 31.9269C39.7784 32.0244 39.43 32.2278 39.0839 32.5369L38.0458 33.4643L45.6351 41.9602L42.6901 44.5909Z" fill="#8547B2"/>
<path d="M60.9723 24.145C61.6461 25.6174 61.9282 26.9906 61.8185 28.2644C61.7069 29.5339 61.2837 30.6518 60.549 31.618C59.8124 32.5799 58.8456 33.3347 57.6487 33.8824C56.4431 34.434 55.2347 34.672 54.0232 34.5962C52.8141 34.5142 51.6928 34.1005 50.6591 33.355C49.6278 32.6033 48.7773 31.4955 48.1074 30.0316C47.4337 28.5591 47.1504 27.1891 47.2578 25.9215C47.3674 24.6477 47.7884 23.5308 48.5208 22.5709C49.2554 21.6047 50.2255 20.8458 51.4311 20.2942C52.628 19.7465 53.8322 19.5105 55.0436 19.5862C56.2531 19.6576 57.3756 20.0682 58.4112 20.818C59.4449 21.5635 60.2986 22.6725 60.9723 24.145ZM57.2782 25.8353C56.9157 25.0431 56.5048 24.424 56.0456 23.978C55.5888 23.5258 55.0918 23.2533 54.5547 23.1606C54.02 23.0616 53.4555 23.1481 52.8614 23.42C52.2672 23.6918 51.8306 24.0634 51.5516 24.5348C51.275 24.9998 51.1562 25.554 51.1955 26.1973C51.237 26.8344 51.4391 27.549 51.8016 28.3413C52.1641 29.1335 52.5737 29.7557 53.0306 30.2079C53.4898 30.6539 53.9868 30.9264 54.5215 31.0253C55.0586 31.118 55.6242 31.0285 56.2184 30.7566C56.8126 30.4847 57.248 30.1162 57.5246 29.6512C57.8036 29.1799 57.9223 28.6257 57.8808 27.9886C57.8416 27.3453 57.6407 26.6275 57.2782 25.8353Z" fill="#8547B2"/>
<path d="M64.9251 30.5175L63.5029 16.0417L69.7512 15.4278C70.8256 15.3223 71.7849 15.4255 72.6291 15.7374C73.4733 16.0494 74.1553 16.5509 74.6752 17.242C75.1951 17.9331 75.5055 18.7923 75.6064 19.8196C75.7083 20.8562 75.5633 21.753 75.1714 22.5099C74.7842 23.2664 74.1938 23.8668 73.4001 24.3111C72.6111 24.7549 71.6653 25.031 70.5627 25.1394L66.8306 25.506L66.5306 22.4526L69.471 22.1637C69.9328 22.1183 70.3207 22.0231 70.6347 21.8781C70.953 21.7278 71.1868 21.5169 71.3362 21.2454C71.4902 20.9733 71.5471 20.6323 71.5069 20.2223C71.4661 19.8077 71.3435 19.4795 71.139 19.238C70.9387 18.9912 70.6676 18.8228 70.3257 18.7327C69.9881 18.6374 69.5884 18.6124 69.1266 18.6578L67.7412 18.7939L68.8551 30.1314L64.9251 30.5175ZM72.7542 23.04L77.026 29.3286L72.7568 29.748L68.5699 23.4511L72.7542 23.04Z" fill="#8547B2"/>
<path d="M80.0204 18.105L80.7155 15L93.0522 17.7618L92.3571 20.8668L88.0877 19.911L85.6052 31.0002L81.8072 30.1499L84.2897 19.0607L80.0204 18.105Z" fill="#8547B2"/>
<path d="M93.4962 33.777L89.8488 31.5736L101.479 21.6062L106.1 24.3972L102.688 39.3298L99.0404 37.1263L101.767 26.4597L101.67 26.4009L93.4962 33.777ZM95.7827 28.4538L102.64 32.5963L101.112 35.1252L94.255 30.9827L95.7827 28.4538Z" fill="#8547B2"/>
<path d="M103.188 40.0534L113.866 30.1758L116.547 33.0744L108.206 40.7914L112.199 45.1081L109.864 47.2689L103.188 40.0534Z" fill="#8547B2"/>
<path d="M68.26 125V131.285C68.26 131.795 68.275 132.25 68.305 132.65C68.335 133.05 68.415 133.395 68.545 133.685C68.675 133.965 68.875 134.18 69.145 134.33C69.425 134.48 69.81 134.555 70.3 134.555C70.79 134.555 71.17 134.48 71.44 134.33C71.72 134.18 71.925 133.965 72.055 133.685C72.185 133.395 72.265 133.05 72.295 132.65C72.325 132.25 72.34 131.795 72.34 131.285V125H73.6V130.985C73.6 131.765 73.56 132.445 73.48 133.025C73.41 133.605 73.255 134.09 73.015 134.48C72.785 134.87 72.45 135.165 72.01 135.365C71.58 135.555 71.01 135.65 70.3 135.65C69.59 135.65 69.015 135.555 68.575 135.365C68.145 135.165 67.81 134.87 67.57 134.48C67.34 134.09 67.185 133.605 67.105 133.025C67.035 132.445 67 131.765 67 130.985V125H68.26Z" fill="#8547B2"/>
<path d="M83.4191 135.47H81.9941L80.7491 133.385L79.3691 131.105H79.3091L77.8841 133.385L76.5641 135.47H75.1841L78.6041 130.13L75.3791 125H76.8041L78.0191 127.025L79.3241 129.14H79.3841L80.6741 127.025L81.9341 125H83.3141L80.0741 130.115L83.4191 135.47Z" fill="#8547B2"/>
<defs>
<filter id="filter0_dd_2697_14708" x="0" y="0" width="149" height="165" filterUnits="userSpaceOnUse" color-interpolation-filters="sRGB">
<feFlood flood-opacity="0" result="BackgroundImageFix"/>
<feColorMatrix in="SourceAlpha" type="matrix" values="0 0 0 0 0 0 0 0 0 0 0 0 0 0 0 0 0 0 127 0" result="hardAlpha"/>
<feOffset dy="4"/>
<feGaussianBlur stdDeviation="3"/>
<feComposite in2="hardAlpha" operator="out"/>
<feColorMatrix type="matrix" values="0 0 0 0 0 0 0 0 0 0 0 0 0 0 0 0 0 0 0.05 0"/>
<feBlend mode="normal" in2="BackgroundImageFix" result="effect1_dropShadow_2697_14708"/>
<feColorMatrix in="SourceAlpha" type="matrix" values="0 0 0 0 0 0 0 0 0 0 0 0 0 0 0 0 0 0 127 0" result="hardAlpha"/>
<feOffset dy="1"/>
<feGaussianBlur stdDeviation="2"/>
<feComposite in2="hardAlpha" operator="out"/>
<feColorMatrix type="matrix" values="0 0 0 0 0 0 0 0 0 0 0 0 0 0 0 0 0 0 0.1 0"/>
<feBlend mode="normal" in2="effect1_dropShadow_2697_14708" result="effect2_dropShadow_2697_14708"/>
<feBlend mode="normal" in="SourceGraphic" in2="effect2_dropShadow_2697_14708" result="shape"/>
</filter>
</defs>
</svg>
