<!-- <svg width="176" height="176" fill="none" xmlns="http://www.w3.org/2000/svg">
    <rect class="sticker-shadow" x="87.7734" width="124.13" height="124.13" rx="6" transform="rotate(45 87.7734 0)" fill="#E5FFE8" stroke="#F7FAFF" stroke-width="2"/>
    <rect x="27.7734" y="86" width="5.65685" height="5.65685" rx="1" transform="rotate(45 27.7734 86)" fill="#73B5BF"/>
    <rect x="147.773" y="86" width="5.65685" height="5.65685" rx="1" transform="rotate(45 147.773 86)" fill="#73B5BF"/>
    <rect x="87.5469" y="144.773" width="5.65685" height="5.65685" rx="1" transform="rotate(45 87.5469 144.773)" fill="#73B5BF"/>
    <path d="M74.5373 121.706 90.4193 82h-15.882l-8.1282 23.829-7.7537-23.8236h-15.882l15.882 39.7056 15.8819-.005ZM101.003 82.0122 85.1211 121.718h15.8819l8.13-23.8238 7.753 23.8238h15.882l-15.883-39.7058h-15.882ZM86.2929 58.7729h1.4176v5.2738c0 .5998-.1361 1.102-.4083 1.5067-.2721.4047-.6426.7101-1.1113.916-.465.2024-.9848.3035-1.5594.3035-.5935 0-1.1227-.1011-1.5877-.3035-.4649-.2059-.8316-.5113-1.1-.916-.2646-.4047-.3969-.9069-.3969-1.5067v-5.2738h1.4176v5.2738c0 .3794.068.6919.2041.9376.1361.2421.3289.421.5784.5366.2494.1156.5443.1735.8845.1735.3402 0 .6332-.0579.8789-.1735.2495-.1156.4423-.2945.5784-.5366.1361-.2457.2041-.5582.2041-.9376v-5.2738ZM90.3415 58.7729l1.7522 2.8781 1.7521-2.8781h1.6387l-2.4949 3.9079 2.5573 3.9837h-1.6558l-1.7974-2.9322-1.7975 2.9322h-1.6614l2.5629-3.9837-2.5006-3.9079h1.6444ZM61.0142 63.9011l-6.0535-8.0971 2.1038-2.7269 7.4125 11.249-1.3597 1.7624-2.1031-2.1874Zm-9.1476-4.0866 9.2975 3.8923 2.6384 1.4935-1.3758 1.7832-12.6533-4.4561 2.0932-2.7129ZM66.5675 48.0575l3.5075 9.9652-2.6404 1.977-3.8417-13.0653 1.6739-1.2533 1.3007 2.3764Zm8.0528 6.5619-8.487-6.2367-1.9171-1.9151 1.6949-1.269 11.3566 7.4386-2.6474 1.9822Zm-2.9281-3.7529 1.4124 1.9096-5.2317 3.9173-1.4124-1.9097 5.2317-3.9172ZM74.5673 39.5943l4.8236-1.3334c.9429-.2606 1.8008-.3459 2.5738-.2559.773.0899 1.4231.3596 1.9502.8091.5327.4478.9101 1.0783 1.1321 1.8914.1927.7058.2444 1.3262.1551 1.861-.0894.5348-.2881 1.0118-.5961 1.4309-.304.412-.6872.7881-1.1495 1.1285l-.8178.8181-4.0492 1.1193-.6436-2.2907 2.9969-.8284c.376-.1039.669-.2578.8789-.4615.21-.2038.3427-.447.3984-.7296.0597-.2898.0417-.6097-.0539-.9598-.0971-.3557-.2449-.6428-.4434-.8612-.1984-.2184-.4424-.3605-.732-.4262-.2839-.0672-.6083-.0505-.9731.0504l-1.8688.5166 2.7406 10.0367-2.9548.8168-3.3674-12.3321ZM84.644 50.0718l-4.2001-4.7053 3.127-.8826 4.2037 4.5859.0347.1271-3.1653.8749ZM98.361 37.1383l3.023.5025-1.353 8.2416c-.1613.9822-.5018 1.7802-1.0214 2.3942-.5187.6082-1.1741 1.0245-1.966 1.249-.7919.2245-1.6846.2541-2.678.089-.9819-.1632-1.8177-.4802-2.5072-.9509-.6839-.4698-1.1799-1.0775-1.4881-1.8232-.3015-.7504-.3716-1.6168-.2103-2.5989L91.5133 36l3.0319.504-1.3533 8.2416c-.0854.5199-.0804.957.0148 1.3111.0962.3484.2755.6215.5379.8195.2625.1979.5975.3308 1.0052.3985.4135.0688.7732.0514 1.0792-.052.3061-.1035.5574-.3051.7541-.6047.1977-.3055.3392-.7182.4245-1.2382l1.3534-8.2415ZM117.211 45.619l-6.945 10.7113-2.559-1.6798.556-9.1367-4.322 6.6651-2.566-1.6845 6.945-10.7113 2.566 1.6845-.556 9.1368 4.322-6.6652 2.559 1.6798ZM123.969 56.013l-9.711 4.0365-2.098-2.5515 12.771-4.5315 1.33 1.6175-2.292 1.429Zm-6.099 8.4288 5.754-8.8484 1.803-2.0246 1.346 1.6378L119.974 67l-2.104-2.5582Zm3.575-3.1351-1.823 1.5174-4.157-5.0556 1.823-1.5173 4.157 5.0555Z" fill="#73B5BF"/>
</svg> -->

<svg width="186" height="187" viewBox="0 0 186 187" fill="none"
    xmlns="http://www.w3.org/2000/svg">
    <g filter="url(#filter0_dd_1641_1299)">
        <rect x="92.7734" y="2" width="124.13" height="124.13" rx="6" transform="rotate(45 92.7734 2)" fill="#E5FFE8"/>
        <rect x="92.7734" y="2" width="124.13" height="124.13" rx="6" transform="rotate(45 92.7734 2)" stroke="#F7FAFF" stroke-width="2"/>
    </g>
    <rect x="32.7734" y="88" width="5.65685" height="5.65685" rx="1" transform="rotate(45 32.7734 88)" fill="#73B5BF"/>
    <rect x="152.773" y="88" width="5.65685" height="5.65685" rx="1" transform="rotate(45 152.773 88)" fill="#73B5BF"/>
    <rect x="92.5469" y="146.773" width="5.65685" height="5.65685" rx="1" transform="rotate(45 92.5469 146.773)" fill="#73B5BF"/>
    <path d="M79.5373 123.706L95.4193 84H79.5373L71.4091 107.829L63.6554 84.0054H47.7734L63.6554 123.711L79.5373 123.706Z" fill="#73B5BF"/>
    <path d="M106.003 84.0122L90.1211 123.718H106.003L114.133 99.8942L121.886 123.718H137.768L121.885 84.0122H106.003Z" fill="#73B5BF"/>
    <path d="M91.2929 60.7729H92.7105V66.0467C92.7105 66.6465 92.5744 67.1487 92.3022 67.5534C92.0301 67.9581 91.6596 68.2635 91.1909 68.4694C90.7259 68.6718 90.2061 68.7729 89.6315 68.7729C89.038 68.7729 88.5088 68.6718 88.0438 68.4694C87.5789 68.2635 87.2122 67.9581 86.9438 67.5534C86.6792 67.1487 86.5469 66.6465 86.5469 66.0467V60.7729H87.9645V66.0467C87.9645 66.4261 88.0325 66.7386 88.1686 66.9843C88.3047 67.2264 88.4975 67.4053 88.747 67.5209C88.9964 67.6365 89.2913 67.6944 89.6315 67.6944C89.9717 67.6944 90.2647 67.6365 90.5104 67.5209C90.7599 67.4053 90.9527 67.2264 91.0888 66.9843C91.2249 66.7386 91.2929 66.4261 91.2929 66.0467V60.7729Z" fill="#73B5BF"/>
    <path d="M95.3415 60.7729L97.0937 63.651L98.8458 60.7729H100.485L97.9896 64.6808L100.547 68.6645H98.8911L97.0937 65.7323L95.2962 68.6645H93.6348L96.1977 64.6808L93.6971 60.7729H95.3415Z" fill="#73B5BF"/>
    <path d="M66.0142 65.9011L59.9607 57.804L62.0645 55.0771L69.477 66.3261L68.1173 68.0885L66.0142 65.9011ZM56.8666 61.8145L66.1641 65.7068L68.8025 67.2003L67.4267 68.9835L54.7734 64.5274L56.8666 61.8145Z" fill="#73B5BF"/>
    <path d="M71.5675 50.0575L75.075 60.0227L72.4346 61.9997L68.5929 48.9344L70.2668 47.6811L71.5675 50.0575ZM79.6203 56.6194L71.1333 50.3827L69.2162 48.4676L70.9111 47.1986L82.2677 54.6372L79.6203 56.6194ZM76.6922 52.8665L78.1046 54.7761L72.8729 58.6934L71.4605 56.7837L76.6922 52.8665Z" fill="#73B5BF"/>
    <path d="M79.5673 41.5943L84.3909 40.2609C85.3338 40.0003 86.1917 39.915 86.9647 40.005C87.7377 40.0949 88.3878 40.3646 88.9149 40.8141C89.4476 41.2619 89.825 41.8924 90.047 42.7055C90.2397 43.4113 90.2914 44.0317 90.2021 44.5665C90.1127 45.1013 89.914 45.5783 89.606 45.9974C89.302 46.4094 88.9188 46.7855 88.4565 47.1259L87.6387 47.944L83.5895 49.0633L82.9459 46.7726L85.9428 45.9442C86.3188 45.8403 86.6118 45.6864 86.8217 45.4827C87.0317 45.2789 87.1644 45.0357 87.2201 44.7531C87.2798 44.4633 87.2618 44.1434 87.1662 43.7933C87.0691 43.4376 86.9213 43.1505 86.7228 42.9321C86.5244 42.7137 86.2804 42.5716 85.9908 42.5059C85.7069 42.4387 85.3825 42.4554 85.0177 42.5563L83.1489 43.0729L85.8895 53.1096L82.9347 53.9264L79.5673 41.5943ZM89.644 52.0718L85.4439 47.3665L88.5709 46.4839L92.7746 51.0698L92.8093 51.1969L89.644 52.0718Z" fill="#73B5BF"/>
    <path d="M103.361 39.1383L106.384 39.6408L105.031 47.8824C104.87 48.8646 104.529 49.6626 104.01 50.2766C103.491 50.8848 102.836 51.3011 102.044 51.5256C101.252 51.7501 100.359 51.7797 99.3656 51.6146C98.3837 51.4514 97.5479 51.1344 96.8584 50.6637C96.1745 50.1939 95.6785 49.5862 95.3703 48.8405C95.0688 48.0901 94.9987 47.2237 95.16 46.2416L96.5133 38L99.5452 38.504L98.1919 46.7456C98.1065 47.2655 98.1115 47.7026 98.2067 48.0567C98.3029 48.4051 98.4822 48.6782 98.7446 48.8762C99.0071 49.0741 99.3421 49.207 99.7498 49.2747C100.163 49.3435 100.523 49.3261 100.829 49.2227C101.135 49.1192 101.386 48.9176 101.583 48.618C101.781 48.3125 101.922 47.8998 102.008 47.3798L103.361 39.1383Z" fill="#73B5BF"/>
    <path d="M122.211 47.619L115.266 58.3303L112.707 56.6505L113.263 47.5138L108.941 54.1789L106.375 52.4944L113.32 41.7831L115.886 43.4676L115.33 52.6044L119.652 45.9392L122.211 47.619Z" fill="#73B5BF"/>
    <path d="M128.969 58.013L119.258 62.0495L117.16 59.498L129.931 54.9665L131.261 56.584L128.969 58.013ZM122.87 66.4418L128.624 57.5934L130.427 55.5688L131.773 57.2066L124.974 69L122.87 66.4418ZM126.445 63.3067L124.622 64.8241L120.465 59.7685L122.288 58.2512L126.445 63.3067Z" fill="#73B5BF"/>
    <defs>
        <filter id="filter0_dd_1641_1299" x="0.484375" y="0.485352" width="184.578" height="185.576" filterUnits="userSpaceOnUse" color-interpolation-filters="sRGB">
            <feFlood flood-opacity="0" result="BackgroundImageFix"/>
            <feColorMatrix in="SourceAlpha" type="matrix" values="0 0 0 0 0 0 0 0 0 0 0 0 0 0 0 0 0 0 127 0" result="hardAlpha"/>
            <feOffset dy="4"/>
            <feGaussianBlur stdDeviation="3"/>
            <feComposite in2="hardAlpha" operator="out"/>
            <feColorMatrix type="matrix" values="0 0 0 0 0 0 0 0 0 0 0 0 0 0 0 0 0 0 0.05 0"/>
            <feBlend mode="normal" in2="BackgroundImageFix" result="effect1_dropShadow_1641_1299"/>
            <feColorMatrix in="SourceAlpha" type="matrix" values="0 0 0 0 0 0 0 0 0 0 0 0 0 0 0 0 0 0 127 0" result="hardAlpha"/>
            <feOffset dy="1"/>
            <feGaussianBlur stdDeviation="2"/>
            <feComposite in2="hardAlpha" operator="out"/>
            <feColorMatrix type="matrix" values="0 0 0 0 0 0 0 0 0 0 0 0 0 0 0 0 0 0 0.1 0"/>
            <feBlend mode="normal" in2="effect1_dropShadow_1641_1299" result="effect2_dropShadow_1641_1299"/>
            <feBlend mode="normal" in="SourceGraphic" in2="effect2_dropShadow_1641_1299" result="shape"/>
        </filter>
    </defs>
</svg>
    