<svg width="165" height="166" fill="none"
  xmlns="http://www.w3.org/2000/svg">
  <g filter="url(#a)">
    <circle cx="82.8555" cy="79.856" r="75" fill="#FFE5E9"/>
    <circle cx="82.8555" cy="79.856" r="75" stroke="#F7FAFF" stroke-width="2"/>
  </g>
  <path d="M145.353 87.8556c-.367 2.8994-.932 5.7373-1.679 8.5-2.594 9.5824-7.392 18.2594-13.817 25.4524M20.3594 87.8556c.3674 2.8994.9319 5.7373 1.6796 8.5 2.5936 9.5824 7.3917 18.2594 13.8165 25.4524M140.355 54.0718c-3.248-7.2321-7.82-13.7404-13.408-19.2162-5.483-5.3727-11.943-9.7514-19.09-12.8444M25.4547 53.8556c3.2418-7.1457 7.7786-13.5789 13.3109-19 5.4827-5.3727 11.9433-9.7514 19.0899-12.8444" stroke="#FB7680"/>
  <path d="M70.8555 53.856c-15.0943 0-14.7489 14.9293-14.7489 14.9293l.1434 8.5289s3.293-8.5289 12.808-8.5289h32.048c15.34 0 14.755-14.7666 14.749-14.9053h-.037l.037-.0233-44.9995-.0007Zm.3138 18.6623c-15.0942 0-14.7489 14.9293-14.7489 14.9293l.1434 8.5289s3.2931-8.5289 12.808-8.5289H101.42c15.34 0 14.755-14.7666 14.749-14.9052h-.037l.037-.0233h-7.994s-13.2337.0001-19.4014 0c-6.1676-.0001-17.6043-.0008-17.6043-.0008Z" fill="#FB7680"/>
  <path d="M71.483 91.1682c-15.0943 0-14.7489 14.9288-14.7489 14.9288H74.734c15.3401 0 14.7543-14.7661 14.7485-14.9048h-.0366l.0369-.0232H71.4624l.0206-.0008Z" fill="#FB7680"/>
  <circle cx="20.8555" cy="70.856" r="2" fill="#FB7680"/>
  <circle cx="144.855" cy="70.856" r="2" fill="#FB7680"/>
  <path d="m40.1875 133.231 5.8797-8.663 5.7465 3.9-1.0361 1.527-3.8848-2.637-1.3478 1.986 3.4752 2.359-1.0361 1.526-3.4752-2.358-2.4597 3.624-1.8617-1.264ZM52.3871 140.559l3.9779-9.685 6.1883 2.542-.7009 1.707-4.1071-1.687-.9118 2.22 3.9683 1.63-.701 1.706-3.9683-1.63-.9631 2.345 4.107 1.687-.7009 1.707-6.1884-2.542ZM71.0214 146.178l-.1883-2.598-2.8167-.524-1.0948 2.36-2.2416-.417 4.701-9.775 3.1264.581.8736 10.812-2.3596-.439Zm-.4747-8.525-.118-.022-1.7266 3.707 2.1236.394-.279-4.079ZM84.221 138.282l.2168 8.622-2.2492.057-.2168-8.623-3.0141.076-.0464-1.844 8.2774-.208.0464 1.844-3.0141.076ZM97.6664 140.564l-2.5712.599.9932 4.266-2.206.513-2.3742-10.197 2.206-.513.9626 4.134 2.5712-.599-.9626-4.134 2.206-.514 2.3746 10.198-2.2063.513-.9933-4.266ZM107.815 141.873l-4.405-9.498 6.069-2.814.776 1.673-4.028 1.868 1.01 2.178 3.892-1.805.776 1.673-3.892 1.805 1.067 2.3 4.027-1.868.777 1.674-6.069 2.814ZM122.118 133.843l-1.775 1.333-6.288-8.372 3.238-2.432c.408-.306.82-.516 1.236-.628.41-.12.81-.145 1.2-.076.398.064.776.218 1.134.461.358.244.69.57.997.978.444.591.698 1.195.76 1.811.063.616-.091 1.169-.461 1.66l4.157 2.112-1.967 1.477-3.737-2.052-.827.621 2.333 3.107Zm-2.347-5.273c.424-.318.656-.617.696-.897.047-.286-.067-.613-.343-.981l-.27-.36c-.277-.368-.559-.568-.847-.602-.28-.04-.632.099-1.055.418l-1.032.774 1.82 2.423 1.031-.775ZM76.3147 13.3857v6.285c0 .51.015.965.045 1.365s.11.745.24 1.035c.13.28.33.495.6.645.28.15.665.225 1.155.225s.87-.075 1.14-.225c.28-.15.485-.365.615-.645.13-.29.21-.635.24-1.035.03-.4.045-.855.045-1.365v-6.285h1.26v5.985c0 .78-.04 1.46-.12 2.04-.07.58-.225 1.065-.465 1.455-.23.39-.565.685-1.005.885-.43.19-1 .285-1.71.285s-1.285-.095-1.725-.285c-.43-.2-.765-.495-1.005-.885-.23-.39-.385-.875-.465-1.455-.07-.58-.105-1.26-.105-2.04v-5.985h1.26ZM91.4738 23.8557h-1.425l-1.245-2.085-1.38-2.28h-.06l-1.425 2.28-1.32 2.085h-1.38l3.42-5.34-3.225-5.13h1.425l1.215 2.025 1.305 2.115h.06l1.29-2.115 1.26-2.025h1.38l-3.24 5.115 3.345 5.355Z" fill="#FB7680"/>
  <defs>
    <filter id="a" x=".855469" y=".855957" width="164" height="165" filterUnits="userSpaceOnUse" color-interpolation-filters="sRGB">
      <feFlood flood-opacity="0" result="BackgroundImageFix"/>
      <feColorMatrix in="SourceAlpha" values="0 0 0 0 0 0 0 0 0 0 0 0 0 0 0 0 0 0 127 0" result="hardAlpha"/>
      <feOffset dy="4"/>
      <feGaussianBlur stdDeviation="3"/>
      <feComposite in2="hardAlpha" operator="out"/>
      <feColorMatrix values="0 0 0 0 0 0 0 0 0 0 0 0 0 0 0 0 0 0 0.05 0"/>
      <feBlend in2="BackgroundImageFix" result="effect1_dropShadow_1592_1255"/>
      <feColorMatrix in="SourceAlpha" values="0 0 0 0 0 0 0 0 0 0 0 0 0 0 0 0 0 0 127 0" result="hardAlpha"/>
      <feOffset dy="1"/>
      <feGaussianBlur stdDeviation="2"/>
      <feComposite in2="hardAlpha" operator="out"/>
      <feColorMatrix values="0 0 0 0 0 0 0 0 0 0 0 0 0 0 0 0 0 0 0.1 0"/>
      <feBlend in2="effect1_dropShadow_1592_1255" result="effect2_dropShadow_1592_1255"/>
      <feBlend in="SourceGraphic" in2="effect2_dropShadow_1592_1255" result="shape"/>
    </filter>
  </defs>
</svg>
