<svg width="222" height="96" fill="none"
    xmlns="http://www.w3.org/2000/svg">
    <g filter="url(#a)">
        <rect x="7.81641" y="4.78076" width="207.184" height="79.4204" rx="20" fill="#191919"/>
        <rect x="7.81641" y="4.78076" width="207.184" height="79.4204" rx="20" stroke="#F7FAFF" stroke-width="2"/>
    </g>
    <path d="M99.7255 66.0727h-.9013l3.4258-9.4174h.92l3.425 9.4174h-.901l-2.952-8.3h-.064l-2.9525 8.3Zm.6485-3.6097h4.672v.7725h-4.672v-.7725ZM108.209 66.0727v-9.4174h3.04c.668 0 1.226.1211 1.674.3632.45.2392.789.5718 1.016.9979.23.423.345.9089.345 1.4577 0 .5487-.115 1.0331-.345 1.453-.227.42-.564.748-1.012.9841-.447.236-1.002.3541-1.664.3541h-2.589v-.7863h2.566c.49 0 .898-.0813 1.223-.2438.328-.1624.572-.3939.731-.6943.163-.3004.244-.656.244-1.0668 0-.4108-.081-.7695-.244-1.076-.162-.3097-.408-.5488-.736-.7174-.325-.1686-.735-.2529-1.232-.2529h-2.157v8.6449h-.86Zm4.153-4.2489 2.317 4.2489h-.993l-2.294-4.2489h.97ZM115.808 57.4278v-.7725h6.829v.7725h-2.985v8.6449h-.859v-8.6449h-2.985Z" fill="#fff"/>
    <path fill-rule="evenodd" clip-rule="evenodd" d="M66.5195 61.3247h25.898v.8633h-25.898v-.8633ZM130.398 61.3247h25.898v.8633h-25.898v-.8633Z" fill="#F7FAFF"/>
    <path d="M41.6799 56.8528 34.125 36.7729l8.7065-3.2757c1.5295-.5755 2.8914-.8528 4.0856-.8321 1.2008.0183 2.2073.3037 3.0195.8562.8188.55 1.4201 1.3349 1.8037 2.3546.2779.7386.3678 1.4733.2697 2.2042-.0916.7283-.3508 1.4079-.7776 2.0385-.4292.6242-1.0033 1.161-1.7221 1.6105l.0738.1961c.8751-.2919 1.7419-.3681 2.6003-.2284.8559.1331 1.6259.4739 2.3098 1.0225.6815.542 1.2005 1.2869 1.5571 2.2346.4132 1.0982.4932 2.1836.2402 3.2562-.2465 1.0703-.8037 2.0485-1.6716 2.9347-.868.8861-2.0307 1.6034-3.4883 2.1518l-9.4517 3.5562Zm3.8135-6.4043 2.5492-.9591c.9151-.3443 1.5375-.7725 1.8671-1.2846.3272-.5185.3642-1.1144.1109-1.7877-.1771-.4706-.4349-.8288-.7736-1.0744-.3387-.2457-.7393-.3785-1.202-.3984-.4561-.0224-.962.0709-1.5176.28l-2.6276.9886 1.5936 4.2356Zm-2.8626-7.6084 2.2354-.8411c.4772-.1795.8705-.4133 1.18-.7013.3095-.2881.5126-.6108.6095-.9681.101-.3663.074-.7553-.0809-1.1671-.2337-.621-.6342-1.0112-1.2017-1.1708-.5699-.1662-1.1947-.1213-1.8745.1344l-2.3139.8706 1.4461 3.8434ZM74.4727 25.1248l5.7254-1.0696 2.524 13.5102c.3002 1.6064.1754 3.0684-.3741 4.386-.544 1.3094-1.4394 2.4109-2.6862 3.3046-1.2482.8868-2.775 1.4988-4.5805 1.8362-1.8192.3398-3.4709.3216-4.955-.0547-1.4854-.3833-2.7181-1.0872-3.6982-2.1119-.9744-1.0328-1.6117-2.3524-1.9118-3.9588l-2.5241-13.5103 5.7254-1.0696 2.4317 13.0159c.1218.6522.375 1.2088.7595 1.6698.3833.4541.8558.7779 1.4177.9713.5688.1922 1.1792.2273 1.8314.1055.659-.1231 1.2156-.3763 1.6697-.7596.4542-.3832.778-.8558.9714-1.4176.1921-.5688.2273-1.1792.1054-1.8314l-2.4317-13.016ZM93.0613 44.2659l-1.0769-21.427 5.8171-.2924.8413 16.7398 8.6632-.4354.235 4.6872-14.4797.7278ZM115.804 43.5444l1.516-21.4004 9.279.6576c1.63.1155 2.984.432 4.06.9494 1.084.5178 1.879 1.1973 2.387 2.0384.514.8416.733 1.8058.656 2.8925-.056.7872-.281 1.4924-.675 2.1156-.387.6236-.906 1.1329-1.558 1.5279-.65.388-1.396.6362-2.237.7446l-.015.209c.918.1 1.737.3926 2.459.8778.722.4783 1.279 1.1094 1.672 1.8933.393.777.554 1.6706.482 2.6807-.083 1.1703-.463 2.1901-1.141 3.0592-.671.8696-1.585 1.5259-2.744 1.9689-1.159.443-2.515.6095-4.068.4994l-10.073-.7139Zm6.138-4.2278 2.717.1925c.976.0692 1.72-.0601 2.233-.3878.514-.3347.796-.8608.847-1.5783.036-.5016-.049-.9346-.254-1.2993-.206-.3646-.514-.6525-.926-.8637-.405-.2108-.904-.3371-1.496-.3791l-2.801-.1984-.32 4.5141Zm.575-8.1087 2.383.1688c.508.036.963-.0122 1.365-.1448.401-.1326.72-.341.957-.6252.245-.2908.383-.6556.414-1.0944.047-.6618-.154-1.1837-.603-1.5655-.449-.3889-1.035-.609-1.76-.6603l-2.466-.1748-.29 4.0962ZM158.283 27.4944l5.698 1.2092-2.854 13.4445c-.339 1.5986-1.015 2.9008-2.028 3.9066-1.005 1.0004-2.255 1.6741-3.749 2.0209-1.493.3399-3.138.3192-4.934-.0621-1.811-.3842-3.329-1.0348-4.555-1.9519-1.225-.9239-2.093-2.047-2.605-3.3693-.503-1.3276-.585-2.7908-.246-4.3894l2.853-13.4445 5.698 1.2092-2.749 12.9527c-.138.649-.118 1.2601.06 1.8334.18.5664.492 1.0467.937 1.441.451.3956 1.002.6623 1.651.8001.655.1392 1.266.119 1.833-.0607.566-.1796 1.047-.4917 1.441-.9364.396-.4514.662-1.0017.8-1.6507l2.749-12.9526ZM167.619 52.1346l7.615-20.057 5.446 2.0675-5.95 15.6695 8.109 3.0789-1.666 4.3874-13.554-5.1463Z" fill="#F7FAFF"/>
    <defs>
        <filter id="a" x=".816406" y=".780762" width="221.184" height="94.4204" filterUnits="userSpaceOnUse" color-interpolation-filters="sRGB">
            <feFlood flood-opacity="0" result="BackgroundImageFix"/>
            <feColorMatrix in="SourceAlpha" values="0 0 0 0 0 0 0 0 0 0 0 0 0 0 0 0 0 0 127 0" result="hardAlpha"/>
            <feOffset dy="4"/>
            <feGaussianBlur stdDeviation="3"/>
            <feComposite in2="hardAlpha" operator="out"/>
            <feColorMatrix values="0 0 0 0 0 0 0 0 0 0 0 0 0 0 0 0 0 0 0.05 0"/>
            <feBlend in2="BackgroundImageFix" result="effect1_dropShadow_1592_1400"/>
            <feColorMatrix in="SourceAlpha" values="0 0 0 0 0 0 0 0 0 0 0 0 0 0 0 0 0 0 127 0" result="hardAlpha"/>
            <feOffset dy="1"/>
            <feGaussianBlur stdDeviation="2"/>
            <feComposite in2="hardAlpha" operator="out"/>
            <feColorMatrix values="0 0 0 0 0 0 0 0 0 0 0 0 0 0 0 0 0 0 0.1 0"/>
            <feBlend in2="effect1_dropShadow_1592_1400" result="effect2_dropShadow_1592_1400"/>
            <feBlend in="SourceGraphic" in2="effect2_dropShadow_1592_1400" result="shape"/>
        </filter>
    </defs>
</svg>
  