<svg width="149" height="165" fill="none"
  xmlns="http://www.w3.org/2000/svg">
  <g filter="url(#a)">
    <ellipse cx="74.5" cy="79" rx="67.5" ry="75" fill="#F4E5FF"/>
    <ellipse cx="74.5" cy="79" rx="67.5" ry="75" stroke="#F7FAFF" stroke-width="2"/>
  </g>
  <path fill-rule="evenodd" clip-rule="evenodd" d="M40.3518 37.0335c-9.3058 9.299-15.5086 22.3475-16.6596 37.0058l-.9969-.0783c1.1692-14.8907 7.4717-28.1638 16.9497-37.6348l.7068.7073Zm84.9532 37.0058c-1.151-14.6583-7.354-27.7068-16.66-37.0058l.707-.7073c9.478 9.471 15.78 22.7441 16.949 37.6348l-.996.0783ZM24.449 89.9132c2.36 13.3598 8.9692 25.0278 18.1957 33.2128 1.6329 1.449 3.3478 2.788 5.1356 4.009l-.5639.826c-1.8232-1.245-3.5713-2.611-5.2354-4.087-9.4004-8.34-16.1188-20.212-18.5168-33.7869l.9848-.1739Zm81.903 33.2128c9.227-8.185 15.836-19.853 18.196-33.2128l.985.1739c-2.398 13.5749-9.117 25.4469-18.517 33.7869-1.664 1.476-3.412 2.842-5.236 4.087l-.564-.826c1.788-1.221 3.503-2.56 5.136-4.009ZM69.0565 93.9648V81.0001L51 81v26h22.5348c10.1075 0 17.6486-2.508 22.6604-7.0993 4.6238-4.2362 7.3518-10.4826 7.7528-18.9004l-18.9459-.0001c-.1586 3.953-.9165 7.1331-2.7502 9.3849-2.1859 2.6843-5.4874 3.5797-9.4606 3.5797h-3.7348Zm13.9783-14.6586v-.306L106 79.0003c-.003.6778-.02 1.3445-.05 2C105.11 99.3677 93.643 109 73.5348 109H49V79l22.0565.0001v12.9647h1.7348c.0891 0 .1775-.0005.2652-.0014 7.2331-.0798 9.9758-3.4637 9.9783-12.6572Z" fill="#8547B3"/>
  <path d="M83.0348 78.9999H106v-.7971C106 58.5664 94.8478 49 73.4522 49H49v29.9999h22.0565V66.035h1.5696c7.1043 0 10.4087 2.4335 10.4087 12.5874v.3775ZM54.0291 31.5308l-3.3311-5.2054.3201-.2048c1.4487-.9271 2.4352-.8698 3.7396 1.1686l.0862.1347c1.1966 1.8699 1.0551 2.9103-.4611 3.8805l-.3537.2264Zm-2.3095 6.2981 5.0032-3.2018c4.2621-2.7274 5.2837-6.3255 2.7396-10.3011l-.0754-.118c-2.5226-3.9419-6.0258-4.407-10.3889-1.615l-4.9864 3.191 7.7079 12.0449ZM69.968 29.6775c4.0516-.6284 6.5168-2.8727 5.8241-7.3393l-1.2597-8.1229-5.2967.8214 1.2382 7.9846c.2177 1.4032.2401 2.3308-1.1434 2.5453-1.4032.2176-1.7327-.6016-1.9656-2.1036l-1.2321-7.945-5.2572.8152 1.2567 8.1032c.6528 4.2097 3.4679 5.9184 7.8357 5.2411ZM77.9173 28.7087l10.6364 2.7252 1.0077-3.933-5.5023-1.4097.3177-1.24 4.1073 1.0524.9134-3.5649-4.1074-1.0523.3028-1.1819 5.2117 1.3353 1.0077-3.933-10.3459-2.6507-3.5491 13.8526ZM91.5551 33.4404l4.4119 3.0438 5.804-8.4123 2.848 1.9648 2.316-3.3584-10.1075-6.9733-2.3169 3.3583 2.848 1.9648-5.8035 8.4123ZM60.4531 136h1.875l.84-2.655h4.095l.855 2.655h2.07l-3.54-10.725h-2.61L60.4531 136Zm4.77-9.09 1.575 4.98h-3.165l1.59-4.98ZM71.825 136h1.995v-4.335h1.275L77.9 136h2.16l-3.015-4.635c1.335-.345 2.385-1.2 2.385-2.88v-.06c0-2.19-1.65-3.15-4.005-3.15h-3.6V136Zm1.995-5.76v-3.42h1.605c1.275 0 2.04.42 2.04 1.65v.06c0 1.14-.705 1.71-2.04 1.71H73.82ZM83.5794 136h2.01v-9.15h2.985v-1.575h-7.98v1.575h2.985V136Z" fill="#8547B3"/>
  <defs>
    <filter id="a" x="0" y="0" width="149" height="165" filterUnits="userSpaceOnUse" color-interpolation-filters="sRGB">
      <feFlood flood-opacity="0" result="BackgroundImageFix"/>
      <feColorMatrix in="SourceAlpha" values="0 0 0 0 0 0 0 0 0 0 0 0 0 0 0 0 0 0 127 0" result="hardAlpha"/>
      <feOffset dy="4"/>
      <feGaussianBlur stdDeviation="3"/>
      <feComposite in2="hardAlpha" operator="out"/>
      <feColorMatrix values="0 0 0 0 0 0 0 0 0 0 0 0 0 0 0 0 0 0 0.05 0"/>
      <feBlend in2="BackgroundImageFix" result="effect1_dropShadow_1636_1262"/>
      <feColorMatrix in="SourceAlpha" values="0 0 0 0 0 0 0 0 0 0 0 0 0 0 0 0 0 0 127 0" result="hardAlpha"/>
      <feOffset dy="1"/>
      <feGaussianBlur stdDeviation="2"/>
      <feComposite in2="hardAlpha" operator="out"/>
      <feColorMatrix values="0 0 0 0 0 0 0 0 0 0 0 0 0 0 0 0 0 0 0.1 0"/>
      <feBlend in2="effect1_dropShadow_1636_1262" result="effect2_dropShadow_1636_1262"/>
      <feBlend in="SourceGraphic" in2="effect2_dropShadow_1636_1262" result="shape"/>
    </filter>
  </defs>
</svg>
