<svg width="60" height="55" fill="none"
    xmlns="http://www.w3.org/2000/svg">
    <g filter="url(#a)">
        <path d="M28.611 5.46143c.7698-1.33333 2.6943-1.33334 3.4641 0L52.4267 40.7114c.7698 1.3334-.1925 3-1.7321 3H9.99145c-1.5396 0-2.50186-1.6666-1.73206-3L28.611 5.46143Z" fill="#191919"/>
        <path d="M28.611 5.46143c.7698-1.33333 2.6943-1.33334 3.4641 0L52.4267 40.7114c.7698 1.3334-.1925 3-1.7321 3H9.99145c-1.5396 0-2.50186-1.6666-1.73206-3L28.611 5.46143Z" stroke="#F7FAFF" stroke-width="2"/>
    </g>
    <path d="M28.0046 31.3191h4.25v-.1829c.25-.9553 1.5682-1.7479 2.7273-2.7642.8636-.7927 1.5454-1.687 1.5454-2.9878 0-2.5407-2.1136-4.9228-5.7045-4.9228-3.6136 0-6.1818 2.6667-6.2955 5.8781h4.3637c.1591-1.0163.7273-1.626 1.5682-1.626.8181 0 1.2045.3658 1.2045 1.0569 0 .691-.6818 1.2601-1.4545 1.9105-1.0228.8537-2.2046 1.8293-2.2046 3.374v.2642Zm2.1364 5.1423c1.4318 0 2.5909-.9553 2.5909-2.1341 0-1.1992-1.1591-2.1545-2.5909-2.1545-1.4773 0-2.6364.9553-2.6364 2.1545 0 1.1788 1.1591 2.1341 2.6364 2.1341Z" fill="#FFDD8C"/>
    <defs>
        <filter id="a" x=".988281" y=".461426" width="58.7109" height="54.25" filterUnits="userSpaceOnUse" color-interpolation-filters="sRGB">
            <feFlood flood-opacity="0" result="BackgroundImageFix"/>
            <feColorMatrix in="SourceAlpha" values="0 0 0 0 0 0 0 0 0 0 0 0 0 0 0 0 0 0 127 0" result="hardAlpha"/>
            <feOffset dy="4"/>
            <feGaussianBlur stdDeviation="3"/>
            <feComposite in2="hardAlpha" operator="out"/>
            <feColorMatrix values="0 0 0 0 0 0 0 0 0 0 0 0 0 0 0 0 0 0 0.05 0"/>
            <feBlend in2="BackgroundImageFix" result="effect1_dropShadow_1636_1267"/>
            <feColorMatrix in="SourceAlpha" values="0 0 0 0 0 0 0 0 0 0 0 0 0 0 0 0 0 0 127 0" result="hardAlpha"/>
            <feOffset dy="1"/>
            <feGaussianBlur stdDeviation="2"/>
            <feComposite in2="hardAlpha" operator="out"/>
            <feColorMatrix values="0 0 0 0 0 0 0 0 0 0 0 0 0 0 0 0 0 0 0.1 0"/>
            <feBlend in2="effect1_dropShadow_1636_1267" result="effect2_dropShadow_1636_1267"/>
            <feBlend in="SourceGraphic" in2="effect2_dropShadow_1636_1267" result="shape"/>
        </filter>
    </defs>
</svg>
  