<?xml version="1.0" encoding="UTF-8" standalone="no"?>
<svg
   xmlns:dc="http://purl.org/dc/elements/1.1/"
   xmlns:cc="http://creativecommons.org/ns#"
   xmlns:rdf="http://www.w3.org/1999/02/22-rdf-syntax-ns#"
   xmlns:svg="http://www.w3.org/2000/svg"
   xmlns="http://www.w3.org/2000/svg"
   xmlns:sodipodi="http://sodipodi.sourceforge.net/DTD/sodipodi-0.dtd"
   xmlns:inkscape="http://www.inkscape.org/namespaces/inkscape"
   sodipodi:docname="OK-UX-ICON.svg"
   inkscape:version="1.0 (4035a4fb49, 2020-05-01)"
   id="svg8"
   version="1.1"
   viewBox="0 0 7.9375 7.9375"
   height="7.9375mm"
   width="7.9375mm">
  <defs
     id="defs2" />
  <sodipodi:namedview
     inkscape:window-maximized="0"
     inkscape:window-y="0"
     inkscape:window-x="91"
     inkscape:window-height="1030"
     inkscape:window-width="1375"
     showgrid="false"
     inkscape:document-rotation="0"
     inkscape:current-layer="layer1"
     inkscape:document-units="mm"
     inkscape:cy="-36.586954"
     inkscape:cx="6.7616334"
     inkscape:zoom="5.6"
     inkscape:pageshadow="2"
     inkscape:pageopacity="0.0"
     borderopacity="1.0"
     bordercolor="#666666"
     pagecolor="#ffffff"
     id="base" />
  <metadata
     id="metadata5">
    <rdf:RDF>
      <cc:Work
         rdf:about="">
        <dc:format>image/svg+xml</dc:format>
        <dc:type
           rdf:resource="http://purl.org/dc/dcmitype/StillImage" />
        <dc:title></dc:title>
      </cc:Work>
    </rdf:RDF>
  </metadata>
  <g
     transform="translate(11.636943,-2.7261536)"
     id="layer1"
     inkscape:groupmode="layer"
     inkscape:label="Layer 1">
    <g
       id="g1015">
      <path
         d="m -3.699443,10.613496 -3.9687501,-3.9185913 -3.9687499,3.9553093 7.887609,0.01344 z"
         style="fill:#e0ac63;fill-opacity:1;stroke:none;stroke-width:0.272008;stroke-linecap:square;stroke-miterlimit:10;paint-order:markers stroke fill"
         id="rect863-7"
         sodipodi:nodetypes="ccccc" />
      <path
         id="rect833"
         style="fill:#809bc5;stroke:#809bc5;stroke-width:0.0244594;stroke-linecap:square;stroke-miterlimit:10;paint-order:markers stroke fill"
         d="m -11.624607,2.7385278 v 3.9090505 h -0.01185 a 3.9565202,3.9627123 0 0 0 -5.15e-4,0.041278 3.9565202,3.9627123 0 0 0 3.9565201,3.9627117 3.9565202,3.9627123 0 0 0 3.9565212,-3.9627114 3.9565202,3.9627123 0 0 0 -0.012364,-0.3106188 v -3.63971 z" />
      <path
         id="rect863"
         style="fill:#fad57d;fill-opacity:1;stroke:none;stroke-width:0.272008;stroke-linecap:square;stroke-miterlimit:10;paint-order:markers stroke fill"
         d="m -11.636943,2.7763116 3.9687499,3.9185908 3.9687502,-3.9553088 -7.8876091,-0.01344 z"
         sodipodi:nodetypes="ccccc" />
      <path
         id="rect863-7-3"
         style="fill:#563811;fill-opacity:1;stroke:none;stroke-width:1.02806;stroke-linecap:square;stroke-miterlimit:10;paint-order:markers stroke fill"
         d="M 15 15 L 4.3886719 25.576172 A 14.953777 14.977181 0 0 0 14.953125 29.955078 A 14.953777 14.977181 0 0 0 25.613281 25.478516 L 15 15 z "
         transform="matrix(0.26458333,0,0,0.26458333,-11.636943,2.7261536)" />
    </g>
  </g>
</svg>
