<svg xmlns="http://www.w3.org/2000/svg" width="72.206" height="35" viewBox="0 0 72.206 35">
  <g id="Group_22" data-name="Group 22" transform="translate(-73.465 -35)">
    <g id="Group_10" data-name="Group 10" transform="translate(110.465 35)">
      <path id="Rectangle_1" data-name="Rectangle 1" d="M0,0V5.751L34.606,34.506H0Z" transform="translate(0.6)" fill="#e0ac63"/>
      <path id="Intersection_1" data-name="Intersection 1" d="M0,0,17,14.5,0,29Z" transform="translate(0 6)" opacity="0.1"/>
      <path id="Rectangle_1-2" data-name="Rectangle 1" d="M0,0H0L28.838,34.606H0Z" transform="translate(35.206 0) rotate(90)" fill="#fad57d"/>
    </g>
    <g id="Group_21" data-name="Group 21" transform="translate(73.465 35.1)">
      <ellipse id="Ellipse_1" data-name="Ellipse 1" cx="17" cy="17.45" rx="17" ry="17.45" transform="translate(0 0)" fill="#809bc5"/>
      <path id="Intersection_2" data-name="Intersection 2" d="M3.93,27.979A17.079,17.079,0,0,1,17.143,0,17.106,17.106,0,0,1,28.066,3.918,17.079,17.079,0,0,1,14.857,31.9,17.1,17.1,0,0,1,3.93,27.979Z" transform="translate(0 0)" fill="#99c0ff"/>
    </g>
  </g>
</svg>
